<svg xmlns="http://www.w3.org/2000/svg" xmlns:xlink="http://www.w3.org/1999/xlink" id="Layer_1" x="0px" y="0px" style="enable-background:new 0 0 1596 1018" version="1.1" viewBox="0 0 1596 1018" xml:space="preserve">
    <line x1="1341.5" x2="68" y1="277.5" y2="277.5" style="fill:none;stroke:#00A7E1;stroke-miterlimit:10"/>
    <g>
        <path d="M1402.4,245.3h12c1.1,0,1.5,0.3,2.1,1.1l2.7,3.6C1419.2,250,1414.4,246.6,1402.4,245.3" style="fill:#00A7E1"/>
        <g>
            <path d="M1462,273.7h-16.2c-6.8,0-9.9-1.3-13.2-5.6l-11.8-15.5h7.6c7.2,0,11.3,3.6,11.3,3.6l-6.2-8.5
			c-3-4.1-5.7-5.8-11.8-5.8h-20.1c-4.3,0-6.2-0.6-8.6-3.8l-2.2-3h28.9c11,0,16.1,3.3,21.9,11.1L1462,273.7z" style="fill:#00A7E1"/>
            <g>
                <polygon points="1405.4,301.3 1405.4,279.2 1410.4,279.2 1418.8,291 1427,279.2 1431.8,279.2 
				1431.8,301.3 1427.4,301.3 1427.4,284.9 1418.7,297.4 1409.8,284.9 1409.8,301.3 			" style="fill:#00A7E1"/>
                <polygon points="1485.4,279.2 1489.8,279.2 1489.8,303.3 1485.4,297.8 			" style="fill:#00A7E1"/>
                <path d="M1459.5,279.2h6.1l5.1,6.9l5.5-6.9h6.1l-9.2,9.9l15.4,19.5h-2.6c-2.5,0-4.4-1.4-5.7-3.2
				c-2.4-3.3-10.1-13-10.1-13l-2,2.2c-3.6,4.1-9.1,7.1-17.1,7.1c-9.7,0-14.6-3.4-14.6-12c0-8.4,5.1-11.2,11.8-11.2
				c6.1,0,9.1,3.1,9.1,8.2c0,2.7-0.7,4.4-0.7,4.4H1441c0.3,4.6,3.3,6.9,10,6.9c6.4,0,11.4-2.7,14.7-6.6l1.9-2.2L1459.5,279.2z
				 M1448,282.1c-5,0-6.6,2.7-6.9,5.8h11.7c0,0,0.2-0.5,0.2-1.3C1452.9,283.2,1450.7,282.1,1448,282.1" style="fill:#00A7E1"/>
                <path d="M1515.1,280.4l-1.6,4c0,0-3-1.9-7-1.9c-4.6,0-7.9,1.8-7.9,7.6c0,5.6,2.8,8,8.4,8c5,0,8-2.2,8-2.2
				v4c0,0-2.4,1.8-8.1,1.8c-8.6,0-12.7-3.7-12.7-12c0-8,5-11.2,12.2-11.2C1511.8,278.6,1515.1,280.4,1515.1,280.4" style="fill:#00A7E1"/>
                <path d="M1538.1,288.2v13.1h-4.4v-3.4h-0.2c0,0-2,4-7.6,4c-5.7,0-7.8-3.4-7.8-7.1c0-3.8,2.1-6,2.1-6h13.6
				V288c0-4.3-1.3-5.3-6.3-5.3c-4.3,0-7.3,1.7-7.3,1.7l-1.6-4c0,0,3.9-1.6,9.2-1.6C1534.9,278.6,1538.1,280.4,1538.1,288.2
				 M1526.8,298.4c4.3,0,7-2.6,7-6.2H1523c0,0-0.6,0.7-0.6,2.3C1522.3,296.6,1523.4,298.4,1526.8,298.4" style="fill:#00A7E1"/>
                <polygon points="1543.9,301.3 1543.9,279.2 1548.9,279.2 1561.4,294.9 1561.4,279.2 1565.8,279.2 
				1565.8,301.3 1561.4,301.3 1548.3,284.9 1548.3,301.3 			" style="fill:#00A7E1"/>
                <path d="M1590.5,288.2v13.1h-4.4v-3.4h-0.2c0,0-2,4-7.6,4c-5.7,0-7.8-3.4-7.8-7.1c0-3.8,2.1-6,2.1-6h13.6
				V288c0-4.3-1.3-5.3-6.3-5.3c-4.3,0-7.3,1.7-7.3,1.7l-1.6-4c0,0,3.9-1.6,9.2-1.6C1587.2,278.6,1590.5,280.4,1590.5,288.2
				 M1579.1,298.4c4.3,0,7-2.6,7-6.2h-10.8c0,0-0.6,0.7-0.6,2.3C1574.7,296.6,1575.8,298.4,1579.1,298.4" style="fill:#00A7E1"/>
            </g>
        </g>
    </g>
    <text style="fill:#FFFFFF;font-family:'Titillium Web', sans-serif;font-weight:600;font-size:40px" transform="matrix(1 0 0 1 133.3182 35.3696)">
        project introduction
    </text>
    <text style="fill:#FFFFFF;font-family:'Titillium Web', sans-serif;font-weight:600;font-size:32.3193px" transform="matrix(1 0 0 1 200.0023 77.3696)">
        The history of Mexicana
    </text>
    <g>
        <text style="fill:#00A7E1;font-family:'Titillium Web', sans-serif;font-weight:600;font-size:32.3193px" transform="matrix(1 0 0 1 133.3885 77.3696)">
            1.1
        </text>
    </g>
    <g>
        <text style="fill:#00A7E1;font-family:'Titillium Web', sans-serif;font-weight:600;font-size:32.3193px" transform="matrix(1 0 0 1 403.3885 496.3696)">
            2.1
        </text>
    </g>
    <g>
        <text style="fill:#00A7E1;font-family:'Titillium Web', sans serif;font-size:31px" transform="matrix(1 0 0 1 550.7406 566.126)">
            2.1-1
        </text>
        <text style="fill:#FFFFFF;font-family:'Titillium Web', sans serif;font-size:31px" transform="matrix(1 0 0 1 633.1406 566.126)">
            brief
        </text>
        <text style="fill:#00A7E1;font-family:'Titillium Web', sans serif;font-size:31px" transform="matrix(1 0 0 1 550.7406 608.726)">
            2.1-2
        </text>
        <text style="fill:#FFFFFF;font-family:'Titillium Web', sans serif;font-size:31px" transform="matrix(1 0 0 1 633.1406 608.726)">
            process
        </text>
        <text style="fill:#00A7E1;font-family:'Titillium Web', sans serif;font-size:31px" transform="matrix(1 0 0 1 550.7406 651.326)">
            2.1-3
        </text>
        <text style="fill:#FFFFFF;font-family:'Titillium Web', sans serif;font-size:31px" transform="matrix(1 0 0 1 633.1406 651.326)">
            research
        </text>
    </g>
    <text style="fill:#FFFFFF;font-family:'Eurostile LT', sans-serif;font-weight:600;font-size:100px" transform="matrix(1 0 0 1 7.3501 311.9805)">
        1
    </text>
    <g>
        <text style="fill:#FFFFFF;font-family:'Eurostile LT', sans-serif;font-weight:600;font-size:100px" transform="matrix(1 0 0 1 272.85 315.4805)">
            2
        </text>
    </g>
    <g>
        <text style="fill:#FFFFFF;font-family:'Eurostile LT', sans-serif;font-weight:600;font-size:100px" transform="matrix(1 0 0 1 790.85 311.4805)">
            3
        </text>
    </g>
    <g>
        <text style="fill:#FFFFFF;font-family:'Titillium Web', sans-serif;font-weight:600;font-size:32.3193px" transform="matrix(1 0 0 1 475.0385 730.5825)">
            results
        </text>
    </g>
    <g>
        <text style="fill:#00A7E1;font-family:'Titillium Web', sans-serif;font-weight:600;font-size:32.3193px" transform="matrix(1 0 0 1 403.8885 730.1709)">
            2.2
        </text>
    </g>
    <g>
        <text style="fill:#FFFFFF;font-family:'Titillium Web', sans-serif;font-weight:600;font-size:32.3193px" transform="matrix(1 0 0 1 475.0385 823.8467)">
            values
        </text>
    </g>
    <g>
        <text style="fill:#00A7E1;font-family:'Titillium Web', sans-serif;font-weight:600;font-size:32.3193px" transform="matrix(1 0 0 1 403.8885 823.4355)">
            2.3
        </text>
    </g>
    <g>
        <text style="fill:#FFFFFF;font-family:'Titillium Web', sans-serif;font-weight:600;font-size:32.3193px" transform="matrix(1 0 0 1 475.0385 917.1108)">
            positioning
        </text>
    </g>
    <g>
        <text style="fill:#00A7E1;font-family:'Titillium Web', sans-serif;font-weight:600;font-size:32.3193px" transform="matrix(1 0 0 1 403.8885 916.6997)">
            2.4
        </text>
    </g>
    <g>
        <text style="fill:#FFFFFF;font-family:'Titillium Web', sans-serif;font-weight:600;font-size:32.3193px" transform="matrix(1 0 0 1 475.0385 1010.3755)">
            brand architecture
        </text>
    </g>
    <g>
        <text style="fill:#00A7E1;font-family:'Titillium Web', sans-serif;font-weight:600;font-size:32.3193px" transform="matrix(1 0 0 1 403.8885 1009.9639)">
            2.5
        </text>
    </g>
    <g>
        <text style="fill:#00A7E1;font-family:'Titillium Web', sans-serif;font-weight:600;font-size:32.3193px" transform="matrix(1 0 0 1 922.8881 520.1313)">
            3.1
        </text>
    </g>
    <g>
        <text style="fill:#FFFFFF;font-family:'Titillium Web', sans-serif;font-weight:600;font-size:32.3193px" transform="matrix(1 0 0 1 1002.0385 520.1035)">
            Mexicana &amp; MexicanaClick
        </text>
        <text style="fill:#FFFFFF;font-family:'Titillium Web', sans-serif;font-weight:600;font-size:32.3193px" transform="matrix(1 0 0 1 1002.0385 562.7035)">
            transformed
        </text>
    </g>
    <g>
        <text style="fill:#00A7E1;font-family:'Titillium Web', sans serif;font-size:31px" transform="matrix(1 0 0 1 1096.7406 649.1035)">
            3.1-1
        </text>
        <text style="fill:#FFFFFF;font-family:'Titillium Web', sans serif;font-size:31px" transform="matrix(1 0 0 1 1179.1406 649.1035)">
            positioning
        </text>
        <text style="fill:#00A7E1;font-family:'Titillium Web', sans serif;font-size:31px" transform="matrix(1 0 0 1 1096.7406 691.7035)">
            3.1-2
        </text>
        <text style="fill:#FFFFFF;font-family:'Titillium Web', sans serif;font-size:31px" transform="matrix(1 0 0 1 1179.1406 691.7035)">
            vision
        </text>
        <text style="fill:#00A7E1;font-family:'Titillium Web', sans serif;font-size:31px" transform="matrix(1 0 0 1 1096.7406 734.3035)">
            3.1-3
        </text>
        <text style="fill:#FFFFFF;font-family:'Titillium Web', sans serif;font-size:31px" transform="matrix(1 0 0 1 1179.1406 734.3035)">
            Mexicana transformed
        </text>
        <text style="fill:#00A7E1;font-family:'Titillium Web', sans serif;font-size:31px" transform="matrix(1 0 0 1 1096.7406 776.9035)">
            3.1-4
        </text>
        <text style="fill:#FFFFFF;font-family:'Titillium Web', sans serif;font-size:31px" transform="matrix(1 0 0 1 1179.1406 776.9035)">
            implementation concepts
        </text>
    </g>
    <g>
        <text style="fill:#00A7E1;font-family:'Titillium Web', sans-serif;font-weight:600;font-size:32.3193px" transform="matrix(1 0 0 1 922.8881 870.9111)">
            3.2
        </text>
    </g>
    <g>
        <text style="fill:#FFFFFF;font-family:'Titillium Web', sans-serif;font-weight:600;font-size:32.3193px" transform="matrix(1 0 0 1 1002.0385 870.8833)">
            brand identity
        </text>
    </g>
    <g>
        <text style="fill:#00A7E1;font-family:'Titillium Web', sans serif;font-size:31px" transform="matrix(1 0 0 1 1096.7406 946.7305)">
            3.2-1
        </text>
        <text style="fill:#FFFFFF;font-family:'Titillium Web', sans serif;font-size:31px" transform="matrix(1 0 0 1 1177.7406 946.7305)">
            the brand
        </text>
        <text style="fill:#00A7E1;font-family:'Titillium Web', sans serif;font-size:31px" transform="matrix(1 0 0 1 1096.7406 989.3305)">
            3.2-2
        </text>
        <text style="fill:#FFFFFF;font-family:'Titillium Web', sans serif;font-size:31px" transform="matrix(1 0 0 1 1177.7406 989.3305)">
            mini brand manual
        </text>
    </g>
    <path d="M-38.5,299" style="fill:none;stroke:#FFFFFF;stroke-width:0.5;stroke-miterlimit:10"/>
    <line x1="112" x2="112" y1="19" y2="278" style="fill:none;stroke:#00A7E1;stroke-miterlimit:10"/>
    <line x1="382" x2="382" y1="279" y2="494" style="fill:none;stroke:#00A7E1;stroke-miterlimit:10"/>
    <g>
        <text style="fill:#FFFFFF;font-family:'Titillium Web', sans-serif;font-weight:600;font-size:40px" transform="matrix(1 0 0 1 403.8182 441.5615)">
            Mexicana umbrella
        </text>
    </g>
    <g>
        <text style="fill:#FFFFFF;font-family:'Titillium Web', sans-serif;font-weight:600;font-size:32.3193px" transform="matrix(1 0 0 1 474.8182 496.5615)">
            project sirius
        </text>
    </g>
    <line x1="883" x2="883" y1="279" y2="494" style="fill:none;stroke:#00A7E1;stroke-miterlimit:10"/>
    <g>
        <text style="fill:#FFFFFF;font-family:'Titillium Web', sans-serif;font-weight:600;font-size:40px" transform="matrix(1 0 0 1 904.8182 441.5615)">
            Mexicana international
        </text>
    </g>
    <circle cx="73" cy="278.5" r="9" style="stroke:#00A7E1;stroke-miterlimit:10"/>
    <circle cx="1341.5" cy="278.5" r="9" style="stroke:#00A7E1;stroke-miterlimit:10"/>
</svg>
