<?xml version="1.0" encoding="utf-8"?>
<!-- Generator: Adobe Illustrator 22.0.1, SVG Export Plug-In . SVG Version: 6.00 Build 0)  -->
<svg version="1.1" id="Layer_1" xmlns="http://www.w3.org/2000/svg" xmlns:xlink="http://www.w3.org/1999/xlink" x="0px" y="0px"
	 viewBox="0 0 1232 682" style="enable-background:new 0 0 1232 682;" xml:space="preserve">
<g>
	<text transform="matrix(1 0 0 1 1016.5938 666.8467)" style="fill:#FFFFFF; font-family:'EurostileLT-Demi'; font-size:55px;">product</text>
</g>
<g>
	<text transform="matrix(1 0 0 1 744.9727 48.7812)" style="fill:#FFFFFF; font-family:'EurostileLT-Demi'; font-size:55px;">experience</text>
</g>
<g>
	<text transform="matrix(1 0 0 1 365.7373 48.7812)" style="fill:#FFFFFF; font-family:'EurostileLT-Demi'; font-size:55px;">image</text>
</g>
<g>
	<text transform="matrix(1 0 0 1 4.7637 524.5605)" style="fill:#FFFFFF; font-family:'EurostileLT-Demi'; font-size:55px;">service</text>
</g>
<path style="fill:none;stroke:#00A7E1;stroke-width:4.4412;stroke-miterlimit:10;" d="M680.5,299.3L853,112.5H737.4L634.3,242.4
	l-95.8-129.9H423.9l153.9,190.8l-36.5,42.1c-62.1,71.7-155.9,123.3-276.6,123.3l1.5,69.8c151.2,0,254.1-56.4,321.8-133.1l36.9-41.7
	c0,0,145.3,181,189.6,243.6c23.2,32.8,59.5,59.4,106.9,59.4h48L680.5,299.3z"/>
</svg>
