<?xml version="1.0" encoding="utf-8"?>
<!-- Generator: Adobe Illustrator 22.0.1, SVG Export Plug-In . SVG Version: 6.00 Build 0)  -->
<svg version="1.1" id="Layer_1" xmlns="http://www.w3.org/2000/svg" xmlns:xlink="http://www.w3.org/1999/xlink" x="0px" y="0px"
	 viewBox="0 0 1068 952" style="enable-background:new 0 0 1068 952;" xml:space="preserve">
<g>
	<path style="fill:none;stroke:#00A7E1;stroke-width:3;stroke-miterlimit:10;" d="M834.1,509c-24,0-48.1-8.6-67.3-26l-321-292
		c-40.9-37.2-43.8-100.4-6.7-141.3C476.3,8.9,539.5,5.9,580.4,43l321,292c40.9,37.2,43.8,100.4,6.7,141.3
		C888.3,498,861.2,509,834.1,509z"/>
</g>
<path style="fill:none;stroke:#FFFFFF;stroke-miterlimit:10;" d="M567.9,885.6c-34.4,34.4-85.3,33.9-124.7,0L87.4,587
	c-58.8-46.5-51.9-136,0-187.9l0.2-0.2c51.9-51.9,142-56.4,187.9,0l292.6,361.7c29.5,37.8,34.4,90.3,0,124.7L567.9,885.6z"/>
<line style="fill:none;stroke:#FFFFFF;stroke-width:0.5;stroke-miterlimit:10;" x1="500.1" y1="93" x2="500.1" y2="797"/>
<circle style="stroke:#FFFFFF;stroke-width:0.5;stroke-miterlimit:10;" cx="500.6" cy="93.5" r="7"/>
<circle style="stroke:#FFFFFF;stroke-width:0.5;stroke-miterlimit:10;" cx="501.1" cy="798" r="7"/>
<line style="fill:none;stroke:#FFFFFF;stroke-width:0.5;stroke-miterlimit:10;" x1="853.6" y1="445" x2="149.6" y2="445"/>
<circle style="stroke:#FFFFFF;stroke-width:0.5;stroke-miterlimit:10;" cx="853.1" cy="445.5" r="7"/>
<circle style="stroke:#FFFFFF;stroke-width:0.5;stroke-miterlimit:10;" cx="148.6" cy="446" r="7"/>
<g>
	<text transform="matrix(1 0 0 1 493.9141 29.4863)" style="fill:#FFFFFF; font-family:'Eurostile LT', sans-serif; font-size:30px;">convenience</text>
</g>
<g>
	<text transform="matrix(1 0 0 1 568.9141 232.4863)"><tspan x="0" y="0" style="fill:#FFFFFF; font-family:'Eurostile LT', sans-serif; font-size:30px;">the new</tspan><tspan x="0" y="30" style="fill:#FFFFFF; font-family:'Eurostile LT', sans-serif; font-size:30px;">Mexicana</tspan></text>
</g>
<g>
	<text transform="matrix(1 0 0 1 534.5948 567.4863)" style="fill:#FFFFFF; font-family:'Eurostile LT', sans-serif; font-size:30px;">Aeromexico</text>
</g>
<g>
	<text transform="matrix(1 0 0 1 141.5948 547.4863)" style="fill:#FFFFFF; font-family:'Eurostile LT', sans-serif; font-size:30px;">Interjet</text>
</g>
<g>
	<text transform="matrix(1 0 0 1 893.9141 453.4863)" style="fill:#FFFFFF; font-family:'Eurostile LT', sans-serif; font-size:30px;">experience</text>
</g>
<g>
	<text transform="matrix(1 0 0 1 6.9141 453.4863)"><tspan x="0" y="0" style="fill:#FFFFFF; font-family:'Eurostile LT', sans-serif; font-size:30px;">basic/</tspan><tspan x="0" y="30" style="fill:#FFFFFF; font-family:'Eurostile LT', sans-serif; font-size:30px;">commodity</tspan></text>
</g>
<g>
	<text transform="matrix(1 0 0 1 493.9141 857.4863)" style="fill:#FFFFFF; font-family:'Eurostile LT', sans-serif; font-size:30px;">time</text>
</g>
<path style="fill:none;stroke:#FFFFFF;stroke-miterlimit:10;" d="M698.2,359.6c45.1,18.4,60.4,65.9,48.5,114.9L641.5,858.5
	c-15.5,73.7-105.2,100.7-173.1,73l-0.2-0.1c-68-27.6-113.3-109.6-73-173.1L583,408c25.7-43.4,69.8-66.8,114.9-48.5L698.2,359.6z"/>
<circle style="fill:none;stroke:#FFFFFF;stroke-miterlimit:10;" cx="180.6" cy="489.5" r="123"/>
<g>
	<text transform="matrix(1 0 0 1 285.5948 666.376)" style="fill:#FFFFFF; font-family:'Eurostile LT', sans-serif; font-size:30px;">Volaris</text>
</g>
</svg>
