<svg xmlns="http://www.w3.org/2000/svg" xmlns:xlink="http://www.w3.org/1999/xlink" x="0px" y="0px" style="enable-background:new 0 0 1708 1347.8" version="1.1" viewBox="0 0 1708 1347.8" xml:space="preserve">
    <style type="text/css">
        .dottedLine{fill:none;stroke:#00A7E1;stroke-width:4;stroke-linecap:round;stroke-linejoin:round;stroke-miterlimit:10;stroke-dasharray:2,12;} .hardBlue{fill:#00A7E1;font-family:&apos;Titillium Web&apos;, sans-serif;font-size:30px;font-weight:600;} .softWhite{fill:#FFFFFF;font-family:&apos;Titillium Web&apos;, sans-serif;font-size:30px;}
    </style>
    <g id="text">
        <text transform="matrix(1 0 0 1 7.7237 128.5426)">
            <tspan x="0" y="0" class="hardBlue">brandcore</tspan><tspan x="0" y="46" class="softWhite">The national symbol / icon flying on the international</tspan><tspan x="0" y="92" class="softWhite">skies. Mexicana portrays Mexico and the best of </tspan><tspan x="0" y="138" class="softWhite">present, the spirit of the past and the positiveness </tspan><tspan x="0" y="184" class="softWhite">of the future. Mexico is Mexicana.</tspan>
        </text>
        <text transform="matrix(1 0 0 1 7.7237 398.5426)">
            <tspan x="0" y="0" class="hardBlue">brandenvironment</tspan><tspan x="0" y="46" class="softWhite">Innovation, trend / modernity, freshness, care/ </tspan><tspan x="0" y="92" class="softWhite">consumer orientation, ease + flexibility + low</tspan><tspan x="0" y="138" class="softWhite">friction, speed, out-of-the-box thinking, pride.</tspan>
        </text>
        <text transform="matrix(1 0 0 1 7.7237 643.5426)">
            <tspan x="0" y="0" class="hardBlue">brandphotosphere</tspan><tspan x="0" y="46" class="softWhite">A strong emphasis on emotional comfort with a </tspan><tspan x="0" y="92" class="softWhite">nice ambience is key to all targets and passenger </tspan><tspan x="0" y="138" class="softWhite">classes. Relaxing atmospheres, improved cabin </tspan><tspan x="0" y="184" class="softWhite">look and feel, and attention to details.</tspan>
        </text>
        <text transform="matrix(1 0 0 1 7.7237 963.5426)">
            <tspan x="0" y="0" class="hardBlue">brandgravity</tspan><tspan x="0" y="46" class="softWhite">Claiming new territories: Claim own territories by focusing on flexibility</tspan><tspan x="0" y="92" class="softWhite">and Network Hubs; Mexicana takes you “wherever you want”. The </tspan><tspan x="0" y="138" class="softWhite">new OneWorld alliance is the entrance to worldwide connectivity</tspan>
        </text>
        <text transform="matrix(1 0 0 1 7.7237 1196.5426)">
            <tspan x="0" y="0" class="hardBlue">brandmagnitude</tspan><tspan x="0" y="46" class="softWhite">e.g.: Segment A: We are the new way to travel, in which point-to-point personalized service, warmth, and comfort are most </tspan><tspan x="0" y="92" class="softWhite">important. This is why we offer specific alternatives that allow our passengers to enjoy the travel experience that best </tspan><tspan x="0" y="138" class="softWhite">adapts to them</tspan>
        </text>
    </g>
    <circle cx="1201" cy="500.4" r="222.8" fill="#ffffff"/>
    <g id="lines">
        <line x1="166" x2="167" y1="124.6" y2="124.6" class="dottedLine"/>
        <line x1="179.1" x2="1200" y1="124.6" y2="124.6" class="dottedLine"/>
        <polyline points="1206,124.6 1207,124.6 1207,125.6 			" class="dottedLine"/>
        <line x1="1207" x2="1207" y1="137.7" y2="398.6" class="dottedLine"/>
        <line x1="1207" x2="1207" y1="404.6" y2="405.6" class="dottedLine"/>
        <line x1="268" x2="984" y1="390.6" y2="390.6" class="dottedLine"/>
        <line x1="273" x2="867" y1="634.6" y2="634.6" class="dottedLine"/>
        <line x1="226" x2="1201" y1="953.6" y2="953.6" class="dottedLine"/>
        <line x1="241" x2="242" y1="1187.6" y2="1187.6" class="dottedLine"/>
        <line x1="254" x2="1200" y1="1187.6" y2="1187.6" class="dottedLine"/>
        <polyline points="1206,1187.6 1207,1187.6 1207,1186.6 			" class="dottedLine"/>
        <line x1="1207" x2="1207" y1="1173.9" y2="1091" class="dottedLine"/>
        <line x1="1207" x2="1207" y1="1084.6" y2="1083.6" class="dottedLine"/>
    </g>
    <path fill="#002A3A" d="M1114.8,467.9l43.1,0c3.9,0,5.4,1,7.5,3.9l9.6,13C1175,484.8,1158,472.7,1114.8,467.9"/>
    <path fill="#00A7E1" d="M1201,725.9c-60.2,0-116.8-23.4-159.4-66c-42.6-42.6-66-99.2-66-159.4s23.4-116.8,66-159.4
			c42.6-42.6,99.2-66,159.4-66s116.8,23.4,159.4,66s66,99.2,66,159.4s-23.4,116.8-66,159.4C1317.8,702.4,1261.2,725.9,1201,725.9z
			 M1201,280.2c-58.8,0-114.1,22.9-155.7,64.5s-64.5,96.9-64.5,155.7s22.9,114.1,64.5,155.7s96.9,64.5,155.7,64.5
			c58.8,0,114.1-22.9,155.7-64.5s64.5-96.9,64.5-155.7c0-58.8-22.9-114.1-64.5-155.7S1259.8,280.2,1201,280.2z"/>
    <path fill="#00A7E1" d="M1328.5,569.7h-58c-24.2,0-35.4-4.7-47.2-20.2l-42.4-55.6h27.2c26,0,40.5,12.8,40.5,12.8l-22.3-30.3
			c-10.8-14.7-20.5-20.9-42.3-20.9h-71.9c-15.6,0-22.1-2-30.7-13.6l-7.9-10.6h103.6c39.5,0,57.8,11.8,78.4,39.8L1328.5,569.7z"/>
    <path fill="#00A7E1" d="M1201,813.6c-83.6,0-162.3-32.6-221.4-91.7s-91.7-137.8-91.7-221.4c0-83.6,32.6-162.3,91.7-221.4
				s137.8-91.7,221.4-91.7s162.3,32.6,221.4,91.7s91.7,137.8,91.7,221.4c0,83.6-32.6,162.3-91.7,221.4S1284.6,813.6,1201,813.6z
				 M1201,192.5c-82.3,0-159.6,32-217.7,90.2c-58.2,58.2-90.2,135.5-90.2,217.7s32,159.6,90.2,217.7
				c58.2,58.2,135.5,90.2,217.7,90.2s159.6-32,217.7-90.2c58.2-58.2,90.2-135.5,90.2-217.7s-32-159.6-90.2-217.7
				C1360.6,224.5,1283.3,192.5,1201,192.5z"/>
    <path fill="#00A7E1" d="M1201,899.9c-53.9,0-106.3-10.6-155.5-31.4c-47.6-20.1-90.3-48.9-127-85.6c-36.7-36.7-65.5-79.4-85.6-127
				c-20.8-49.3-31.4-101.6-31.4-155.5s10.6-106.3,31.4-155.5c20.1-47.6,48.9-90.3,85.6-127c36.7-36.7,79.4-65.5,127-85.6
				c49.3-20.8,101.6-31.4,155.5-31.4s106.3,10.6,155.5,31.4c47.6,20.1,90.3,48.9,127,85.6c36.7,36.7,65.5,79.4,85.6,127
				c20.8,49.3,31.4,101.6,31.4,155.5s-10.6,106.3-31.4,155.5c-20.1,47.6-48.9,90.3-85.6,127c-36.7,36.7-79.4,65.5-127,85.6
				C1307.3,889.4,1254.9,899.9,1201,899.9z M1201,106.1c-53.2,0-104.9,10.4-153.5,31c-47,19.9-89.1,48.3-125.3,84.5
				S857.6,300,837.7,347c-20.6,48.6-31,100.2-31,153.5s10.4,104.9,31,153.5c19.9,47,48.3,89.1,84.5,125.3
				c36.2,36.2,78.4,64.6,125.3,84.5c48.6,20.6,100.2,31,153.5,31s104.9-10.4,153.5-31c47-19.9,89.1-48.3,125.3-84.5
				c36.2-36.2,64.6-78.4,84.5-125.3c20.6-48.6,31-100.2,31-153.5c0-53.2-10.4-104.9-31-153.5c-19.9-47-48.3-89.1-84.5-125.3
				c-36.2-36.2-78.4-64.6-125.3-84.5C1305.9,116.6,1254.2,106.1,1201,106.1z"/>
    <path fill="#00A7E1" d="M1201,997.9c-67.2,0-132.3-13.2-193.6-39.1c-59.2-25.1-112.4-60.9-158.1-106.6S767.7,753.3,742.7,694
				c-25.9-61.3-39.1-126.5-39.1-193.6s13.2-132.3,39.1-193.6c25.1-59.2,60.9-112.4,106.6-158.1C895,103,948.1,67.2,1007.4,42.1
				C1068.7,16.2,1133.8,3,1201,3s132.3,13.2,193.6,39.1c59.2,25.1,112.4,60.9,158.1,106.6c45.7,45.7,81.5,98.9,106.6,158.1
				c25.9,61.3,39.1,126.5,39.1,193.6s-13.2,132.3-39.1,193.6c-25.1,59.2-60.9,112.4-106.6,158.1s-98.9,81.5-158.1,106.6
				C1333.3,984.7,1268.2,997.9,1201,997.9z M1201,8.2c-66.4,0-130.9,13-191.6,38.7C950.8,71.7,898.2,107.2,853,152.4
				c-45.2,45.2-80.7,97.8-105.5,156.5c-25.7,60.7-38.7,125.1-38.7,191.6c0,66.4,13,130.9,38.7,191.6
				c24.8,58.6,60.3,111.2,105.5,156.5c45.2,45.2,97.8,80.7,156.5,105.5c60.7,25.7,125.1,38.7,191.6,38.7s130.9-13,191.6-38.7
				c58.6-24.8,111.2-60.3,156.5-105.5c45.2-45.2,80.7-97.8,105.5-156.5c25.7-60.7,38.7-125.1,38.7-191.6c0-66.4-13-130.9-38.7-191.6
				c-24.8-58.6-60.3-111.2-105.5-156.5c-45.2-45.2-97.8-80.7-156.5-105.5C1331.9,21.2,1267.4,8.2,1201,8.2z"/>
</svg>
