<?xml version="1.0" encoding="utf-8"?>
<!-- Generator: Adobe Illustrator 22.0.1, SVG Export Plug-In . SVG Version: 6.00 Build 0)  -->
<svg version="1.1" id="Layer_1" xmlns="http://www.w3.org/2000/svg" xmlns:xlink="http://www.w3.org/1999/xlink" x="0px" y="0px"
	 viewBox="0 0 1030 900" style="enable-background:new 0 0 1030 900;" xml:space="preserve">
<path style="fill:none;stroke:#00A7E1;stroke-width:3;stroke-miterlimit:10;" d="M927.5,474.5c0-241.3-195.7-437-437-437v437H927.5z
	"/>
<line style="fill:none;stroke:#FFFFFF;stroke-width:0.5;stroke-miterlimit:10;" x1="519" y1="95" x2="519" y2="799"/>
<circle style="stroke:#FFFFFF;stroke-width:0.5;stroke-miterlimit:10;" cx="519.5" cy="95.5" r="7"/>
<circle style="stroke:#FFFFFF;stroke-width:0.5;stroke-miterlimit:10;" cx="520" cy="800" r="7"/>
<line style="fill:none;stroke:#FFFFFF;stroke-width:0.5;stroke-miterlimit:10;" x1="872.5" y1="447" x2="168.5" y2="447"/>
<circle style="stroke:#FFFFFF;stroke-width:0.5;stroke-miterlimit:10;" cx="872" cy="447.5" r="7"/>
<circle style="stroke:#FFFFFF;stroke-width:0.5;stroke-miterlimit:10;" cx="167.5" cy="448" r="7"/>
<text transform="matrix(1 0 0 1 512.8291 31.4863)"><tspan x="0" y="0" style="fill:#FFFFFF; font-family:'Eurostile LT', sans-serif; font-size:30px;">network/</tspan><tspan x="0" y="30" style="fill:#FFFFFF; font-family:'Eurostile LT', sans-serif; font-size:30px;">hubs</tspan></text>
<text transform="matrix(1 0 0 1 587.8291 234.4863)"><tspan x="0" y="0" style="fill:#FFFFFF; font-family:'Eurostile LT', sans-serif; font-size:30px;">the new</tspan><tspan x="0" y="30" style="fill:#FFFFFF; font-family:'Eurostile LT', sans-serif; font-size:30px;">Mexicana</tspan></text>
<text transform="matrix(1 0 0 1 437.5459 569.4863)" style="fill:#FFFFFF; font-family:'Eurostile LT', sans-serif; font-size:30px;">Aeromexico</text>
<text transform="matrix(1 0 0 1 123.5098 549.4863)"><tspan x="0" y="0" style="fill:#FFFFFF; font-family:'Eurostile LT', sans-serif; font-size:30px;">Volaris</tspan><tspan x="0" y="30" style="fill:#FFFFFF; font-family:'Eurostile LT', sans-serif; font-size:30px; letter-spacing:5;">				</tspan><tspan x="63.9" y="30" style="fill:#FFFFFF; font-family:'Eurostile LT', sans-serif; font-size:30px;">Interjet</tspan></text>
<g>
	<text transform="matrix(1 0 0 1 912.8291 455.4863)" style="fill:#FFFFFF; font-family:'Eurostile LT', sans-serif; font-size:30px;">flexibility</text>
</g>
<g>
	<text transform="matrix(1 0 0 1 60.8291 455.4863)" style="fill:#FFFFFF; font-family:'Eurostile LT', sans-serif; font-size:30px;">price</text>
</g>
<g>
	<text transform="matrix(1 0 0 1 512.8291 859.4863)"><tspan x="0" y="0" style="fill:#FFFFFF; font-family:'Eurostile LT', sans-serif; font-size:30px;">special</tspan><tspan x="0" y="30" style="fill:#FFFFFF; font-family:'Eurostile LT', sans-serif; font-size:30px;">destinations</tspan></text>
</g>
<path style="fill:none;stroke:#FFFFFF;stroke-miterlimit:10;" d="M520.3,327c48.7,0,80.8,38.3,88.2,88.2l44.7,318.4
	c13.4,74.1-59.5,132.9-132.9,132.9H520c-73.4,0-146.3-58.8-132.9-132.9l44.7-318.4c7.4-49.9,39.5-88.2,88.2-88.2H520.3z"/>
<path style="fill:none;stroke:#FFFFFF;stroke-miterlimit:10;" d="M321,642.3c-24.7,27.1-62.2,25.5-93.7,4.4L47.8,528.5
	c-47.9-30-43.7-100.3-6.6-141.1l0.1-0.1c37.1-40.8,106.7-51.5,141.1-6.6l134.3,167.8c23.9,29.4,29,66.6,4.4,93.7L321,642.3z"/>
<path style="fill:none;stroke:#FFFFFF;stroke-miterlimit:10;" d="M290.6,613.4c-21.6,23.7-54.4,22.3-82,3.8L51.4,513.8
	c-42-26.3-38.3-87.8-5.7-123.5l0.1-0.1c32.5-35.7,93.4-45.1,123.5-5.7l117.6,146.9c21,25.7,25.4,58.3,3.8,82L290.6,613.4z"/>
</svg>
