<svg xmlns="http://www.w3.org/2000/svg" xmlns:xlink="http://www.w3.org/1999/xlink" id="Layer_1" x="0px" y="0px" style="enable-background:new 0 0 1708 1347.8" version="1.1" viewBox="0 0 1708 1347.8" xml:space="preserve">
    <g id="text">
        <text style="font-family:'ArialMT';font-size:12px" transform="matrix(1 0 0 1 7.7237 128.5426)">
            
        </text>
        <text style="fill:#00A7E1;font-family:'Titillium Web', sans-serif;font-weight:600;font-size:30px" transform="matrix(1 0 0 1 7.7237 128.5426)">
            brandcore
        </text>
        <text style="fill:#FFFFFF;font-family:'Titillium Web', sans-serif;font-size:30px" transform="matrix(1 0 0 1 7.7237 174.5426)">
            The national symbol / icon flying on the international
        </text>
        <text style="fill:#FFFFFF;font-family:'Titillium Web', sans-serif;font-size:30px" transform="matrix(1 0 0 1 7.7237 220.5426)">
            skies. Mexicana portrays Mexico and the best of
        </text>
        <text style="fill:#FFFFFF;font-family:'Titillium Web', sans-serif;font-size:30px" transform="matrix(1 0 0 1 7.7237 266.5426)">
            present, the spirit of the past and the positiveness
        </text>
        <text style="fill:#FFFFFF;font-family:'Titillium Web', sans-serif;font-size:30px" transform="matrix(1 0 0 1 7.7237 312.5426)">
            of the future. Mexico is Mexicana.
        </text>
        <text style="font-family:'ArialMT';font-size:12px" transform="matrix(1 0 0 1 427.7164 312.5426)">
            
        </text>
        <text style="font-family:'ArialMT';font-size:12px" transform="matrix(1 0 0 1 7.7237 398.5426)">
            
        </text>
        <text style="fill:#00A7E1;font-family:'Titillium Web', sans-serif;font-weight:600;font-size:30px" transform="matrix(1 0 0 1 7.7237 398.5426)">
            brandenvironment
        </text>
        <text style="fill:#FFFFFF;font-family:'Titillium Web', sans-serif;font-size:30px" transform="matrix(1 0 0 1 7.7237 444.5426)">
            Innovation, trend / modernity, freshness, care/
        </text>
        <text style="fill:#FFFFFF;font-family:'Titillium Web', sans-serif;font-size:30px" transform="matrix(1 0 0 1 7.7237 490.5426)">
            consumer orientation, ease + flexibility + low
        </text>
        <text style="fill:#FFFFFF;font-family:'Titillium Web', sans-serif;font-size:30px" transform="matrix(1 0 0 1 7.7237 536.5426)">
            friction, speed, out-of-the-box thinking, pride.
        </text>
        <text style="font-family:'ArialMT';font-size:12px" transform="matrix(1 0 0 1 582.8727 536.5426)">
            
        </text>
        <text style="font-family:'ArialMT';font-size:12px" transform="matrix(1 0 0 1 7.7237 643.5426)">
            
        </text>
        <text style="fill:#00A7E1;font-family:'Titillium Web', sans-serif;font-weight:600;font-size:30px" transform="matrix(1 0 0 1 7.7237 643.5426)">
            brandphotosphere
        </text>
        <text style="fill:#FFFFFF;font-family:'Titillium Web', sans-serif;font-size:30px" transform="matrix(1 0 0 1 7.7237 689.5426)">
            A strong emphasis on emotional comfort with a
        </text>
        <text style="fill:#FFFFFF;font-family:'Titillium Web', sans-serif;font-size:30px" transform="matrix(1 0 0 1 7.7237 735.5426)">
            nice ambience is key to all targets and passenger
        </text>
        <text style="fill:#FFFFFF;font-family:'Titillium Web', sans-serif;font-size:30px" transform="matrix(1 0 0 1 7.7237 781.5426)">
            classes. Relaxing atmospheres, improved cabin
        </text>
        <text style="fill:#FFFFFF;font-family:'Titillium Web', sans-serif;font-size:30px" transform="matrix(1 0 0 1 7.7237 827.5426)">
            look and feel, and attention to details.
        </text>
        <text style="font-family:'ArialMT';font-size:12px" transform="matrix(1 0 0 1 480.9946 827.5426)">
            
        </text>
        <text style="font-family:'ArialMT';font-size:12px" transform="matrix(1 0 0 1 7.7237 963.5426)">
            
        </text>
        <text style="fill:#00A7E1;font-family:'Titillium Web', sans-serif;font-weight:600;font-size:30px" transform="matrix(1 0 0 1 7.7237 963.5426)">
            brandgravity
        </text>
        <text style="fill:#FFFFFF;font-family:'Titillium Web', sans-serif;font-size:30px" transform="matrix(1 0 0 1 7.7237 1009.5426)">
            Claiming new territories: Claim own territories by focusing on flexibility
        </text>
        <text style="fill:#FFFFFF;font-family:'Titillium Web', sans-serif;font-size:30px" transform="matrix(1 0 0 1 7.7237 1055.5426)">
            and Network Hubs; Mexicana takes you “wherever you want”. The
        </text>
        <text style="fill:#FFFFFF;font-family:'Titillium Web', sans-serif;font-size:30px" transform="matrix(1 0 0 1 7.7237 1101.5426)">
            new OneWorld alliance is the entrance to worldwide connectivity
        </text>
        <text style="font-family:'ArialMT';font-size:12px" transform="matrix(1 0 0 1 819.1183 1101.5426)">
            
        </text>
        <text style="font-family:'ArialMT';font-size:12px" transform="matrix(1 0 0 1 7.7237 1196.5426)">
            
        </text>
        <text style="fill:#00A7E1;font-family:'Titillium Web', sans-serif;font-weight:600;font-size:30px" transform="matrix(1 0 0 1 7.7237 1196.5426)">
            brandmagnitude
        </text>
        <text style="fill:#FFFFFF;font-family:'Titillium Web', sans-serif;font-size:30px" transform="matrix(1 0 0 1 7.7237 1242.5426)">
            e.g.: Segment A: We are the new way to travel, in which point-to-point personalized service, warmth, and comfort are most
        </text>
        <text style="fill:#FFFFFF;font-family:'Titillium Web', sans-serif;font-size:30px" transform="matrix(1 0 0 1 7.7237 1288.5426)">
            important. This is why we offer specific alternatives that allow our passengers to enjoy the travel experience that best
        </text>
        <text style="fill:#FFFFFF;font-family:'Titillium Web', sans-serif;font-size:30px" transform="matrix(1 0 0 1 7.7237 1334.5426)">
            adapts to them
        </text>
        <text style="font-family:'ArialMT';font-size:12px" transform="matrix(1 0 0 1 200.2911 1334.5426)">
            
        </text>
    </g>
    <circle cx="1201" cy="500.4" r="222.8" style="fill:#FFFFFF"/>
    <g id="lines">
        <line x1="166" x2="167" y1="124.6" y2="124.6" style="fill:none;stroke:#00A7E1;stroke-width:4;stroke-linecap:round;stroke-linejoin:round;stroke-miterlimit:10;stroke-dasharray:2,12"/>
        <line x1="179.1" x2="1200" y1="124.6" y2="124.6" style="fill:none;stroke:#00A7E1;stroke-width:4;stroke-linecap:round;stroke-linejoin:round;stroke-miterlimit:10;stroke-dasharray:2,12"/>
        <polyline points="
		1206,124.6 1207,124.6 1207,125.6 	" style="fill:none;stroke:#00A7E1;stroke-width:4;stroke-linecap:round;stroke-linejoin:round;stroke-miterlimit:10;stroke-dasharray:2,12"/>
        <line x1="1207" x2="1207" y1="137.7" y2="398.6" style="fill:none;stroke:#00A7E1;stroke-width:4;stroke-linecap:round;stroke-linejoin:round;stroke-miterlimit:10;stroke-dasharray:2,12"/>
        <line x1="1207" x2="1207" y1="404.6" y2="405.6" style="fill:none;stroke:#00A7E1;stroke-width:4;stroke-linecap:round;stroke-linejoin:round;stroke-miterlimit:10;stroke-dasharray:2,12"/>
        <line x1="268" x2="984" y1="390.6" y2="390.6" style="fill:none;stroke:#00A7E1;stroke-width:4;stroke-linecap:round;stroke-linejoin:round;stroke-miterlimit:10;stroke-dasharray:2,12"/>
        <line x1="273" x2="867" y1="634.6" y2="634.6" style="fill:none;stroke:#00A7E1;stroke-width:4;stroke-linecap:round;stroke-linejoin:round;stroke-miterlimit:10;stroke-dasharray:2,12"/>
        <line x1="226" x2="1201" y1="953.6" y2="953.6" style="fill:none;stroke:#00A7E1;stroke-width:4;stroke-linecap:round;stroke-linejoin:round;stroke-miterlimit:10;stroke-dasharray:2,12"/>
        <line x1="241" x2="242" y1="1187.6" y2="1187.6" style="fill:none;stroke:#00A7E1;stroke-width:4;stroke-linecap:round;stroke-linejoin:round;stroke-miterlimit:10;stroke-dasharray:2,12"/>
        <line x1="254" x2="1200" y1="1187.6" y2="1187.6" style="fill:none;stroke:#00A7E1;stroke-width:4;stroke-linecap:round;stroke-linejoin:round;stroke-miterlimit:10;stroke-dasharray:2,12"/>
        <polyline points="
		1206,1187.6 1207,1187.6 1207,1186.6 	" style="fill:none;stroke:#00A7E1;stroke-width:4;stroke-linecap:round;stroke-linejoin:round;stroke-miterlimit:10;stroke-dasharray:2,12"/>
        <line x1="1207" x2="1207" y1="1173.9" y2="1091" style="fill:none;stroke:#00A7E1;stroke-width:4;stroke-linecap:round;stroke-linejoin:round;stroke-miterlimit:10;stroke-dasharray:2,12"/>
        <line x1="1207" x2="1207" y1="1084.6" y2="1083.6" style="fill:none;stroke:#00A7E1;stroke-width:4;stroke-linecap:round;stroke-linejoin:round;stroke-miterlimit:10;stroke-dasharray:2,12"/>
    </g>
    <path d="M1114.8,467.9h43.1c3.9,0,5.4,1,7.5,3.9l9.6,13C1175,484.8,1158,472.7,1114.8,467.9" style="fill:#002A3A"/>
    <path d="M1201,725.9c-60.2,0-116.8-23.4-159.4-66s-66-99.2-66-159.4s23.4-116.8,66-159.4s99.2-66,159.4-66
	s116.8,23.4,159.4,66s66,99.2,66,159.4s-23.4,116.8-66,159.4C1317.8,702.4,1261.2,725.9,1201,725.9z M1201,280.2
	c-58.8,0-114.1,22.9-155.7,64.5s-64.5,96.9-64.5,155.7s22.9,114.1,64.5,155.7s96.9,64.5,155.7,64.5c58.8,0,114.1-22.9,155.7-64.5
	s64.5-96.9,64.5-155.7s-22.9-114.1-64.5-155.7S1259.8,280.2,1201,280.2z" style="fill:#00A7E1"/>
    <path d="M1328.5,569.7h-58c-24.2,0-35.4-4.7-47.2-20.2l-42.4-55.6h27.2c26,0,40.5,12.8,40.5,12.8l-22.3-30.3
	c-10.8-14.7-20.5-20.9-42.3-20.9h-71.9c-15.6,0-22.1-2-30.7-13.6l-7.9-10.6h103.6c39.5,0,57.8,11.8,78.4,39.8L1328.5,569.7z" style="fill:#00A7E1"/>
    <path d="M1201,813.6c-83.6,0-162.3-32.6-221.4-91.7s-91.7-137.8-91.7-221.4s32.6-162.3,91.7-221.4
	c59.1-59.1,137.8-91.7,221.4-91.7s162.3,32.6,221.4,91.7s91.7,137.8,91.7,221.4s-32.6,162.3-91.7,221.4S1284.6,813.6,1201,813.6z
	 M1201,192.5c-82.3,0-159.6,32-217.7,90.2c-58.2,58.2-90.2,135.5-90.2,217.7s32,159.6,90.2,217.7c58.2,58.2,135.5,90.2,217.7,90.2
	s159.6-32,217.7-90.2c58.2-58.2,90.2-135.5,90.2-217.7s-32-159.6-90.2-217.7C1360.6,224.5,1283.3,192.5,1201,192.5z" style="fill:#00A7E1"/>
    <path d="M1201,899.9c-53.9,0-106.3-10.6-155.5-31.4c-47.6-20.1-90.3-48.9-127-85.6
	c-36.7-36.7-65.5-79.4-85.6-127c-20.8-49.3-31.4-101.6-31.4-155.5s10.6-106.3,31.4-155.5c20.1-47.6,48.9-90.3,85.6-127
	c36.7-36.7,79.4-65.5,127-85.6c49.3-20.8,101.6-31.4,155.5-31.4s106.3,10.6,155.5,31.4c47.6,20.1,90.3,48.9,127,85.6
	s65.5,79.4,85.6,127c20.8,49.3,31.4,101.6,31.4,155.5s-10.6,106.3-31.4,155.5c-20.1,47.6-48.9,90.3-85.6,127s-79.4,65.5-127,85.6
	C1307.3,889.4,1254.9,899.9,1201,899.9z M1201,106.1c-53.2,0-104.9,10.4-153.5,31c-47,19.9-89.1,48.3-125.3,84.5
	S857.6,300,837.7,347c-20.6,48.6-31,100.2-31,153.5s10.4,104.9,31,153.5c19.9,47,48.3,89.1,84.5,125.3s78.4,64.6,125.3,84.5
	c48.6,20.6,100.2,31,153.5,31s104.9-10.4,153.5-31c47-19.9,89.1-48.3,125.3-84.5c36.2-36.2,64.6-78.4,84.5-125.3
	c20.6-48.6,31-100.2,31-153.5c0-53.2-10.4-104.9-31-153.5c-19.9-47-48.3-89.1-84.5-125.3s-78.4-64.6-125.3-84.5
	C1305.9,116.6,1254.2,106.1,1201,106.1z" style="fill:#00A7E1"/>
    <path d="M1201,997.9c-67.2,0-132.3-13.2-193.6-39.1c-59.2-25.1-112.4-60.9-158.1-106.6S767.7,753.3,742.7,694
	c-25.9-61.3-39.1-126.5-39.1-193.6s13.2-132.3,39.1-193.6c25.1-59.2,60.9-112.4,106.6-158.1C895,103,948.1,67.2,1007.4,42.1
	C1068.7,16.2,1133.8,3,1201,3s132.3,13.2,193.6,39.1c59.2,25.1,112.4,60.9,158.1,106.6s81.5,98.9,106.6,158.1
	c25.9,61.3,39.1,126.5,39.1,193.6s-13.2,132.3-39.1,193.6c-25.1,59.2-60.9,112.4-106.6,158.1s-98.9,81.5-158.1,106.6
	C1333.3,984.7,1268.2,997.9,1201,997.9z M1201,8.2c-66.4,0-130.9,13-191.6,38.7C950.8,71.7,898.2,107.2,853,152.4
	s-80.7,97.8-105.5,156.5c-25.7,60.7-38.7,125.1-38.7,191.6c0,66.4,13,130.9,38.7,191.6c24.8,58.6,60.3,111.2,105.5,156.5
	c45.2,45.2,97.8,80.7,156.5,105.5c60.7,25.7,125.1,38.7,191.6,38.7s130.9-13,191.6-38.7c58.6-24.8,111.2-60.3,156.5-105.5
	c45.2-45.2,80.7-97.8,105.5-156.5c25.7-60.7,38.7-125.1,38.7-191.6c0-66.4-13-130.9-38.7-191.6c-24.8-58.6-60.3-111.2-105.5-156.5
	c-45.2-45.2-97.8-80.7-156.5-105.5C1331.9,21.2,1267.4,8.2,1201,8.2z" style="fill:#00A7E1"/>
</svg>
