<svg version="1.1" id="Layer_1" xmlns="http://www.w3.org/2000/svg" xmlns:xlink="http://www.w3.org/1999/xlink" x="0px" y="0px"
	 viewBox="0 0 1256.8 313.6" style="enable-background:new 0 0 1256.8 313.6;" xml:space="preserve">
<g>
	<path fill="#002A3A" d="M54.5,45.9l50.2,0c4.5,0,6.3,1.2,8.7,4.5l11.2,15.1C124.7,65.5,104.8,51.4,54.5,45.9"/>
	<path fill="#00A7E1" d="M303.5,164.4l-67.6,0c-28.2,0-41.3-5.5-55-23.5l-49.4-64.8h31.7c30.2,0,47.3,14.9,47.3,14.9l-25.9-35.4
		c-12.5-17.1-23.9-24.4-49.3-24.4H51.3c-18.1,0-25.8-2.3-35.8-15.8L6.4,3h120.8c46.1,0,67.4,13.8,91.4,46.4L303.5,164.4z"/>
	<polygon fill="#002A3A" points="67,279.7 67,187.5 88,187.5 122.8,236.7 157.1,187.5 177.4,187.5 177.4,279.7 159,279.7 159,211.2 
		122.6,263.6 85.4,211.2 85.4,279.7 	"/>
	<polygon fill="#002A3A" points="401.2,187.5 419.5,187.5 419.5,288.1 401.2,265.1 	"/>
	<path fill="#002A3A" d="M292.7,187.5h25.4l21.3,28.8l22.9-28.8h25.6L349.6,229l64.1,81.5h-10.6c-10.5,0-18.6-5.9-23.7-13.2
		c-9.8-13.9-42.1-54.1-42.1-54.1l-8.2,9.3c-15,17-37.9,29.5-71.4,29.5c-40.5,0-61-14.2-61-50.3c0-35.1,21.3-46.6,49.1-46.6
		c25.4,0,38,12.8,38,34.1c0,11.4-3,18.5-3,18.5h-65.3c1.4,19.3,14,28.7,41.9,28.7c26.8,0,47.6-11.5,61.4-27.4l8.1-9.3L292.7,187.5z
		 M244.7,199.5c-21.1,0-27.6,11.2-28.7,24.2h48.7c0,0,0.7-2,0.7-5.5C265.5,204.1,256.1,199.5,244.7,199.5"/>
	<path fill="#002A3A" d="M525.1,192.5l-6.5,16.9c0,0-12.4-7.9-29.3-7.9c-19.2,0-33,7.7-33,31.6c0,23.5,11.8,33.4,34.9,33.4
		c20.8,0,33.2-9,33.2-9v16.9c0,0-9.9,7.6-33.8,7.6c-36.1,0-53-15.6-53-50.3c0-33.2,21-46.6,51-46.6
		C511.2,185.2,525.1,192.5,525.1,192.5"/>
	<path fill="#002A3A" d="M621.1,224.9l0,54.8h-18.4l0-14.3h-1c0,0-8.1,16.6-31.9,16.6c-23.7,0-32.6-14.2-32.6-29.8c0-16,8.8-25,8.8-25
		l56.7,0v-3.4c0-17.8-5.3-22.3-26.4-22.3c-18.1,0-30.7,7.2-30.7,7.2l-6.5-16.9c0,0,16.3-6.6,38.3-6.6
		C607.5,185.2,621.1,192.7,621.1,224.9 M573.7,267.5c17.8,0,29.1-11,29.1-26l-45.1,0c0,0-2.7,3-2.7,9.7
		C555,260.1,559.7,267.5,573.7,267.5"/>
	<polygon fill="#002A3A" points="645.1,279.7 645.1,187.5 666.2,187.5 718.4,253.2 718.4,187.5 736.8,187.5 736.8,279.7 718.4,279.7 
		663.5,211.2 663.5,279.7 	"/>
	<path fill="#002A3A" d="M839.8,224.9l0,54.8h-18.4l0-14.3h-1c0,0-8.1,16.6-31.9,16.6c-23.7,0-32.6-14.2-32.6-29.8c0-16,8.8-25,8.8-25
		l56.7,0v-3.4c0-17.8-5.3-22.3-26.4-22.3c-18.1,0-30.7,7.2-30.7,7.2l-6.5-16.9c0,0,16.3-6.6,38.3-6.6
		C826.1,185.2,839.8,192.7,839.8,224.9 M792.3,267.5c17.8,0,29.1-11,29.1-26l-45.1,0c0,0-2.7,3-2.7,9.7
		C773.6,260.1,778.3,267.5,792.3,267.5"/>
	<rect x="998.8" y="187.6" fill="#00A7E1" width="18.4" height="92.2"/>
	<rect x="960.8" y="164.5" fill="#00A7E1" width="17.3" height="115.2"/>
	<rect x="1139.8" y="164.5" fill="#00A7E1" width="18.4" height="115.2"/>
	<path fill="#00A7E1" d="M944.5,192.6l-6.5,16.9c0,0-12.4-7.9-29.3-7.9c-19.1,0-32.9,7.7-32.9,31.6c0,23.5,11.8,33.4,34.9,33.4
		c20.8,0,33.2-9,33.2-9v16.9c0,0-9.9,7.6-33.8,7.6c-36,0-52.9-15.6-52.9-50.3c0-33.2,21-46.5,51-46.5
		C930.7,185.3,944.5,192.6,944.5,192.6"/>
	<path fill="#00A7E1" d="M1123.7,192.6l-6.5,16.9c0,0-12.4-7.9-29.3-7.9c-19.1,0-32.9,7.7-32.9,31.6c0,23.5,11.8,33.4,34.9,33.4
		c20.8,0,33.2-9,33.2-9v16.9c0,0-9.9,7.6-33.8,7.6c-36,0-52.9-15.6-52.9-50.3c0-33.2,21-46.5,51-46.5
		C1109.9,185.3,1123.7,192.6,1123.7,192.6"/>
	<path fill="#00A7E1" d="M1164.4,231.2l34.6-43.6h25.6l-38.2,41.4l64,81.5h-10.5c-10.7,0-18.7-5.9-23.9-13.2
		C1206.2,283.4,1164.4,231.2,1164.4,231.2"/>
</g>
</svg>
