<svg version="1.1" xmlns="http://www.w3.org/2000/svg" xmlns:xlink="http://www.w3.org/1999/xlink" x="0px" y="0px"
	 viewBox="0 0 555 204.5" style="enable-background:new 0 0 555 204.5;" xml:space="preserve">
	<path fill="#002A3A" d="M34.4,29.2l33,0c3,0,4.1,0.8,5.8,3l7.4,10C80.5,42.1,67.5,32.8,34.4,29.2"/>
	<path fill="#00A7E1" d="M198.1,107.1h-44.4c-18.5,0-27.2-3.6-36.2-15.5L85,49.1h20.8c19.9,0,31.1,9.8,31.1,9.8l-17.1-23.3
		c-8.2-11.2-15.7-16-32.4-16H32.3c-11.9,0-17-1.5-23.5-10.4L2.8,1h79.4c30.3,0,44.3,9.1,60.1,30.5L198.1,107.1z"/>
	<polygon fill="#002A3A" points="42.6,183 42.6,122.3 56.4,122.3 79.3,154.6 101.8,122.3 115.2,122.3 115.2,183 103.1,183 103.1,137.9 
		79.2,172.3 54.7,137.9 54.7,183 	"/>
	<polygon fill="#002A3A" points="262.3,122.3 274.4,122.3 274.4,188.4 262.3,173.3 	"/>
	<path fill="#002A3A" d="M191,122.3h16.7l14,18.9l15-18.9h16.9l-25.2,27.3l42.2,53.6h-7c-6.9,0-12.2-3.9-15.6-8.7
		c-6.5-9.1-27.7-35.5-27.7-35.5l-5.4,6.1c-9.9,11.2-24.9,19.4-47,19.4c-26.7,0-40.1-9.4-40.1-33.1c0-23.1,14-30.6,32.3-30.6
		c16.7,0,25,8.4,25,22.5c0,7.5-2,12.2-2,12.2h-43c0.9,12.7,9.2,18.9,27.5,18.9c17.6,0,31.3-7.5,40.4-18l5.3-6.1L191,122.3z
		 M159.4,130.2c-13.9,0-18.1,7.4-18.8,15.9h32c0,0,0.5-1.3,0.5-3.6C173.1,133.2,166.9,130.2,159.4,130.2"/>
	<path fill="#002A3A" d="M343.8,125.6l-4.3,11.1c0,0-8.1-5.2-19.3-5.2c-12.6,0-21.7,5.1-21.7,20.8c0,15.5,7.8,22,23,22
		c13.7,0,21.9-5.9,21.9-5.9v11.1c0,0-6.5,5-22.2,5c-23.7,0-34.8-10.3-34.8-33.1c0-21.9,13.8-30.6,33.5-30.6
		C334.7,120.8,343.8,125.6,343.8,125.6"/>
	<path fill="#002A3A" d="M407,146.9l0,36h-12.1l0-9.4h-0.6c0,0-5.4,10.9-21,10.9c-15.6,0-21.5-9.4-21.5-19.6c0-10.5,5.8-16.4,5.8-16.4
		l37.3,0v-2.2c0-11.7-3.5-14.7-17.4-14.7c-11.9,0-20.2,4.7-20.2,4.7l-4.3-11.1c0,0,10.7-4.3,25.2-4.3C398,120.8,407,125.7,407,146.9
		 M375.8,174.9c11.7,0,19.1-7.2,19.1-17.1l-29.7,0c0,0-1.7,2-1.7,6.4C363.5,170,366.6,174.9,375.8,174.9"/>
	<polygon fill="#002A3A" points="422.8,183 422.8,122.3 436.6,122.3 470.9,165.5 470.9,122.3 483,122.3 483,183 470.9,183 434.8,137.9 
		434.8,183 	"/>
	<path fill="#002A3A" d="M550.8,146.9l0,36h-12.1l0-9.4H538c0,0-5.4,10.9-21,10.9c-15.6,0-21.5-9.4-21.5-19.6c0-10.5,5.8-16.4,5.8-16.4
		l37.3,0v-2.2c0-11.7-3.5-14.7-17.4-14.7c-11.9,0-20.2,4.7-20.2,4.7l-4.3-11.1c0,0,10.7-4.3,25.2-4.3
		C541.8,120.8,550.8,125.7,550.8,146.9 M519.5,174.9c11.7,0,19.1-7.2,19.1-17.1l-29.7,0c0,0-1.7,2-1.7,6.4
		C507.2,170,510.3,174.9,519.5,174.9"/>
</svg>
