<svg version="1.1" xmlns="http://www.w3.org/2000/svg" xmlns:xlink="http://www.w3.org/1999/xlink" x="0px" y="0px"
	 viewBox="0 0 647.1 208" style="enable-background:new 0 0 647.1 208;" xml:space="preserve">
<g id="darkBlue">
	<path fill="#002A3A" d="M436.6,114.9l-84.3,7.2c-5.6-8.2-14.7-13.9-25.3-15.3l-3.7-99.2h-5.4l-2.1,99.5c0,0-0.1,0-0.1,0
		c-10.1,1.8-18.8,7.8-23.9,16.1l-84.6-5.5c0,0,0.1,1.6,1.8,1.8c1.6,0.1,66.9,8.7,79.6,10.5c0,0.1,0,0.1-0.1,0.1
		c-1.1,3.3-1.7,6.9-1.7,10.5c0,2.6,0.3,5,0.9,7.4c3.6,15.2,17.8,26.6,34.8,26.6c0.1,0,0.2,0,0.3,0c17.1-0.1,31.3-11.7,34.6-27.1
		c0.5-2.2,0.7-4.6,0.7-6.9c-0.1-4.2-0.8-8.1-2.2-11.7c0,0,0,0,0-0.1c15.2-2.3,75.1-11.5,78-12C437.4,116.2,436.6,114.9,436.6,114.9z
		"/>
</g>
<g id="Layer_1">
	<g>
		<path d="M113.8,153.6c0,1.8,1.5,3.2,3.2,3.2c1.8,0,3.2-1.5,3.2-3.2v-2.8l-6.5-0.4v3.2H113.8z"/>
		<path fill="#FF0000" d="M117,156.9c-1.8,0-3.3-1.4-3.3-3.2h-0.1v-3.5l6.8,0.4v2.9C120.3,155.4,118.8,156.9,117,156.9z M113.8,153.5
			L113.8,153.5l0.1,0.1c0,1.7,1.4,3.1,3.1,3.1c1.7,0,3.1-1.4,3.1-3.1v-2.7l-6.2-0.4V153.5z"/>
	</g>
	<g>
		<path d="M177.3,158c0,1.8,1.5,3.2,3.2,3.2c1.8,0,3.2-1.5,3.2-3.2v-3.4l-6.5-0.4v3.8H177.3z"/>
		<path fill="#FF0000" d="M180.5,161.3c-1.8,0-3.3-1.4-3.3-3.2h-0.1v-4.1l6.8,0.4v3.5C183.8,159.8,182.3,161.3,180.5,161.3z
			 M177.3,157.9L177.3,157.9l0.1,0.1c0,1.7,1.4,3.1,3.1,3.1s3.1-1.4,3.1-3.1v-3.3l-6.2-0.4V157.9z"/>
	</g>
	<g>
		<path d="M461.4,155c0,1.8,1.5,3.2,3.2,3.2c1.8,0,3.2-1.5,3.2-3.2v-4.5l-6.5,0.5L461.4,155L461.4,155z"/>
		<path fill="#FF0000" d="M464.6,158.3c-1.8,0-3.3-1.4-3.3-3.2h-0.1v-4.3l6.8-0.5v4.6C467.9,156.8,466.4,158.3,464.6,158.3z
			 M461.4,154.9h0.1v0.1c0,1.7,1.4,3.1,3.1,3.1c1.7,0,3.1-1.4,3.1-3.1v-4.4l-6.2,0.5V154.9z"/>
	</g>
	<g>
		<path d="M524.3,149.9c0,1.8,1.5,3.2,3.2,3.2c1.8,0,3.2-1.5,3.2-3.2v-4.4l-6.5,0.5L524.3,149.9L524.3,149.9z"/>
		<path fill="#FF0000" d="M527.5,153.2c-1.8,0-3.3-1.4-3.3-3.2h-0.1v-4.2l6.8-0.5v4.5C530.8,151.7,529.3,153.2,527.5,153.2z
			 M524.3,149.8L524.3,149.8l0.1,0.1c0,1.7,1.4,3.1,3.1,3.1c1.7,0,3.1-1.4,3.1-3.1v-4.3l-6.2,0.5V149.8z"/>
	</g>
	<path fill="#939393" d="M223.9,157.3c-10.8,0-19.6,8.1-19.6,18c0,10,8.8,18,19.6,18s19.6-8.1,19.6-18
		C243.5,165.3,234.7,157.3,223.9,157.3z M223.9,187.4c-7.5,0-13.6-5.9-13.6-13.1c0-7.2,6.1-13.1,13.6-13.1s13.6,5.9,13.6,13.1
		S231.4,187.4,223.9,187.4z"/>
	<path fill="#666666" d="M223.9,193.6c-11,0-19.9-8.2-19.9-18.3s8.9-18.3,19.9-18.3s19.9,8.2,19.9,18.3S234.9,193.6,223.9,193.6z
		 M223.9,157.6c-10.7,0-19.3,8-19.3,17.7s8.7,17.7,19.3,17.7s19.3-8,19.3-17.7S234.6,157.6,223.9,157.6z M223.9,187.7
		c-7.6,0-13.9-6-13.9-13.4c0-7.4,6.2-13.4,13.9-13.4s13.9,6,13.9,13.4C237.8,181.7,231.5,187.7,223.9,187.7z M223.9,161.5
		c-7.3,0-13.3,5.8-13.3,12.8s6,12.8,13.3,12.8s13.3-5.8,13.3-12.8S231.2,161.5,223.9,161.5z"/>
	<path fill="#002A3A" d="M223.9,161.2c-7.5,0-13.6,5.9-13.6,13.1c0,7.2,6.1,13.1,13.6,13.1s13.6-5.9,13.6-13.1
		C237.5,167.1,231.4,161.2,223.9,161.2z"/>
	<path fill="#666666" d="M223.9,187.7c-7.6,0-13.9-6-13.9-13.4c0-7.4,6.2-13.4,13.9-13.4s13.9,6,13.9,13.4
		C237.8,181.7,231.5,187.7,223.9,187.7z M223.9,161.5c-7.3,0-13.3,5.8-13.3,12.8s6,12.8,13.3,12.8s13.3-5.8,13.3-12.8
		S231.2,161.5,223.9,161.5z M223.9,177.6c-2.4,0-4.3-1.9-4.3-4.3s1.9-4.3,4.3-4.3s4.3,1.9,4.3,4.3S226.3,177.6,223.9,177.6z
		 M223.9,169.6c-2.1,0-3.7,1.7-3.7,3.7s1.7,3.7,3.7,3.7s3.7-1.7,3.7-3.7S226,169.6,223.9,169.6z"/>
	<g>
		<path fill="#939393" d="M421.3,155.2c-10.8,0-19.6,8.1-19.6,18c0,10,8.8,18,19.6,18c10.8,0,19.6-8.1,19.6-18S432.1,155.2,421.3,155.2
			z M421.3,185.2c-7.5,0-13.6-5.9-13.6-13.1s6.1-13.1,13.6-13.1s13.6,5.9,13.6,13.1S428.8,185.2,421.3,185.2z"/>
		<path fill="#666666" d="M421.3,191.5c-11,0-19.9-8.2-19.9-18.3s8.9-18.3,19.9-18.3c11,0,19.9,8.2,19.9,18.3S432.3,191.5,421.3,191.5z
			 M421.3,155.5c-10.7,0-19.3,8-19.3,17.7s8.7,17.7,19.3,17.7s19.3-8,19.3-17.7S432,155.5,421.3,155.5z M421.3,185.5
			c-7.6,0-13.9-6-13.9-13.4c0-7.4,6.2-13.4,13.9-13.4s13.9,6,13.9,13.4C435.2,179.5,428.9,185.5,421.3,185.5z M421.3,159.3
			c-7.3,0-13.3,5.8-13.3,12.8s6,12.8,13.3,12.8c7.3,0,13.3-5.8,13.3-12.8S428.6,159.3,421.3,159.3z"/>
	</g>
	<path fill="#002A3A" d="M421.3,159.1c-7.5,0-13.6,5.9-13.6,13.1s6.1,13.1,13.6,13.1s13.6-5.9,13.6-13.1S428.8,159.1,421.3,159.1z"/>
	<path fill="#666666" d="M421.3,185.6c-7.6,0-13.9-6-13.9-13.4c0-7.4,6.2-13.4,13.9-13.4s13.9,6,13.9,13.4
		C435.2,179.6,428.9,185.6,421.3,185.6z M421.3,159.4c-7.3,0-13.3,5.8-13.3,12.8s6,12.8,13.3,12.8c7.3,0,13.3-5.8,13.3-12.8
		S428.6,159.4,421.3,159.4z M421.3,175.7c-2.4,0-4.3-1.9-4.3-4.3s1.9-4.3,4.3-4.3s4.3,1.9,4.3,4.3S423.7,175.7,421.3,175.7z
		 M421.3,167.7c-2.1,0-3.7,1.7-3.7,3.7s1.7,3.7,3.7,3.7s3.7-1.7,3.7-3.7S423.4,167.7,421.3,167.7z"/>
	<circle fill="#FFFFFF" cx="223.9" cy="173.3" r="4.3"/>
	<circle fill="#FFFFFF" cx="421.3" cy="171.4" r="4.1"/>
	<g>
		<path fill="#1A1A1A" d="M380,181.4c-2.2,0-4.1,1.8-4.1,4.1v12.1c0,2.2,1.8,4.1,4.1,4.1s4.1-1.8,4.1-4.1v-12.1
			C384.1,183.3,382.2,181.4,380,181.4z"/>
		<path fill="#1A1A1A" d="M394,180.8c-2.2,0-4.1,1.8-4.1,4.1V197c0,2.2,1.8,4.1,4.1,4.1s4.1-1.8,4.1-4.1v-12.1
			C398.1,182.7,396.2,180.8,394,180.8z"/>
	</g>
	<g>
		<path fill="#1A1A1A" d="M251.7,183.3c-2.2,0-4.1,1.8-4.1,4.1v12.1c0,2.2,1.8,4.1,4.1,4.1c2.2,0,4.1-1.8,4.1-4.1v-12.1
			C255.8,185.2,253.9,183.3,251.7,183.3z"/>
		<path fill="#1A1A1A" d="M265.6,182.7c-2.2,0-4.1,1.8-4.1,4.1v12.1c0,2.2,1.8,4.1,4.1,4.1c2.2,0,4.1-1.8,4.1-4.1v-12.1
			C269.7,184.6,267.8,182.7,265.6,182.7z"/>
		<path fill="#1A1A1A" d="M319.4,188.1c-0.6-0.6-1.4-1-2.3-1c-1.7,0-3.1,1.4-3.1,3.1v9c0,1.7,1.4,3.1,3.1,3.1c1.7,0,3.1-1.4,3.1-3.1
			l0-9C320.2,189.5,319.9,188.7,319.4,188.1z"/>
		<path fill="#1A1A1A" d="M328.2,187.1c-1.7,0-3.1,1.4-3.1,3.1v9c0,1.7,1.4,3.1,3.1,3.1s3.1-1.4,3.1-3.1v-9
			C331.3,188.5,329.9,187.1,328.2,187.1z"/>
	</g>
	<polygon fill="#333333" points="322.7,179 313.9,179.2 320.8,185 320.8,196.1 324.5,196.1 324.5,184.1 331,179 331.3,178.8 	"/>
	<g>
		<polygon fill="#666666" points="623.3,133.2 623.3,133.2 623.3,133.2 		"/>
		<path fill="#666666" d="M623.3,133.2l-155.5,9.9l-6.5,0.4L359.9,150l-2.2-2.6c0.5-2,0.7-4.3,0.7-6.8c-0.1-4.2-0.8-8-2.1-11.5
			c14.6-2.2,74.6-11.5,77.7-12.1h0c1.6-0.3,2.6-0.8,2.9-1.4c0.2-0.4,0.1-0.7,0-0.9l-0.1-0.1l-84.3,7.2c-5.8-8.4-14.9-13.9-25.2-15.2
			l-3.7-99l0-0.3h-5.9l-2.1,99.5c-9.9,1.8-18.6,7.6-23.9,16.1l-84.4-5.5l-0.3,0l0,0.3c0,0.6,0.5,1.9,2.1,2.1
			c1.6,0.1,66.3,8.7,79.2,10.4c-1.1,3.3-1.7,6.9-1.7,10.4c0,2.5,0.3,4.9,0.9,7.2l-2.9,2.8l-100.8-4.2l-6.5-0.3l-56.9-2.4l-6.5-0.3
			l-93.6-3.9c-0.7-0.1-1.4,0.2-1.9,0.7c-0.6,0.5-0.9,1.2-0.9,2c0,1.5,1.2,2.7,2.6,2.7l157.2,9.4l39.1,2.4l0,0l0,0
			c6.9-1.5,25.3,0.9,39.5,3.3c0.8,0.1,1.7,0.3,2.5,0.4c0.7,0.1,1.3,0.2,2,0.3c0.7,0.1,1.4,0.2,2.1,0.4c0.8,0.1,1.5,0.2,2.3,0.4
			c0.6,0.1,1.2,0.2,1.8,0.3c7.8,1.4,13.4,2.5,13.5,2.5l10.3,0.6v6.7c0,2.2,0.9,4.3,2.5,5.9c1.5,1.5,3.5,2.3,5.6,2.3
			c0.1,0,0.1,0,0.2,0l15.6-0.3l8.1-0.2v0l8.6-0.2l15.7-0.3c4.5-0.1,8-3.7,8-8.2v-7.3l9.9,0l14.1-2.7l4.8-0.9l5.9-1.2h0.2l0.1,0
			c8-2.4,38-4.7,38.3-4.7l96.4-7.5l6.5-0.5l92.9-7.3c1.4-0.1,2.5-1.2,2.4-2.6C626,134.3,624.8,133.1,623.3,133.2z M436.4,115.2
			c0,0.1,0,0.2,0,0.2c-0.1,0.3-0.6,0.8-2.5,1.1c-3.1,0.5-63.4,9.9-77.8,12.1c-0.9-2.3-2-4.4-3.3-6.3L436.4,115.2z M318.2,7.9h4.9
			l3.7,98.5c-1.4-0.2-2.8-0.3-4.3-0.3c-2.2,0-4.3,0.2-6.3,0.5L318.2,7.9z M209,119.2c-1-0.1-1.4-0.8-1.5-1.2l83.8,5.4
			c-1.2,2-2.2,4.1-2.9,6.3C275.7,128,210.6,119.3,209,119.2z M288.7,130.3L288.7,130.3l0.1-0.2c0.8-2.3,1.8-4.6,3.2-6.7l0.2-0.4l0,0
			c5.2-8.2,13.8-13.9,23.5-15.6c2.1-0.4,4.3-0.6,6.5-0.6c1.6,0,3.1,0.1,4.6,0.3c10.3,1.2,19.5,6.8,25.2,15.2c1.3,2,2.5,4.3,3.6,6.7
			c0,0,0,0,0,0l0,0c1.4,3.5,2.1,7.3,2.2,11.6c0,2.3-0.2,4.4-0.6,6.3l-0.1-0.1l-0.1,0.5c-3.3,15.4-17.6,26.7-34.1,26.9v-0.4l-0.4,0.4
			l-0.2,0v0.1c-16.4,0-30.8-11.1-34.5-26.4c-0.6-2.4-0.9-4.8-0.9-7.3C287.1,137.1,287.6,133.6,288.7,130.3z M314.3,178.9l-15.6,0.3
			c-2,0.1-4-0.7-5.4-2.1c-1.5-1.5-2.3-3.4-2.3-5.5v-7.3l-9.6-0.5l-1.3-0.1c-0.1,0-5.7-1.1-13.5-2.5c-0.6-0.1-1.2-0.2-1.8-0.3
			c-0.8-0.1-1.5-0.3-2.3-0.4c-0.7-0.2-1.4-0.3-2.1-0.4c-0.6-0.1-1.3-0.2-2-0.3c-0.8-0.1-1.7-0.3-2.5-0.4
			c-11.2-1.9-24.9-3.8-33.7-3.8c-2.4,0-4.4,0.1-5.9,0.5l-32.6-2l-63.4-3.8l-6.5-0.4L20,144.3c-1.1,0-2-1-2-2.1
			c0-0.6,0.3-1.2,0.7-1.6c0.4-0.4,0.9-0.6,1.5-0.5l264.5,11.1l2.7-2.7c3.9,15.3,18.5,26.3,35,26.3c0,0,0,0,0,0v3.9L314.3,178.9z
			 M623.8,137.9l-92.9,7.3l-102.9,8c-0.3,0-30.3,2.3-38.4,4.7l-0.2,0l-4.5,0.9l-20.3,3.9h-10.4v7.9c0,4.2-3.3,7.5-7.4,7.6l-15.7,0.3
			l-8,0.2v-3.9c16.6-0.2,31-11.4,34.6-26.8l2.1,2.5l101.6-6.5l62.9-4l6.5-0.4l92.6-5.9h0c1.2-0.1,2.2,0.8,2.4,2.1
			C625.7,136.9,624.9,137.8,623.8,137.9z"/>
	</g>
	<g>
		<polygon fill="#333333" points="384.6,159.1 384.6,172.8 377.5,169.3 383.5,159.3 378.4,160.3 375.7,166.4 367.3,166.6 362.7,163.1 
			362.6,163.1 357.7,163.1 384.6,178.4 384.6,191.1 389.3,191.1 389.3,158.2 		"/>
		<path fill="#333333" d="M281.3,164.2L281.3,164.2l-4.1,3.3h-7.8c-0.3-0.5-1.8-3.7-2.9-5.8l0-0.1l-0.1,0c-0.6-0.1-1.2-0.2-1.8-0.3
			c-0.8-0.1-1.5-0.3-2.3-0.4l-0.3,0l5.5,9.6l-6.9,4l-0.3-14l-0.1,0c-0.7-0.1-1.5-0.2-2.2-0.3c-0.7-0.1-1.5-0.3-2.3-0.4l-0.2,0
			l0.6,32.3l0,0.1l4.8-0.1l-0.2-13l24.9-14.7L281.3,164.2z"/>
	</g>
	<path fill="#1A1A1A" d="M341.9,122.8l-0.1-0.1l-0.2,0c-2.3,0.4-41.4,0.9-41.8,0.9l-0.1,0l-6.5,9h9.6l3.5-2.2l2.6,1.7l27.4-0.3l2.7-1.5
		l2.5,1.8h8.4L341.9,122.8z"/>
</g>
</svg>
