<?xml version="1.0" encoding="utf-8"?>
<!-- Generator: Adobe Illustrator 22.0.1, SVG Export Plug-In . SVG Version: 6.00 Build 0)  -->
<svg version="1.1" id="Layer_1" xmlns="http://www.w3.org/2000/svg" xmlns:xlink="http://www.w3.org/1999/xlink" x="0px" y="0px"
	 viewBox="0 0 647.1 208" style="enable-background:new 0 0 647.1 208;" xml:space="preserve">
<g>
	<g>
		<g>
			<path style="fill:#00A7E1;stroke:#4D4D4D;stroke-width:0.55;stroke-miterlimit:10;" d="M645.5,147.7c-0.5-5.8-7.1-7.4-14.6-10.5
				l1.4,25.9C641.8,159.7,646,153.9,645.5,147.7z"/>
			<path style="fill:#00A7E1;stroke:#4D4D4D;stroke-width:0.55;stroke-miterlimit:10;" d="M85.7,131.6h1.2c1.4-0.8,2.9-1.6,4.5-2.4
				l-5.7,0.1V131.6z"/>
			<path style="fill:#FFFFFF;stroke:#666666;stroke-width:0.55;stroke-miterlimit:10;" d="M504.7,168.8c0.8,0,1.6,0,2.4,0
				c-0.8-0.3-1.6-0.6-2.4-0.9V168.8z"/>
			<path style="fill:#00A7E1;stroke:#4D4D4D;stroke-width:0.55;stroke-miterlimit:10;" d="M504.7,167.8v-13.2h-16l2.6,3.1
				C494.9,162.2,499.5,165.6,504.7,167.8z"/>
			<path style="fill:#FFFFFF;stroke:#666666;stroke-width:0.55;stroke-miterlimit:10;" d="M491.2,157.8l-2.6-3.1h-3V169
				c6.6-0.1,12.9-0.1,19-0.2v-1C499.5,165.6,494.9,162.2,491.2,157.8z"/>
			<path style="fill:#FFFFFF;stroke:#666666;stroke-width:0.55;stroke-miterlimit:10;" d="M412.8,156.3v13.5
				c6.4-0.1,12.7-0.1,19-0.2v-13.3H412.8z"/>
			<path style="fill:none;stroke:#666666;stroke-width:0.55;stroke-miterlimit:10;" d="M322.6,177.5c1.1-0.5,2.3-0.7,3.6-0.7
				c1.8,0,3.4,0.5,4.9,1.3l-0.1-7.4l-8.5,0.1L322.6,177.5z"/>
			<path style="stroke:#FF0000;stroke-width:0.275;stroke-miterlimit:10;" d="M270.7,171.4L270.7,171.4l51.8-0.6l0,0
				C303.7,171,286.1,171.2,270.7,171.4z"/>
			<path style="stroke:#FF0000;stroke-width:0.275;stroke-miterlimit:10;" d="M330.9,170.7l52.3-0.6l0,0
				C365.4,170.3,347.8,170.5,330.9,170.7L330.9,170.7z"/>
			<path style="fill:#FFFFFF;stroke:#666666;stroke-width:0.55;stroke-miterlimit:10;" d="M398.2,159.7c4.8-5.1,7.5-12.9-13.1-11.3
				l-4.5,0.3l9.6-0.5c2.1,0,0.7,2.1-0.6,3.3l-12.1,11.2c-1.8,1.7-7.3,2.7-10.9,2.6l-35.7,0.4l0.1,5c16.9-0.2,34.5-0.4,52.3-0.6
				c3,0,5.8-1.2,7.9-3.3L398.2,159.7z"/>
			<path style="fill:#FFFFFF;stroke:#666666;stroke-width:0.55;stroke-miterlimit:10;" d="M322.3,165.8l-45.1,0.5c-1.7,0-3-1.4-3-3
				l0.1-1.2h-2.1c-0.8,0-1.5-0.7-1.5-1.5V158c0-0.8,0.7-1.5,1.5-1.5h2.5v-0.3l-8.3,0.6c-3.6,0.3-7.2,0.9-10.7,1.9l-7.3,2.1
				c-1.6,0.4-2.7,1.9-2.5,3.6c0.2,1.4,1.1,2.5,2.5,2.8l7,2c5,1.4,10.2,2.1,15.3,2.1c15.4-0.2,33-0.4,51.8-0.6L322.3,165.8z"/>
			<path style="stroke:#FF0000;stroke-width:0.275;stroke-miterlimit:10;" d="M322.4,170.8L322.4,170.8l8.5-0.1l0,0
				C328.1,170.8,325.2,170.8,322.4,170.8z"/>
			<path style="fill:#FFFFFF;stroke:#666666;stroke-width:0.55;stroke-miterlimit:10;" d="M322.4,170.8c2.8,0,5.6-0.1,8.5-0.1
				l-0.1-5l-8.5,0.1L322.4,170.8z"/>
			<path style="stroke:#FF0000;stroke-width:0.275;stroke-miterlimit:10;" d="M316.2,153.3l5.9-0.4l-8.6,0.6h2.4
				C316,153.4,316,153.3,316.2,153.3z"/>
			<path style="fill:#FFFFFF;stroke:#666666;stroke-width:0.55;stroke-miterlimit:10;" d="M390.2,148.2l-9.6,0.5l-9.4,0.7
				c1.1,0.1,1.7,1.5,0.8,2.3l-7.4,7.9c-1.6,1.5-3.9,2.2-6,1.7l-40.5-7c0,0.1,0.1,0.2,0.1,0.3v3.4c0,0.6-0.5,1.1-1.1,1.1h-16.4
				c-0.6,0-1.1-0.5-1.1-1.1v-3.4v-0.1l-24.9,1.8v0.3h9.2c0.8,0,1.5,0.7,1.5,1.5v2.6c0,0.8-0.7,1.5-1.5,1.5h-9.6l-0.1,1.2
				c0,1.7,1.3,3.1,3,3l45.1-0.5l8.5-0.1l35.7-0.4c3.6,0.1,9.2-0.8,10.9-2.6l12.1-11.2C390.9,150.3,392.3,148.2,390.2,148.2z"/>
			<path style="stroke:#FF0000;stroke-width:0.275;stroke-miterlimit:10;" d="M322.1,152.9l49.1-3.5c-0.1,0-0.1,0-0.2,0L322.1,152.9
				z"/>
			<path style="fill:#FFFFFF;stroke:#666666;stroke-width:0.55;stroke-miterlimit:10;" d="M316.2,153.3c-0.1,0-0.2,0.1-0.3,0.2h1.1
				c0.5,0,0.9,0.4,1,0.8l40.5,7c2.2,0.4,4.4-0.2,6-1.7l7.4-7.9c0.9-0.8,0.3-2.2-0.8-2.3l-49.1,3.5L316.2,153.3z"/>
			<path style="fill:#FFFFFF;stroke:#666666;stroke-width:0.55;stroke-miterlimit:10;" d="M283.9,156.5h-9.2h-2.5
				c-0.8,0-1.5,0.7-1.5,1.5v2.6c0,0.8,0.7,1.5,1.5,1.5h2.1h9.6c0.8,0,1.5-0.7,1.5-1.5V158C285.4,157.2,284.7,156.5,283.9,156.5z"/>
			<path style="fill:#FFFFFF;stroke:#666666;stroke-width:0.55;stroke-miterlimit:10;" d="M318.1,154.3c-0.1-0.5-0.5-0.8-1-0.8H316
				h-2.4h-12.9c-0.6,0-1,0.4-1.1,1v0.1v3.4c0,0.6,0.5,1.1,1.1,1.1h16.4c0.6,0,1.1-0.5,1.1-1.1v-3.4
				C318.1,154.5,318.1,154.4,318.1,154.3z"/>
			<path style="fill:#00A7E1;stroke:#4D4D4D;stroke-width:0.55;stroke-miterlimit:10;" d="M80.4,109.8v4.4c2.9-0.2,6.1-0.4,6.4-0.4
				l31.5-0.5c-5.8,0.1-11.3-2.5-15-7.1L87.8,86.8l10.7-0.1c3.9,0,7.7,1,11,3l1.8,1.1l-7.3-9.1c-4-5-10-7.9-16.4-7.8l-23.4,0.2
				c-4.4,0-8.6-2-11.2-5.5l-1.8-2.3L92,66c2,0,4.1,0.3,6,0.9L83.9,52.2c0,0-2.9-5.2-15.8-7.4s-19.3,0-19.3,0l-46,12.4l28.2,10
				l19.1-0.9L80.4,109.8z M22.9,62.6c-2.2,0-4.1-1.7-4.1-4c0-2.2,1.7-4.1,4-4.1l46.8-0.8l0,0h0.1c0.2,0,0.4,0,0.6,0.1
				c1.9,0.3,3.3,1.9,3.4,3.9c0,2.2-1.7,4.1-4,4.1L22.9,62.6z"/>
			<path style="fill:#FFFFFF;stroke:#666666;stroke-width:0.55;stroke-miterlimit:10;" d="M486.6,135.7c6.2-0.3,12.2,1.7,17.1,5.5
				l-13.5-16.1c-3.1-3.7-7.7-5.8-12.5-5.8H441c-6.4,0-11.4-1.1-15.3-10.1L195.4,112H193l-28,0.5c0,0-5.4,0.6-14.5,2.1
				c-9.7,1.6-23.6,4.1-39.9,7.9c-1.9,0.4-3.6,0.9-5.3,1.4c0.6,0.5,1,1.3,1,2.1c0,1.6-1.3,2.9-2.9,3l-12,0.2
				c-1.6,0.8-3.1,1.6-4.5,2.4l16.5-0.3c1.6,0,2.9,1.3,3,2.9c0,1.6-1.3,2.9-2.9,3l-17.7,0.3l0.1,7.3l124.4,27.3
				c0,0,24.3-0.3,60.4-0.7c-5.2,0.1-10.4-0.6-15.3-2.1l-7-2c-1.3-0.3-2.3-1.5-2.5-2.8c-0.2-1.7,0.9-3.2,2.5-3.6l7.3-2.1
				c3.5-1,7.1-1.6,10.7-1.9l8.3-0.6l24.9-1.8c0-0.6,0.5-1,1.1-1h12.9l8.6-0.6l48.9-3.5c0.1,0,0.2,0,0.2,0l9.4-0.7l4.5-0.3
				c20.6-1.6,17.8,6.2,13.1,11.3l-7.1,7.1c-2.1,2.1-4.9,3.3-7.9,3.3c9.8-0.1,19.7-0.2,29.5-0.3v-13.5h19v13.3
				c18.8-0.2,37.1-0.4,53.9-0.6v-14.4h3l-15.1-18.3L486.6,135.7z M241,150.9h-1.7l-55.9,1.1v-2.4H183c0,0-5.3,0-11.4-0.6
				c-5.3-0.5-11.3-1.3-15.3-2.9c-5.9-2.5-4.6-7-4.6-7l19.8-0.3l11.6-0.2l-0.1-5.5l-11.4,0.1l-19.8,0.2c0,0-1.5-4.5,4.4-7.1
				c3.9-1.7,9.9-2.7,15.2-3.3c6.2-0.7,11.4-0.9,11.4-0.9v-1.9l55.8-1.1h1.8c3-0.1,5.5,2.3,5.6,5.4l0.4,20.7
				C246.4,148.3,244,150.8,241,150.9z"/>
			<path style="fill:#00A7E1;stroke:#4D4D4D;stroke-width:0.55;stroke-miterlimit:10;" d="M61.5,116.5c0.4-0.1,0.8-0.2,1.2-0.2
				l13-1.8c0.3,0,2.4-0.2,4.8-0.3v-4.4L50.1,66.3L31,67.2h0.1L61.5,116.5z"/>
			<path style="fill:#FFFFFF;stroke:#666666;stroke-width:0.55;stroke-miterlimit:10;" d="M103.4,128.9c1.6,0,2.9-1.4,2.9-3
				c0-0.9-0.4-1.6-1-2.1c-5.4,1.6-10,3.4-13.9,5.3L103.4,128.9z"/>
			<path style="fill:#00A7E1;stroke:#4D4D4D;stroke-width:0.55;stroke-miterlimit:10;" d="M85.6,123.4l0.1,5.8l5.7-0.1
				c3.9-1.9,8.5-3.7,13.9-5.3c-0.5-0.5-1.2-0.7-2-0.7L85.6,123.4z"/>
			<path style="fill:#00A7E1;stroke:#4D4D4D;stroke-width:0.55;stroke-miterlimit:10;" d="M85.7,132.3c0.4-0.2,0.8-0.5,1.2-0.7h-1.2
				V132.3z"/>
			<path style="fill:#FFFFFF;stroke:#666666;stroke-width:0.55;stroke-miterlimit:10;" d="M85.8,137.4l17.7-0.3c1.6,0,2.9-1.4,2.9-3
				s-1.4-2.9-3-2.9l-16.5,0.3c-0.4,0.2-0.8,0.5-1.2,0.7L85.8,137.4z"/>
			<path style="fill:#FFFFFF;stroke:#666666;stroke-width:0.55;stroke-miterlimit:10;" d="M85.8,137.4v-5.2
				c-2.7,1.6-4.9,3.3-6.7,4.9c-2.2,1.9-3.8,3.6-5,5l11.8,2.6L85.8,137.4z"/>
			<path style="fill:#00A7E1;stroke:#4D4D4D;stroke-width:0.55;stroke-miterlimit:10;" d="M85.7,131.6v-2.4l-0.1-5.8v-5l-22.1,1.3
				h-6.7c-0.9,1.3-1.3,2.8-1.3,4.4c0,8.1,3.7,15.4,13.6,16.9l5,1.1c1.2-1.4,2.8-3.2,5-5c1.8-1.6,4-3.2,6.7-4.9L85.7,131.6z"/>
			<path style="fill:#00A7E1;stroke:#4D4D4D;stroke-width:0.55;stroke-miterlimit:10;" d="M73.7,57.7c0-2-1.5-3.6-3.4-3.9
				c1.3,0.3,2.3,1.4,2.3,2.8c0,1.6-1.2,2.9-2.8,2.9l-40.6,0.7c-1.6,0-2.9-1.2-2.9-2.8s1.2-2.9,2.8-2.9l40.5-0.7l0,0l-46.8,0.8
				c-2.2,0-4,1.9-4,4.1c0,2.2,1.9,4,4.1,4l46.8-0.8C72,61.7,73.7,59.9,73.7,57.7z"/>
			<path style="stroke:#FF0000;stroke-width:0.275;stroke-miterlimit:10;" d="M69.7,53.7L69.7,53.7c0.1,0,0.4,0,0.6,0.1
				C70.1,53.7,69.9,53.7,69.7,53.7z"/>
			<path style="fill:#00A7E1;stroke:#4D4D4D;stroke-width:0.55;stroke-miterlimit:10;" d="M26.3,57.3c0,1.6,1.3,2.8,2.9,2.8
				l40.6-0.7c1.6,0,2.8-1.3,2.8-2.9c0-1.4-1-2.5-2.3-2.8c-0.2,0-0.5-0.1-0.7-0.1l-40.5,0.7C27.5,54.4,26.3,55.7,26.3,57.3z"/>
			<polygon style="stroke:#FF0000;stroke-width:0.275;stroke-miterlimit:10;" points="193,112 195.4,112 193.2,112 			"/>
			<path style="fill:#002A3A;stroke:#4D4D4D;stroke-width:0.55;stroke-miterlimit:10;" d="M51.3,66.3l1.8,2.3
				c2.7,3.5,6.8,5.6,11.2,5.5L87.7,74c6.4,0,12.4,2.8,16.4,7.8l7.3,9.1l-1.8-1.1c-3.3-2-7.1-3.1-11-3l-10.7,0.1l15.6,19.4
				c3.6,4.5,9.2,7.1,15,7.1l70.1-1.2l4.7-0.1l-65.6-14.6L98,66.8c-1.9-0.6-3.9-0.9-6-0.9L51.3,66.3z"/>
			<path style="fill:none;stroke:#666666;stroke-width:0.55;stroke-miterlimit:10;" d="M577.1,173.9h4.6l25.9-0.2v-6.6
				c-12.1,0.9-24.5,1-30.6,1L577.1,173.9z"/>
			<path style="fill:#00A7E1;stroke:#4D4D4D;stroke-width:0.55;stroke-miterlimit:10;" d="M630.9,137.2c-2.4-1-4.9-2.2-7.3-3.7
				c-1.5-1-4-2.6-5.1-4c-3.1-4.1-6.2-10.4-17.2-16c-12.9-6.5-38.2-6.1-38.2-6.1l-137.4,1.7c3.9,9,8.9,10.1,15.3,10.1h36.7
				c4.8,0,9.4,2.1,12.5,5.8l13.5,16.1c-4.9-3.8-10.9-5.7-17.1-5.5l-13,0.6l15.1,18.3h16v13.2c0.8,0.3,1.6,0.7,2.4,0.9
				c39.2-0.4,66.8-0.7,69-0.7c0.3,0,0.6,0,0.9,0c6,0,18.5-0.2,30.6-1c5.7-0.4,11.3-1,16.1-1.8c3.2-0.5,6-1.2,8.5-2.1L630.9,137.2z"
				/>
			<path style="fill:#666666;" d="M577.1,179.6c0.3-0.1,0.6-0.2,0.8-0.3h-0.2v-4h3.3v3.9c0.2,0,0.4,0.1,0.6,0.2v-5.5H577
				L577.1,179.6z"/>
			<path style="fill:#01151D;stroke:#1A1A1A;stroke-width:0.55;stroke-miterlimit:10;" d="M581.7,179.3c-0.2-0.1-0.4-0.1-0.6-0.2
				c-0.4-0.1-0.9-0.1-1.3-0.1c-0.6,0-1.2,0.1-1.8,0.3c-0.3,0.1-0.6,0.2-0.8,0.3c-2.3,1-3.8,3.3-3.8,5.9c0,3.6,2.9,6.5,6.5,6.5
				s6.5-2.9,6.5-6.5C586.3,182.6,584.4,180.2,581.7,179.3z M579.8,187.6c-1.2,0-2.1-0.9-2.1-2.1c0-1.2,0.9-2.1,2.1-2.1
				c1.2,0,2.1,0.9,2.1,2.1C581.9,186.7,580.9,187.6,579.8,187.6z"/>
			<path style="fill:#01151D;stroke:#1A1A1A;stroke-width:0.55;stroke-miterlimit:10;" d="M331,178.1c-1.4-0.8-3.1-1.3-4.9-1.3
				c-1.3,0-2.5,0.3-3.6,0.7c-3.5,1.4-6.1,4.9-6.1,9c0,5.3,4.3,9.7,9.7,9.7s9.7-4.3,9.7-9.7C335.9,182.9,333.9,179.8,331,178.1z
				 M326.2,190.6c-2.3,0-4.1-1.8-4.1-4.1s1.8-4.1,4.1-4.1s4.1,1.8,4.1,4.1C330.3,188.8,328.5,190.6,326.2,190.6z"/>
			<path style="fill:#CBCBCB;stroke:#4D4D4D;stroke-width:0.55;stroke-miterlimit:10;" d="M240.4,119.2h-1.8
				c0.1,5.6,0.6,25.2,0.7,31.7h1.7c3-0.1,5.4-2.6,5.4-5.6l-0.4-20.7C245.9,121.6,243.4,119.2,240.4,119.2z"/>
			<path style="fill:#FFFFFF;stroke:#666666;stroke-width:0.55;stroke-miterlimit:10;" d="M171.3,123.1l0.2,10.2l11.4-0.1l-0.2-11
				C182.8,122.2,177.5,122.4,171.3,123.1z"/>
			<path style="fill:#FFFFFF;stroke:#666666;stroke-width:0.55;stroke-miterlimit:10;" d="M156.1,126.4c-5.9,2.6-4.4,7.1-4.4,7.1
				l19.8-0.2l-0.2-10.2C166,123.7,160,124.7,156.1,126.4z"/>
			<path style="fill:#FFFFFF;stroke:#666666;stroke-width:0.55;stroke-miterlimit:10;" d="M151.6,139.1c0,0-1.4,4.5,4.6,7
				c3.9,1.6,9.9,2.4,15.3,2.9v-10.2L151.6,139.1z"/>
			<path style="fill:#FFFFFF;stroke:#666666;stroke-width:0.55;stroke-miterlimit:10;" d="M171.4,138.8V149
				c6.2,0.6,11.4,0.6,11.4,0.6h0.4l-0.2-11L171.4,138.8z"/>
			<path style="fill:#002A3A;stroke:#4D4D4D;stroke-width:0.55;stroke-miterlimit:10;" d="M238.5,119.2l-55.8,1.1v1.9l0.2,11
				l0.1,5.5l0.2,11v2.4l55.9-1.1C239.1,144.4,238.6,124.9,238.5,119.2z"/>
			<path style="fill:#00A7E1;stroke:#4D4D4D;stroke-width:0.55;stroke-miterlimit:10;" d="M118.5,113.3L118.5,113.3l-31.6,0.5
				c-0.3,0-3.5,0.2-6.4,0.4c-2.3,0.2-4.5,0.3-4.8,0.3l-13,1.8c-0.4,0-0.8,0.1-1.2,0.2c-1.1,0.3-2.1,0.8-3,1.4
				c-0.7,0.5-1.2,1.1-1.7,1.8h6.7l22.1-1.3v5l17.7-0.3c0.8,0,1.4,0.3,2,0.7c1.7-0.5,3.5-1,5.3-1.4c16.3-3.8,30.2-6.3,39.9-7.9
				c9.1-1.5,14.5-2.1,14.5-2.1L118.5,113.3z"/>
		</g>
		<g>
			<polygon style="fill:#002A3A;" points="270.6,129.3 270.5,122.2 272.1,122.2 274.8,125.9 277.4,122.1 278.9,122.1 279,129.1 
				277.6,129.2 277.6,123.9 274.8,128 271.9,124 272,129.3 			"/>
			<polygon style="fill:#002A3A;" points="296,121.8 297.5,121.8 297.6,129.5 296.1,127.8 			"/>
			<path style="fill:#002A3A;" d="M287.8,121.9h1.9l1.7,2.2l1.7-2.2h2l-2.9,3.2l5,6.2h-0.8c-0.8,0-1.4-0.4-1.8-1
				c-0.8-1.1-3.3-4.1-3.3-4.1l-0.6,0.7c-1.1,1.3-2.9,2.3-5.4,2.3c-3.1,0-4.7-1-4.7-3.8c0-2.7,1.6-3.6,3.7-3.6c1.9,0,2.9,0.9,3,2.6
				c0,0.9-0.2,1.4-0.2,1.4l-5,0.1c0.1,1.5,1.1,2.2,3.2,2.1c2,0,3.6-0.9,4.7-2.2l0.6-0.7L287.8,121.9z M284.1,122.9
				c-1.6,0-2.1,0.9-2.2,1.9l3.7-0.1c0,0,0.1-0.2,0.1-0.4C285.7,123.3,285,122.9,284.1,122.9"/>
			<path style="fill:#002A3A;" d="M305.5,122.1l-0.5,1.3c0,0-1-0.6-2.3-0.6c-1.5,0-2.5,0.6-2.5,2.5c0,1.8,0.9,2.5,2.7,2.5
				c1.6,0,2.5-0.7,2.5-0.7v1.3c0,0-0.7,0.6-2.6,0.6c-2.8,0-4.1-1.1-4.1-3.8c0-2.5,1.6-3.6,3.8-3.6
				C304.5,121.5,305.5,122.1,305.5,122.1"/>
			<path style="fill:#002A3A;" d="M312.9,124.4l0.1,4.2h-1.4v-1.1h-0.1c0,0-0.6,1.3-2.4,1.3s-2.5-1.1-2.5-2.2c0-1.2,0.6-1.9,0.6-1.9
				l4.3-0.1v-0.3c0-1.4-0.4-1.7-2-1.7c-1.4,0-2.3,0.6-2.3,0.6l-0.5-1.3c0,0,1.2-0.5,2.9-0.5C311.8,121.4,312.9,122,312.9,124.4
				 M309.3,127.7c1.4,0,2.2-0.9,2.2-2l-3.5,0.1c0,0-0.2,0.2-0.2,0.7C307.9,127.2,308.3,127.8,309.3,127.7"/>
			<polygon style="fill:#002A3A;" points="314.8,128.6 314.7,121.5 316.3,121.5 320.4,126.5 320.3,121.4 321.7,121.4 321.8,128.5 
				320.4,128.5 316.1,123.3 316.2,128.6 			"/>
			<path style="fill:#002A3A;" d="M329.6,124.2l0.1,4.2h-1.4v-1.1h-0.1c0,0-0.6,1.3-2.4,1.3s-2.5-1.1-2.5-2.2c0-1.2,0.6-1.9,0.6-1.9
				l4.3-0.1v-0.3c0-1.4-0.4-1.7-2-1.7c-1.4,0-2.3,0.6-2.3,0.6l-0.5-1.3c0,0,1.2-0.5,2.9-0.5C328.6,121.1,329.6,121.7,329.6,124.2
				 M326.1,127.5c1.4,0,2.2-0.9,2.2-2l-3.5,0.1c0,0-0.2,0.2-0.2,0.7C324.6,126.9,325,127.5,326.1,127.5"/>
			
				<rect x="341.8" y="121.1" transform="matrix(0.9999 -1.548546e-02 1.548546e-02 0.9999 -1.8892 5.3188)" style="fill:#00A7E1;" width="1.4" height="7.1"/>
			
				<rect x="338.9" y="119.4" transform="matrix(0.9999 -1.546288e-02 1.546288e-02 0.9999 -1.8737 5.2653)" style="fill:#00A7E1;" width="1.3" height="8.8"/>
			
				<rect x="352.6" y="119.2" transform="matrix(0.9999 -1.548441e-02 1.548441e-02 0.9999 -1.8716 5.4856)" style="fill:#00A7E1;" width="1.4" height="8.8"/>
			<path style="fill:#00A7E1;" d="M337.6,121.6l-0.5,1.3c0,0-1-0.6-2.2-0.6c-1.5,0-2.5,0.6-2.5,2.5c0,1.8,0.9,2.5,2.7,2.5
				c1.6,0,2.5-0.7,2.5-0.7v1.3c0,0-0.7,0.6-2.6,0.6c-2.8,0-4.1-1.1-4.1-3.8c0-2.5,1.6-3.6,3.8-3.6
				C336.6,121,337.6,121.6,337.6,121.6"/>
			<path style="fill:#00A7E1;" d="M351.3,121.4l-0.5,1.3c0,0-1-0.6-2.2-0.6c-1.5,0-2.5,0.6-2.5,2.5c0,1.8,0.9,2.5,2.7,2.5
				c1.6,0,2.5-0.7,2.5-0.7v1.3c0,0-0.7,0.6-2.6,0.6c-2.8,0-4.1-1.1-4.1-3.8c0-2.5,1.6-3.6,3.8-3.6
				C350.3,120.8,351.3,121.4,351.3,121.4"/>
			<path style="fill:#00A7E1;" d="M354.5,124.3l2.6-3.4h2l-2.9,3.2l5,6.2h-0.8c-0.8,0-1.4-0.4-1.8-1
				C357.7,128.2,354.5,124.3,354.5,124.3"/>
		</g>
		<g>
			<path style="opacity:0.6;fill:#666666;enable-background:new    ;" d="M253.8,141.6l-3.5,0.1c-0.7,0-1.3-0.5-1.3-1.2l-0.1-5.2
				c0-0.7,0.5-1.3,1.2-1.3l3.5-0.1c0.7,0,1.3,0.5,1.3,1.2l0.1,5.2C255.1,141.1,254.5,141.6,253.8,141.6z"/>
			<path style="opacity:0.6;fill:#666666;enable-background:new    ;" d="M263,141.5l-3.5,0.1c-0.7,0-1.3-0.5-1.3-1.2l-0.1-5.2
				c0-0.7,0.5-1.3,1.2-1.3l3.5-0.1c0.7,0,1.3,0.5,1.3,1.2l0.1,5.2C264.2,140.9,263.7,141.5,263,141.5z"/>
			<path style="opacity:0.6;fill:#666666;enable-background:new    ;" d="M272.1,141.3l-3.5,0.1c-0.7,0-1.3-0.5-1.3-1.2l-0.1-5.2
				c0-0.7,0.5-1.3,1.2-1.3l3.5-0.1c0.7,0,1.3,0.5,1.3,1.2l0.1,5.2C273.4,140.7,272.8,141.3,272.1,141.3z"/>
			<path style="opacity:0.6;fill:#666666;enable-background:new    ;" d="M281.3,141.1l-3.5,0.1c-0.7,0-1.3-0.5-1.3-1.2l-0.1-5.2
				c0-0.7,0.5-1.3,1.2-1.3l3.5-0.1c0.7,0,1.3,0.5,1.3,1.2l0.1,5.2C282.5,140.5,282,141.1,281.3,141.1z"/>
			<path style="opacity:0.6;fill:#666666;enable-background:new    ;" d="M290.4,140.9L287,141c-0.7,0-1.3-0.5-1.3-1.2l-0.1-5.2
				c0-0.7,0.5-1.3,1.2-1.3l3.5-0.1c0.7,0,1.3,0.5,1.3,1.2l0.1,5.2C291.7,140.3,291.1,140.9,290.4,140.9z"/>
			<path style="opacity:0.6;fill:#666666;enable-background:new    ;" d="M299.6,140.8l-3.5,0.1c-0.7,0-1.3-0.5-1.3-1.2l-0.1-5.2
				c0-0.7,0.5-1.3,1.2-1.3l3.5-0.1c0.7,0,1.3,0.5,1.3,1.2l0.1,5.2C300.8,140.2,300.3,140.7,299.6,140.8z"/>
			<path style="opacity:0.6;fill:#666666;enable-background:new    ;" d="M308.7,140.6l-3.5,0.1c-0.7,0-1.3-0.5-1.3-1.2l-0.1-5.2
				c0-0.7,0.5-1.3,1.2-1.3l3.5-0.1c0.7,0,1.3,0.5,1.3,1.2l0.1,5.2C310,140,309.4,140.6,308.7,140.6z"/>
			<path style="opacity:0.6;fill:#666666;enable-background:new    ;" d="M317.9,140.4l-3.5,0.1c-0.7,0-1.3-0.5-1.3-1.2l-0.1-5.2
				c0-0.7,0.5-1.3,1.2-1.3l3.5-0.1c0.7,0,1.3,0.5,1.3,1.2l0.1,5.2C319.1,139.8,318.6,140.4,317.9,140.4z"/>
			<path style="opacity:0.6;fill:#666666;enable-background:new    ;" d="M327,140.2l-3.5,0.1c-0.7,0-1.3-0.5-1.3-1.2l-0.1-5.2
				c0-0.7,0.5-1.3,1.2-1.3l3.5-0.1c0.7,0,1.3,0.5,1.3,1.2l0.1,5.2C328.3,139.6,327.7,140.2,327,140.2z"/>
			<path style="opacity:0.6;fill:#666666;enable-background:new    ;" d="M336.2,140l-3.5,0.1c-0.7,0-1.3-0.5-1.3-1.2l-0.1-5.2
				c0-0.7,0.5-1.3,1.2-1.3l3.5-0.1c0.7,0,1.3,0.5,1.3,1.2l0.1,5.2C337.4,139.5,336.9,140,336.2,140z"/>
			<path style="opacity:0.6;fill:#666666;enable-background:new    ;" d="M347.8,139.8l-3.5,0.1c-0.7,0-1.3-0.5-1.3-1.2l-0.1-5.2
				c0-0.7,0.5-1.3,1.2-1.3l3.5-0.1c0.7,0,1.3,0.5,1.3,1.2l0.1,5.2C349,139.2,348.5,139.8,347.8,139.8z"/>
			<path style="opacity:0.6;fill:#666666;enable-background:new    ;" d="M361.1,139.5l-3.5,0.1c-0.7,0-1.3-0.5-1.3-1.2l-0.1-5.2
				c0-0.7,0.5-1.3,1.2-1.3l3.5-0.1c0.7,0,1.3,0.5,1.3,1.2l0.1,5.2C362.4,139,361.8,139.5,361.1,139.5z"/>
			<path style="fill:none;stroke:#4D4D4D;stroke-width:0.55;stroke-miterlimit:10;" d="M361.7,145.8l-4.4,0.1
				c-1.4,0-2.6-1.1-2.6-2.5l-0.3-15c0-1.4,1.1-2.6,2.5-2.6l4.4-0.1c1.4,0,2.6,1.1,2.6,2.5l0.3,15
				C364.2,144.6,363.1,145.7,361.7,145.8z"/>
			<path style="fill:none;stroke:#4D4D4D;stroke-width:0.55;stroke-miterlimit:10;" d="M348.4,146l-4.4,0.1c-1.4,0-2.6-1.1-2.6-2.5
				l-0.3-15c0-1.4,1.1-2.6,2.5-2.6l4.4-0.1c1.4,0,2.6,1.1,2.6,2.5l0.3,15C350.9,144.8,349.8,146,348.4,146z"/>
			<path style="opacity:0.6;fill:#666666;enable-background:new    ;" d="M372.8,139.3l-3.5,0.1c-0.7,0-1.3-0.5-1.3-1.2l-0.1-5.2
				c0-0.7,0.5-1.3,1.2-1.3l3.5-0.1c0.7,0,1.3,0.5,1.3,1.2l0.1,5.2C374,138.7,373.4,139.3,372.8,139.3z"/>
			<path style="opacity:0.6;fill:#666666;enable-background:new    ;" d="M381.9,139.1l-3.5,0.1c-0.7,0-1.3-0.5-1.3-1.2l-0.1-5.2
				c0-0.7,0.5-1.3,1.2-1.3l3.5-0.1c0.7,0,1.3,0.5,1.3,1.2l0.1,5.2C383.1,138.6,382.6,139.1,381.9,139.1z"/>
			<path style="opacity:0.6;fill:#666666;enable-background:new    ;" d="M391.1,139l-3.5,0.1c-0.7,0-1.3-0.5-1.3-1.2l-0.1-5.2
				c0-0.7,0.5-1.3,1.2-1.3l3.5-0.1c0.7,0,1.3,0.5,1.3,1.2l0.1,5.2C392.3,138.4,391.7,138.9,391.1,139z"/>
			<path style="opacity:0.6;fill:#666666;enable-background:new    ;" d="M400.2,138.8l-3.5,0.1c-0.7,0-1.3-0.5-1.3-1.2l-0.1-5.2
				c0-0.7,0.5-1.3,1.2-1.3l3.5-0.1c0.7,0,1.3,0.5,1.3,1.2l0.1,5.2C401.4,138.2,400.9,138.8,400.2,138.8z"/>
			<path style="opacity:0.6;fill:#666666;enable-background:new    ;" d="M409.4,138.6l-3.5,0.1c-0.7,0-1.3-0.5-1.3-1.2l-0.1-5.2
				c0-0.7,0.5-1.3,1.2-1.3l3.5-0.1c0.7,0,1.3,0.5,1.3,1.2l0.1,5.2C410.6,138,410,138.6,409.4,138.6z"/>
			<path style="opacity:0.6;fill:#666666;enable-background:new    ;" d="M418.5,138.4l-3.5,0.1c-0.7,0-1.3-0.5-1.3-1.2l-0.1-5.2
				c0-0.7,0.5-1.3,1.2-1.3l3.5-0.1c0.7,0,1.3,0.5,1.3,1.2l0.1,5.2C419.7,137.8,419.2,138.4,418.5,138.4z"/>
			<path style="opacity:0.6;fill:#666666;enable-background:new    ;" d="M427.7,138.2l-3.5,0.1c-0.7,0-1.3-0.5-1.3-1.2l-0.1-5.2
				c0-0.7,0.5-1.3,1.2-1.3l3.5-0.1c0.7,0,1.3,0.5,1.3,1.2l0.1,5.2C428.9,137.7,428.3,138.2,427.7,138.2z"/>
			<path style="opacity:0.6;fill:#666666;enable-background:new    ;" d="M436.8,138.1l-3.5,0.1c-0.7,0-1.3-0.5-1.3-1.2l-0.1-5.2
				c0-0.7,0.5-1.3,1.2-1.3l3.5-0.1c0.7,0,1.3,0.5,1.3,1.2l0.1,5.2C438,137.5,437.5,138,436.8,138.1z"/>
			<path style="opacity:0.6;fill:#666666;enable-background:new    ;" d="M445.9,137.9l-3.5,0.1c-0.7,0-1.3-0.5-1.3-1.2l-0.1-5.2
				c0-0.7,0.5-1.3,1.2-1.3l3.5-0.1c0.7,0,1.3,0.5,1.3,1.2l0.1,5.2C447.2,137.3,446.6,137.9,445.9,137.9z"/>
			<path style="opacity:0.6;fill:#666666;enable-background:new    ;" d="M455.1,137.7l-3.5,0.1c-0.7,0-1.3-0.5-1.3-1.2l-0.1-5.2
				c0-0.7,0.5-1.3,1.2-1.3l3.5-0.1c0.7,0,1.3,0.5,1.3,1.2l0.1,5.2C456.3,137.1,455.8,137.7,455.1,137.7z"/>
			<path style="opacity:0.6;fill:#666666;enable-background:new    ;" d="M464.2,137.5l-3.5,0.1c-0.7,0-1.3-0.5-1.3-1.2l-0.1-5.2
				c0-0.7,0.5-1.3,1.2-1.3l3.5-0.1c0.7,0,1.3,0.5,1.3,1.2l0.1,5.2C465.5,136.9,464.9,137.5,464.2,137.5z"/>
			<path style="opacity:0.6;fill:#666666;enable-background:new    ;" d="M473.4,137.3l-3.5,0.1c-0.7,0-1.3-0.5-1.3-1.2l-0.1-5.2
				c0-0.7,0.5-1.3,1.2-1.3l3.5-0.1c0.7,0,1.3,0.5,1.3,1.2l0.1,5.2C474.6,136.8,474.1,137.3,473.4,137.3z"/>
			<path style="opacity:0.6;fill:#666666;enable-background:new    ;" d="M482.5,137.2l-3.5,0.1c-0.7,0-1.3-0.5-1.3-1.2l-0.1-5.2
				c0-0.7,0.5-1.3,1.2-1.3l3.5-0.1c0.7,0,1.3,0.5,1.3,1.2l0.1,5.2C483.8,136.6,483.2,137.2,482.5,137.2z"/>
			<path style="opacity:0.6;fill:#666666;enable-background:new    ;" d="M491.7,137l-3.5,0.1c-0.7,0-1.3-0.5-1.3-1.2l-0.1-5.2
				c0-0.7,0.5-1.3,1.2-1.3l3.5-0.1c0.7,0,1.3,0.5,1.3,1.2l0.1,5.2C492.9,136.4,492.4,137,491.7,137z"/>
			<path style="opacity:0.6;fill:#666666;enable-background:new    ;" d="M500.8,136.8l-3.5,0.1c-0.7,0-1.3-0.5-1.3-1.2l-0.1-5.2
				c0-0.7,0.5-1.3,1.2-1.3l3.5-0.1c0.7,0,1.3,0.5,1.3,1.2l0.1,5.2C502.1,136.2,501.5,136.8,500.8,136.8z"/>
			<path style="opacity:0.6;fill:#666666;enable-background:new    ;" d="M510,136.6l-3.5,0.1c-0.7,0-1.3-0.5-1.3-1.2l-0.1-5.2
				c0-0.7,0.5-1.3,1.2-1.3l3.5-0.1c0.7,0,1.3,0.5,1.3,1.2l0.1,5.2C511.2,136,510.7,136.6,510,136.6z"/>
			<path style="opacity:0.6;fill:#666666;enable-background:new    ;" d="M519.1,136.4l-3.5,0.1c-0.7,0-1.3-0.5-1.3-1.2l-0.1-5.2
				c0-0.7,0.5-1.3,1.2-1.3l3.5-0.1c0.7,0,1.3,0.5,1.3,1.2l0.1,5.2C520.4,135.9,519.8,136.4,519.1,136.4z"/>
			<path style="opacity:0.6;fill:#666666;enable-background:new    ;" d="M528.3,136.3l-3.5,0.1c-0.7,0-1.3-0.5-1.3-1.2l-0.1-5.2
				c0-0.7,0.5-1.3,1.2-1.3l3.5-0.1c0.7,0,1.3,0.5,1.3,1.2l0.1,5.2C529.5,135.7,529,136.3,528.3,136.3z"/>
			<path style="opacity:0.6;fill:#666666;enable-background:new    ;" d="M537.4,136.1l-3.5,0.1c-0.7,0-1.3-0.5-1.3-1.2l-0.1-5.2
				c0-0.7,0.5-1.3,1.2-1.3l3.5-0.1c0.7,0,1.3,0.5,1.3,1.2l0.1,5.2C538.7,135.5,538.1,136.1,537.4,136.1z"/>
			<path style="opacity:0.6;fill:#666666;enable-background:new    ;" d="M546.3,135.9l-3.5,0.1c-0.7,0-1.3-0.5-1.3-1.2l-0.1-5.2
				c0-0.7,0.5-1.3,1.2-1.3l3.5-0.1c0.7,0,1.3,0.5,1.3,1.2l0.1,5.2C547.6,135.3,547,135.9,546.3,135.9z"/>
			<g>
				<path style="opacity:0.6;fill:#666666;enable-background:new    ;" d="M599.3,135.2l-4.3,0.1c-0.7,0-1.4-0.6-1.4-1.3l-0.1-5
					c0-0.7,0.6-1.4,1.3-1.4l4.3-0.1c0.7,0,1.4,0.6,1.4,1.3l0.1,5C600.6,134.6,600,135.2,599.3,135.2z"/>
				<path style="opacity:0.6;fill:#666666;enable-background:new    ;" d="M607.9,135.1l-4.3,0.1c-0.7,0-1.4-0.6-1.4-1.3l-0.1-5
					c0-0.7,0.6-1.4,1.3-1.4l4.3-0.1c0.7,0,1.4,0.6,1.4,1.3l0.1,5C609.3,134.4,608.7,135.1,607.9,135.1z"/>
				<path style="opacity:0.6;fill:#666666;enable-background:new    ;" d="M611.8,133.5c1.3,1.5,5.4,0,5.4,0l3.7-1.7
					c-0.8-0.6-1.6-1.3-2.1-2c-0.9-1.1-1.7-2.4-2.8-3.9c-1.7,0.5-4.2,1.3-4.5,1.5C611,127.8,610.5,132,611.8,133.5z"/>
			</g>
			<g>
				<path style="fill:none;stroke:#4D4D4D;stroke-width:0.5307;stroke-miterlimit:10;" d="M564,146.1l-0.3-15.8c0-2.2,1.7-4,3.9-4
					l7.3-0.1l-0.1-2.8c-0.1-2.8-2.4-5.1-5.2-5l-6.4,0.1c-2.8,0.1-5.1,2.4-5,5.2l0.6,29.9c0.1,2.8,2.4,5.1,5.2,5l6.4-0.1
					c2.8-0.1,5.1-2.4,5-5.2l-0.1-3.4L568,150C565.8,150.1,564,148.3,564,146.1z"/>
				<path style="fill:none;stroke:#4D4D4D;stroke-width:0.5307;stroke-miterlimit:10;" d="M567.5,126.3c-2.2,0-3.9,1.9-3.9,4
					l0.3,15.8c0,2.2,1.9,3.9,4,3.9l7.3-0.1l-0.5-23.7L567.5,126.3z"/>
			</g>
		</g>
		<path style="fill:#FFFFFF;" d="M67.8,79h13.9c1.3,0,1.7,0.3,2.4,1.3l3.1,4.2C87.3,84.5,81.8,80.6,67.8,79"/>
		<path style="fill:#002A3A;" d="M452.6,127h13.9c1.3,0,1.7,0.3,2.4,1.3l3.1,4.2C472.1,132.5,466.6,128.6,452.6,127"/>
		<g>
			
				<rect x="195.4" y="155" transform="matrix(0.9999 -1.524698e-02 1.524698e-02 0.9999 -2.3748 3.0151)" style="fill:#009145;" width="2.3" height="4.5"/>
			
				<rect x="199.9" y="154.9" transform="matrix(0.9999 -1.524698e-02 1.524698e-02 0.9999 -2.3727 3.0837)" style="fill:#FF0000;" width="2.3" height="4.5"/>
			<path style="fill:#B2B2B2;" d="M199,157.4c0,0.1-0.1,0.2-0.2,0.2c-0.1,0-0.2-0.1-0.2-0.2c0-0.1,0.1-0.2,0.2-0.2
				S199,157.3,199,157.4z"/>
		</g>
		<g>
			
				<text transform="matrix(0.9999 -1.317004e-02 1.317004e-02 0.9999 212.56 159.5043)" style="font-family:'PTSans-Caption'; font-size:5.3088px;">XA-UDU</text>
		</g>
	</g>
</g>
</svg>
