<svg version="1.1" id="Layer_1" xmlns="http://www.w3.org/2000/svg" xmlns:xlink="http://www.w3.org/1999/xlink" x="0px" y="0px"
	 viewBox="0 0 685.9 584.5" style="enable-background:new 0 0 685.9 584.5;" xml:space="preserve">
<g>
	<g>
		<path style="fill:#FFFFFF;stroke:#FF0000;stroke-width:0.2241;stroke-miterlimit:10;" d="M480.3,315.8l-18.9,0
			c19,2.1,26.4,7.4,26.4,7.4l-4.2-5.7C482.7,316.2,482,315.8,480.3,315.8z"/>
		<path style="fill:#FFFFFF;stroke:#FF0000;stroke-width:0.2241;stroke-miterlimit:10;" d="M480.3,263.3c1.7,0,2.4-0.4,3.3-1.7
			l4.2-5.7c0,0-7.5,5.3-26.4,7.4L480.3,263.3z"/>
		<path style="fill:#FFFFFF;stroke:#FF0000;stroke-width:0.2241;stroke-miterlimit:10;" d="M61.1,310.4L61.1,310.4L61.1,310.4
			l1.7,0.3c0.1,0,0.2,0,0.2,0l-14.1-2.4c0,0,0,0,0,0L61.1,310.4z"/>
		<path style="fill:#FFFFFF;stroke:#FF0000;stroke-width:0.2241;stroke-miterlimit:10;" d="M63.8,278.3L63.8,278.3L63.8,278.3
			l-13,2.8c0,0.1,0.1,0.1,0.1,0.2l16.1-3.5c-0.2,0-0.5,0-0.7,0L63.8,278.3z"/>
		<polygon style="fill:#FFFFFF;stroke:#666666;stroke-width:0.5445;stroke-miterlimit:10;" points="346.9,183.5 336.9,183.6 
			346.9,183.5 		"/>
		<path style="fill:#FFFFFF;stroke:#666666;stroke-width:0.5445;stroke-miterlimit:10;" d="M425.2,240.1l5.1,9.6l12.8-0.5
			c-1.6-1.3-3.2-3-4.4-5c-1.7-2.8-14-23.7-29.9-52.8l-5.8,7.4L425.2,240.1z"/>
		<polygon style="fill:#FFFFFF;stroke:#FF0000;stroke-width:0.2241;stroke-miterlimit:10;" points="430.4,249.7 443.1,249.2 
			443.1,249.2 430.4,249.7 		"/>
		<path style="fill:#FFFFFF;stroke:#666666;stroke-width:0.5445;stroke-miterlimit:10;" d="M346.9,192.5l0-6l0-3l-10,0.1l0.3,19.8
			l0,0.5c2.7,0,7.1,0,9.9,0L346.9,192.5z"/>
		<path style="fill:#FFFFFF;stroke:#666666;stroke-width:0.5445;stroke-miterlimit:10;" d="M347.2,211.4c-2.8,0-7.3,0-9.9-0.1
			l0.6,44.6l9.7-0.1L347.2,211.4z"/>
		<path style="fill:#FFFFFF;stroke:#666666;stroke-width:0.5445;stroke-miterlimit:10;" d="M349.8,211.4L349.8,211.4
			C349.8,211.4,349.8,211.4,349.8,211.4c0.1,0,0.1,0,0.1,0v0c0.8,0,7.1,0,8.3-0.1c1.2,0,2.5,0,3.8-0.1c1.6,0,6.5-1.3,8-2
			c1.1-0.6,1.1-2-0.1-2.5c-1.4-0.6-4.7-1.5-6.2-2c-1.3-0.4-3.5-0.7-5.6-0.8c-1.2-0.1-7.4-0.1-8.3-0.1v0c0,0,0,0-0.1,0c0,0,0,0-0.1,0
			v0c-0.2,0-1.2,0-2.6,0c-2.8,0-7.3,0-9.9,0c-1.1,0-1.9,0-2.2,0c-1.2,0-2.5,0-3.8,0.1c-1.6,0-6.5,1.3-8,2c-1.1,0.6-1.1,2,0.1,2.5
			c1.4,0.6,4.7,1.5,6.2,2c1.3,0.4,3.5,0.7,5.6,0.8c0.3,0,1.1,0,2.2,0c2.7,0,7.1,0,9.9,0.1C348.6,211.4,349.6,211.4,349.8,211.4z"/>
		<polygon style="fill:#FFFFFF;stroke:#666666;stroke-width:0.5445;stroke-miterlimit:10;" points="299.5,66.4 293.8,66.4 
			311.7,113.4 336.5,181.7 346.3,181.7 		"/>
		<path style="fill:#FFFFFF;stroke:#666666;stroke-width:0.5445;stroke-miterlimit:10;" d="M368.5,140.2c0,0,4.1-1.9,7.7-3.6
			c-8-13.4-16.7-28.1-25.3-42.5c-2.4,1.3-5.1,2.8-6.3,3.5L368.5,140.2z"/>
		<path style="fill:#FFFFFF;stroke:#666666;stroke-width:0.5445;stroke-miterlimit:10;" d="M395,187.3l10.8-1
			c-5.2-8.7-16.4-27.6-29.6-49.8c-3.6,1.7-7.7,3.6-7.7,3.6L395,187.3z"/>
		<path style="fill:#FFFFFF;stroke:#666666;stroke-width:0.5445;stroke-miterlimit:10;" d="M344.6,97.5c1.3-0.7,3.9-2.1,6.3-3.5
			c-8.6-14.5-17.1-28.8-24.5-41.2c-2.5,1.1-5.5,2.5-5.5,2.5L344.6,97.5z"/>
		<path style="fill:#FFFFFF;stroke:#666666;stroke-width:0.5445;stroke-miterlimit:10;" d="M404.9,381l6,7.2
			c15.3-29.4,27.2-50.5,28.8-53.3c1.2-2,2.8-3.7,4.3-5.1l-12.8-0.3L404.9,381z"/>
		<path style="fill:#FFFFFF;stroke:#666666;stroke-width:0.5445;stroke-miterlimit:10;" d="M348.9,369.5c1.4,0,2.4-0.1,2.6-0.1v0
			c0,0,0,0,0.1,0c0,0,0.1,0,0.1,0v0c0.8,0,7.1-0.1,8.3-0.1c1.2,0,2.5,0,3.8,0c1.6,0,6.5,1.1,8,1.9c1.1,0.5,1.1,2,0,2.5
			c-1.4,0.7-4.7,1.6-6.2,2.1c-1.3,0.5-3.5,0.7-5.6,0.9c-1.2,0.1-7.4,0.2-8.3,0.3v0c0,0,0,0-0.1,0c0,0,0,0-0.1,0v0
			c-0.2,0-1.2,0-2.6,0l0.1,11.5l0.1,5.9l0.1,3l-10,0.1l-0.1,1.1l-0.3,0.8l9.9-0.2L304,515.4l-5.6,0.1l-5.2,14.5l-9.6,30.6l-5.2,15.3
			l-5,0.3l-0.2,3l14.2-0.3c10.6,0,17.5-2.5,21.2-10.3c0.8-1.6,10-18,22.7-40.3c-2.5-1.1-5.6-2.4-5.6-2.4l22.8-42.6l23.1-43.1
			l25.5-47.6l10.9,0.8c1.8-3.1,2.8-4.9,2.9-5.2l-6-7.2l0,0h0l26.3-51.4l12.8,0.3l0,0h0c4.3-3.7,9-5.2,11.5-5.7l-107.2,1.1
			L348.9,369.5z M400.1,353l-10.9,0.2c-2.3,0-4.2-1.8-4.2-4c0-2.3,1.8-4.2,4-4.2l10.9-0.2c2.3,0,4.2,1.8,4.2,4
			C404.2,351.1,402.4,353,400.1,353z M388.8,335.2l10.9-0.2c2.3,0,4.2,1.8,4.2,4c0,2.3-1.8,4.2-4,4.2l-10.9,0.2
			c-2.3,0-4.2-1.8-4.2-4C384.7,337.1,386.5,335.2,388.8,335.2z M378.1,353.5l-10.9,0.2c-2.3,0-4.2-1.8-4.2-4c0-2.3,1.8-4.2,4-4.2
			l10.9-0.2c2.3,0,4.2,1.8,4.2,4C382.2,351.5,380.4,353.4,378.1,353.5z M366.8,335.6l10.9-0.2c2.3,0,4.2,1.8,4.2,4
			c0,2.3-1.8,4.2-4,4.2l-10.9,0.2c-2.3,0-4.2-1.8-4.2-4C362.8,337.5,364.6,335.6,366.8,335.6z"/>
		<polygon style="fill:#FFFFFF;stroke:#666666;stroke-width:0.5445;stroke-miterlimit:10;" points="404.9,381 404.9,381 
			431.3,329.6 		"/>
		<polygon style="fill:#FFFFFF;stroke:#666666;stroke-width:0.5445;stroke-miterlimit:10;" points="404.9,381 410.9,388.2 
			404.9,381 		"/>
		<path style="fill:#FFFFFF;stroke:#666666;stroke-width:0.5445;stroke-miterlimit:10;" d="M348.4,325.2l-9.7,0.1l0.2,44.4
			c2.7-0.1,7.1-0.2,9.9-0.2L348.4,325.2z"/>
		<path style="fill:#002A3A;stroke:#FFFFFF;stroke-width:0.5445;stroke-miterlimit:10;" d="M80.4,310c-7.6-0.3-14.1,0.3-17.4,0.7
			c-0.1,0-0.2,0-0.2,0l-1.7-0.3l-31,92l13.7-0.4L97,326c3.6-4.7,6-6.7,7.6-7.5c0.3-0.2,0.6-0.3,0.9-0.3c0.2-0.1,0.4-0.1,0.6-0.1
			c0.4,0,0.7,0.1,0.8,0.1c2-0.3,5-0.7,6.8-0.8C116.6,317.2,98.7,310.6,80.4,310z"/>
		<path style="fill:#002A3A;stroke:#FFFFFF;stroke-width:0.5445;stroke-miterlimit:10;" d="M114.4,269.1c-2.5,0.1-4.5-0.2-5.9-0.4
			l-0.9,0.2c-0.4-0.1-1-0.3-1.6-0.7c-1.6-0.9-3.9-2.8-7.2-6.8l-56-75.1l-13.5,0.2l34.3,91.2h0h0l0.3,0.7l2.5-0.5c0.2,0,0.5,0,0.7,0
			c3.5,0.1,9.4,0.3,16.7,0.1C98.7,277.6,119.2,269,114.4,269.1z M108.1,268.9l0.9-0.2C108.9,268.7,108.7,269,108.1,268.9z"/>
		<polygon style="fill:#002A3A;stroke:#FFFFFF;stroke-width:0.5445;stroke-miterlimit:10;" points="48.9,308.3 41.4,306.9 
			39.4,316.6 21.8,402.6 30.1,402.4 61.1,310.4 		"/>
		<polygon style="fill:#002A3A;stroke:#FFFFFF;stroke-width:0.5445;stroke-miterlimit:10;" points="29.3,186.4 20.7,186.5 
			42.8,278.3 43.9,282.6 44,282.5 50.8,281.1 63.8,278.3 		"/>
		<g>
			<path style="fill:#FFFFFF;stroke:#666666;stroke-width:0.5445;stroke-miterlimit:10;" d="M272.6,6.4l5.5,15.2l10.2,30.4l5.5,14.4
				h5.6l46.9,115.3h-9.9l0.3,0.8l0.1,1.1l10-0.1v0l0,3l0,6l0.2,11.5c1.4,0,2.4,0,2.6,0v0c0,0,0.1,0,0.1,0c0,0,0,0,0.1,0v0
				c0.9,0,7.2,0,8.3,0.1c2.1,0.1,4.3,0.3,5.6,0.8c1.5,0.5,4.8,1.4,6.2,2c1.2,0.5,1.2,1.9,0.1,2.5c-1.5,0.7-6.4,2-8,2
				c-1.4,0-2.7,0-3.8,0.1c-1.2,0-7.5,0-8.3,0.1v0c0,0-0.1,0-0.1,0c0,0,0,0-0.1,0v0c-0.2,0-1.2,0-2.6,0l0.4,44.5l109.1-1
				c0,0-7.1-0.4-13.5-5.7v0l-12.8,0.5h0l-5.1-9.6L403,198.8l5.8-7.4c-0.2-0.3-1.2-2.1-3-5.2l-10.8,1l-26.4-47.1l-23.9-42.6
				l-23.7-42.2c0,0,3-1.4,5.5-2.5c-13.1-22-22.7-38.2-23.5-39.9c-3.9-7.7-10.8-10.1-21.4-9.9l-14.2,0l0.3,3L272.6,6.4z M376.7,244.9
				h-10.9c-2.3,0-4.1-1.8-4.1-4.1c0-2.3,1.8-4.1,4.1-4.1h10.9c2.3,0,4.1,1.8,4.1,4.1C380.9,243.1,379,244.9,376.7,244.9z
				 M387.8,226.9h10.9c2.3,0,4.1,1.8,4.1,4.1c0,2.3-1.8,4.1-4.1,4.1h-10.9c-2.3,0-4.1-1.8-4.1-4.1
				C383.7,228.7,385.5,226.9,387.8,226.9z M387.8,236.7h10.9c2.3,0,4.1,1.8,4.1,4.1c0,2.3-1.8,4.1-4.1,4.1h-10.9
				c-2.3,0-4.1-1.8-4.1-4.1C383.7,238.5,385.5,236.7,387.8,236.7z M380.9,231c0,2.3-1.8,4.1-4.1,4.1h-10.9c-2.3,0-4.1-1.8-4.1-4.1
				c0-2.3,1.8-4.1,4.1-4.1h10.9C379,226.9,380.9,228.7,380.9,231z"/>
			<path style="fill:#FFFFFF;stroke:#666666;stroke-width:0.5445;stroke-miterlimit:10;" d="M489.5,254.7l-295,2.9
				c-9.4,0.1-62,5.6-71.2,7.9l-14.8,3.2c1.4,0.2,3.4,0.5,5.9,0.4c4.8-0.1-15.7,8.5-30.7,8.8c-7.3,0.1-13.2,0-16.7-0.1l-16.1,3.5
				c3,4.4,8.9,11.2,17.4,12.7c0,0-12.8,4.3-19.4,14.4l14.1,2.4c3.2-0.4,9.8-1,17.4-0.7c18.2,0.6,36.2,7.2,33.2,7.4
				c-1.8,0.1-4.8,0.5-6.8,0.8c0,0,0.1,0,0.1,0l-0.1,0c-0.2,0-0.5,0.1-0.7,0.1l16.2,2.8c9.2,2.1,63.3,5.6,72.7,5.5l143.7-1.4l9.7-0.1
				l0-0.2h0l0,0.2l107.2-1.1l35.4-0.4c2.8-13.8,10.4-26,21.1-35.2C501.3,280.3,493.4,268.3,489.5,254.7z"/>
		</g>
		<path style="fill:#01151D;stroke:#1A1A1A;stroke-width:0.5445;stroke-miterlimit:10;" d="M361.7,231c0,2.3,1.8,4.1,4.1,4.1h10.9
			c2.3,0,4.1-1.8,4.1-4.1c0-2.3-1.8-4.1-4.1-4.1h-10.9C363.5,226.9,361.7,228.7,361.7,231z"/>
		<path style="fill:#01151D;stroke:#1A1A1A;stroke-width:0.5445;stroke-miterlimit:10;" d="M376.7,236.7h-10.9
			c-2.3,0-4.1,1.8-4.1,4.1c0,2.3,1.8,4.1,4.1,4.1h10.9c2.3,0,4.1-1.8,4.1-4.1C380.9,238.5,379,236.7,376.7,236.7z"/>
		<path style="fill:#01151D;stroke:#1A1A1A;stroke-width:0.5445;stroke-miterlimit:10;" d="M387.8,235.1h10.9c2.3,0,4.1-1.8,4.1-4.1
			c0-2.3-1.8-4.1-4.1-4.1h-10.9c-2.3,0-4.1,1.8-4.1,4.1C383.7,233.2,385.5,235.1,387.8,235.1z"/>
		<path style="fill:#01151D;stroke:#1A1A1A;stroke-width:0.5445;stroke-miterlimit:10;" d="M387.8,244.9h10.9c2.3,0,4.1-1.8,4.1-4.1
			c0-2.3-1.8-4.1-4.1-4.1h-10.9c-2.3,0-4.1,1.8-4.1,4.1C383.7,243.1,385.5,244.9,387.8,244.9z"/>
		<path style="fill:#FFFFFF;stroke:#666666;stroke-width:0.5445;stroke-miterlimit:10;" d="M349,388.4l-0.1-11.5
			c-2.8,0-7.3,0.1-9.9,0.2l0,0.5l0.1,19.8l10-0.1l-0.1-3L349,388.4z"/>
		<polygon style="fill:#FFFFFF;stroke:#666666;stroke-width:0.5445;stroke-miterlimit:10;" points="348.9,369.5 348.4,325.2 
			348.4,325.2 		"/>
		<polygon style="fill:#FFFFFF;stroke:#FF0000;stroke-width:0.2241;stroke-miterlimit:10;" points="348.4,325.2 348.4,325 
			348.4,325 348.4,325.2 		"/>
		<path style="fill:#FFFFFF;stroke:#666666;stroke-width:0.5445;stroke-miterlimit:10;" d="M351.5,376.9L351.5,376.9
			C351.6,376.9,351.6,376.9,351.5,376.9c0.1,0,0.1,0,0.1,0v0c0.9,0,7.2-0.2,8.3-0.3c2.1-0.1,4.3-0.4,5.6-0.9
			c1.5-0.5,4.8-1.5,6.2-2.1c1.2-0.6,1.2-2,0-2.5c-1.5-0.7-6.4-1.9-8-1.9c-1.4,0-2.7,0-3.8,0c-1.2,0-7.5,0.1-8.3,0.1v0c0,0,0,0-0.1,0
			c0,0,0,0-0.1,0v0c-0.2,0-1.2,0-2.6,0.1c-2.8,0.1-7.2,0.2-9.9,0.2c-1.1,0-1.9,0.1-2.2,0.1c-2.1,0.1-4.3,0.4-5.6,0.9
			c-1.5,0.5-4.8,1.5-6.2,2.1c-1.2,0.6-1.2,2,0,2.5c1.5,0.7,6.4,1.9,8,1.9c1.4,0,2.7,0,3.8,0c0.3,0,1.1,0,2.2,0
			c2.7,0,7.1-0.1,9.9-0.2C350.3,376.9,351.3,376.9,351.5,376.9z"/>
		<polygon style="fill:#FFFFFF;stroke:#666666;stroke-width:0.5445;stroke-miterlimit:10;" points="348.6,399.2 338.7,399.4 
			315.3,468.1 298.4,515.5 304,515.4 		"/>
		<path style="fill:#FFFFFF;stroke:#666666;stroke-width:0.5445;stroke-miterlimit:10;" d="M348.5,483.4c1.3,0.7,3.9,2.1,6.4,3.4
			c8.3-14.5,16.7-29.4,24.4-43c-3.6-1.6-7.7-3.5-7.7-3.5L348.5,483.4z"/>
		<path style="fill:#FFFFFF;stroke:#666666;stroke-width:0.5445;stroke-miterlimit:10;" d="M371.6,440.3c0,0,4.1,1.9,7.7,3.5
			c12.8-22.4,23.6-41.5,28.6-50.3l-10.9-0.8L371.6,440.3z"/>
		<path style="fill:#FFFFFF;stroke:#666666;stroke-width:0.5445;stroke-miterlimit:10;" d="M325.6,526c0,0,3.1,1.3,5.6,2.4
			c7.1-12.5,15.3-26.9,23.7-41.6c-2.4-1.3-5.1-2.7-6.4-3.4L325.6,526z"/>
		<path style="fill:#01151D;stroke:#1A1A1A;stroke-width:0.5445;stroke-miterlimit:10;" d="M378,345.2l-10.9,0.2
			c-2.3,0-4.1,1.9-4,4.2c0,2.3,1.9,4.1,4.2,4l10.9-0.2c2.3,0,4.1-1.9,4-4.2C382.1,347,380.2,345.2,378,345.2z"/>
		<path style="fill:#01151D;stroke:#1A1A1A;stroke-width:0.5445;stroke-miterlimit:10;" d="M367,343.8l10.9-0.2c2.3,0,4.1-1.9,4-4.2
			c0-2.3-1.9-4.1-4.2-4l-10.9,0.2c-2.3,0-4.1,1.9-4,4.2C362.8,342.1,364.7,343.9,367,343.8z"/>
		<path style="fill:#01151D;stroke:#1A1A1A;stroke-width:0.5445;stroke-miterlimit:10;" d="M399.9,344.8L389,345
			c-2.3,0-4.1,1.9-4,4.2c0,2.3,1.9,4.1,4.2,4l10.9-0.2c2.3,0,4.1-1.9,4-4.2C404.1,346.6,402.2,344.8,399.9,344.8z"/>
		<path style="fill:#01151D;stroke:#1A1A1A;stroke-width:0.5445;stroke-miterlimit:10;" d="M389,343.4l10.9-0.2c2.3,0,4.1-1.9,4-4.2
			c0-2.3-1.9-4.1-4.2-4l-10.9,0.2c-2.3,0-4.1,1.9-4,4.2C384.8,341.6,386.7,343.4,389,343.4z"/>
		<path style="fill:#002A3A;stroke:#666666;stroke-width:0.5445;stroke-miterlimit:10;" d="M43.9,282.6l-32.9,6.1
			c-1.8,0.6-1.8,10.9,0,11.4l30.5,6.9l7.6,1.3c6.6-10,19.4-14.4,19.4-14.4c-8.5-1.5-14.4-8.3-17.4-12.7l-7,1.5L43.9,282.6z"/>
		<path style="fill:#002A3A;stroke:#666666;stroke-width:0.5445;stroke-miterlimit:10;" d="M675.1,277.5c-5.9-5.2-49-19-65-21.5
			c-13.7-2.2-45-2-45-2l-75.7,0.7c3.9,13.6,11.7,25.6,22.6,33.9c-10.8,9.2-18.4,21.4-21.1,35.2l74.7-0.7c0,0,33.8-1.4,47.5-3.6
			c15.7-2.6,56.2-18.4,62.1-23.8c4.2-3.8,5.4-6.2,5.4-9.2C680.6,283.6,679.4,281.2,675.1,277.5z M602.8,297.7h-10.9
			c-2.3,0-4.1-1.8-4.1-4.1s1.8-4.1,4.1-4.1h10.9c2.3,0,4.1,1.8,4.1,4.1S605.1,297.7,602.8,297.7z M602.8,287.8h-10.9
			c-2.3,0-4.1-1.8-4.1-4.1s1.8-4.1,4.1-4.1h10.9c2.3,0,4.1,1.8,4.1,4.1S605.1,287.8,602.8,287.8z"/>
		<path style="fill:#01151D;stroke:#1A1A1A;stroke-width:0.5445;stroke-miterlimit:10;" d="M591.9,287.8h10.9c2.3,0,4.1-1.8,4.1-4.1
			s-1.8-4.1-4.1-4.1h-10.9c-2.3,0-4.1,1.8-4.1,4.1S589.6,287.8,591.9,287.8z"/>
		<path style="fill:#01151D;stroke:#1A1A1A;stroke-width:0.5445;stroke-miterlimit:10;" d="M591.9,297.7h10.9c2.3,0,4.1-1.8,4.1-4.1
			s-1.8-4.1-4.1-4.1h-10.9c-2.3,0-4.1,1.8-4.1,4.1S589.6,297.7,591.9,297.7z"/>
	</g>
	<g>
		<g>
			<path style="fill:#00A7E1;stroke:#4D4D4D;stroke-width:0.5445;stroke-miterlimit:10;" d="M473.9,184.1c0-5.2-4.2-9.3-9.3-9.3
				l-29.4-0.2c0,0-5,0-9.5,0.1c-3.9,0.1-6.6-0.1-9.6,2.6c-3.5,3.3-5.3,5.4-12.1,5.2l0,2.1l0.3,17l0,2.3c6.8-0.2,8.6,1.9,12.1,5.2
				c3,2.8,5.7,2.5,9.6,2.6c4.5,0.2,9.5,0.1,9.5,0.1l29.4-0.2c5.2,0,9.3-4.2,9.3-9.3L473.9,184.1z"/>
			<polygon style="fill:#FFFFFF;stroke:#4D4D4D;stroke-width:0.5445;stroke-miterlimit:10;" points="377.2,189.7 377.2,197.4 
				385.3,198.3 385.3,188.4 			"/>
			<polygon style="fill:#FFFFFF;stroke:#4D4D4D;stroke-width:0.5445;stroke-miterlimit:10;" points="404,184.7 385.3,187.3 
				385.3,188.4 385.3,198.3 385.3,199.3 404.3,201.7 			"/>
		</g>
		<g>
			<path style="fill:#00A7E1;stroke:#4D4D4D;stroke-width:0.5445;stroke-miterlimit:10;" d="M476.4,377.7c0-5.2-4.2-9.3-9.3-9.3
				l-29.4-0.2c0,0-5,0-9.5,0.1c-3.9,0.1-6.6-0.1-9.6,2.6c-3.5,3.3-5.3,5.4-12.1,5.2l0,2.1l0.3,17l0,2.3c6.8-0.2,8.6,1.9,12.1,5.2
				c3,2.8,5.7,2.5,9.6,2.6c4.5,0.2,9.5,0.1,9.5,0.1l29.4-0.2c5.2,0,9.3-4.2,9.3-9.3L476.4,377.7z"/>
			<polygon style="fill:#FFFFFF;stroke:#4D4D4D;stroke-width:0.5445;stroke-miterlimit:10;" points="379.6,383.3 379.6,391 
				387.7,391.9 387.7,382 			"/>
			<polygon style="fill:#FFFFFF;stroke:#4D4D4D;stroke-width:0.5445;stroke-miterlimit:10;" points="406.4,378.3 387.7,380.9 
				387.7,382 387.7,391.9 387.7,392.9 406.7,395.3 			"/>
		</g>
	</g>
</g>
</svg>
