<?xml version="1.0" encoding="utf-8"?>
<!-- Generator: Adobe Illustrator 22.0.1, SVG Export Plug-In . SVG Version: 6.00 Build 0)  -->
<svg version="1.1" id="Layer_1" xmlns="http://www.w3.org/2000/svg" xmlns:xlink="http://www.w3.org/1999/xlink" x="0px" y="0px"
	 viewBox="0 0 685.9 584.5" style="enable-background:new 0 0 685.9 584.5;" xml:space="preserve">
<g>
	<g>
		<g>
			<path style="fill:#00A7E1;stroke:#333333;stroke-width:0.55;stroke-miterlimit:10;" d="M23.4,294.2l-11,0.2
				c-4.6-0.1-5.3,9.6,0.1,10.1l11-0.1l-0.1-10.1V294.2z"/>
			<path style="fill:#00A7E1;stroke:#333333;stroke-width:0.55;stroke-miterlimit:10;" d="M670.6,269.1v31.7
				c1.1-0.6,1.9-1.1,2.6-1.6c6.4-4.6,11.8-9.1,11.8-14.9C684.5,278.3,676.5,272.6,670.6,269.1z"/>
			<path style="fill:#CBCBCB;stroke:#4D4D4D;stroke-width:0.55;stroke-miterlimit:10;" d="M247.4,261.6c3.8-0.1,6.7-2.5,6.7-5.4
				l-0.5-20c-0.1-2.8-3-5.1-6.6-5.1C247,239.3,247.4,259.8,247.4,261.6L247.4,261.6z"/>
			<path style="fill:#FFFFFF;stroke:#666666;stroke-width:0.55;stroke-miterlimit:10;" d="M171.2,262.6h2.1l-12-4.9
				C163.6,260.6,167.2,262.6,171.2,262.6z"/>
			<path style="fill:#FFFFFF;stroke:#666666;stroke-width:0.55;stroke-miterlimit:10;" d="M171.1,232.1c-3.9,0-7.4,1.9-9.7,4.7
				l10.5-4.7H171.1z"/>
			<path style="stroke:#FF0000;stroke-width:0.275;stroke-miterlimit:10;" d="M176.1,232.1C176,232.1,176,232.1,176.1,232.1
				L176.1,232.1L176.1,232.1z"/>
			<path style="fill:#FFFFFF;stroke:#666666;stroke-width:0.55;stroke-miterlimit:10;" d="M175.5,258.8l-0.6-22.6l-12.6,4h-2.8
				c-0.5,1.4-0.8,2.9-0.7,4.4l0.1,5.8c0,1.6,0.4,3.1,0.9,4.4h4L175.5,258.8z"/>
			<path style="fill:#FFFFFF;stroke:#666666;stroke-width:0.55;stroke-miterlimit:10;" d="M176,232.1h-0.1h-4l-10.5,4.7l-7.6,3.4
				h5.7h2.8l12.6-4l-0.1-4L176,232.1L176,232.1z"/>
			<path style="fill:#FFFFFF;stroke:#666666;stroke-width:0.55;stroke-miterlimit:10;" d="M161.4,257.6L161.4,257.6L161.4,257.6
				L161.4,257.6z"/>
			<path style="fill:#FFFFFF;stroke:#666666;stroke-width:0.55;stroke-miterlimit:10;" d="M176.1,262.6h-0.5v-0.1h-2.3h-2.1
				c-4,0-7.6-1.9-9.9-4.9l0,0L150,279.2l6-1.3c12.9-3.6,27.3-6.9,42.9-9.5c15.4-2.6,29.9-4.3,43.2-5.2c0-0.5,0-1.1,0-1.6
				L176.1,262.6z"/>
			<polygon style="stroke:#FF0000;stroke-width:0.275;stroke-miterlimit:10;" points="175.6,262.6 175.6,262.6 176.1,262.6 
				176.1,262.6 			"/>
			<path style="fill:#FFFFFF;stroke:#666666;stroke-width:0.55;stroke-miterlimit:10;" d="M175.5,258.8l-11.7-3.9h-4h-5.1l6.6,2.7
				l0,0l0,0l12,4.9h2.3L175.5,258.8z"/>
			<path style="fill:#002A3A;stroke:#333333;stroke-width:0.55;stroke-miterlimit:10;" d="M247,231.1c-0.1,0-0.2,0-0.3,0l-70.6,1.1
				H176h-1.1l0.1,4l0.6,22.6l0.1,3.8h0.5v0.1l66.1-1l5.2-0.1C247.4,259.8,247,239.3,247,231.1z"/>
			<path style="fill:#CBCBCB;stroke:#4D4D4D;stroke-width:0.55;stroke-miterlimit:10;" d="M256.4,350.1l-0.2-20
				c0-2.9-3.1-5.2-6.9-5.1l0,0c0,1.8,0.4,22.2,0.6,30.5C253.5,355.3,256.4,353,256.4,350.1z"/>
			<path style="fill:#FFFFFF;stroke:#666666;stroke-width:0.55;stroke-miterlimit:10;" d="M174.1,357.2h0.8l-10.6-4.4
				C166.6,355.6,170.1,357.3,174.1,357.2z"/>
			<path style="stroke:#FF0000;stroke-width:0.275;stroke-miterlimit:10;" d="M179,357L179,357L179,357L179,357z"/>
			<path style="fill:#FFFFFF;stroke:#666666;stroke-width:0.55;stroke-miterlimit:10;" d="M173.1,326.7c-4,0.1-7.5,2.2-9.7,5.3
				l11.8-5.3H173.1z"/>
			<path style="fill:#FFFFFF;stroke:#666666;stroke-width:0.55;stroke-miterlimit:10;" d="M177.8,352.9l-0.2-22.6l-11.5,4.3l-4,0.1
				c-0.5,1.4-0.8,2.9-0.8,4.5l0.1,5.8c0,1.6,0.3,3,0.9,4.4l2.8-0.1L177.8,352.9z"/>
			<path style="fill:#FFFFFF;stroke:#666666;stroke-width:0.55;stroke-miterlimit:10;" d="M179,357h-1.1v-4l-12.8-3.6l-2.8,0.1
				l-5.7,0.2l7.7,3.2l10.6,4.4l4-0.1C178.9,357,178.9,357,179,357L179,357z"/>
			<path style="fill:#FFFFFF;stroke:#666666;stroke-width:0.55;stroke-miterlimit:10;" d="M244.1,325.2c0-0.5,0-1-0.1-1.5
				c-14.4-0.6-29.8-1.8-46.1-3.9c-15-1.9-29.1-4.2-42.2-6.9l-5.9-0.7l13.5,19.8l0,0c2.2-3.1,5.7-5.1,9.7-5.3l2.1-0.1l2.3-0.1v-0.1
				h0.5L244.1,325.2z"/>
			<path style="fill:#FFFFFF;stroke:#666666;stroke-width:0.55;stroke-miterlimit:10;" d="M163.5,332L163.5,332L163.5,332L163.5,332
				z"/>
			<polygon style="stroke:#FF0000;stroke-width:0.275;stroke-miterlimit:10;" points="177.5,326.6 178,326.6 178,326.5 177.5,326.5 
							"/>
			<path style="fill:#FFFFFF;stroke:#666666;stroke-width:0.55;stroke-miterlimit:10;" d="M177.5,326.6l-2.3,0.1l-11.8,5.3l0,0l0,0
				l-6.5,3l5.1-0.2l4-0.1l11.5-4.3V326.6z"/>
			<path style="fill:#002A3A;stroke:#333333;stroke-width:0.55;stroke-miterlimit:10;" d="M249.3,325.1l-5.2,0.1l-66.1,1.3v0.1h-0.5
				v3.8l0.2,22.6v4h1.1h0.1l70.6-1.4c0.1,0,0.2,0,0.3,0C249.7,347.3,249.3,326.9,249.3,325.1z"/>
			<path style="fill:#00A7E1;stroke:#333333;stroke-width:0.55;stroke-miterlimit:10;" d="M27,211.9c-6.1,0.2-18.5,0.5-24.7,0.7
				l1.8,7h7.1l26.5,71.6L23,292.8l0.4,1.4l58.7-0.8L27,211.9z"/>
			<polygon style="fill:#00A7E1;stroke:#333333;stroke-width:0.55;stroke-miterlimit:10;" points="23.2,305.9 38.4,307.2 
				15.7,379.2 8.3,379.2 7,385.6 31.3,386.2 81.7,304 23.5,304.4 			"/>
			<path style="fill:#00A7E1;stroke:#333333;stroke-width:0.55;stroke-miterlimit:10;" d="M25.2,209.3c0,0-2.7-2.3-24.4-2.2l1.4,5.5
				c6.2-0.2,18.6-0.5,24.7-0.7L25.2,209.3z"/>
			<path style="fill:#00A7E1;stroke:#333333;stroke-width:0.55;stroke-miterlimit:10;" d="M5.7,391.7c0,0,17.9,0.7,23.5-2l2.1-3.5
				L7,385.6L5.7,391.7z"/>
			<g>
				<path style="fill:#FFFFFF;stroke:#666666;stroke-width:0.55;stroke-miterlimit:10;" d="M518.6,288c-9.9-7.6-17.3-18.2-21.4-30.3
					l-248.3,5.1c-2.2,0.1-4.4,0.3-6.7,0.4c-13.3,1-27.8,2.6-43.2,5.2c-15.6,2.7-29.9,6-42.9,9.5l-6,1.3l-68,14.2l-58.7,0.8v0.1
					l0.1,10.1l58.3-0.4l68.2,8.2l5.9,0.7c13.1,2.6,27.2,5,42.2,6.9c16.2,2,31.6,3.2,46.1,3.9c3,0.1,6,0.2,8.9,0.3l245.6-5
					C501.9,306.9,509,296.2,518.6,288z"/>
				<path style="fill:none;stroke:#666666;stroke-width:0.6388;stroke-miterlimit:10;" d="M609.3,286.3l-10.1,0.2
					c-2.3,0.1-4.1,2-4,4.2c0.1,2.3,2,4.1,4.2,4l10.1-0.2c2.3-0.1,4.1-2,4-4.2C613.5,288.1,611.6,286.3,609.3,286.3z"/>
				<path style="fill:none;stroke:#666666;stroke-width:0.6388;stroke-miterlimit:10;" d="M599,284.8l10.1-0.2c2.3-0.1,4.1-2,4-4.2
					c-0.1-2.3-2-4.1-4.2-4l-10.1,0.2c-2.3,0.1-4.1,2-4,4.2C594.8,283.1,596.7,284.9,599,284.8z"/>
				<path style="fill:#00A7E1;stroke:#333333;stroke-width:0.55;stroke-miterlimit:10;" d="M667.9,267.6
					c-6.6-3.5-40.7-11.7-55.6-11.7c-1.2,0-2.6,0-3.9,0v7.1c0,1.7-1.4,3.2-3.2,3.2h-9.8c-1.7,0-3.2-1.4-3.2-3.2v-7
					c-9.5,0.1-17.7,0.2-17.7,0.2l-77.2,1.6c4.1,12.1,11.5,22.8,21.4,30.3c-9.6,8.2-16.7,18.9-20,30.9l76.9-1.6
					c0,0,10.7-0.2,22.9-0.7v-4.3c0-0.6,0.5-1.1,1.1-1.1h7.8c0.6,0,1.1,0.5,1.1,1.1v3.8c7.6-0.4,14.8-0.9,19.2-1.6
					c13.1-2,34.4-9.2,43.1-13.8v-31.7C669.6,268.6,668.7,268,667.9,267.6z M598.8,276.6l10.1-0.2c2.3-0.1,4.2,1.8,4.2,4
					c0.1,2.3-1.8,4.2-4,4.2l-10.1,0.2c-2.3,0.1-4.2-1.8-4.2-4C594.7,278.5,596.5,276.6,598.8,276.6z M609.5,294.6l-10.1,0.2
					c-2.3,0.1-4.2-1.8-4.2-4c-0.1-2.3,1.8-4.2,4-4.2l10.1-0.2c2.3-0.1,4.2,1.8,4.2,4C613.6,292.6,611.8,294.5,609.5,294.6z"/>
			</g>
			<polygon style="fill:#00A7E1;stroke:#333333;stroke-width:0.55;stroke-miterlimit:10;" points="11.2,219.6 4.1,219.6 23,292.8 
				37.7,291.2 			"/>
			<polygon style="fill:#00A7E1;stroke:#333333;stroke-width:0.55;stroke-miterlimit:10;" points="38.4,307.2 23.2,305.9 8.3,379.2 
				15.7,379.2 			"/>
			<path style="fill:#00A7E1;stroke:#333333;stroke-width:0.55;stroke-miterlimit:10;" d="M595.4,266.2h9.8c1.7,0,3.2-1.4,3.2-3.2
				v-7.1c-5,0-10.7,0-16.1,0.1v7C592.2,264.7,593.6,266.2,595.4,266.2z"/>
			<path style="fill:#00A7E1;stroke:#333333;stroke-width:0.55;stroke-miterlimit:10;" d="M607.2,311.3h-7.8c-0.6,0-1.1,0.5-1.1,1.1
				v4.3c3.3-0.1,6.7-0.3,10-0.5v-3.8C608.3,311.8,607.8,311.3,607.2,311.3z"/>
			<path style="fill:#01151D;stroke:#1A1A1A;stroke-width:0.55;stroke-miterlimit:10;" d="M599,284.8l10.1-0.2c2.3-0.1,4.1-2,4-4.2
				c-0.1-2.3-2-4.1-4.2-4l-10.1,0.2c-2.3,0.1-4.1,2-4,4.2C594.8,283.1,596.7,284.9,599,284.8z"/>
			<path style="fill:#01151D;stroke:#1A1A1A;stroke-width:0.55;stroke-miterlimit:10;" d="M609.3,286.3l-10.1,0.2
				c-2.3,0.1-4.1,2-4,4.2c0.1,2.3,2,4.1,4.2,4l10.1-0.2c2.3-0.1,4.1-2,4-4.2C613.5,288.1,611.6,286.3,609.3,286.3z"/>
		</g>
		<g>
			<polygon style="fill:#FFFFFF;stroke:#666666;stroke-width:0.55;stroke-miterlimit:10;" points="393,325.3 393,325.3 367.7,325.6 
							"/>
			<path style="fill:#FFFFFF;stroke:#666666;stroke-width:0.55;stroke-miterlimit:10;" d="M308.2,387.5L308.2,387.5l-6.2,0.1
				L308.2,387.5z"/>
			<path style="fill:#FFFFFF;stroke:#666666;stroke-width:0.55;stroke-miterlimit:10;" d="M347,382.2l-28.4,0.8l0,0l-5.8,0.1
				l-4.2,0.1l-14.7,0.4c-1.1,0-1.9,0.9-1.9,1.9c0,1.1,0.9,2,2,2l8.2-0.1l6.2-0.1l38.8-0.6c1.3,0,2.3-1,2.3-2.3
				C349.4,383.3,348.3,382.2,347,382.2z"/>
			<path style="fill:#FFFFFF;stroke:#666666;stroke-width:0.55;stroke-miterlimit:10;" d="M367.7,325.6l-40.8,0.6l-1,6.5
				c0.7-0.7,1.7-1.1,2.7-1.1l10.1-0.2c2.3,0,4.2,1.8,4.2,4.1c0,2.3-1.8,4.2-4.1,4.2l-10.1,0.2c-1.5,0-2.9-0.8-3.6-2l-6.6,45.2
				l28.4-0.8c1.3,0,2.4,1,2.4,2.3s-1,2.3-2.3,2.3l-38.8,0.6l0,0l9.8-0.1l-6.6,50.1l20.7,0.1c1.3,0,2.3,1.1,2.3,2.4
				c-0.1,1.2-1.1,2.1-2.3,2.1l-17.8-0.1l2.9,6.7l-11,74.5h-5.1c-0.3,6-0.4,10-0.5,11l25.7,0.1c0.5-0.6,0.9-1.1,1.3-1.7h-5l16.2-59.1
				h4.8l31.8-95.6l17.5-52.7L367.7,325.6z M339.2,349.7l-10.1,0.2c-2.3,0-4.2-1.8-4.2-4.1c0-2.3,1.8-4.2,4.1-4.2l10.1-0.2
				c2.3,0,4.2,1.8,4.2,4.1C343.3,347.8,341.5,349.7,339.2,349.7z M346.7,335.7c0-2.3,1.8-4.2,4.1-4.2l10.1-0.2
				c2.3,0,4.2,1.8,4.2,4.1c0,2.3-1.8,4.2-4.1,4.2l-10.1,0.2C348.6,339.9,346.7,338,346.7,335.7z M361.4,349.6l-10.1,0.2
				c-2.3,0-4.2-1.8-4.2-4.1c0-2.3,1.8-4.2,4.1-4.2l10.1-0.2c2.3,0,4.2,1.8,4.2,4.1S363.7,349.6,361.4,349.6z"/>
			<path style="fill:#FFFFFF;stroke:#666666;stroke-width:0.55;stroke-miterlimit:10;" d="M332.2,437.6l-20.7-0.1v0.1l-6.4-0.1
				l-10.1-0.1h-1.1h-0.7c-1.1,0-2.1,0.8-2.3,2c-0.2,1.4,0.9,2.6,2.2,2.6l11.7,0.1h5.8h3.8l17.8,0.1c1.2,0,2.2-0.9,2.3-2.1
				C334.5,438.7,333.5,437.6,332.2,437.6z"/>
			<path style="fill:#FFFFFF;stroke:#666666;stroke-width:0.55;stroke-miterlimit:10;" d="M300.6,534.6v2.2c0.4,2.5,2.8,4.5,5.5,4.4
				l9.1-0.8c4.4-0.7,8.3-2.9,11.1-6.1l-25.7-0.1C300.6,534.5,300.6,534.6,300.6,534.6z"/>
			<path style="fill:#FFFFFF;stroke:#666666;stroke-width:0.55;stroke-miterlimit:10;" d="M305.1,437.6
				C305.1,437.5,305.1,437.5,305.1,437.6l-11.2-0.1h1.1L305.1,437.6z"/>
			<path style="fill:#FFFFFF;stroke:#666666;stroke-width:0.55;stroke-miterlimit:10;" d="M305.1,437.5h6.4l6.6-50.1l-9.8,0.1
				c-0.7,9.4-1.3,17.9-1.7,23.6C306.1,416.3,305.6,425.9,305.1,437.5z"/>
			<polygon style="fill:#FFFFFF;stroke:#666666;stroke-width:0.55;stroke-miterlimit:10;" points="304.8,442 311.7,442.1 
				314.4,442.1 310.6,442.1 			"/>
			<path style="fill:#FFFFFF;stroke:#666666;stroke-width:0.55;stroke-miterlimit:10;" d="M303.6,466.9h5.2l2.9-24.8h-6.8
				C304.4,449.8,304,458.3,303.6,466.9z"/>
			<path style="fill:#FFFFFF;stroke:#666666;stroke-width:0.55;stroke-miterlimit:10;" d="M305.1,437.6l6.4,0.1v-0.1H305.1
				C305.1,437.5,305.1,437.5,305.1,437.6z"/>
			<path style="fill:#FFFFFF;stroke:#666666;stroke-width:0.55;stroke-miterlimit:10;" d="M308.5,383.4l4.2-0.1l5.8-0.2l6.6-45.2
				c-0.4-0.6-0.6-1.3-0.6-2.1c0-1.2,0.5-2.3,1.4-3.1l1-6.5l-13.9,0.2C312.9,326.6,310.5,357.4,308.5,383.4z"/>
			<polygon style="fill:#FFFFFF;stroke:#666666;stroke-width:0.55;stroke-miterlimit:10;" points="318.5,383.1 318.5,383.1 
				312.7,383.2 			"/>
			<path style="fill:#FFFFFF;stroke:#666666;stroke-width:0.55;stroke-miterlimit:10;" d="M317.2,448.8l-2.9-6.7h-2.7l-2.9,24.8
				h-5.2c-1,21.5-2,43.5-2.6,56.4h5.1L317.2,448.8z"/>
			<path style="fill:#FFFFFF;stroke:#666666;stroke-width:0.55;stroke-miterlimit:10;" d="M387,378c11.5-27,23.6-53,23.6-53
				l-17.7,0.2l-17.5,52.7L387,378z"/>
			<path style="fill:#FFFFFF;stroke:#666666;stroke-width:0.55;stroke-miterlimit:10;" d="M333.4,518.4l14.7-41.9
				c0,0,21.1-55.2,31-79.6c2.5-6.1,5.2-12.5,7.9-18.9l-11.6-0.1l-31.8,95.6h-4.8l-16.2,59.1h5c0.8-1.2,1.5-2.5,2-3.9L333.4,518.4z"
				/>
			<path style="fill:#FFFFFF;stroke:#666666;stroke-width:0.55;stroke-miterlimit:10;" d="M326.9,326.2l40.8-0.6L326.9,326.2z"/>
			<polygon style="fill:#FFFFFF;stroke:#666666;stroke-width:0.55;stroke-miterlimit:10;" points="312.9,326.3 312.9,326.4 
				326.9,326.2 326.9,326.2 			"/>
			<path style="fill:#FFFFFF;stroke:#666666;stroke-width:0.55;stroke-miterlimit:10;" d="M411.6,321.3l-113.7,1.6
				c-1,0-1.8,0.8-1.8,1.9c0,1,0.8,1.8,1.9,1.8l4.6-0.1l10.3-0.1l0,0l13.9-0.2l40.8-0.6l25.3-0.3l18.7-0.3c0.9,0,1.7-0.7,1.8-1.6
				c0-0.1,0-0.2,0-0.2C413.5,322.1,412.6,321.3,411.6,321.3z"/>
			<path style="fill:#01151D;stroke:#1A1A1A;stroke-width:0.55;stroke-miterlimit:10;" d="M350.9,339.8l10.1-0.2
				c2.3,0,4.1-1.9,4.1-4.2c0-2.3-1.9-4.1-4.2-4.1l-10.1,0.2c-2.3,0-4.1,1.9-4.1,4.2C346.7,338,348.6,339.9,350.9,339.8z"/>
			<path style="fill:#01151D;stroke:#1A1A1A;stroke-width:0.55;stroke-miterlimit:10;" d="M361.4,349.6c2.3,0,4.1-1.9,4.1-4.2
				c0-2.3-1.9-4.1-4.2-4.1l-10.1,0.2c-2.3,0-4.1,1.9-4.1,4.2c0,2.3,1.9,4.1,4.2,4.1L361.4,349.6z"/>
			<path style="fill:#01151D;stroke:#1A1A1A;stroke-width:0.55;stroke-miterlimit:10;" d="M338.7,331.4l-10.1,0.2
				c-1,0-2,0.4-2.7,1.1c-0.8,0.8-1.4,1.9-1.4,3.1c0,0.8,0.2,1.4,0.6,2.1c0.7,1.2,2.1,2,3.6,2l10.1-0.2c2.3,0,4.1-1.9,4.1-4.2
				C342.9,333.2,341,331.4,338.7,331.4z"/>
			<path style="fill:#01151D;stroke:#1A1A1A;stroke-width:0.55;stroke-miterlimit:10;" d="M339.1,341.4l-10.1,0.2
				c-2.3,0-4.1,1.9-4.1,4.2c0,2.3,1.9,4.1,4.2,4.1l10.1-0.2c2.3,0,4.1-1.9,4.1-4.2C343.2,343.2,341.4,341.4,339.1,341.4z"/>
		</g>
		<g>
			<polygon style="fill:#FFFFFF;stroke:#666666;stroke-width:0.55;stroke-miterlimit:10;" points="392.9,256.1 392.9,256.1 
				367.6,256.6 			"/>
			<path style="fill:#FFFFFF;stroke:#666666;stroke-width:0.55;stroke-miterlimit:10;" d="M306.1,196.8
				C306.1,196.8,306.1,196.9,306.1,196.8l-6.2,0.2L306.1,196.8z"/>
			<path style="fill:#FFFFFF;stroke:#666666;stroke-width:0.55;stroke-miterlimit:10;" d="M344.9,200.7l-28.4,0.2l0,0l-5.8,0.1h-4.2
				l-14.8,0.1c-1.1,0-1.9-0.8-2-1.9c0-1.1,0.8-2,1.9-2l8.2-0.2l6.2-0.1l38.8-0.8c1.3,0,2.3,1,2.4,2.2
				C347.3,199.6,346.3,200.7,344.9,200.7z"/>
			<path style="fill:#FFFFFF;stroke:#666666;stroke-width:0.55;stroke-miterlimit:10;" d="M392.9,256.1l-19.4-52l-35.1-94.4
				l-4.8,0.2l-18.2-58.5l5-0.2c-0.4-0.6-0.9-1.2-1.4-1.7l-25.6,1c0.1,1,0.4,5,0.9,11l5.1-0.2l13.6,74.1l-2.7,6.8l17.8-0.7
				c1.2,0,2.2,0.9,2.3,2c0.1,1.3-0.9,2.4-2.2,2.5l-20.7,0.8l8.3,49.9L306,197l0,0l38.8-0.8c1.3,0,2.3,1,2.4,2.2
				c0.1,1.3-1,2.4-2.3,2.4l-28.4,0.2l8.2,44.9c0.7-1.2,2-2.1,3.5-2.1l10.1-0.2c2.3,0,4.2,1.8,4.2,4.1s-1.8,4.2-4.1,4.2l-10.1,0.2
				c-1,0-2-0.4-2.7-1l1.2,6.5l40.8-0.9L392.9,256.1z M342.6,237.6c0,2.3-1.8,4.2-4.1,4.2l-10.1,0.2c-2.3,0-4.2-1.8-4.2-4.1
				s1.8-4.2,4.1-4.2l10.1-0.2C340.6,233.5,342.5,235.3,342.6,237.6z M350.4,243l10.1-0.2c2.3,0,4.2,1.8,4.2,4.1s-1.8,4.2-4.1,4.2
				l-10.1,0.2c-2.3,0-4.2-1.8-4.2-4.1S348.1,243,350.4,243z M364.7,236.9c0,2.3-1.8,4.2-4.1,4.2l-10.1,0.2c-2.3,0-4.2-1.8-4.2-4.1
				s1.8-4.2,4.1-4.2l10.1-0.2C362.8,232.8,364.7,234.6,364.7,236.9z"/>
			<path style="fill:#FFFFFF;stroke:#666666;stroke-width:0.55;stroke-miterlimit:10;" d="M328.3,145.9l-20.7,0.8v-0.1l-6.4,0.3
				l-10.1,0.5l-1.1,0.1h-0.7c-1.1,0.1-2.1-0.8-2.3-1.9c-0.2-1.4,0.8-2.6,2.1-2.7l11.7-0.5l5.8-0.2l3.8-0.2l17.8-0.7
				c1.2,0,2.2,0.9,2.3,2C330.6,144.7,329.6,145.8,328.3,145.9z"/>
			<path style="fill:#FFFFFF;stroke:#666666;stroke-width:0.55;stroke-miterlimit:10;" d="M293.3,50.1l-0.1-2.2
				c0.3-2.5,2.6-4.5,5.3-4.6l9.1,0.4c4.4,0.5,8.4,2.6,11.3,5.7l-25.6,1C293.3,50.2,293.3,50.1,293.3,50.1z"/>
			<path style="fill:#FFFFFF;stroke:#666666;stroke-width:0.55;stroke-miterlimit:10;" d="M301.1,146.9
				C301.1,146.9,301.1,147,301.1,146.9l-11.2,0.5l1.1-0.1L301.1,146.9z"/>
			<path style="fill:#FFFFFF;stroke:#666666;stroke-width:0.55;stroke-miterlimit:10;" d="M301.1,147l6.4-0.3l8.3,49.9l-9.8,0.3
				c-1-9.4-2-17.8-2.6-23.6C303,168.1,302.1,158.5,301.1,147z"/>
			<polygon style="fill:#FFFFFF;stroke:#666666;stroke-width:0.55;stroke-miterlimit:10;" points="300.8,142.4 307.6,142.2 
				310.3,142.1 306.5,142.2 			"/>
			<path style="fill:#FFFFFF;stroke:#666666;stroke-width:0.55;stroke-miterlimit:10;" d="M298.7,117.7l5.2-0.2l3.7,24.7l-6.8,0.3
				C300.1,134.7,299.4,126.2,298.7,117.7z"/>
			<path style="fill:#FFFFFF;stroke:#666666;stroke-width:0.55;stroke-miterlimit:10;" d="M301.1,146.9l6.4-0.3v0.1L301.1,146.9
				C301.1,147,301.1,146.9,301.1,146.9z"/>
			<path style="fill:#FFFFFF;stroke:#666666;stroke-width:0.55;stroke-miterlimit:10;" d="M306.5,201h4.2h5.8l8.2,44.9
				c-0.3,0.6-0.6,1.3-0.5,2.1c0,1.2,0.6,2.3,1.5,3.1l1.2,6.5l-13.9,0.3C312.9,257.5,309.4,226.9,306.5,201z"/>
			<polygon style="fill:#FFFFFF;stroke:#666666;stroke-width:0.55;stroke-miterlimit:10;" points="316.5,200.9 316.5,200.9 
				310.7,200.9 			"/>
			<path style="fill:#FFFFFF;stroke:#666666;stroke-width:0.55;stroke-miterlimit:10;" d="M312.9,135.3l-2.7,6.8l-2.7,0.1l-3.7-24.7
				l-5.2,0.2c-1.7-21.4-3.5-43.4-4.5-56.2l5.1-0.2L312.9,135.3z"/>
			<path style="fill:#FFFFFF;stroke:#666666;stroke-width:0.55;stroke-miterlimit:10;" d="M385.1,203.6
				c12.5,26.6,25.5,52.1,25.5,52.1l-17.7,0.4l-19.4-52L385.1,203.6z"/>
			<path style="fill:#FFFFFF;stroke:#666666;stroke-width:0.55;stroke-miterlimit:10;" d="M326.7,65.2l16.1,41.3
				c0,0,23.1,54.5,33.8,78.5c2.7,6,5.6,12.3,8.5,18.6l-11.5,0.5l-35.1-94.4l-4.8,0.2l-18.2-58.5l5-0.2c0.9,1.2,1.6,2.5,2.2,3.8
				L326.7,65.2z"/>
			<path style="fill:#FFFFFF;stroke:#666666;stroke-width:0.55;stroke-miterlimit:10;" d="M326.8,257.5l40.8-0.9L326.8,257.5z"/>
			<polygon style="fill:#FFFFFF;stroke:#666666;stroke-width:0.55;stroke-miterlimit:10;" points="312.9,257.8 312.9,257.8 
				326.8,257.5 326.8,257.5 			"/>
			<path style="fill:#FFFFFF;stroke:#666666;stroke-width:0.55;stroke-miterlimit:10;" d="M411.7,259.3L298,261.8
				c-1,0-1.8-0.8-1.9-1.8c0-1,0.8-1.8,1.8-1.9l4.6-0.1l10.3-0.2l0,0l13.9-0.3l40.8-0.9l25.3-0.5l18.7-0.4c0.9,0,1.7,0.7,1.8,1.6
				c0,0.1,0,0.2,0,0.2C413.5,258.5,412.7,259.3,411.7,259.3z"/>
			<path style="fill:#01151D;stroke:#1A1A1A;stroke-width:0.55;stroke-miterlimit:10;" d="M350.4,243l10.1-0.2
				c2.3,0,4.2,1.8,4.2,4.1s-1.8,4.2-4.1,4.2l-10.1,0.2c-2.3,0-4.2-1.8-4.2-4.1S348.1,243,350.4,243z"/>
			<path style="fill:#01151D;stroke:#1A1A1A;stroke-width:0.55;stroke-miterlimit:10;" d="M360.5,232.8c2.3,0,4.2,1.8,4.2,4.1
				s-1.8,4.2-4.1,4.2l-10.1,0.2c-2.3,0-4.2-1.8-4.2-4.1s1.8-4.2,4.1-4.2L360.5,232.8z"/>
			<path style="fill:#01151D;stroke:#1A1A1A;stroke-width:0.55;stroke-miterlimit:10;" d="M338.4,251.8l-10.1,0.2c-1,0-2-0.4-2.7-1
				c-0.9-0.7-1.5-1.8-1.5-3.1c0-0.8,0.2-1.5,0.5-2.1c0.7-1.2,2-2.1,3.5-2.1l10.1-0.2c2.3,0,4.2,1.8,4.2,4.1
				C342.5,249.9,340.7,251.8,338.4,251.8z"/>
			<path style="fill:#01151D;stroke:#1A1A1A;stroke-width:0.55;stroke-miterlimit:10;" d="M338.5,241.8l-10.1,0.2
				c-2.3,0-4.2-1.8-4.2-4.1s1.8-4.2,4.1-4.2l10.1-0.2c2.3,0,4.2,1.8,4.2,4.1C342.6,239.9,340.8,241.8,338.5,241.8z"/>
		</g>
	</g>
</g>
</svg>
