<?xml version="1.0" encoding="utf-8"?>
<!-- Generator: Adobe Illustrator 22.0.1, SVG Export Plug-In . SVG Version: 6.00 Build 0)  -->
<svg version="1.1" id="Layer_1" xmlns="http://www.w3.org/2000/svg" xmlns:xlink="http://www.w3.org/1999/xlink" x="0px" y="0px"
	 viewBox="0 0 559 559" style="enable-background:new 0 0 559 559;" xml:space="preserve">
<g>
	<rect style="fill:#8C9091;" width="559" height="559"/>
</g>
<g>
	<path style="fill:#002A3A;" d="M546.3,311.2c-1,0.8-1.9,1.5-2.8,2.2c-0.7,0.1-1,0.2-1,0.2l0.6,0.1c-45.5,35.8-75.5,44.7-82.9,46.5
		l2.1-2.1c-1,0.8-1.9,1.5-2.8,2.2c-0.7,0.1-1,0.2-1,0.2l0.6,0.1c-45.5,35.8-75.5,44.7-82.9,46.5l2.1-2.1c-1,0.8-1.9,1.5-2.8,2.2
		c-0.7,0.1-1,0.2-1,0.2l0.6,0.1c-45.5,35.8-75.5,44.7-82.9,46.5l2.1-2.1c-1,0.8-1.9,1.5-2.8,2.2c-0.7,0.1-1,0.2-1,0.2l0.6,0.1
		c-45.5,35.8-75.5,44.7-82.9,46.5l2.1-2.1c-1,0.8-1.9,1.5-2.8,2.2c-0.7,0.1-1,0.2-1,0.2l0.6,0.1c-45.5,35.8-75.5,44.7-82.9,46.5
		l2.1-2.1c-1,0.8-1.9,1.5-2.8,2.2c-0.7,0.1-1,0.2-1,0.2l0.6,0.1c-4.8,3.8-9.5,7.3-13.9,10.5h4.1l10.4-10.4l24.6,3.7
		c4.7,0.7,7.4,0.5,10.6-2c0.7-0.6,1.5-1.3,2.4-2.1l46.5-46.5l24.6,3.7c5.7,0.9,8.6,0.3,13-4.1l46.5-46.5l24.6,3.7
		c5.7,0.9,8.6,0.3,13-4.1l46.5-46.5l24.6,3.7c5.7,0.9,8.6,0.3,13-4.1l46.5-46.5l24.6,3.7c5.7,0.9,8.6,0.3,13-4.1l46.5-46.5l14.9,2.2
		v-7.5c-7,2.8-11.9,4.2-14.3,4.8L546.3,311.2z"/>
	<path style="fill:#002A3A;" d="M525.6,369.1c-1,0.8-1.9,1.5-2.8,2.2c-0.7,0.1-1,0.2-1,0.2l0.6,0.1c-5.7,4.4-11.1,8.5-16.3,12.2
		c-6.1,4.3-11.9,8.2-17.3,11.5s-10.4,6.2-15,8.7c-3.5,1.9-6.7,3.5-9.7,4.9c-5,2.4-9.3,4.2-13,5.5c-1.5,0.5-2.8,1-4,1.4
		c-3.5,1.2-6,1.9-7.6,2.2l2.1-2.1c-1,0.8-1.9,1.5-2.8,2.2c-0.7,0.1-1,0.2-1,0.2l0.6,0.1c-45.5,35.8-75.5,44.7-82.9,46.5l2.1-2.1
		c-1,0.8-1.9,1.5-2.8,2.2c-0.7,0.1-1,0.2-1,0.2l0.6,0.1c-45.5,35.8-75.5,44.7-82.9,46.5l2.1-2.1c-1,0.8-1.9,1.5-2.8,2.2
		c-0.7,0.1-1,0.2-1,0.2l0.6,0.1c-45.5,35.8-75.5,44.7-82.9,46.5l2.1-2.1c-0.9,0.7-1.8,1.4-2.7,2.1h37.7l46.4-46.4l24.6,3.7
		c5.7,0.9,8.6,0.3,13-4.1l46.5-46.5l24.6,3.7c5.7,0.9,8.6,0.3,13-4.1l46.5-46.5l24.6,3.7c5.7,0.9,8.6,0.3,13-4.1l46.5-46.5l24.6,3.7
		c4.9,0.7,7.6,0.4,11.1-2.4v-16.4c-18.5,10-30.7,13.5-35.1,14.6L525.6,369.1z"/>
	<path style="fill:#002A3A;" d="M557.3,374.5c-1,0.8-1.9,1.5-2.8,2.2c-0.7,0.1-1,0.2-1,0.2l0.6,0.1c-45.5,35.8-75.5,44.7-82.9,46.5
		l2.1-2.1c-1,0.8-1.9,1.5-2.8,2.2c-0.7,0.1-1,0.2-1,0.2l0.6,0.1c-45.5,35.8-75.5,44.7-82.9,46.5l2.1-2.1c-1,0.8-1.9,1.5-2.8,2.2
		c-0.7,0.1-1,0.2-1,0.2l0.6,0.1c-45.5,35.8-75.5,44.7-82.9,46.5l2.1-2.1c-1,0.8-1.9,1.5-2.8,2.2c-0.7,0.1-1,0.2-1,0.2l0.6,0.1
		c-29.5,23.2-52.5,35.1-67,41.1h26.6l41-41l24.6,3.7c5.7,0.9,8.6,0.3,13-4.1l46.5-46.5l24.6,3.7c5.7,0.9,8.6,0.3,13-4.1l46.5-46.5
		l24.6,3.7c1.4,0.2,2.7,0.3,3.8,0.3c3.4,0,5.8-1.1,9.2-4.5L555,377l4,0.6v-2.1c-1.4,0.4-2.6,0.7-3.4,0.9L557.3,374.5z"/>
	<path style="fill:#002A3A;" d="M524.5,184.6c-1,0.8-1.9,1.5-2.8,2.2c-0.7,0.1-1,0.2-1,0.2l0.6,0.1c-45.5,35.8-75.5,44.7-82.9,46.5
		l2.1-2.1l0,0l0,0c-1,0.8-1.9,1.5-2.8,2.2c-0.7,0.1-1,0.2-1,0.2l0.6,0.1c-7.3,5.8-14.3,10.9-20.8,15.3c-3,2-5.9,4-8.7,5.7
		c-5.6,3.6-10.8,6.7-15.6,9.4c-4.8,2.7-9.2,4.9-13.2,6.8c-2,0.9-3.9,1.8-5.7,2.6c-9.5,4.1-16,6-18.9,6.7l2.1-2.1
		c-1,0.8-1.9,1.5-2.8,2.2c-0.7,0.1-1,0.2-1,0.2l0.6,0.1c-45.5,35.8-75.5,44.7-82.9,46.5l2.1-2.1c-1,0.8-1.9,1.5-2.8,2.2
		c-0.7,0.1-1,0.2-1,0.2l0.6,0.1c-45.5,35.8-75.5,44.7-82.9,46.5l2.1-2.1c-1,0.8-1.9,1.5-2.8,2.2c-0.7,0.1-1,0.2-1,0.2l0.6,0.1
		c-45.5,35.8-75.5,44.7-82.9,46.5l2.1-2.1c-1,0.8-1.9,1.5-2.8,2.2c-0.7,0.1-1,0.2-1,0.2l0.6,0.1c-45.5,35.8-75.5,44.7-82.9,46.5
		l2.1-2.1c-1,0.8-1.9,1.5-2.8,2.2c-0.7,0.1-1,0.2-1,0.2l0.6,0.1c-6.1,4.8-11.8,9-17.3,12.9v5.1L17.5,469l24.6,3.7
		c5.7,0.9,8.6,0.3,13-4.1l46.5-46.5l24.6,3.7c1.8,0.3,3.3,0.4,4.7,0.3c0.5,0,1.1-0.1,1.6-0.2s1-0.2,1.5-0.4c0.5-0.2,1-0.4,1.5-0.7
		c0.2-0.1,0.5-0.3,0.7-0.5c0.5-0.3,1-0.7,1.5-1.2c0.5-0.4,1-0.9,1.6-1.5l46.5-46.5l24.6,3.7c4.3,0.6,7,0.5,9.9-1.5
		c1-0.7,2-1.5,3.1-2.6l46.5-46.5l24.6,3.7c5.7,0.9,8.6,0.3,13-4.1l46.5-46.5l24.6,3.7c5.7,0.9,8.6,0.3,13-4.1l46.5-46.5l24.6,3.7
		c5.7,0.9,8.6,0.3,13-4.1l46.5-46.5l24.6,3.7c5.4,0.8,8.2,0.4,12.1-3.3v-16.1c-19.1,10.4-31.7,14.1-36.1,15.1L524.5,184.6z"/>
	<path style="fill:#002A3A;" d="M535.4,247.9c-1,0.8-1.9,1.5-2.8,2.2c-0.7,0.1-1,0.2-1,0.2l0.6,0.1c-45.5,35.8-75.5,44.7-82.9,46.5
		l2.1-2.1c-1,0.8-1.9,1.5-2.8,2.2c-0.7,0.1-1,0.2-1,0.2l0.6,0.1c-45.5,35.8-75.5,44.7-82.9,46.5l2.1-2.1c-1,0.8-1.9,1.5-2.8,2.2
		c-0.7,0.1-1,0.2-1,0.2l0.6,0.1c-45.5,35.8-75.5,44.7-82.9,46.5l2.1-2.1c-1,0.8-1.9,1.5-2.8,2.2c-0.7,0.1-1,0.2-1,0.2l0.6,0.1
		c-9,7.1-17.5,13.1-25.2,18.3c-2.9,1.9-5.7,3.7-8.4,5.4c-2.7,1.7-5.3,3.2-7.8,4.7c-8.8,5.1-16.4,8.8-22.6,11.5
		c-0.9,0.4-1.8,0.8-2.6,1.1c-8.1,3.4-13.6,4.9-16.3,5.6l2.1-2.1c-1,0.8-1.9,1.5-2.8,2.2c-0.7,0.1-1,0.2-1,0.2l0.6,0.1
		c-45.8,35.9-75.7,44.9-83.1,46.6l2.1-2.1c-1,0.8-1.9,1.5-2.8,2.2c-0.7,0.1-1,0.2-1,0.2l0.6,0.1c-45.5,35.8-75.5,44.7-82.9,46.5
		l2.1-2.1c-1,0.8-1.9,1.5-2.8,2.2c-0.7,0.1-1,0.2-1,0.2L28,532c-10.2,8-19.7,14.7-28.2,20.2v6.6h2.1L28.7,532l24.6,3.7
		c5.7,0.9,8.6,0.3,13-4.1l46.5-46.5l24.6,3.7c5.7,0.9,8.6,0.3,13-4.1l46.5-46.5l24.2,3.8c5.7,0.9,8.6,0.3,13-4.1l46.5-46.5l24.6,3.7
		c5.7,0.9,8.6,0.3,13-4.1l46.5-46.5l24.6,3.7c4.7,0.7,7.4,0.5,10.6-2c0.7-0.6,1.5-1.3,2.4-2.1l46.5-46.5l24.6,3.7
		c5.7,0.9,8.6,0.3,13-4.1l46.5-46.5l24.6,3.7c0.4,0.1,0.8,0.1,1.2,0.2v-14c-13,6.2-21.7,8.7-25.2,9.6L535.4,247.9z"/>
	<path style="fill:#002A3A;" d="M483,300.3c-1,0.8-1.9,1.5-2.8,2.2c-0.7,0.1-1,0.2-1,0.2l0.6,0.1c-45.5,35.8-75.5,44.7-82.9,46.5
		l2.1-2.1c-1,0.8-1.9,1.5-2.8,2.2c-0.7,0.1-1,0.2-1,0.2l0.6,0.1c-45.5,35.8-75.5,44.7-82.9,46.5l2.1-2.1c-1,0.8-1.9,1.5-2.8,2.2
		c-0.7,0.1-1,0.2-1,0.2l0.6,0.1c-45.5,35.8-75.5,44.7-82.9,46.5l2.1-2.1c-1,0.8-1.9,1.5-2.8,2.2c-0.7,0.1-1,0.2-1,0.2l0.6,0.1
		c-45.5,35.8-75.5,44.7-82.9,46.5l2.1-2.1c-1,0.8-1.9,1.5-2.8,2.2c-0.7,0.1-1,0.2-1,0.2l0.6,0.1c-45.5,35.8-75.5,44.7-82.9,46.5
		l2.1-2.1c-1,0.8-1.9,1.5-2.8,2.2c-0.7,0.1-1,0.2-1,0.2l0.6,0.1c-10.9,8.6-21,15.6-30,21.4h9.3l21-21l24.6,3.7
		c5.7,0.9,8.6,0.3,13-4.1l46.5-46.5l24.6,3.7c5.7,0.9,8.6,0.3,13-4.1l46.5-46.5l24.6,3.7c4.3,0.6,7,0.5,9.9-1.5c1-0.7,2-1.5,3.1-2.6
		l46.5-46.5l24.6,3.7c1.4,0.2,2.7,0.3,3.8,0.3c3.4,0,5.8-1.1,9.2-4.5l46.5-46.5l24.6,3.7c5.7,0.9,8.6,0.3,13-4.1l46.5-46.5l24.6,3.7
		c1.1,0.2,2,0.3,2.9,0.3c0.6,0,1.2,0,1.7,0s1.1-0.1,1.6-0.2c0.3-0.1,0.5-0.1,0.8-0.2c0.2-0.1,0.5-0.2,0.7-0.2c0.5-0.2,1-0.4,1.5-0.7
		c0.2-0.1,0.5-0.3,0.7-0.5s0.5-0.3,0.7-0.5s0.5-0.4,0.8-0.6c0.5-0.4,1-0.9,1.6-1.5l40.6-40.6V260c-42.5,32.4-70.5,40.7-77.6,42.4
		L483,300.3z"/>
	<path style="fill:#002A3A;" d="M178.4,493.6L178.4,493.6L178.4,493.6z"/>
	<path style="fill:#002A3A;" d="M514.7,305.8c-1,0.8-1.9,1.5-2.8,2.2c-0.7,0.1-1,0.2-1,0.2l0.6,0.1C466,344.1,436,353,428.6,354.8
		l2.1-2.1c-1,0.8-1.9,1.5-2.8,2.2c-0.7,0.1-1,0.2-1,0.2l0.6,0.1C382,391,352,399.9,344.6,401.7l2.1-2.1c-1,0.8-1.9,1.5-2.8,2.2
		c-0.7,0.1-1,0.2-1,0.2l0.6,0.1c-45.5,35.8-75.5,44.7-82.9,46.5l2.1-2.1c-1,0.8-1.9,1.5-2.8,2.2c-0.7,0.1-1,0.2-1,0.2l0.6,0.1
		c-45.5,35.8-75.5,44.7-82.9,46.5l2.1-2.1l0,0c-1,0.8-1.9,1.5-2.8,2.2c-0.7,0.1-1,0.2-1,0.2l0.6,0.1c-17.4,13.7-32.6,23.5-45.1,30.4
		c-14.5,8-25.3,12.2-32,14.4c-1.1,0.4-2.1,0.7-3,0.9c-0.9,0.2-1.6,0.5-2.3,0.6c-0.2,0.1-0.4,0.1-0.6,0.1l2.1-2.1
		c-1,0.8-1.9,1.5-2.8,2.2c0,0-0.1,0-0.2,0c-0.6,0.1-0.9,0.2-0.9,0.2l0.6,0.1c-7.7,6.1-15,11.3-21.7,15.9h6.5l15.8-15.8l24.6,3.7
		c3.6,0.5,6,0.5,8.4-0.6c1.4-0.7,2.9-1.8,4.6-3.5l46.5-46.5l24.6,3.7c5.7,0.9,8.6,0.3,13-4.1l46.5-46.5l24.6,3.7
		c5.7,0.9,8.6,0.3,13-4.1l46.5-46.5l24.6,3.7c5.7,0.9,8.6,0.3,13-4.1l46.5-46.5l24.6,3.7c5.7,0.9,8.6,0.3,13-4.1l46.5-46.5L537,312
		c5.7,0.9,8.6,0.3,13-4.1l9-9V287c-24.7,14.8-40.8,19.6-46,20.8L514.7,305.8z"/>
	<path style="fill:#002A3A;" d="M544.3,410.9c-8.8,5.1-16.4,8.8-22.6,11.5c-0.9,0.4-1.8,0.8-2.6,1.1c-8.1,3.4-13.6,4.9-16.3,5.6
		l2.1-2.1c-1,0.8-1.9,1.5-2.8,2.2c-0.7,0.1-1,0.2-1,0.2l0.6,0.1c-7.3,5.8-14.3,10.9-20.8,15.3c-3,2-5.9,4-8.7,5.7
		c-5.6,3.6-10.8,6.7-15.6,9.4c-4.8,2.7-9.2,4.9-13.2,6.8c-2,0.9-3.9,1.8-5.7,2.6c-9.5,4.1-16,6-18.9,6.7l2.1-2.1
		c-1,0.8-1.9,1.5-2.8,2.2c-0.7,0.1-1,0.2-1,0.2l0.6,0.1c-45.5,35.8-75.5,44.7-82.9,46.5l2.1-2.1c-1,0.8-1.9,1.5-2.8,2.2
		c-0.7,0.1-1,0.2-1,0.2l0.6,0.1c-22.4,17.6-41,28.7-55,35.6h20.1l35.5-35.5l24.6,3.7c5.7,0.9,8.6,0.3,13-4.1l46.5-46.5l24.6,3.7
		c5.7,0.9,8.6,0.3,13-4.1l46.5-46.5l24.6,3.7c5.7,0.9,8.6,0.3,13-4.1l18.8-18.8v-8.3c-2.2,1.4-4.4,2.8-6.5,4.1
		C549.4,407.9,546.8,409.4,544.3,410.9z"/>
	<path style="fill:#002A3A;" d="M544.1,455.7c-4.5,3.1-8.7,5.8-12.8,8.3c-2.7,1.7-5.3,3.2-7.8,4.7c-1.3,0.7-2.5,1.4-3.7,2.1
		c-4.8,2.7-9.2,4.9-13.2,6.8c-1,0.5-2,0.9-2.9,1.4c-4.7,2.1-8.8,3.8-12.1,5c-4.5,1.6-7.7,2.5-9.5,2.9l2.1-2.1l0,0
		c-1,0.8-1.9,1.5-2.8,2.2c-0.7,0.1-1,0.2-1,0.2l0.6,0.1c-17.4,13.7-32.6,23.5-45.1,30.4c-14.5,8-25.3,12.2-32,14.4
		c-1.1,0.4-2.1,0.7-3,0.9c-0.9,0.2-1.6,0.5-2.3,0.6c-0.2,0.1-0.4,0.1-0.6,0.1l2.1-2.1c-1,0.8-1.9,1.5-2.8,2.2c0,0-0.1,0-0.2,0
		c-0.6,0.1-0.9,0.2-0.9,0.2l0.6,0.1c-13.1,10.3-25,18.4-35.3,24.7h11.3l24.6-24.6l24.6,3.7c5.7,0.9,8.6,0.3,13-4.1l46.5-46.5
		l24.6,3.7c4.3,0.6,7,0.5,9.9-1.5c1-0.7,2-1.5,3.1-2.6l39.6-39.6v-2.1c-1.8,1.3-3.5,2.6-5.2,3.9
		C550.2,451.5,547.1,453.7,544.1,455.7z"/>
	<path style="fill:#002A3A;" d="M484.1,484.8L484.1,484.8L484.1,484.8z"/>
	<path style="fill:#002A3A;" d="M493.9,363.6c-1,0.8-1.9,1.5-2.8,2.2c-0.7,0.1-1,0.2-1,0.2l0.6,0.1c-45.5,35.8-75.5,44.7-82.9,46.5
		l2.1-2.1c-1,0.8-1.9,1.5-2.8,2.2c-0.7,0.1-1,0.2-1,0.2l0.6,0.1c-45.5,35.8-75.5,44.7-82.9,46.5l2.1-2.1c-1,0.8-1.9,1.5-2.8,2.2
		c-0.7,0.1-1,0.2-1,0.2l0.6,0.1c-45.5,35.8-75.5,44.7-82.9,46.5l2.1-2.1c-1,0.8-1.9,1.5-2.8,2.2c-0.7,0.1-1,0.2-1,0.2l0.6,0.1
		c-45.5,35.8-75.5,44.7-82.9,46.5l2.1-2.1c-1,0.8-1.9,1.5-2.8,2.2c-0.7,0.1-1,0.2-1,0.2l0.6,0.1c-2.2,1.7-4.4,3.4-6.5,5h2.2l4.9-4.9
		l24.6,3.7c5.7,0.9,8.6,0.3,13-4.1l46.5-46.5l24.6,3.7c5.7,0.9,8.6,0.3,13-4.1l46.5-46.5l24.6,3.7c5.7,0.9,8.6,0.3,13-4.1l46.5-46.5
		l24.6,3.7c1.1,0.2,2,0.3,2.9,0.3c0.3,0,0.6,0,0.9,0c1.7,0,3.2-0.3,4.6-1s2.9-1.8,4.6-3.5l46.5-46.5l24.6,3.7
		c5.7,0.9,8.6,0.3,13-4.1L559,336v-4.8c-36.4,25.8-60.2,32.8-66.7,34.4L493.9,363.6z"/>
	<path style="fill:#002A3A;" d="M507.5,242.9c-1.1,0.4-2.1,0.7-3,0.9s-1.6,0.5-2.3,0.6c-0.2,0.1-0.4,0.1-0.6,0.1l2.1-2.1
		c-1,0.8-1.9,1.5-2.8,2.2c0,0-0.1,0-0.2,0c-0.6,0.1-0.9,0.2-0.9,0.2l0.6,0.1c-45.5,35.8-75.5,44.7-82.9,46.5l2.1-2.1
		c-1,0.8-1.9,1.5-2.8,2.2c-0.7,0.1-1,0.2-1,0.2l0.6,0.1c-45.5,35.8-75.5,44.7-82.9,46.5l2.1-2.1c-1,0.8-1.9,1.5-2.8,2.2
		c-0.7,0.1-1,0.2-1,0.2l0.6,0.1c-45.5,35.8-75.5,44.7-82.9,46.5l2.1-2.1c-1,0.8-1.9,1.5-2.8,2.2c-0.7,0.1-1,0.2-1,0.2l0.6,0.1
		c-45.5,35.8-75.5,44.7-82.9,46.5l2.1-2.1c-1,0.8-1.9,1.5-2.8,2.2c-0.7,0.1-1,0.2-1,0.2l0.6,0.1c-7.3,5.8-14.3,10.9-20.8,15.3
		c-3,2-5.9,4-8.7,5.7c-4.2,2.7-8.2,5.1-11.9,7.3c-3.8,2.2-7.3,4.1-10.6,5.8c-1.1,0.6-2.2,1.1-3.2,1.6c-14.4,7.1-23.9,9.8-27.6,10.7
		l2.1-2.1c-1,0.8-1.9,1.5-2.8,2.2c-0.7,0.1-1,0.2-1,0.2l0.6,0.1c-7.3,5.8-14.3,10.9-20.8,15.3c-3,2-5.9,4-8.7,5.7
		c-5.6,3.6-10.8,6.7-15.6,9.4c-4.8,2.7-9.2,4.9-13.2,6.8c-2,0.9-3.9,1.8-5.7,2.6c-7.6,3.3-13.2,5.1-16.6,6.1v1.6l21.7,3.2
		c5.7,0.9,8.6,0.3,13-4.1l46.5-46.5l24.6,3.7c5.7,0.9,8.6,0.3,13-4.1l46.5-46.5l24.6,3.7c5.7,0.9,8.6,0.3,13-4.1l46.5-46.5l24.6,3.7
		c5.7,0.9,8.6,0.3,13-4.1l46.5-46.5l24.6,3.7c5.7,0.9,8.6,0.3,13-4.1l46.5-46.5l24.6,3.7c0.4,0.1,0.7,0.1,1,0.1
		c0.7,0.1,1.3,0.1,1.9,0.2c3.9,0.2,6.4-0.8,10-4.4l46.5-46.5l24.6,3.7c5.7,0.9,8.6,0.3,13-4.1l19.9-19.9v-7.9
		c-6.9,4.5-13.3,8.4-19.1,11.6C525.1,236.5,514.2,240.7,507.5,242.9z"/>
	<path style="fill:#002A3A;" d="M502.7,58c-1,0.8-1.9,1.5-2.8,2.2c-0.7,0.1-1,0.2-1,0.2l0.6,0.1C454,96.3,424,105.2,416.6,107
		l2.1-2.1c-1,0.8-1.9,1.5-2.8,2.2c-0.7,0.1-1,0.2-1,0.2l0.6,0.1c-45.5,35.8-75.5,44.7-82.9,46.5l2.1-2.1c-1,0.8-1.9,1.5-2.8,2.2
		c-0.7,0.1-1,0.2-1,0.2l0.6,0.1C286,190.1,256,199,248.6,200.8l2.1-2.1c-1,0.8-1.9,1.5-2.8,2.2c-0.7,0.1-1,0.2-1,0.2l0.6,0.1
		C202,237,172,245.9,164.6,247.7l2.1-2.1c-1,0.8-1.9,1.5-2.8,2.2c-0.7,0.1-1,0.2-1,0.2l0.6,0.1C118,283.9,88,292.8,80.6,294.6
		l2.1-2.1c-1,0.8-1.9,1.5-2.8,2.2c-0.7,0.1-1,0.2-1,0.2l0.6,0.1c-40.4,31.8-68.6,42.4-79.6,45.6v2.1l20.7,3.1
		c5.7,0.9,8.6,0.3,13-4.1l46.5-46.5l24.6,3.7c5.7,0.9,8.6,0.3,13-4.1l46.5-46.5l24.6,3.7c0.4,0.1,0.7,0.1,1,0.1
		c0.7,0.1,1.3,0.1,1.9,0.2c3.9,0.2,6.4-0.8,10-4.4l46.5-46.5l24.6,3.7c5.7,0.9,8.6,0.3,13-4.1l46.5-46.5l24.6,3.7
		c5.7,0.9,8.6,0.3,13-4.1l46.5-46.5l24.6,3.7c4.7,0.7,7.4,0.5,10.6-2c0.7-0.6,1.5-1.3,2.4-2.1l46.1-46.6l24.6,3.7
		c5.7,0.9,8.6,0.3,13-4.1l20.9-20.9v-7.5c-31.4,20.9-52,26.9-57.9,28.4L502.7,58z"/>
	<path style="fill:#002A3A;" d="M513.6,121.3c-1,0.8-1.9,1.5-2.8,2.2c-0.7,0.1-1,0.2-1,0.2l0.6,0.1c-45.5,35.8-75.5,44.7-82.9,46.5
		l2.1-2.1c-1,0.8-1.9,1.5-2.8,2.2c-0.7,0.1-1,0.2-1,0.2l0.6,0.1c-45.5,35.8-75.5,44.7-82.9,46.5l2.1-2.1c-1,0.8-1.9,1.5-2.8,2.2
		c-0.7,0.1-1,0.2-1,0.2l0.6,0.1c-45.5,35.8-75.5,44.7-82.9,46.5l2.1-2.1c-1,0.8-1.9,1.5-2.8,2.2c-0.7,0.1-1,0.2-1,0.2l0.6,0.1
		c-45.5,35.8-75.5,44.7-82.9,46.5l2.1-2.1c-1,0.8-1.9,1.5-2.8,2.2c-0.7,0.1-1,0.2-1,0.2l0.6,0.1c-45.5,35.8-75.5,44.7-82.9,46.5
		l2.1-2.1l0,0c-1,0.8-1.9,1.5-2.8,2.2c-0.7,0.1-1,0.2-1,0.2l0.6,0.1C73,372,57.8,381.8,45.3,388.7c-14.5,8-25.3,12.2-32,14.4
		c-1.1,0.4-2.1,0.7-3,0.9c-0.9,0.3-1.6,0.5-2.3,0.6c-0.2,0.1-0.4,0.1-0.6,0.1l2.1-2.1c-1,0.8-1.9,1.5-2.8,2.2c0,0-0.1,0-0.2,0
		c-0.6,0.1-0.9,0.2-0.9,0.2l0.6,0.1c-2.2,1.7-4.3,3.3-6.4,4.9v2.2l7-7l24.6,3.7c1.4,0.2,2.7,0.3,3.8,0.3c3.4,0,5.8-1.1,9.2-4.5
		l46.5-46.5l24.6,3.7c5.7,0.9,8.6,0.3,13-4.1l46.5-46.5l24.6,3.7c5.7,0.9,8.6,0.3,13-4.1l46.5-46.5l24.6,3.7c5.7,0.9,8.6,0.3,13-4.1
		l46.5-46.5l24.6,3.7c5.7,0.9,8.6,0.3,13-4.1l46.5-46.5l24.6,3.7c5.7,0.9,8.6,0.3,13-4.1l46.5-46.5l24.6,3.7c1.1,0.2,2,0.3,2.9,0.3
		c0.3,0,0.6,0,0.9,0c1.7,0,3.2-0.3,4.6-1c1.4-0.7,2.9-1.8,4.6-3.5l10-10v-11.5c-25.3,15.3-41.8,20.2-47,21.4L513.6,121.3z"/>
	<path style="fill:#002A3A;" d="M492.9,179.1c-1,0.8-1.9,1.5-2.8,2.2c-0.7,0.1-1,0.2-1,0.2l0.6,0.1c-45.5,35.8-75.5,44.7-82.9,46.5
		l2.1-2.1c-1,0.8-1.9,1.5-2.8,2.2c-0.7,0.1-1,0.2-1,0.2l0.6,0.1c-45.5,35.8-75.5,44.7-82.9,46.5l2.1-2.1c-1,0.8-1.9,1.5-2.8,2.2
		c-0.7,0.1-1,0.2-1,0.2l0.6,0.1c-7.3,5.8-14.3,10.9-20.8,15.3c-3,2-5.9,4-8.7,5.7c-5.6,3.6-10.8,6.7-15.6,9.4
		c-4.8,2.7-9.2,4.9-13.2,6.8c-2,0.9-3.9,1.8-5.7,2.6c-9.5,4.1-16,6-18.9,6.7l2.1-2.1c-1,0.8-1.9,1.5-2.8,2.2c-0.7,0.1-1,0.2-1,0.2
		l0.6,0.1c-45.5,35.8-75.5,44.7-82.9,46.5l2.1-2.1c-1,0.8-1.9,1.5-2.8,2.2c-0.7,0.1-1,0.2-1,0.2l0.6,0.1
		c-45.5,35.8-75.5,44.7-82.9,46.5l2.1-2.1c-1,0.8-1.9,1.5-2.8,2.2c-0.7,0.1-1,0.2-1,0.2l0.6,0.1c-31.8,25-55.8,36.9-70.1,42.5v6.9
		l10.8,1.6c5.7,0.9,8.6,0.3,13-4.1l46.5-46.5l24.6,3.7c5.7,0.9,8.6,0.3,13-4.1l46.5-46.5l24.6,3.7c5.7,0.9,8.6,0.3,13-4.1l46.5-46.5
		l24.6,3.7c5.7,0.9,8.6,0.3,13-4.1l46.5-46.5l24.6,3.7c5.7,0.9,8.6,0.3,13-4.1l46.5-46.5l24.6,3.7c5.7,0.9,8.6,0.3,13-4.1l46.5-46.5
		l24.6,3.7c5.7,0.9,8.6,0.3,13-4.1l30.8-30.8v-4.5c-37,26.4-61.2,33.6-67.8,35.1L492.9,179.1z"/>
	<path style="fill:#002A3A;" d="M536.5,432.4c-1,0.8-1.9,1.5-2.8,2.2c-0.7,0.1-1,0.2-1,0.2l0.6,0.1c-45.5,35.8-75.5,44.7-82.9,46.5
		l2.1-2.1c-1,0.8-1.9,1.5-2.8,2.2c-0.7,0.1-1,0.2-1,0.2l0.6,0.1c-45.5,35.8-75.5,44.7-82.9,46.5l2.1-2.1l0,0c-1,0.8-1.9,1.5-2.8,2.2
		c-0.7,0.1-1,0.2-1,0.2l0.6,0.1c-17.2,13.5-32.3,23.3-44.7,30.2h15.2l30.1-30.1l24.6,3.7c5.7,0.9,8.6,0.3,13-4.1l46.5-46.5l24.6,3.7
		c5.7,0.9,8.6,0.3,13-4.1l46.5-46.5l24.6,3.7c0.1,0,0.1,0,0.2,0v-13.3c-12.4,5.9-20.7,8.2-24.1,9L536.5,432.4z"/>
	<path style="fill:#002A3A;" d="M482,115.8c-1,0.8-1.9,1.5-2.8,2.2c-0.7,0.1-1,0.2-1,0.2l0.6,0.1c-45.5,35.8-75.5,44.7-82.9,46.5
		l2.1-2.1c-1,0.8-1.9,1.5-2.8,2.2c-0.7,0.1-1,0.2-1,0.2l0.6,0.1c-45.5,35.8-75.5,44.7-82.9,46.5l2.1-2.1c-1,0.8-1.9,1.5-2.8,2.2
		c-0.7,0.1-1,0.2-1,0.2l0.6,0.1c-45.7,35.9-75.7,44.9-83.1,46.7l2.1-2.1c-1,0.8-1.9,1.5-2.8,2.2c-0.7,0.1-1,0.2-1,0.2l0.6,0.1
		c-45.5,35.8-75.5,44.7-82.9,46.5l2.1-2.1c-1,0.8-1.9,1.5-2.8,2.2c-0.7,0.1-1,0.2-1,0.2l0.6,0.1c-45.5,35.8-75.5,44.7-82.9,46.5
		l2.1-2.1c-1,0.8-1.9,1.5-2.8,2.2c-0.7,0.1-1,0.2-1,0.2l0.6,0.1c-24.5,19.2-44.4,30.7-58.8,37.5v13.3c1.4,0.2,2.6,0.3,3.7,0.3
		c2.3,0,4.1-0.5,6.1-1.8c1-0.7,2-1.5,3.1-2.6l46.5-46.5l24.6,3.7c5.7,0.9,8.6,0.3,13-4.1l46.5-46.5l24.6,3.7c5.7,0.9,8.6,0.3,13-4.1
		l46.5-46.5l24.6,3.7c1.1,0.2,2,0.3,2.9,0.3c0.6,0,1.2,0,1.7,0c0.8,0,1.6-0.2,2.3-0.4c1.2-0.4,2.4-1,3.7-1.9
		c0.7-0.6,1.5-1.3,2.4-2.1l46.5-46.5l24.6,3.7c3.6,0.5,6,0.5,8.4-0.6c1.4-0.7,2.9-1.8,4.6-3.5l46.5-46.5l24.6,3.7
		c1.8,0.3,3.3,0.4,4.7,0.3c0.5,0,1.1-0.1,1.6-0.2c0.5-0.1,1-0.3,1.5-0.4s1-0.4,1.5-0.7c0.2-0.1,0.5-0.3,0.7-0.5
		c0.5-0.3,1-0.7,1.5-1.2s1-0.9,1.6-1.5l46.5-46.5l24.6,3.7c5.7,0.9,8.6,0.3,13-4.1l41.7-41.7v-1.6c-43.1,33-71.5,41.5-78.7,43.2
		L482,115.8z"/>
	<path style="fill:#002A3A;" d="M352.2,9.2c-1.3,0.7-2.5,1.4-3.7,2.1c-4.8,2.7-9.2,4.9-13.2,6.8c-1,0.5-2,0.9-2.9,1.4
		c-4.7,2.1-8.8,3.8-12.1,5c-4.5,1.6-7.7,2.5-9.5,2.9l2.1-2.1l0,0c-1,0.8-1.9,1.5-2.8,2.2c-0.7,0.1-1,0.2-1,0.2l0.6,0.1
		c-17.4,13.7-32.6,23.5-45.1,30.4c-14.5,8-25.3,12.2-32,14.4c-1.1,0.4-2.1,0.7-3,0.9c-0.9,0.2-1.6,0.5-2.3,0.6
		c-0.2,0.1-0.4,0.1-0.6,0.1l2.1-2.1c-1,0.8-1.9,1.5-2.8,2.2c0,0-0.1,0-0.2,0c-0.6,0.1-0.9,0.2-0.9,0.2l0.6,0.1
		c-45.5,35.8-75.5,44.7-82.9,46.5l2.1-2.1c-1,0.8-1.9,1.5-2.8,2.2c-0.7,0.1-1,0.2-1,0.2l0.6,0.1C96,157.3,66,166.2,58.6,168l2.1-2.1
		c-1,0.8-1.9,1.5-2.8,2.2c-0.7,0.1-1,0.2-1,0.2l0.6,0.1C33.6,187.1,14,198.5-0.3,205.3v13.9c5,0.6,7.7-0.1,11.9-4.3l46.5-46.5
		l24.6,3.7c5.7,0.9,8.6,0.3,13-4.1l46.5-46.5l24.6,3.7c5.7,0.9,8.6,0.3,13-4.1l46.3-46.3l24.6,3.7c5.7,0.9,8.6,0.3,13-4.1l46.4-46.5
		l24.6,3.7c5.7,0.9,8.6,0.3,13-4.1L375.1,0H367c-2.4,1.6-4.7,3.1-7,4.5C357.3,6.2,354.7,7.7,352.2,9.2z"/>
	<path style="fill:#002A3A;" d="M407.7,41.6c-1,0.8-1.9,1.5-2.8,2.2c-0.7,0.1-1,0.2-1,0.2l0.6,0.1C359,79.9,329,88.8,321.6,90.6
		l2.1-2.1c-1,0.8-1.9,1.5-2.8,2.2c-0.7,0.1-1,0.2-1,0.2l0.6,0.1c-5.7,4.4-11.1,8.5-16.3,12.2c-6.1,4.3-11.9,8.2-17.3,11.5
		s-10.4,6.2-15,8.7c-3.5,1.9-6.7,3.5-9.7,4.9c-5,2.4-9.3,4.2-13,5.5c-1.5,0.5-2.8,1-4,1.4c-3.5,1.2-6,1.9-7.6,2.2l2.1-2.1
		c-1,0.8-1.9,1.5-2.8,2.2c-0.7,0.1-1,0.2-1,0.2l0.6,0.1c-45.5,35.8-75.5,44.7-82.9,46.5l2.1-2.1c-1,0.8-1.9,1.5-2.8,2.2
		c-0.7,0.1-1,0.2-1,0.2l0.6,0.1C107,220.5,77,229.4,69.6,231.2l2.1-2.1c-1,0.8-1.9,1.5-2.8,2.2c-0.7,0.1-1,0.2-1,0.2l0.6,0.1
		c-7.3,5.8-14.3,10.9-20.8,15.3c-3,2-5.9,4-8.7,5.7c-5.6,3.6-10.8,6.7-15.6,9.4s-9.2,4.9-13.2,6.8c-2,0.9-3.9,1.8-5.7,2.6
		c-1.6,0.7-3.2,1.4-4.7,1.9v7.5l9.8,1.5c5.7,0.9,8.6,0.3,13-4.1l46.5-46.5l24.6,3.7c5.7,0.9,8.6,0.3,13-4.1l46.5-46.5l24.6,3.7
		c5.7,0.9,8.6,0.3,13-4.1l46.5-46.5l24.6,3.7c4.3,0.6,7,0.5,9.9-1.5c1-0.7,2-1.5,3.1-2.6L321.4,91l24.6,3.7c5.7,0.9,8.6,0.3,13-4.1
		l46.1-46.3l24.6,3.7c5.7,0.9,8.6,0.3,13-4.1L486.4,0h-1.5c-43.5,33.4-72.1,41.9-79.3,43.6L407.7,41.6z"/>
	<path style="fill:#002A3A;" d="M522.7,0h-15.3l6.3,0.9C517.6,1.5,520.1,1.5,522.7,0z"/>
	<path style="fill:#002A3A;" d="M523.5,0.1c-1,0.8-1.9,1.5-2.8,2.2c-0.7,0.1-1,0.2-1,0.2l0.6,0.1c-45.5,35.8-75.5,44.7-82.9,46.5
		l2.1-2.1c-1,0.8-1.9,1.5-2.8,2.2c-0.7,0.1-1,0.2-1,0.2l0.6,0.1c-45.5,35.8-75.5,44.7-82.9,46.5l2.1-2.1c-1,0.8-1.9,1.5-2.8,2.2
		c-0.7,0.1-1,0.2-1,0.2l0.6,0.1c-45.5,35.8-75.5,44.7-82.9,46.5l2.1-2.1c-1,0.8-1.9,1.5-2.8,2.2c-0.7,0.1-1,0.2-1,0.2l0.6,0.1
		c-45.5,35.8-75.5,44.7-82.9,46.5l2.1-2.1c-1,0.8-1.9,1.5-2.8,2.2c-0.7,0.1-1,0.2-1,0.2l0.6,0.1c-7.3,5.8-14.3,10.9-20.8,15.3
		c-3,2-5.9,4-8.7,5.7c-5.6,3.6-10.8,6.7-15.6,9.4s-9.2,4.9-13.2,6.8c-2,0.9-3.9,1.8-5.7,2.6c-9.5,4.1-16,6-18.9,6.7l2.1-2.1
		c-1,0.8-1.9,1.5-2.8,2.2c-0.7,0.1-1,0.2-1,0.2l0.6,0.1C93,242.9,86,248,79.5,252.4c-3,2-5.9,4-8.7,5.7c-4.2,2.7-8.2,5.1-11.9,7.3
		c-3.7,2.2-7.3,4.1-10.6,5.8c-1.1,0.6-2.2,1.1-3.2,1.6c-14.4,7.1-23.9,9.8-27.6,10.7l2.1-2.1c-1,0.8-1.9,1.5-2.8,2.2
		c-0.7,0.1-1,0.2-1,0.2l0.6,0.1c-5.7,4.5-11.1,8.5-16.3,12.1v4.8L17,283.9l24.6,3.7c5.7,0.9,8.6,0.3,13-4.1l46.5-46.5l24.6,3.7
		c5.7,0.9,8.6,0.3,13-4.1l46.5-46.5l24.6,3.7c5.7,0.9,8.6,0.3,13-4.1l46.5-46.5l24.6,3.7c5.7,0.9,8.6,0.3,13-4.1l46.5-46.5L378,100
		c5.7,0.9,8.6,0.3,13-4.1l46.5-46.5l24.6,3.7c5.7,0.9,8.6,0.3,13-4.1l46.5-46.5l24.6,3.7c5.7,0.9,8.6,0.3,13-4.1l0.2-0.2V0h-29.9
		c-3.3,1.1-5.8,1.8-7.3,2.1L523.5,0.1z"/>
	<path style="fill:#002A3A;" d="M555.1,5.6c-1,0.8-1.9,1.5-2.8,2.2c-0.7,0.1-1,0.2-1,0.2l0.6,0.1c-45.5,35.8-75.5,44.7-82.9,46.5
		l2.1-2.1c-1,0.8-1.9,1.5-2.8,2.2c-0.7,0.1-1,0.2-1,0.2l0.6,0.1c-45.5,35.8-75.5,44.7-82.9,46.5l2.1-2.1c-1,0.8-1.9,1.5-2.8,2.2
		c-0.7,0.1-1,0.2-1,0.2l0.6,0.1c-9,7.1-17.5,13.1-25.2,18.3c-2.9,1.9-5.7,3.7-8.4,5.4c-2.7,1.7-5.3,3.2-7.8,4.7
		c-8.8,5.1-16.4,8.8-22.6,11.5c-0.9,0.4-1.8,0.8-2.6,1.1c-8.1,3.4-13.6,4.9-16.3,5.6l2.1-2.1c-1,0.8-1.9,1.5-2.8,2.2
		c-0.7,0.1-1,0.2-1,0.2l0.6,0.1c-45.5,35.8-75.5,44.7-82.9,46.5l2.1-2.1c-1,0.8-1.9,1.5-2.8,2.2c-0.7,0.1-1,0.2-1,0.2l0.6,0.1
		c-45.5,35.8-75.5,44.7-82.9,46.5l2.1-2.1c-1,0.8-1.9,1.5-2.8,2.2c-0.7,0.1-1,0.2-1,0.2l0.6,0.1c-45.8,35.9-75.8,44.9-83.2,46.6
		l2.1-2.1c-1,0.8-1.9,1.5-2.8,2.2c-0.7,0.1-1,0.2-1,0.2l0.6,0.1c-18.8,14.8-34.9,24.9-47.9,31.9v16.5c0.6-0.5,1.3-1.1,2-1.8
		l46.4-46.4l24.6,3.7c4.3,0.6,7,0.5,9.9-1.5c1-0.7,2-1.5,3.1-2.6l46.5-46.5l24.6,3.7c5.7,0.9,8.6,0.3,13-4.1l46.5-46.5l24.6,3.7
		c5.7,0.9,8.6,0.3,13-4.1l46.5-46.5l24.6,3.7c5.7,0.9,8.6,0.3,13-4.1l46.5-46.5l24.6,3.7c1.4,0.2,2.7,0.3,3.8,0.3
		c1.7,0,3.2-0.3,4.6-1s2.9-1.8,4.6-3.5l46.5-46.5l24.6,3.7c0.4,0.1,0.7,0.1,1,0.1c0.7,0.1,1.3,0.1,1.9,0.2c3.9,0.2,6.4-0.8,10-4.4
		l46.5-46.5l6.1,0.9V6.1c-2.4,0.8-4.3,1.3-5.5,1.6L555.1,5.6z"/>
	<path style="fill:#002A3A;" d="M515.8,490.3c-1,0.8-1.9,1.5-2.8,2.2c-0.7,0.1-1,0.2-1,0.2l0.6,0.1c-45.5,35.8-75.5,44.7-82.9,46.5
		l2.1-2.1c-1,0.8-1.9,1.5-2.8,2.2c-0.7,0.1-1,0.2-1,0.2l0.6,0.1c-9.6,7.6-18.5,13.9-26.7,19.3h8.1l19.2-19.2l24.6,3.7
		c5.7,0.9,8.6,0.3,13-4.1l46.5-46.5l24.6,3.7c5.7,0.9,8.6,0.3,13-4.1l7.9-7.9v-12.4c-24.1,14.3-39.8,18.9-44.9,20.1L515.8,490.3z"/>
	<path style="fill:#002A3A;" d="M495,548.1c-1,0.8-1.9,1.5-2.8,2.2c-0.7,0.1-1,0.2-1,0.2l0.6,0.1c-3.8,3-7.4,5.7-11,8.4h3.3l8.3-8.3
		l24.6,3.7c5.7,0.9,8.6,0.3,13-4.1l28.7-28.7v-5.1c-35.8,25.2-59.2,32.1-65.6,33.6L495,548.1z"/>
	<path style="fill:#002A3A;" d="M526.7,553.6c-1,0.8-1.9,1.5-2.8,2.2c-0.7,0.1-1,0.2-1,0.2l0.6,0.1c-1.3,1-2.5,2-3.7,2.9h1.5
		l2.8-2.8l18.8,2.8h14.6c0.4-0.2,0.8-0.4,1.1-0.7v-16.7c-17.9,9.6-29.7,13-34,14L526.7,553.6z"/>
	<path style="fill:#002A3A;" d="M281.1,19.8c-1,0.8-1.9,1.5-2.8,2.2c-0.7,0.1-1,0.2-1,0.2l0.6,0.1C232.4,58.1,202.4,67,195,68.8
		l2.1-2.1c-1,0.8-1.9,1.5-2.8,2.2c-0.7,0.1-1,0.2-1,0.2l0.6,0.1c-9,7.1-17.5,13.1-25.2,18.3c-2.9,1.9-5.7,3.7-8.4,5.4
		c-2.7,1.7-5.3,3.2-7.8,4.7c-8.8,5.1-16.4,8.8-22.6,11.5c-0.9,0.4-1.8,0.8-2.6,1.1c-8.1,3.4-13.6,4.9-16.3,5.6l2.1-2.1
		c-1,0.8-1.9,1.5-2.8,2.2c-0.7,0.1-1,0.2-1,0.2l0.6,0.1C64.4,152,34.4,160.9,27,162.7l2.1-2.1c-1,0.8-1.9,1.5-2.8,2.2
		c-0.7,0.1-1,0.2-1,0.2l0.6,0.1c-9.4,7.4-18.1,13.6-26.1,18.9v7.9l26.7-26.7l24.6,3.7c0.4,0.1,0.7,0.1,1,0.1
		c0.7,0.1,1.3,0.1,1.9,0.2c3.9,0.2,6.4-0.8,10-4.4l46.5-46.5l24.6,3.7c5.7,0.9,8.6,0.3,13-4.1l46.5-46.5l24.6,3.7
		c5.7,0.9,8.6,0.3,13-4.1l46.5-46.5l24.6,3.7c5.7,0.9,8.6,0.3,13-4.1l22-22H327c-25.9,15.6-42.7,20.5-47.9,21.8L281.1,19.8z"/>
	<path style="fill:#002A3A;" d="M547.4,495.7c-1,0.8-1.9,1.5-2.8,2.2c-0.7,0.1-1,0.2-1,0.2l0.6,0.1c-45.5,35.8-75.5,44.7-82.9,46.5
		l2.1-2.1c-1,0.8-1.9,1.5-2.8,2.2c-0.7,0.1-1,0.2-1,0.2l0.6,0.1c-6.5,5.1-12.7,9.7-18.6,13.8h5.5l13.7-13.7l24.6,3.7
		c5.7,0.9,8.6,0.3,13-4.1l46.5-46.5l13.8,2.1v-7c-6.5,2.5-10.9,3.8-13.2,4.3L547.4,495.7z"/>
	<path style="fill:#002A3A;" d="M7.1,34L7.1,34c-1,0.8-1.9,1.5-2.8,2.2c-0.7,0.1-1,0.2-1,0.2l0.6,0.1c-1.4,1.1-2.9,2.2-4.3,3.3v1.7
		l4.9-4.9l24.6,3.7c5.7,0.9,8.6,0.3,13-4.1L78.2,0h-4.1C36.4,27.2,11.7,34.5,5,36.1L7.1,34z"/>
	<path style="fill:#002A3A;" d="M-0.4,35.1c4.3,0.4,7-0.6,10.8-4.4L41.1,0h-6.4C20.9,9.4,9.1,16-0.4,20.6V35.1z"/>
	<path style="fill:#002A3A;" d="M150.6,0.4l0.6,0.1C105.7,36.3,75.8,45.2,68.4,47l2.1-2.1c-1,0.8-1.9,1.5-2.8,2.2
		c-0.7,0.1-1,0.2-1,0.2l0.6,0.1c-5.8,4.5-11.2,8.6-16.4,12.2c-6.1,4.3-11.9,8.2-17.3,11.5s-10.4,6.2-15,8.7
		c-3.5,1.9-6.7,3.5-9.7,4.9c-3.4,1.6-6.5,3-9.3,4.1v8.1l8.7,1.3c4.3,0.6,7,0.5,9.9-1.5c1-0.7,2-1.5,3.1-2.6l46.5-46.5l24.6,3.7
		c5.7,0.9,8.6,0.3,13-4.1l46.5-46.5l24.6,3.7c5.7,0.9,8.6,0.3,13-4.1l0.1-0.1h-37.1c0,0,0,0-0.1,0l0,0h-0.5
		c-0.1,0.1-0.2,0.1-0.2,0.2C151,0.4,150.6,0.4,150.6,0.4z"/>
	<polygon style="fill:#002A3A;" points="4,0 -0.4,0 -0.4,4.4 	"/>
	<path style="fill:#002A3A;" d="M38.8,39.5c-1,0.8-1.9,1.5-2.8,2.2c-0.7,0.1-1,0.2-1,0.2l0.6,0.1c-13.5,10.6-25.5,18.7-36,25.1v11.5
		l36.5-36.5l24.6,3.7c3.6,0.5,6,0.5,8.4-0.6c1.4-0.7,2.9-1.8,4.6-3.5L115.3,0h-2.2C71.3,31.7,43.7,39.9,36.7,41.5L38.8,39.5z"/>
	<path style="fill:#002A3A;" d="M186.1,3.4c-1,0.8-1.9,1.5-2.8,2.2c-0.7,0.1-1,0.2-1,0.2l0.6,0.1c-45.5,35.8-75.5,44.7-82.9,46.5
		l2.1-2.1c-1,0.8-1.9,1.5-2.8,2.2c-0.7,0.1-1,0.2-1,0.2l0.6,0.1C53.3,88.7,23.4,97.6,16,99.4l2.1-2.1c-1,0.8-1.9,1.5-2.8,2.2
		c-0.7,0.1-1,0.2-1,0.2l0.6,0.1c-5.3,4.1-10.3,7.9-15.2,11.4v4.5L15.4,100l24.6,3.7c5.7,0.9,8.6,0.3,13-4.1L99.4,53l24.6,3.7
		c5.7,0.9,8.6,0.3,13-4.1l46.5-46.5l24.6,3.6c5.7,0.9,8.6,0.3,13-4.1l5.6-5.6h-26.5c-8,3.3-13.4,4.8-16.1,5.5L186.1,3.4z"/>
	<path style="fill:#002A3A;" d="M217.8,8.9c-1,0.8-1.9,1.5-2.8,2.2c-0.7,0.1-1,0.2-1,0.2l0.6,0.1c-45.5,35.8-75.5,44.7-82.9,46.5
		l2.1-2.1c-1,0.8-1.9,1.5-2.8,2.2c-0.7,0.1-1,0.2-1,0.2l0.6,0.1C85.1,94.1,55.1,103,47.7,104.8l2.1-2.1c-1,0.8-1.9,1.5-2.8,2.2
		c-0.7,0.1-1,0.2-1,0.2l0.6,0.1c-18.3,14.4-34,24.4-46.9,31.4v16.1c0.3-0.3,0.6-0.6,0.9-0.9l46.5-46.5l24.6,3.7
		c1.1,0.2,2,0.3,2.9,0.3c0.6,0,1.2,0,1.7,0c0.8,0,1.6-0.2,2.3-0.4c1.2-0.4,2.4-1,3.7-1.9c0.7-0.6,1.5-1.3,2.4-2.1l46.4-46.4
		l24.6,3.7c5.7,0.9,8.6,0.3,13-4.1l46.5-46.5l24.6,3.7c0.4,0.1,0.7,0.1,1,0.1c0.7,0.1,1.3,0.1,1.9,0.2c3.9,0.2,6.4-0.8,10-4.4l11-11
		h-20c-14.6,7.2-24.2,10-28,10.9L217.8,8.9z"/>
	<path style="fill:#002A3A;" d="M556.2,190.1c-1,0.8-1.9,1.5-2.8,2.2c-0.7,0.1-1,0.2-1,0.2l0.6,0.1c-45.5,35.8-75.5,44.7-82.9,46.5
		l2.1-2.1c-1,0.8-1.9,1.5-2.8,2.2c-0.7,0.1-1,0.2-1,0.2l0.6,0.1c-45.5,35.8-75.5,44.7-82.9,46.5l2.1-2.1c-1,0.8-1.9,1.5-2.8,2.2
		c-0.7,0.1-1,0.2-1,0.2l0.6,0.1c-5.7,4.4-11.1,8.5-16.3,12.2c-6.1,4.3-11.9,8.2-17.3,11.5s-10.4,6.2-15,8.7
		c-3.5,1.9-6.7,3.5-9.7,4.9c-5,2.4-9.3,4.2-13,5.5c-1.5,0.5-2.8,1-4,1.4c-3.5,1.2-6,1.9-7.6,2.2l2.1-2.1c-1,0.8-1.9,1.5-2.8,2.2
		c-0.7,0.1-1,0.2-1,0.2l0.6,0.1c-45.5,35.8-75.5,44.7-82.9,46.5l2.1-2.1c-1,0.8-1.9,1.5-2.8,2.2c-0.7,0.1-1,0.2-1,0.2l0.6,0.1
		c-45.5,35.8-75.5,44.7-82.9,46.5l2.1-2.1c-1,0.8-1.9,1.5-2.8,2.2c-0.7,0.1-1,0.2-1,0.2l0.6,0.1c-45.9,36.1-75.9,45.1-83.3,46.8
		l2.1-2.1c-1,0.8-1.9,1.5-2.8,2.2c-0.7,0.1-1,0.2-1,0.2l0.6,0.1c-19.3,15.2-35.8,25.5-49,32.5v16.7c1-0.7,2-1.5,3.1-2.6l46.5-46.5
		l24.6,3.7c5.7,0.9,8.6,0.3,13-4.1l46.5-46.5l24.6,3.7c5.7,0.9,8.6,0.3,13-4.1l46.5-46.5l24.6,3.7c5.7,0.9,8.6,0.3,13-4.1l46.5-46.5
		l24.6,3.7c5.7,0.9,8.6,0.3,13-4.1l46.5-46.5l24.6,3.7c5.7,0.9,8.6,0.3,13-4.1l46.5-46.5l24.6,3.7c5.7,0.9,8.6,0.3,13-4.1l46.5-46.5
		l5,0.8v-2.6c-1.9,0.6-3.4,1-4.5,1.2L556.2,190.1z"/>
	<path style="fill:#002A3A;" d="M249.5,14.3c-1,0.8-1.9,1.5-2.8,2.2c-0.7,0.1-1,0.2-1,0.2l0.6,0.1c-45.5,35.8-75.5,44.7-82.9,46.5
		l2.1-2.1c-1,0.8-1.9,1.5-2.8,2.2c-0.7,0.1-1,0.2-1,0.2l0.6,0.1c-45.5,35.8-75.5,44.7-82.9,46.5l2.1-2.1c-1,0.8-1.9,1.5-2.8,2.2
		c-0.7,0.1-1,0.2-1,0.2l0.6,0.1c-39.2,30.8-66.9,41.7-78.5,45.3v2.5l19.6,2.9c5.7,0.9,8.6,0.3,13-4.1l46.5-46.5l24.6,3.7
		c5.7,0.9,8.6,0.3,13-4.1L163,63.8l24.6,3.7c5.7,0.9,8.6,0.3,13-4.1L246.8,17l24.6,3.7c5.7,0.9,8.6,0.3,13-4.1L300.9,0h-15.1
		c-20.4,11.4-33.8,15.3-38.4,16.4L249.5,14.3z"/>
	<path style="fill:#002A3A;" d="M534.4,63.4c-1,0.8-1.9,1.5-2.8,2.2c-0.7,0.1-1,0.2-1,0.2l0.5,0.2c-45.5,35.8-75.5,44.7-82.9,46.5
		l2.1-2.1c-1,0.8-1.9,1.5-2.8,2.2c-0.7,0.1-1,0.2-1,0.2l0.6,0.1c-45.5,35.8-75.5,44.7-82.9,46.5l2.1-2.1c-1,0.8-1.9,1.5-2.8,2.2
		c-0.7,0.1-1,0.2-1,0.2l0.6,0.1c-45.5,35.8-75.5,44.7-82.9,46.5l2.1-2.1c-1,0.8-1.9,1.5-2.8,2.2c-0.7,0.1-1,0.2-1,0.2l0.6,0.1
		c-45.5,35.8-75.5,44.7-82.9,46.5l2.1-2.1c-1,0.8-1.9,1.5-2.8,2.2c-0.7,0.1-1,0.2-1,0.2l0.6,0.1c-9,7.1-17.5,13.1-25.2,18.3
		c-2.9,1.9-5.7,3.7-8.4,5.4s-5.3,3.2-7.8,4.7c-8.8,5.1-16.4,8.8-22.6,11.5c-0.9,0.4-1.8,0.8-2.6,1.1c-8.1,3.4-13.6,4.9-16.3,5.6
		l2.1-2.1c-1,0.8-1.9,1.5-2.8,2.2c-0.7,0.1-1,0.2-1,0.2l0.6,0.1c-45.5,35.8-75.5,44.7-82.9,46.5l2.1-2.1c-1,0.8-1.9,1.5-2.8,2.2
		c-0.7,0.1-1,0.2-1,0.2l0.6,0.1c-7.3,5.8-14.3,10.9-20.8,15.3c-2.2,1.5-4.3,2.9-6.4,4.2v8.3l27.8-27.8l24.6,3.7
		c5.7,0.9,8.6,0.3,13-4.1l46.5-46.5l24.6,3.7c1.8,0.3,3.3,0.4,4.7,0.3c0.8,0,1.6-0.2,2.3-0.4c0.5-0.1,1-0.3,1.5-0.6
		c1.4-0.7,2.9-1.8,4.6-3.5l46.5-46.5l24.6,3.7c5.7,0.9,8.6,0.3,13-4.1l46.5-46.5l24.6,3.7c0.4,0.1,0.7,0.1,1,0.1
		c0.7,0.1,1.3,0.1,1.9,0.2c3.9,0.2,6.4-0.8,10-4.4l46.5-46.5l24.6,3.7c5.7,0.9,8.6,0.3,13-4.1l46.5-46.5l24.6,3.7
		c5.7,0.9,8.6,0.3,13-4.1L532.3,66l24.6,3.7c0.8,0.1,1.6,0.2,2.3,0.3V55.4c-13.6,6.6-22.7,9.2-26.3,10.1L534.4,63.4z"/>
	<path style="fill:#002A3A;" d="M545.3,126.7c-1,0.8-1.9,1.5-2.8,2.2c-0.7,0.1-1,0.2-1,0.2l0.6,0.1c-45.5,35.8-75.5,44.7-82.9,46.5
		l2.1-2.1c-1,0.8-1.9,1.5-2.8,2.2c-0.7,0.1-1,0.2-1,0.2l0.6,0.1c-45.5,35.8-75.5,44.7-82.9,46.5l2.1-2.1c-1,0.8-1.9,1.5-2.8,2.2
		c-0.7,0.1-1,0.2-1,0.2l0.6,0.1c-45.5,35.8-75.5,44.7-82.9,46.5l2.1-2.1c-1,0.8-1.9,1.5-2.8,2.2c-0.7,0.1-1,0.2-1,0.2l0.6,0.1
		c-45.5,35.8-75.5,44.7-82.9,46.5l2.1-2.1c-1,0.8-1.9,1.5-2.8,2.2c-0.7,0.1-1,0.2-1,0.2l0.6,0.1c-45.5,35.8-75.5,44.7-82.9,46.5
		l2.1-2.1c-1,0.8-1.9,1.5-2.8,2.2c-0.7,0.1-1,0.2-1,0.2l0.6,0.1c-45.5,35.8-75.5,44.7-82.9,46.5l2.1-2.1c-1,0.8-1.9,1.5-2.8,2.2
		c-0.7,0.1-1,0.2-1,0.2l0.6,0.1C23.8,421.8,11,430.4,0,437v12.4l38.7-38.7l24.6,3.7c5.7,0.9,8.6,0.3,13-4.1l46.5-46.5l24.6,3.7
		c5.7,0.9,8.6,0.3,13-4.1l46.5-46.5l24.6,3.7c5.7,0.9,8.6,0.3,13-4.1L291,270l24.6,3.7c5.7,0.9,8.6,0.3,13-4.1l46.5-46.5l24,3.9
		c5.7,0.9,8.6,0.3,13-4.1l46.5-46.5l24.5,3.6c5.7,0.9,8.6,0.3,13-4.1l46.5-46.5l15.9,2.4v-8.1c-7.6,3.1-12.8,4.6-15.4,5.2
		L545.3,126.7z"/>
	<path style="fill:#002A3A;" d="M344.4,30.7c-1,0.8-1.9,1.5-2.8,2.2c-0.7,0.1-1,0.2-1,0.2l0.6,0.1c-45.5,35.8-75.5,44.7-82.9,46.5
		l2.1-2.1c-1,0.8-1.9,1.5-2.8,2.2c-0.7,0.1-1,0.2-1,0.2l0.6,0.1c-7.3,5.8-14.3,10.9-20.8,15.3c-3,2-5.9,4-8.7,5.7
		c-5.6,3.6-10.8,6.7-15.6,9.4c-4.8,2.7-9.2,4.9-13.2,6.8c-2,0.9-3.9,1.8-5.7,2.6c-9.5,4.1-16,6-18.9,6.7l2.1-2.1
		c-1,0.8-1.9,1.5-2.8,2.2c-0.7,0.1-1,0.2-1,0.2l0.6,0.1c-45.5,35.8-75.5,44.7-82.9,46.5l2.1-2.1c-1,0.8-1.9,1.5-2.8,2.2
		c-0.7,0.1-1,0.2-1,0.2l0.6,0.1c-45.7,36-75.7,44.9-83.1,46.7l2.1-2.1c-1,0.8-1.9,1.5-2.8,2.2c-0.7,0.1-1,0.2-1,0.2L5,221
		c-1.8,1.4-3.6,2.8-5.4,4.1v1.9l5.9-5.9l24.6,3.7c3.6,0.5,6,0.5,8.4-0.6c1.4-0.7,2.9-1.8,4.6-3.5l46.5-46.5l24.6,3.7
		c5.7,0.9,8.6,0.3,13-4.1l46.5-46.5l24.6,3.7c5.7,0.9,8.6,0.3,13-4.1l46.5-46.5l24.6,3.7c5.7,0.9,8.6,0.3,13-4.1l46.5-46.5l24.6,3.7
		c3.6,0.5,6,0.5,8.4-0.6c1.4-0.7,2.9-1.8,4.6-3.5L412.2,0h-5.5c-35.1,24.4-58,31.2-64.4,32.7L344.4,30.7z"/>
	<path style="fill:#002A3A;" d="M427.5,12.8c-4.2,2.7-8.2,5.1-11.9,7.3c-3.8,2.2-7.3,4.1-10.6,5.8c-1.1,0.6-2.2,1.1-3.2,1.6
		c-14.4,7.1-23.9,9.8-27.6,10.7l2.1-2.1c-1,0.8-1.9,1.5-2.8,2.2c-0.7,0.1-1,0.2-1,0.2l0.6,0.1c-45.5,35.8-75.5,44.7-82.9,46.5
		l2.1-2.1c-1,0.8-1.9,1.5-2.8,2.2c-0.7,0.1-1,0.2-1,0.2l0.6,0.1c-45.5,35.8-75.5,44.7-82.9,46.5l2.1-2.1c-1,0.8-1.9,1.5-2.8,2.2
		c-0.7,0.1-1,0.2-1,0.2l0.6,0.1c-45.5,35.8-75.5,44.7-82.9,46.5l2.1-2.1c-1,0.8-1.9,1.5-2.8,2.2c-0.7,0.1-1,0.2-1,0.2l0.6,0.1
		c-45.5,35.8-75.5,44.7-82.9,46.5l2.1-2.1c-1,0.8-1.9,1.5-2.8,2.2c-0.7,0.1-1,0.2-1,0.2l0.6,0.1c-13.8,10.9-26.2,19.3-37,25.7v12
		l37.6-37.6l24.6,3.7c1.4,0.2,2.7,0.3,3.8,0.3c3.4,0,5.8-1.1,9.2-4.5l46.5-46.5l24.6,3.7c5.7,0.9,8.6,0.3,13-4.1l46.5-46.5l24.6,3.7
		c1.8,0.3,3.3,0.4,4.7,0.3c0.5,0,1.1-0.1,1.6-0.2c0.5-0.1,1-0.3,1.5-0.4s1-0.4,1.5-0.7c0.2-0.1,0.5-0.3,0.7-0.5
		c0.5-0.3,1-0.7,1.5-1.2s1-0.9,1.6-1.5l46.5-46.5l24.6,3.7c5.7,0.9,8.6,0.3,13-4.1l46.5-46.5l24.6,3.7c3.2,0.5,5.5,0.5,7.7-0.3
		c1.7-0.7,3.3-1.9,5.3-3.8L449.3,0H446c-3.4,2.5-6.7,4.8-9.9,7C433.1,9.1,430.3,11,427.5,12.8z"/>
</g>
</svg>
