<svg xmlns="http://www.w3.org/2000/svg" xmlns:xlink="http://www.w3.org/1999/xlink" x="0px" y="0px" style="enable-background:new 0 0 546.6 242.5" version="1.1" viewBox="0 0 546.6 242.5" xml:space="preserve">
    <path fill="#212721" d="M44.6,57.9l28.7,0c2.6,0,3.6,0.7,5,2.6l6.4,8.7C84.7,69.1,73.4,61.1,44.6,57.9"/>
    <path fill="#B5ADA5" d="M186.9,125.6h-38.6c-16.1,0-23.6-3.2-31.4-13.5l-28.2-37h18.1c17.3,0,27,8.5,27,8.5l-14.8-20.2
	c-7.2-9.8-13.6-13.9-28.2-13.9H42.8c-10.4,0-14.7-1.3-20.4-9l-5.2-7.1h69c26.3,0,38.5,7.9,52.2,26.5L186.9,125.6z"/>
    <polygon fill="#212721" points="49.1,191.5 49.1,138.8 61.1,138.8 81,166.9 100.6,138.8 112.2,138.8 112.2,191.5 101.7,191.5 
	101.7,152.4 80.9,182.3 59.6,152.4 59.6,191.5 "/>
    <polygon fill="#212721" points="240,138.8 250.5,138.8 250.5,196.3 240,183.1 "/>
    <path fill="#212721" d="M178.1,138.8h14.5l12.1,16.5l13.1-16.5h14.6l-21.9,23.7l36.6,46.6h-6.1c-6,0-10.6-3.4-13.5-7.5
	c-5.6-7.9-24-30.9-24-30.9l-4.7,5.3c-8.6,9.7-21.6,16.9-40.8,16.9c-23.2,0-34.9-8.1-34.9-28.7c0-20.1,12.1-26.6,28-26.6
	c14.5,0,21.7,7.3,21.7,19.5c0,6.5-1.7,10.6-1.7,10.6H134c0.8,11.1,8,16.4,23.9,16.4c15.3,0,27.2-6.6,35.1-15.6l4.6-5.3L178.1,138.8z
	 M150.6,145.7c-12,0-15.8,6.4-16.4,13.8h27.8c0,0,0.4-1.1,0.4-3.1C162.5,148.3,157.1,145.7,150.6,145.7"/>
    <path fill="#212721" d="M310.8,141.7l-3.7,9.7c0,0-7.1-4.5-16.7-4.5c-10.9,0-18.8,4.4-18.8,18.1c0,13.4,6.8,19.1,20,19.1
	c11.9,0,19-5.1,19-5.1v9.7c0,0-5.6,4.3-19.3,4.3c-20.6,0-30.3-8.9-30.3-28.7c0-19,12-26.6,29.1-26.6
	C302.9,137.5,310.8,141.7,310.8,141.7"/>
    <path fill="#212721" d="M365.7,160.2l0,31.3h-10.5l0-8.2h-0.6c0,0-4.7,9.5-18.2,9.5c-13.6,0-18.6-8.1-18.6-17c0-9.2,5-14.3,5-14.3
	l32.4,0v-1.9c0-10.2-3-12.7-15.1-12.7c-10.4,0-17.5,4.1-17.5,4.1l-3.7-9.7c0,0,9.3-3.8,21.9-3.8
	C357.9,137.5,365.7,141.8,365.7,160.2 M338.6,184.5c10.2,0,16.6-6.3,16.6-14.9l-25.8,0c0,0-1.5,1.7-1.5,5.6
	C327.9,180.3,330.6,184.5,338.6,184.5"/>
    <polygon fill="#212721" points="379.4,191.5 379.4,138.8 391.4,138.8 421.3,176.3 421.3,138.8 431.8,138.8 431.8,191.5 421.3,191.5 
	389.9,152.4 389.9,191.5 "/>
    <path fill="#212721" d="M490.6,160.2l0,31.3h-10.5l0-8.2h-0.6c0,0-4.7,9.5-18.2,9.5c-13.6,0-18.6-8.1-18.6-17c0-9.2,5-14.3,5-14.3
	l32.4,0v-1.9c0-10.2-3-12.7-15.1-12.7c-10.4,0-17.5,4.1-17.5,4.1l-3.7-9.7c0,0,9.3-3.8,21.9-3.8
	C482.8,137.5,490.6,141.8,490.6,160.2 M463.5,184.5c10.2,0,16.6-6.3,16.6-14.9l-25.8,0c0,0-1.5,1.7-1.5,5.6
	C452.8,180.3,455.5,184.5,463.5,184.5"/>
    <path fill="#212721" d="M504.1,139.7h-2.2v-1.5h6v1.5h-2.2v5.8h-1.6V139.7z"/>
    <path fill="#212721" d="M508.4,138.2h1.7l1.9,3.1l1.9-3.1h1.7v7.2h-1.6v-4.7l-2,3.1h0l-2-3.1v4.7h-1.6V138.2z"/>
</svg>
