<?xml version="1.0" encoding="utf-8"?>
<!-- Generator: Adobe Illustrator 22.0.1, SVG Export Plug-In . SVG Version: 6.00 Build 0)  -->
<svg version="1.1" id="Layer_1" xmlns="http://www.w3.org/2000/svg" xmlns:xlink="http://www.w3.org/1999/xlink" x="0px" y="0px"
	 viewBox="0 0 624 671.8" style="enable-background:new 0 0 624 671.8;" xml:space="preserve">
<g>
	<g>
		<circle style="fill:#FFFFFF;" cx="312" cy="312.6" r="140"/>
		<path style="fill:#00A7E1;" d="M312,454.3c-78.1,0-141.7-63.6-141.7-141.7S233.9,170.9,312,170.9s141.7,63.6,141.7,141.7
			S390.1,454.3,312,454.3z M312,174.2c-76.3,0-138.4,62.1-138.4,138.4c0,76.3,62.1,138.4,138.4,138.4s138.4-62.1,138.4-138.4
			C450.4,236.3,388.3,174.2,312,174.2z"/>
	</g>
	<g>
		<g>
			<path style="fill:#002A3A;" d="M257.8,292.2l27.1,0c2.4,0,3.
			4,0.6,4.7,2.4l6,8.2C295.7,302.8,285,295.2,257.8,292.2"/>
		</g>
		<g>
			<path style="fill:#00A7E1;" d="M392.1,356.1h-36.5c-15.2,0-22.3-3-29.7-12.7l-26.6-34.9h17.1c16.3,0,25.5,8,25.5,8l-14-19.1
				c-6.8-9.2-12.9-13.1-26.6-13.1h-45.2c-9.8,0-13.9-1.3-19.3-8.5l-4.9-6.7H297c24.8,0,36.3,7.4,49.3,25L392.1,356.1z"/>
		</g>
	</g>
	<g>
		<path style="fill:#00A7E1;" d="M312,509.4c-108.5,0-196.8-88.3-196.8-196.8c0-108.5,88.3-196.8,196.8-196.8
			s196.8,88.3,196.8,196.8C508.8,421.1,420.5,509.4,312,509.4z M312,119.1c-106.7,0-193.5,86.8-193.5,193.5S205.3,506.1,312,506.1
			c106.7,0,193.5-86.8,193.5-193.5S418.7,119.1,312,119.1z"/>
	</g>
	<g>
		<path style="fill:#00A7E1;" d="M312,563.7c-67.1,0-130.1-26.1-177.6-73.5C87,442.7,60.9,379.7,60.9,312.6S87,182.5,134.4,135
			C181.9,87.6,244.9,61.5,312,61.5S442.1,87.6,489.6,135s73.5,110.5,73.5,177.6S537,442.7,489.6,490.2S379.1,563.7,312,563.7z
			 M312,64.8c-66.2,0-128.4,25.8-175.2,72.6c-46.8,46.8-72.6,109-72.6,175.2c0,66.2,25.8,128.4,72.6,175.2
			c46.8,46.8,109,72.6,175.2,72.6s128.4-25.8,175.2-72.6c46.8-46.8,72.6-109,72.6-175.2S534,184.2,487.2,137.4
			C440.4,90.6,378.2,64.8,312,64.8z"/>
	</g>
	<g>
		<path style="fill:#00A7E1;" d="M312,625.2c-83.5,0-162-32.5-221.1-91.6c-59-59-91.6-137.6-91.6-221.1c0-83.5,32.5-162,91.6-221.1
			C150,32.5,228.5,0,312,0c83.5,0,162,32.5,221.1,91.6c59,59,91.6,137.6,91.6,221.1c0,83.5-32.5,162-91.6,221.1
			S395.5,625.2,312,625.2z M312,3.2c-82.6,0-160.3,32.2-218.8,90.6C34.8,152.3,2.6,230,2.6,312.6s32.2,160.3,90.6,218.7
			C151.7,589.8,229.4,622,312,622s160.3-32.2,218.8-90.6c58.4-58.4,90.6-136.1,90.6-218.7s-32.2-160.3-90.6-218.8
			C472.3,35.4,394.6,3.2,312,3.2z"/>
	</g>
</g>
<g>
	<text transform="matrix(1 0 0 1 292.7507 221.0839)" style="fill:#00A7E1; font-family:'Titillium Web', sans-serif; font-weight:600; font-size:30px;">[1]</text>
</g>
<g>
	<text transform="matrix(1 0 0 1 143.5339 250.996)" style="fill:#00A7E1; font-family:'Titillium Web', sans-serif; font-weight:600; font-size:30px;">[2]</text>
</g>
<g>
	<text transform="matrix(1 0 0 1 87.6237 404.7265)" style="fill:#00A7E1; font-family:'Titillium Web', sans-serif; font-weight:600; font-size:30px;">[3]</text>
</g>
<g>
	<text transform="matrix(1 0 0 1 292.7507 603.8534)" style="fill:#00A7E1; font-family:'Titillium Web', sans-serif; font-weight:600; font-size:30px;">[4]</text>
</g>
<g>
	<text transform="matrix(1 0 0 1 292.7507 662.3339)" style="fill:#00A7E1; font-family:'Titillium Web', sans-serif; font-weight:600; font-size:30px;">[5]</text>
</g>
</svg>
