<svg xmlns="http://www.w3.org/2000/svg" xmlns:xlink="http://www.w3.org/1999/xlink" id="Layer_1" x="0px" y="0px" style="enable-background:new 0 0 1232 682" version="1.1" viewBox="0 0 1232 682" xml:space="preserve">
    <g>
        <text style="fill:#FFFFFF;font-family:'Eurostile LT', sans-serif;font-weight:600;font-size:55px" transform="matrix(1 0 0 1 1016.5938 666.8467)">
            product
        </text>
    </g>
    <g>
        <text style="fill:#FFFFFF;font-family:'Eurostile LT', sans-serif;font-weight:600;font-size:55px" transform="matrix(1 0 0 1 744.9727 48.7812)">
            experience
        </text>
    </g>
    <g>
        <text style="fill:#FFFFFF;font-family:'Eurostile LT', sans-serif;font-weight:600;font-size:55px" transform="matrix(1 0 0 1 365.7373 48.7812)">
            image
        </text>
    </g>
    <g>
        <text style="fill:#FFFFFF;font-family:'Eurostile LT', sans-serif;font-weight:600;font-size:55px" transform="matrix(1 0 0 1 4.7637 524.5605)">
            service
        </text>
    </g>
    <path d="M680.5,299.3L853,112.5H737.4L634.3,242.4
	l-95.8-129.9H423.9l153.9,190.8l-36.5,42.1c-62.1,71.7-155.9,123.3-276.6,123.3l1.5,69.8c151.2,0,254.1-56.4,321.8-133.1l36.9-41.7
	c0,0,145.3,181,189.6,243.6c23.2,32.8,59.5,59.4,106.9,59.4h48L680.5,299.3z" style="fill:none;stroke:#00A7E1;stroke-width:4.4412;stroke-miterlimit:10"/>
</svg>
