<?xml version="1.0" encoding="utf-8"?>
<!-- Generator: Adobe Illustrator 22.0.1, SVG Export Plug-In . SVG Version: 6.00 Build 0)  -->
<svg version="1.1" id="Layer_1" xmlns="http://www.w3.org/2000/svg" xmlns:xlink="http://www.w3.org/1999/xlink" x="0px" y="0px"
	 viewBox="0 0 650 348.1" style="enable-background:new 0 0 650 348.1;" xml:space="preserve">
<path style="fill:#00A7E1;" d="M309.1,100.4C257.6,30.6,212,1,113.2,1L3.1,1.3l225.1,295.2c29.5,38.6,57.5,50.5,118,50.5h144.9
	L309.1,100.4z"/>
<line style="fill:none;stroke:#FFFFFF;stroke-width:1.239;stroke-miterlimit:10;" x1="88.2" y1="112.8" x2="339.7" y2="112.8"/>
<line style="fill:none;stroke:#FFFFFF;stroke-width:1.239;stroke-miterlimit:10;" x1="132.8" y1="171.6" x2="384.3" y2="171.6"/>
<line style="fill:none;stroke:#FFFFFF;stroke-width:1.239;stroke-miterlimit:10;" x1="179.9" y1="230.3" x2="431.4" y2="230.3"/>
<line style="fill:none;stroke:#FFFFFF;stroke-width:1.239;stroke-miterlimit:10;" x1="223.3" y1="289.1" x2="474.7" y2="289.1"/>
<line style="fill:none;stroke:#FFFFFF;stroke-width:1.239;stroke-miterlimit:10;" x1="44.2" y1="54.2" x2="295.7" y2="54.2"/>
<text transform="matrix(1 0 0 1 308.4219 53.9698)" style="fill:#00A7E1; font-family:'Titillium Web', sans-serif; font-weight: 600;  font-size:22px;">         core essence     </text>
<text transform="matrix(1 0 0 1 352.4077 112.8238)" style="fill:#00A7E1; font-family:'Titillium Web', sans-serif; font-weight: 600;  font-size:22px;">         brand personality     </text>
<text transform="matrix(1 0 0 1 392.0571 171.6783)" style="fill:#00A7E1; font-family:'Titillium Web', sans-serif; font-weight: 600;  font-size:22px;">         emotional benefit     </text>
<text transform="matrix(1 0 0 1 438.521 230.5323)" style="fill:#00A7E1; font-family:'Titillium Web', sans-serif; font-weight: 600;  font-size:22px;">         functional benefit     </text>
<text transform="matrix(1 0 0 1 486.2241 289.3872)" style="fill:#00A7E1; font-family:'Titillium Web', sans-serif; font-weight: 600;  font-size:22px;">         product attribute     </text>
</svg>
