<?xml version="1.0" encoding="utf-8"?>
<!-- Generator: Adobe Illustrator 22.0.1, SVG Export Plug-In . SVG Version: 6.00 Build 0)  -->
<svg version="1.1" id="Layer_1" xmlns="http://www.w3.org/2000/svg" xmlns:xlink="http://www.w3.org/1999/xlink" x="0px" y="0px"
	 viewBox="0 0 1366 682" style="enable-background:new 0 0 1366 682;" xml:space="preserve">
<path style="fill:none;stroke:#00A7E1;stroke-width:2;stroke-miterlimit:10;" d="M13.2,165L13.2,165C137.3,64.1,292.3,9,452.2,9
	h460.3c142.3,0,281.1,43.6,397.8,125l44.5,31"/>
<line style="fill:none;stroke:#FFFFFF;stroke-width:0.75;stroke-miterlimit:10;" x1="13.2" y1="189" x2="237.3" y2="189"/>
<line style="fill:none;stroke:#FFFFFF;stroke-width:0.75;stroke-miterlimit:10;" x1="292.3" y1="189.5" x2="516.3" y2="189.5"/>
<line style="fill:none;stroke:#FFFFFF;stroke-width:0.75;stroke-miterlimit:10;" x1="571.3" y1="189.5" x2="795.3" y2="189.5"/>
<line style="fill:none;stroke:#FFFFFF;stroke-width:0.75;stroke-miterlimit:10;" x1="850.3" y1="189.5" x2="1074.3" y2="189.5"/>
<line style="fill:none;stroke:#FFFFFF;stroke-width:0.75;stroke-miterlimit:10;" x1="1130.7" y1="189.5" x2="1354.8" y2="189.5"/>
<line style="fill:none;stroke:#FFFFFF;stroke-width:0.75;stroke-miterlimit:10;" x1="116.6" y1="189.5" x2="116.6" y2="389"/>
<line style="fill:none;stroke:#FFFFFF;stroke-width:0.75;stroke-miterlimit:10;" x1="1242.4" y1="189.5" x2="1242.4" y2="389"/>
<line style="fill:none;stroke:#FFFFFF;stroke-width:0.75;stroke-miterlimit:10;" x1="404.7" y1="189.5" x2="404.7" y2="568.5"/>
<line style="fill:none;stroke:#FFFFFF;stroke-width:0.75;stroke-miterlimit:10;" x1="684.7" y1="189" x2="684.7" y2="568"/>
<line style="fill:none;stroke:#FFFFFF;stroke-width:0.75;stroke-miterlimit:10;" x1="962.2" y1="190" x2="962.2" y2="569"/>
<rect x="9.5" y="388.5" style="fill:none;stroke:#FFFFFF;stroke-width:0.75;stroke-miterlimit:10;" width="214" height="105"/>
<rect x="297.5" y="569.5" style="fill:none;stroke:#FFFFFF;stroke-width:0.75;stroke-miterlimit:10;" width="214" height="105"/>
<text transform="matrix(1 0 0 1 29.1123 436.4873)"><tspan x="0" y="0" style="fill:#FFFFFF; font-family:'Eurostile LT', sans-serif; font-size:30px;">international</tspan><tspan x="20.5" y="30" style="fill:#FFFFFF; font-family:'Eurostile LT', sans-serif; font-size:30px;">Mexicana</tspan></text>
<rect x="1135.5" y="388.5" style="fill:none;stroke:#FFFFFF;stroke-width:0.75;stroke-miterlimit:10;" width="214" height="105"/>
<text transform="matrix(1 0 0 1 1178.2266 436.4873)"><tspan x="0" y="0" style="fill:#FFFFFF; font-family:'Eurostile LT', sans-serif; font-size:30px;">domestic</tspan><tspan x="-2.6" y="30" style="fill:#FFFFFF; font-family:'Eurostile LT', sans-serif; font-size:30px;">Mexicana</tspan></text>
<text transform="matrix(1 0 0 1 337.6313 615.4873)"><tspan x="0" y="0" style="fill:#FFFFFF; font-family:'Eurostile LT', sans-serif; font-size:30px;">Mexicana</tspan><tspan x="38.7" y="30" style="fill:#FFFFFF; font-family:'Eurostile LT', sans-serif; font-size:30px;">VTP</tspan></text>
<rect x="577.5" y="569.5" style="fill:none;stroke:#FFFFFF;stroke-width:0.75;stroke-miterlimit:10;" width="214" height="105"/>
<text transform="matrix(1 0 0 1 617.6313 615.4873)"><tspan x="0" y="0" style="fill:#FFFFFF; font-family:'Eurostile LT', sans-serif; font-size:30px;">Mexicana</tspan><tspan x="-7.8" y="30" style="fill:#FFFFFF; font-family:'Eurostile LT', sans-serif; font-size:30px;">new brand</tspan></text>
<rect x="855.5" y="569.5" style="fill:none;stroke:#FFFFFF;stroke-width:0.75;stroke-miterlimit:10;" width="214" height="105"/>
<text transform="matrix(1 0 0 1 895.6313 615.4873)"><tspan x="0" y="0" style="fill:#FFFFFF; font-family:'Eurostile LT', sans-serif; font-size:30px;">Mexicana</tspan><tspan x="-1" y="30" style="fill:#FFFFFF; font-family:'Eurostile LT', sans-serif; font-size:30px;">frequenta</tspan></text>
<g>
	<polygon style="fill:#00A7E1;" points="438.5,128.1 438.5,69.5 451.9,69.5 474,100.7 495.8,69.5 508.7,69.5 508.7,128.1 497,128.1 
		497,84.5 473.9,117.8 450.2,84.5 450.2,128.1 	"/>
	<polygon style="fill:#00A7E1;" points="650.8,69.5 662.5,69.5 662.5,133.4 650.8,118.8 	"/>
	<path style="fill:#00A7E1;" d="M581.9,69.5h16.2l13.5,18.3l14.5-18.3h16.3l-24.3,26.3l40.7,51.8h-6.8c-6.7,0-11.8-3.7-15.1-8.4
		c-6.2-8.8-26.7-34.3-26.7-34.3l-5.2,5.9c-9.5,10.8-24,18.8-45.4,18.8c-25.7,0-38.8-9-38.8-31.9c0-22.3,13.5-29.6,31.2-29.6
		c16.2,0,24.2,8.1,24.2,21.7c0,7.3-1.9,11.8-1.9,11.8h-41.5c0.9,12.3,8.9,18.2,26.6,18.2c17,0,30.2-7.3,39-17.4l5.1-5.9L581.9,69.5z
		 M551.4,77.1c-13.4,0-17.5,7.1-18.2,15.3h31c0,0,0.5-1.3,0.5-3.5C564.7,80,558.6,77.1,551.4,77.1"/>
	<path style="fill:#00A7E1;" d="M729.5,72.7l-4.1,10.7c0,0-7.9-5-18.6-5c-12.2,0-20.9,4.9-20.9,20.1c0,14.9,7.5,21.2,22.2,21.2
		c13.2,0,21.1-5.7,21.1-5.7v10.7c0,0-6.3,4.8-21.5,4.8c-22.9,0-33.6-9.9-33.6-31.9c0-21.1,13.4-29.6,32.4-29.6
		C720.8,68,729.5,72.7,729.5,72.7"/>
	<path style="fill:#00A7E1;" d="M790.6,93.2l0,34.8h-11.7l0-9.1h-0.6c0,0-5.2,10.6-20.2,10.6c-15.1,0-20.7-9-20.7-18.9
		c0-10.2,5.6-15.9,5.6-15.9l36,0v-2.2c0-11.3-3.4-14.2-16.8-14.2c-11.5,0-19.5,4.5-19.5,4.5l-4.1-10.7c0,0,10.3-4.2,24.3-4.2
		C781.9,68,790.6,72.8,790.6,93.2 M760.4,120.3c11.3,0,18.5-7,18.5-16.5l-28.7,0c0,0-1.7,1.9-1.7,6.2
		C748.5,115.6,751.5,120.3,760.4,120.3"/>
	<polygon style="fill:#00A7E1;" points="805.8,128.1 805.8,69.5 819.2,69.5 852.4,111.2 852.4,69.5 864,69.5 864,128.1 852.4,128.1 
		817.5,84.5 817.5,128.1 	"/>
	<path style="fill:#00A7E1;" d="M929.5,93.2l0,34.8h-11.7l0-9.1h-0.6c0,0-5.2,10.6-20.2,10.6c-15.1,0-20.7-9-20.7-18.9
		c0-10.2,5.6-15.9,5.6-15.9l36,0v-2.2c0-11.3-3.4-14.2-16.8-14.2c-11.5,0-19.5,4.5-19.5,4.5l-4.1-10.7c0,0,10.3-4.2,24.3-4.2
		C920.8,68,929.5,72.8,929.5,93.2 M899.3,120.3c11.3,0,18.5-7,18.5-16.5l-28.7,0c0,0-1.7,1.9-1.7,6.2
		C887.4,115.6,890.4,120.3,899.3,120.3"/>
</g>
</svg>
