<svg version="1.1" id="Layer_1" xmlns="http://www.w3.org/2000/svg" xmlns:xlink="http://www.w3.org/1999/xlink" x="0px" y="0px"
	 viewBox="0 0 647.2 1994.8" style="enable-background:new 0 0 647.2 1994.8;" xml:space="preserve">
<line style="fill:none;stroke:#00A7E1;stroke-miterlimit:10;" x1="116.8" y1="539.1" x2="116.8" y2="453"/>
<g>
	<path style="fill:#00A7E1;" d="M72.6,1922.3h12c1.1,0,1.5,0.3,2.1,1.1l2.7,3.6C89.4,1927,84.7,1923.7,72.6,1922.3"/>
	<g>
		<path style="fill:#00A7E1;" d="M132.3,1950.7h-16.2c-6.8,0-9.9-1.3-13.2-5.6L91,1929.6h7.6c7.2,0,11.3,3.6,11.3,3.6l-6.2-8.5
			c-3-4.1-5.7-5.8-11.8-5.8h-20c-4.3,0-6.2-0.6-8.6-3.8l-2.2-3H90c11,0,16.1,3.3,21.9,11.1L132.3,1950.7z"/>
		<g>
			<polygon style="fill:#00A7E1;" points="75.6,1978.3 75.6,1956.2 80.6,1956.2 89,1968 97.2,1956.2 102.1,1956.2 102.1,1978.3 
				97.7,1978.3 97.7,1961.9 88.9,1974.5 80,1961.9 80,1978.3 			"/>
			<polygon style="fill:#00A7E1;" points="155.7,1956.2 160.1,1956.2 160.1,1980.3 155.7,1974.8 			"/>
			<path style="fill:#00A7E1;" d="M129.7,1956.2h6.1l5.1,6.9l5.5-6.9h6.1l-9.2,9.9l15.4,19.5h-2.6c-2.5,0-4.4-1.4-5.7-3.2
				c-2.4-3.3-10.1-13-10.1-13l-2,2.2c-3.6,4.1-9.1,7.1-17.1,7.1c-9.7,0-14.6-3.4-14.6-12c0-8.4,5.1-11.2,11.8-11.2
				c6.1,0,9.1,3.1,9.1,8.2c0,2.7-0.7,4.4-0.7,4.4h-15.6c0.3,4.6,3.3,6.9,10,6.9c6.4,0,11.4-2.7,14.7-6.6l1.9-2.2L129.7,1956.2z
				 M118.2,1959.1c-5,0-6.6,2.7-6.9,5.8H123c0,0,0.2-0.5,0.2-1.3C123.2,1960.2,120.9,1959.1,118.2,1959.1"/>
			<path style="fill:#00A7E1;" d="M185.3,1957.5l-1.6,4c0,0-3-1.9-7-1.9c-4.6,0-7.9,1.8-7.9,7.6c0,5.6,2.8,8,8.4,8c5,0,8-2.2,8-2.2
				v4c0,0-2.4,1.8-8.1,1.8c-8.6,0-12.7-3.7-12.7-12c0-8,5-11.2,12.2-11.2C182,1955.7,185.3,1957.5,185.3,1957.5"/>
			<path style="fill:#00A7E1;" d="M208.4,1965.2v13.1H204v-3.4h-0.2c0,0-2,4-7.6,4c-5.7,0-7.8-3.4-7.8-7.1c0-3.8,2.1-6,2.1-6h13.6
				v-0.8c0-4.3-1.3-5.3-6.3-5.3c-4.3,0-7.3,1.7-7.3,1.7l-1.6-4c0,0,3.9-1.6,9.2-1.6C205.1,1955.7,208.4,1957.5,208.4,1965.2
				 M197,1975.4c4.3,0,7-2.6,7-6.2h-10.8c0,0-0.6,0.7-0.6,2.3C192.5,1973.6,193.6,1975.4,197,1975.4"/>
			<polygon style="fill:#00A7E1;" points="214.1,1978.3 214.1,1956.2 219.2,1956.2 231.7,1972 231.7,1956.2 236.1,1956.2 
				236.1,1978.3 231.7,1978.3 218.5,1961.9 218.5,1978.3 			"/>
			<path style="fill:#00A7E1;" d="M260.7,1965.2v13.1h-4.4v-3.4h-0.2c0,0-2,4-7.6,4c-5.7,0-7.8-3.4-7.8-7.1c0-3.8,2.1-6,2.1-6h13.6
				v-0.8c0-4.3-1.3-5.3-6.3-5.3c-4.3,0-7.3,1.7-7.3,1.7l-1.6-4c0,0,3.9-1.6,9.2-1.6C257.5,1955.7,260.7,1957.5,260.7,1965.2
				 M249.4,1975.4c4.3,0,7-2.6,7-6.2h-10.8c0,0-0.6,0.7-0.6,2.3C244.9,1973.6,246,1975.4,249.4,1975.4"/>
		</g>
	</g>
</g>
<text transform="matrix(1 0 0 1 37.5453 37.4221)" style="fill:#FFFFFF; font-family:'Titillium Web', sans-serif; font-weight: 600; font-size:40px;">project introduction</text>
<text transform="matrix(1 0 0 1 104.2294 79.4221)" style="fill:#FFFFFF; font-family:'Titillium Web', sans-serif; font-weight: 600; font-size:32.3193px;">The history of Mexicana</text>
<g>
	
		<text transform="matrix(1 0 0 1 37.6156 79.4221)" style="fill:#00A7E1; font-family:'Titillium Web', sans-serif; font-weight: 600; font-size:32.3193px;">1.1</text>
</g>
<g>
	
		<text transform="matrix(1 0 0 1 143.6156 536.4221)" style="fill:#00A7E1; font-family:'Titillium Web', sans-serif; font-weight: 600; font-size:32.3193px;">2.1</text>
</g>
<g>
	<text transform="matrix(1 0 0 1 290.9677 606.1785)" style="fill:#00A7E1; font-family:'Titillium Web', sans-serif; font-weight: 100; font-size:31px;">2.1-1</text>
	<text transform="matrix(1 0 0 1 373.3677 606.1785)" style="fill:#FFFFFF; font-family:'Titillium Web', sans-serif; font-weight: 100; font-size:31px;"> brief</text>
	<text transform="matrix(1 0 0 1 290.9677 648.7786)" style="fill:#00A7E1; font-family:'Titillium Web', sans-serif; font-weight: 100; font-size:31px;">2.1-2</text>
	<text transform="matrix(1 0 0 1 373.3677 648.7786)" style="fill:#FFFFFF; font-family:'Titillium Web', sans-serif; font-weight: 100; font-size:31px;"> process</text>
	<text transform="matrix(1 0 0 1 290.9677 691.3785)" style="fill:#00A7E1; font-family:'Titillium Web', sans-serif; font-weight: 100; font-size:31px;">2.1-3</text>
	<text transform="matrix(1 0 0 1 373.3677 691.3785)" style="fill:#FFFFFF; font-family:'Titillium Web', sans-serif; font-weight: 100; font-size:31px;"> research</text>
</g>
<text transform="matrix(1 0 0 1 37.5771 314.033)" style="fill:#FFFFFF; font-family:'Eurostile LT', sans-serif; font-weight: 600; font-size:100px;">1</text>
<text transform="matrix(1 0 0 1 38.0771 522.533)" style="fill:#FFFFFF; font-family:'Eurostile LT', sans-serif; font-weight: 600; font-size:100px;">2</text>
<text transform="matrix(1 0 0 1 37.7197 1278.533)" style="fill:#FFFFFF; font-family:'Eurostile LT', sans-serif; font-weight: 600; font-size:100px;">3</text>
<g>
	
		<text transform="matrix(1 0 0 1 215.2655 770.635)" style="fill:#FFFFFF; font-family:'Titillium Web', sans-serif; font-weight: 600; font-size:32.3193px;">results</text>
</g>
<g>
	
		<text transform="matrix(1 0 0 1 144.1156 770.2234)" style="fill:#00A7E1; font-family:'Titillium Web', sans-serif; font-weight: 600; font-size:32.3193px;">2.2</text>
</g>
<g>
	
		<text transform="matrix(1 0 0 1 215.2655 863.8992)" style="fill:#FFFFFF; font-family:'Titillium Web', sans-serif; font-weight: 600; font-size:32.3193px;">values</text>
</g>
<g>
	
		<text transform="matrix(1 0 0 1 144.1156 863.488)" style="fill:#00A7E1; font-family:'Titillium Web', sans-serif; font-weight: 600; font-size:32.3193px;">2.3</text>
</g>
<g>
	
		<text transform="matrix(1 0 0 1 215.2655 957.1633)" style="fill:#FFFFFF; font-family:'Titillium Web', sans-serif; font-weight: 600; font-size:32.3193px;">positioning</text>
</g>
<g>
	
		<text transform="matrix(1 0 0 1 144.1156 956.7522)" style="fill:#00A7E1; font-family:'Titillium Web', sans-serif; font-weight: 600; font-size:32.3193px;">2.4</text>
</g>
<g>
	
		<text transform="matrix(1 0 0 1 215.2655 1050.428)" style="fill:#FFFFFF; font-family:'Titillium Web', sans-serif; font-weight: 600; font-size:32.3193px;">brand architecture</text>
</g>
<g>
	
		<text transform="matrix(1 0 0 1 144.1156 1050.0164)" style="fill:#00A7E1; font-family:'Titillium Web', sans-serif; font-weight: 600; font-size:32.3193px;">2.5</text>
</g>
<g>
	
		<text transform="matrix(1 0 0 1 145.7577 1313.1838)" style="fill:#00A7E1; font-family:'Titillium Web', sans-serif; font-weight: 600; font-size:32.3193px;">3.1</text>
</g>
<g>
	
		<text transform="matrix(1 0 0 1 224.9081 1313.156)" style="fill:#FFFFFF; font-family:'Titillium Web', sans-serif; font-weight: 600; font-size:32.3193px;">Mexicana &amp; MexicanaClick</text>
	
		<text transform="matrix(1 0 0 1 224.9081 1355.756)" style="fill:#FFFFFF; font-family:'Titillium Web', sans-serif; font-weight: 600; font-size:32.3193px;">transformed</text>
</g>
<g>
	<text transform="matrix(1 0 0 1 224.6103 1442.156)" style="fill:#00A7E1; font-family:'Titillium Web', sans-serif; font-weight: 100; font-size:31px;">3.1-1</text>
	<text transform="matrix(1 0 0 1 307.0103 1442.156)" style="fill:#FFFFFF; font-family:'Titillium Web', sans-serif; font-weight: 100; font-size:31px;"> positioning</text>
	<text transform="matrix(1 0 0 1 224.6103 1484.756)" style="fill:#00A7E1; font-family:'Titillium Web', sans-serif; font-weight: 100; font-size:31px;">3.1-2</text>
	<text transform="matrix(1 0 0 1 307.0103 1484.756)" style="fill:#FFFFFF; font-family:'Titillium Web', sans-serif; font-weight: 100; font-size:31px;"> vision</text>
	<text transform="matrix(1 0 0 1 224.6103 1527.356)" style="fill:#00A7E1; font-family:'Titillium Web', sans-serif; font-weight: 100; font-size:31px;">3.1-3</text>
	<text transform="matrix(1 0 0 1 307.0103 1527.356)" style="fill:#FFFFFF; font-family:'Titillium Web', sans-serif; font-weight: 100; font-size:31px;"> Mexicana transformed</text>
	<text transform="matrix(1 0 0 1 224.6103 1569.9561)" style="fill:#00A7E1; font-family:'Titillium Web', sans-serif; font-weight: 100; font-size:31px;">3.1-4</text>
	<text transform="matrix(1 0 0 1 307.0103 1569.9561)" style="fill:#FFFFFF; font-family:'Titillium Web', sans-serif; font-weight: 100; font-size:31px;"> implementation concepts</text>
</g>
<g>
	
		<text transform="matrix(1 0 0 1 145.7577 1663.9636)" style="fill:#00A7E1; font-family:'Titillium Web', sans-serif; font-weight: 600; font-size:32.3193px;">3.2</text>
</g>
<g>
	
		<text transform="matrix(1 0 0 1 224.9081 1663.9358)" style="fill:#FFFFFF; font-family:'Titillium Web', sans-serif; font-weight: 600; font-size:32.3193px;">brand identity</text>
</g>
<g>
	<text transform="matrix(1 0 0 1 319.6103 1739.783)" style="fill:#00A7E1; font-family:'Titillium Web', sans-serif; font-weight: 100; font-size:31px;">3.2-1</text>
	<text transform="matrix(1 0 0 1 400 1739.783)" style="fill:#FFFFFF; font-family:'Titillium Web', sans-serif; font-weight: 100; font-size:31px;">the brand</text>
	<text transform="matrix(1 0 0 1 319.6103 1782.3829)" style="fill:#00A7E1; font-family:'Titillium Web', sans-serif; font-weight: 100; font-size:31px;">3.2-2</text>
	<text transform="matrix(1 0 0 1 400 1782.3829)" style="fill:#FFFFFF; font-family:'Titillium Web', sans-serif; font-weight: 100; font-size:31px;">mini brand manual</text>
</g>
<g>
	<rect x="15.7" y="21.1" style="fill:#00A7E1;" width="1" height="1937"/>
</g>
<g>
	<text transform="matrix(1 0 0 1 144.0453 481.614)" style="fill:#FFFFFF; font-family:'Titillium Web', sans-serif; font-weight: 600; font-size:40px;">Mexicana umbrella</text>
</g>
<g>
	
		<text transform="matrix(1 0 0 1 215.0453 536.614)" style="fill:#FFFFFF; font-family:'Titillium Web', sans-serif; font-weight: 600; font-size:32.3193px;">project sirius</text>
</g>
<line style="fill:none;stroke:#00A7E1;stroke-miterlimit:10;" x1="119.9" y1="1205.1" x2="119.9" y2="1314.1"/>
<g>
	<text transform="matrix(1 0 0 1 143.6879 1234.614)" style="fill:#FFFFFF; font-family:'Titillium Web', sans-serif; font-weight: 600; font-size:40px;">Mexicana international</text>
</g>
<g>
	<circle cx="15.9" cy="280.6" r="9"/>
	<path style="fill:#00A7E1;" d="M15.9,290.1c-5.2,0-9.5-4.3-9.5-9.5s4.3-9.5,9.5-9.5s9.5,4.3,9.5,9.5S21.1,290.1,15.9,290.1z
		 M15.9,272.1c-4.7,0-8.5,3.8-8.5,8.5s3.8,8.5,8.5,8.5s8.5-3.8,8.5-8.5S20.5,272.1,15.9,272.1z"/>
</g>
<g>
	<circle cx="15.9" cy="1957.6" r="9"/>
	<path style="fill:#00A7E1;" d="M15.9,1967.1c-5.2,0-9.5-4.3-9.5-9.5s4.3-9.5,9.5-9.5s9.5,4.3,9.5,9.5S21.1,1967.1,15.9,1967.1z
		 M15.9,1949.1c-4.7,0-8.5,3.8-8.5,8.5s3.8,8.5,8.5,8.5s8.5-3.8,8.5-8.5S20.5,1949.1,15.9,1949.1z"/>
</g>
</svg>
