<svg xmlns="http://www.w3.org/2000/svg" xmlns:xlink="http://www.w3.org/1999/xlink" id="Layer_1" x="0px" y="0px" style="enable-background:new 0 0 650 348.1" version="1.1" viewBox="0 0 650 348.1" xml:space="preserve">
    <path d="M309.1,100.4C257.6,30.6,212,1,113.2,1L3.1,1.3l225.1,295.2c29.5,38.6,57.5,50.5,118,50.5h144.9
	L309.1,100.4z" style="fill:#00A7E1"/>
    <line x1="88.2" x2="339.7" y1="112.8" y2="112.8" style="fill:none;stroke:#FFFFFF;stroke-width:1.239;stroke-miterlimit:10"/>
    <line x1="132.8" x2="384.3" y1="171.6" y2="171.6" style="fill:none;stroke:#FFFFFF;stroke-width:1.239;stroke-miterlimit:10"/>
    <line x1="179.9" x2="431.4" y1="230.3" y2="230.3" style="fill:none;stroke:#FFFFFF;stroke-width:1.239;stroke-miterlimit:10"/>
    <line x1="223.3" x2="474.7" y1="289.1" y2="289.1" style="fill:none;stroke:#FFFFFF;stroke-width:1.239;stroke-miterlimit:10"/>
    <line x1="44.2" x2="295.7" y1="54.2" y2="54.2" style="fill:none;stroke:#FFFFFF;stroke-width:1.239;stroke-miterlimit:10"/>
    <text style="fill:#00A7E1;font-family:'Titillium Web', sans-serif;font-weight:600;font-size:22px" transform="matrix(1 0 0 1 308.4219 53.9698)">
        core essence
    </text>
    <text style="fill:#00A7E1;font-family:'Titillium Web', sans-serif;font-weight:600;font-size:22px" transform="matrix(1 0 0 1 352.4077 112.8238)">
        brand personality
    </text>
    <text style="fill:#00A7E1;font-family:'Titillium Web', sans-serif;font-weight:600;font-size:22px" transform="matrix(1 0 0 1 392.0571 171.6783)">
        emotional benefit
    </text>
    <text style="fill:#00A7E1;font-family:'Titillium Web', sans-serif;font-weight:600;font-size:22px" transform="matrix(1 0 0 1 438.521 230.5323)">
        functional benefit
    </text>
    <text style="fill:#00A7E1;font-family:'Titillium Web', sans-serif;font-weight:600;font-size:22px" transform="matrix(1 0 0 1 486.2241 289.3872)">
        product attribute
    </text>
</svg>
