<svg version="1.1" id="Layer_1" xmlns="http://www.w3.org/2000/svg" xmlns:xlink="http://www.w3.org/1999/xlink" x="0px" y="0px"
	 viewBox="0 0 1366 1275.1" style="enable-background:new 0 0 1366 1275.1;" xml:space="preserve">
	<path style="fill:none;stroke:#00A7E1;stroke-width:3;stroke-miterlimit:10;" d="M84.9,143.6L84.9,143.6
		C195.5,53.6,333.8,4.5,476.4,4.5h410.5c126.9,0,250.7,38.9,354.7,111.5l39.7,27.7"/>
	<line style="fill:none;stroke:#FFFFFF;stroke-miterlimit:10;" x1="84.9" y1="182.1" x2="275.4" y2="182.1"/>
	<line style="fill:none;stroke:#FFFFFF;stroke-miterlimit:10;" x1="336.9" y1="182.1" x2="527.3" y2="182.1"/>
	<line style="fill:none;stroke:#FFFFFF;stroke-miterlimit:10;" x1="590.4" y1="182.1" x2="780.9" y2="182.1"/>
	<line style="fill:none;stroke:#FFFFFF;stroke-miterlimit:10;" x1="838.7" y1="182.1" x2="1029.1" y2="182.1"/>
	<line style="fill:none;stroke:#FFFFFF;stroke-miterlimit:10;" x1="1090.8" y1="182.1" x2="1281.2" y2="182.1"/>
	<line style="fill:none;stroke:#FFFFFF;stroke-miterlimit:10;" x1="180.2" y1="182.9" x2="180.2" y2="514.1"/>
	<line style="fill:none;stroke:#FFFFFF;stroke-miterlimit:10;" x1="1186" y1="182.9" x2="1186" y2="514.1"/>
	<line style="fill:none;stroke:#FFFFFF;stroke-miterlimit:10;" x1="432.1" y1="182.9" x2="432.1" y2="812"/>
	<line style="fill:none;stroke:#FFFFFF;stroke-miterlimit:10;" x1="685.6" y1="182.1" x2="685.6" y2="1094"/>
	<line style="fill:none;stroke:#FFFFFF;stroke-miterlimit:10;" x1="933.9" y1="183.7" x2="933.9" y2="812.9"/>
	
		<rect x="2.3" y="513.2" style="fill:none;stroke:#FFFFFF;stroke-width:0.8221;stroke-miterlimit:10;" width="355.2" height="174.3"/>
	
		<rect x="254.2" y="813.7" style="fill:none;stroke:#FFFFFF;stroke-width:0.8221;stroke-miterlimit:10;" width="355.2" height="174.3"/>
	<text transform="matrix(1 0 0 1 34.8633 592.8829)"><tspan x="0" y="0" style="fill:#FFFFFF; font-family:'Eurostile LT', sans-serif;font-weight:400; font-size:49.7998px;">international</tspan><tspan x="34.1" y="49.8" style="fill:#FFFFFF; font-family:'Eurostile LT', sans-serif;font-weight:400; font-size:49.7998px;">Mexicana</tspan></text>
	
		<rect x="1008.5" y="513.2" style="fill:none;stroke:#FFFFFF;stroke-width:0.8221;stroke-miterlimit:10;" width="355.2" height="174.3"/>
	<text transform="matrix(1 0 0 1 1079.381 592.8829)"><tspan x="0" y="0" style="fill:#FFFFFF; font-family:'Eurostile LT', sans-serif;font-weight:400; font-size:49.7998px;">domestic</tspan><tspan x="-4.3" y="49.8" style="fill:#FFFFFF; font-family:'Eurostile LT', sans-serif;font-weight:400; font-size:49.7998px;">Mexicana</tspan></text>
	<text transform="matrix(1 0 0 1 320.8091 890.0211)"><tspan x="0" y="0" style="fill:#FFFFFF; font-family:'Eurostile LT', sans-serif;font-weight:400; font-size:49.7998px;">Mexicana</tspan><tspan x="64.3" y="49.8" style="fill:#FFFFFF; font-family:'Eurostile LT', sans-serif;font-weight:400; font-size:49.7998px;">VTP</tspan></text>
	
		<rect x="507.8" y="1096.5" style="fill:none;stroke:#FFFFFF;stroke-width:0.8221;stroke-miterlimit:10;" width="355.2" height="174.3"/>
	<text transform="matrix(1 0 0 1 574.3746 1172.8579)"><tspan x="0" y="0" style="fill:#FFFFFF; font-family:'Eurostile LT', sans-serif;font-weight:400; font-size:49.7998px;">Mexicana</tspan><tspan x="-12.9" y="49.8" style="fill:#FFFFFF; font-family:'Eurostile LT', sans-serif;font-weight:400; font-size:49.7998px;">new brand</tspan></text>
	
		<rect x="756.8" y="813.7" style="fill:none;stroke:#FFFFFF;stroke-width:0.8221;stroke-miterlimit:10;" width="355.2" height="174.3"/>
	<text transform="matrix(1 0 0 1 823.4659 890.0211)"><tspan x="0" y="0" style="fill:#FFFFFF; font-family:'Eurostile LT', sans-serif;font-weight:400; font-size:49.7998px;">Mexicana</tspan><tspan x="-1.7" y="49.8" style="fill:#FFFFFF; font-family:'Eurostile LT', sans-serif;font-weight:400; font-size:49.7998px;">frequenta</tspan></text>
		<polygon style="fill:#00A7E1;" points="370.6,126 370.6,50.5 387.8,50.5 416.3,90.8 444.3,50.5 461,50.5 461,126 445.9,126 
			445.9,69.9 416.1,112.8 385.6,69.9 385.6,126 		"/>
		<polygon style="fill:#00A7E1;" points="644.1,50.5 659.1,50.5 659.1,132.9 644.1,114.1 		"/>
		<path style="fill:#00A7E1;" d="M555.3,50.5h20.8l17.4,23.6l18.7-23.6h21l-31.3,33.9l52.5,66.7h-8.7c-8.6,0-15.2-4.8-19.4-10.8
			c-8-11.4-34.5-44.2-34.5-44.2l-6.7,7.6c-12.3,13.9-31,24.2-58.5,24.2c-33.2,0-50-11.7-50-41.2c0-28.8,17.4-38.1,40.2-38.1
			c20.8,0,31.1,10.5,31.1,28c0,9.4-2.4,15.2-2.4,15.2h-53.5c1.2,15.8,11.4,23.5,34.3,23.5c21.9,0,39-9.4,50.2-22.4l6.6-7.6
			L555.3,50.5z M516,60.4c-17.3,0-22.6,9.2-23.5,19.8h39.9c0,0,0.6-1.6,0.6-4.5C533.1,64.1,525.3,60.4,516,60.4"/>
		<path style="fill:#00A7E1;" d="M745.5,54.6l-5.3,13.8c0,0-10.1-6.5-24-6.5c-15.7,0-27,6.3-27,25.9c0,19.2,9.7,27.3,28.6,27.3
			c17.1,0,27.2-7.4,27.2-7.4v13.8c0,0-8.1,6.2-27.7,6.2c-29.5,0-43.4-12.8-43.4-41.2c0-27.2,17.2-38.1,41.7-38.1
			C734.2,48.6,745.5,54.6,745.5,54.6"/>
		<path style="fill:#00A7E1;" d="M824.2,81.2l0,44.9h-15l0-11.7h-0.8c0,0-6.7,13.6-26.1,13.6c-19.4,0-26.7-11.7-26.7-24.4
			c0-13.1,7.2-20.4,7.2-20.4l46.4,0v-2.8c0-14.6-4.3-18.3-21.6-18.3c-14.9,0-25.1,5.9-25.1,5.9L757.1,54c0,0,13.3-5.4,31.3-5.4
			C813,48.6,824.2,54.8,824.2,81.2 M785.3,116c14.6,0,23.8-9,23.8-21.3l-36.9,0c0,0-2.2,2.5-2.2,8C770,109.9,773.9,116,785.3,116"/>
		<polygon style="fill:#00A7E1;" points="843.8,126 843.8,50.5 861.1,50.5 903.8,104.3 903.8,50.5 918.8,50.5 918.8,126 903.8,126 
			858.9,69.9 858.9,126 		"/>
		<path style="fill:#00A7E1;" d="M1003.2,81.2l0,44.9h-15l0-11.7h-0.8c0,0-6.7,13.6-26.1,13.6c-19.4,0-26.7-11.7-26.7-24.4
			c0-13.1,7.2-20.4,7.2-20.4l46.4,0v-2.8c0-14.6-4.3-18.3-21.6-18.3c-14.9,0-25.1,5.9-25.1,5.9L936.1,54c0,0,13.3-5.4,31.3-5.4
			C992,48.6,1003.2,54.8,1003.2,81.2 M964.3,116c14.6,0,23.8-9,23.8-21.3l-36.9,0c0,0-2.2,2.5-2.2,8C949,109.9,952.8,116,964.3,116"
			/>
</svg>
