<svg version="1.1" xmlns="http://www.w3.org/2000/svg" xmlns:xlink="http://www.w3.org/1999/xlink" x="0px" y="0px"
	 viewBox="0 0 724 204.5" style="enable-background:new 0 0 724 204.5;" xml:space="preserve">
<path fill="#002D56" d="M700.1,188.5l-10.9-38.7h-12.8l4.6,38.7h-28.3l3.1-38.7h-12.9l-8.6,38.7h-18.1l-10.4-0.1l24.7-55.4h70.9
	l24.7,55.4L700.1,188.5z M690.2,93l1.4,3.2l5.5,0l-6.3-14.2c-2-4.4-3.8-5-6.3-5.1l-29.9,0l-22.4,50.2h66.9l-15.8-35.6
	C685,91.5,688.9,90.7,690.2,93z M269,133h17.7l-24.6,55.6h-17.7L269,133z M428,133.1l-24.6,55.5h-17.8l6.5-14.8h-27.8l-6.5,14.8H340
	l18.7-42.2c3.8-8.6,15.8-13.3,25.9-13.3H428z M404.9,144.9h-22.3c-2.5,0-6.2,1.7-8,5.7l-4.7,10.4h27.8L404.9,144.9z M562.6,144.9
	h-22.3c-2.5,0-6.1,1.7-8,5.7l-4.7,10.4h27.7L562.6,144.9z M585.7,133.1L561,188.5h-17.8l6.5-14.8h-27.8l-6.5,14.8h-17.8l18.8-42.2
	c3.8-8.6,15.8-13.3,25.9-13.3H585.7z M464.2,188.4l-13.6-38.2l-17.1,38.3l-17.8-0.1l24.7-55.4l20,0.1c0,0,14.2,39.9,14.3,39.9
	l17.8-40l17.8,0.1l-24.7,55.4L464.2,188.4z M354.5,133.1h-39.8c-12.2,0-20.7,6.3-23.7,13.2c0,0-4.7,10-9.2,20.5
	c-4.5,10.5,1.3,21.7,9.2,21.7h41.5l5.2-12l-33.8,0c-4.3,0-6.9-4.2-4.6-9.5c0,0,5.3-11.4,6.7-14.5c1.9-4.2,5.9-7.2,11.8-7.2h31.1
	L354.5,133.1z M187.6,133.1H205l10,17.4l19.2-17.4h24.3l-35.6,29.1l16.4,26.4h-20.5l-9.9-19.6l-22,19.6h-24.4l38.8-31.1L187.6,133.1
	z M99.8,188.5l24.3-55.5h58.6l-4.6,11.4h-41.2l-4.6,10.2h38.6l-5,10.9h-38.2l-4.8,10.7h41l-5.2,12.2H99.8z M0,188.5l28.1-55.5h20
	l1.9,37.5l34.9-37.5h27.3l-24.3,55.5H68.4l17.1-36.6l-33.8,36.6H36.3l-1.6-34.7l-16.5,34.7H0z M717.9,80.6c1,0,1.7,0.1,2.2,0.3
	c0.8,0.3,1.3,1,1.3,2.1c0,0.7-0.3,1.3-0.8,1.6c-0.3,0.2-0.7,0.3-1.2,0.4c0.6,0.1,1.1,0.4,1.4,0.8c0.3,0.4,0.4,0.9,0.4,1.3l0,1.2
	l-1.2,0.5l-0.1-1.1c0-0.9-0.3-1.6-0.8-1.9c-0.3-0.2-0.8-0.3-1.6-0.3h-1.1v3.2h-1.4v-8.1H717.9z M719.5,81.9
	c-0.4-0.2-0.9-0.3-1.7-0.3h-1.2v2.9h1.3c0.6,0,1-0.1,1.4-0.2c0.5-0.2,0.8-0.6,0.8-1.3C720,82.5,719.8,82.1,719.5,81.9z M723.3,90
	c-1.4,1.5-3.2,2.2-5.2,2.2c-2,0-3.8-0.7-5.2-2.2c-1.4-1.4-2.1-3.2-2.1-5.2c0-2,0.7-3.8,2.2-5.2c1.4-1.4,3.2-2.2,5.2-2.2
	c2,0,3.8,0.7,5.2,2.2c1.4,1.4,2.2,3.2,2.2,5.2C725.5,86.8,724.8,88.5,723.3,90z M713.6,80.2c-1.2,1.2-1.9,2.7-1.9,4.5
	c0,1.8,0.6,3.3,1.9,4.5c1.2,1.2,2.7,1.9,4.5,1.9c1.8,0,3.3-0.6,4.5-1.9c1.2-1.3,1.9-2.8,1.9-4.5c0-1.8-0.6-3.3-1.9-4.5
	c-1.2-1.2-2.7-1.9-4.5-1.9C716.3,78.3,714.8,79,713.6,80.2z"/>
</svg>
