<?xml version="1.0" encoding="utf-8"?>
<!-- Generator: Adobe Illustrator 22.0.1, SVG Export Plug-In . SVG Version: 6.00 Build 0)  -->
<svg version="1.1" id="Layer_1" xmlns="http://www.w3.org/2000/svg" xmlns:xlink="http://www.w3.org/1999/xlink" x="0px" y="0px"
	 viewBox="0 0 647.1 208" style="enable-background:new 0 0 647.1 208;" xml:space="preserve">
<g>
	<g>
		<path style="fill:#FFFFFF;stroke:#666666;stroke-width:0.55;stroke-miterlimit:10;" d="M323.5,164.7c-8,0-15.3-2.5-21.2-6.7
			l-17.2-1c3.6,7.1,18.1,11,26.1,11h11.9v-3.3H323.5z"/>
		<path style="fill:#FFFFFF;stroke:#666666;stroke-width:0.55;stroke-miterlimit:10;" d="M358.7,127.2l7-0.1
			c-0.9-2.1-1.4-4.5-1.4-6.9c0-0.7,0.1-1.4,0.1-2.2l-8.2,0.1v0.1C357.5,121.1,358.3,124.1,358.7,127.2z"/>
		<path style="fill:#FFFFFF;stroke:#666666;stroke-width:0.55;stroke-miterlimit:10;" d="M323.5,164.7h0.5v3.3h10.6
			c8,0,23.5-3.9,27.3-11.1l-17.1,1C338.9,162.2,331.5,164.7,323.5,164.7z"/>
		<path style="fill:#FFFFFF;stroke:#666666;stroke-width:0.55;stroke-miterlimit:10;" d="M282.5,119.4c0.1,0.7,0.1,1.3,0.1,2
			c0,2.5-0.5,4.9-1.5,7.1l7-0.1c0.3-3.2,1-6.2,2.2-9.1L282.5,119.4z"/>
		<path style="fill:#00A7E1;stroke:#333333;stroke-width:0.55;stroke-miterlimit:10;" d="M216.6,27.1c-1.5,0-2.7,1.2-2.7,2.7
			s1.2,2.7,2.7,2.7h101.6v-5.3H216.6V27.1z"/>
		<path style="fill:#00A7E1;stroke:#333333;stroke-width:0.55;stroke-miterlimit:10;" d="M423.4,32.4c1.5,0,2.7-1.2,2.7-2.7
			s-1.2-2.7-2.7-2.7h-96.8v5.3h96.8V32.4z"/>
		<path style="fill:#00A7E1;stroke:#333333;stroke-width:0.55;stroke-miterlimit:10;" d="M322.4,18.3c-2.3,0-4.2,1.9-4.2,4.2v4.6
			v5.3v65.8c1.7-0.2,3.5-0.4,5.3-0.4c1,0,2.1,0.1,3.1,0.1V32.4v-5.3v-4.6C326.6,20.2,324.7,18.3,322.4,18.3z"/>
		<path style="fill:#01151D;stroke:#1A1A1A;stroke-width:0.55;stroke-miterlimit:10;" d="M290.4,119.1c0,0.1,0,0.1-0.1,0.2h0.1
			V119.1z"/>
		<path style="fill:#01151D;stroke:#1A1A1A;stroke-width:0.55;stroke-miterlimit:10;" d="M309.1,122.1h28.1c2,0,3.7-1.6,3.7-3.7V117
			c0-2-1.6-3.7-3.7-3.7h-28.1c-2,0-3.7,1.6-3.7,3.7v1.4C305.5,120.4,307.1,122.1,309.1,122.1z"/>
		<path style="fill:#01151D;stroke:#1A1A1A;stroke-width:0.55;stroke-miterlimit:10;" d="M356.2,118.3L356.2,118.3l-0.1-0.1
			C356.2,118.2,356.2,118.3,356.2,118.3z"/>
		<g>
			<path style="fill:#01151D;stroke:#1A1A1A;stroke-width:0.55;stroke-miterlimit:10;" d="M356.2,118.2c-0.8-1.7-1.7-3.3-2.7-4.9
				h-6.2c-1.4,0-2.5,1.1-2.5,2.5v3.8c0,1.4,1.1,2.5,2.5,2.5h6.5c1.4,0,2.5-1.1,2.5-2.5L356.2,118.2
				C356.2,118.3,356.2,118.2,356.2,118.2z"/>
			<path style="fill:#01151D;stroke:#1A1A1A;stroke-width:0.55;stroke-miterlimit:10;" d="M299.3,113.6h-5.9
				c-1.1,1.7-2.1,3.6-2.9,5.5v0.2v0.2c0,1.3,1.1,2.4,2.4,2.4h6.5c1.3,0,2.4-1.1,2.4-2.4V116C301.7,114.6,300.6,113.6,299.3,113.6z"
				/>
		</g>
		<polygon style="fill:#FFFFFF;stroke:#666666;stroke-width:0.55;stroke-miterlimit:10;" points="16,140.9 217.4,152.9 217.4,142.9 
					"/>
		<polygon style="fill:#FFFFFF;stroke:#666666;stroke-width:0.55;stroke-miterlimit:10;" points="631.1,140.4 429.9,142.8 
			429.9,152.7 		"/>
		<path style="fill:#FFFFFF;stroke:#666666;stroke-width:0.55;stroke-miterlimit:10;" d="M358.7,127.2c-0.4-3.1-1.2-6.1-2.5-8.9v1.3
			c0,1.4-1.1,2.5-2.5,2.5h-6.5c-1.4,0-2.5-1.1-2.5-2.5v-3.8c0-1.4,1.1-2.5,2.5-2.5h6.2c-5.8-8.6-15.6-14.5-26.9-15.4
			c-1-0.1-2-0.1-3.1-0.1c-1.8,0-3.6,0.1-5.3,0.4c-10.5,1.5-19.5,7.3-24.8,15.4h5.9c1.3,0,2.4,1.1,2.4,2.4v3.5c0,1.3-1.1,2.4-2.4,2.4
			h-6.5c-1.3,0-2.4-1.1-2.4-2.4v-0.2h-0.1c-1.2,2.9-1.9,5.9-2.2,9.1c-0.1,0.9-0.1,1.9-0.1,2.8c0,4.4,0.9,8.6,2.6,12.5
			c2.4,5.7,6.5,10.7,11.7,14.3c5.9,4.2,13.3,6.7,21.2,6.7c8,0,15.4-2.5,21.3-6.7c5.1-3.7,9.2-8.6,11.6-14.3c1.6-3.8,2.5-8,2.5-12.4
			C359,129.9,358.9,128.5,358.7,127.2z M305.5,117c0-2,1.6-3.7,3.7-3.7h28.1c2,0,3.7,1.6,3.7,3.7v1.4c0,2-1.6,3.7-3.7,3.7h-28.1
			c-2,0-3.7-1.6-3.7-3.7V117z M322.4,157.1c-9.6,0-17.5-5.8-18.4-13.3c-0.1-0.5-0.1-1-0.1-1.5c0-8.1,8.3-14.7,18.5-14.7
			s18.5,6.6,18.5,14.7c0,0.5,0,1-0.1,1.4C339.9,151.3,332,157.1,322.4,157.1z"/>
		<path style="fill:#00A7E1;stroke:#333333;stroke-width:0.55;stroke-miterlimit:10;" d="M322.4,127.6c-10.2,0-18.5,6.6-18.5,14.7
			c0,0.5,0,1,0.1,1.5c0.9,7.5,8.8,13.3,18.4,13.3s17.5-5.8,18.4-13.3c0.1-0.5,0.1-0.9,0.1-1.4C340.9,134.2,332.6,127.6,322.4,127.6z
			"/>
		<path style="fill:#CBCBCB;" d="M384.3,101.2c-10.3,0-18.8,7.4-19.9,16.9c-0.1,0.7-0.1,1.4-0.1,2.2c0,2.4,0.5,4.8,1.4,6.9
			c2.9,7.1,10.2,12.1,18.7,12.1c11.1,0,20-8.5,20-19C404.4,109.7,395.4,101.2,384.3,101.2z M384.3,136.1c-9.2,0-16.7-7.1-16.7-15.9
			s7.5-15.9,16.7-15.9s16.7,7.1,16.7,15.9S393.6,136.1,384.3,136.1z"/>
		<path style="fill:#FFFFFF;stroke:#666666;stroke-width:0.55;stroke-miterlimit:10;" d="M384.3,136.1c9.2,0,16.7-7.1,16.7-15.9
			s-7.5-15.9-16.7-15.9s-16.7,7.1-16.7,15.9S375.1,136.1,384.3,136.1z M384.3,109.8c6.1,0,11,4.7,11,10.4c0,5.8-4.9,10.4-11,10.4
			s-11-4.7-11-10.4C373.3,114.4,378.3,109.8,384.3,109.8z"/>
		<path style="fill:#FFFFFF;stroke:#666666;stroke-width:0.55;stroke-miterlimit:10;" d="M384.3,130.7c6.1,0,11-4.7,11-10.4
			c0-5.8-4.9-10.4-11-10.4s-11,4.7-11,10.4S378.3,130.7,384.3,130.7z M384.3,113.7c3.8,0,6.9,2.9,6.9,6.5s-3.1,6.5-6.9,6.5
			s-6.9-2.9-6.9-6.5C377.5,116.6,380.5,113.7,384.3,113.7z"/>
		<path style="fill:#01151D;stroke:#1A1A1A;stroke-width:0.55;stroke-miterlimit:10;" d="M384.3,126.8c3.8,0,6.9-2.9,6.9-6.5
			s-3.1-6.5-6.9-6.5s-6.9,2.9-6.9,6.5C377.5,123.8,380.5,126.8,384.3,126.8z"/>
		<path style="fill:#CBCBCB;" d="M282.5,119.4c-1-9.6-9.6-17-19.9-17c-11.1,0-20,8.5-20,19s9,19,20,19c8.4,0,15.6-4.9,18.6-11.9
			c0.9-2.2,1.5-4.6,1.5-7.1C282.6,120.7,282.6,120,282.5,119.4z M262.6,137.3c-9.2,0-16.7-7.1-16.7-15.9s7.5-15.9,16.7-15.9
			c9.2,0,16.7,7.1,16.7,15.9S271.8,137.3,262.6,137.3z"/>
		<path style="fill:#FFFFFF;stroke:#666666;stroke-width:0.55;stroke-miterlimit:10;" d="M262.6,105.5c-9.2,0-16.7,7.1-16.7,15.9
			s7.5,15.9,16.7,15.9c9.2,0,16.7-7.1,16.7-15.9S271.8,105.5,262.6,105.5z M262.6,131.8c-6.1,0-11-4.7-11-10.4
			c0-5.8,4.9-10.4,11-10.4s11,4.7,11,10.4C273.6,127.1,268.6,131.8,262.6,131.8z"/>
		<path style="fill:#FFFFFF;stroke:#666666;stroke-width:0.55;stroke-miterlimit:10;" d="M262.6,110.9c-6.1,0-11,4.7-11,10.4
			c0,5.8,4.9,10.4,11,10.4s11-4.7,11-10.4C273.6,115.6,268.6,110.9,262.6,110.9z M262.6,127.9c-3.8,0-6.9-2.9-6.9-6.5
			s3.1-6.5,6.9-6.5s6.9,2.9,6.9,6.5S266.4,127.9,262.6,127.9z"/>
		<path style="fill:#01151D;stroke:#1A1A1A;stroke-width:0.55;stroke-miterlimit:10;" d="M262.6,114.8c-3.8,0-6.9,2.9-6.9,6.5
			s3.1,6.5,6.9,6.5s6.9-2.9,6.9-6.5C269.5,117.8,266.4,114.8,262.6,114.8z"/>
		<polygon style="fill:#01151D;stroke:#1A1A1A;stroke-width:0.55;stroke-miterlimit:10;" points="383.2,154.2 383.1,154.2 
			383.2,154.3 		"/>
		<path style="fill:#01151D;stroke:#1A1A1A;stroke-width:0.55;stroke-miterlimit:10;" d="M389.2,175.9h-5.7c-0.1,0-0.2,0-0.3,0v1.1
			h-1.5c-0.1,0.3-0.2,0.6-0.2,0.9v2.4h-4.1v-2.4c0-0.3-0.1-0.7-0.2-0.9h-1.9v-1.1h-5.6c-1.1,0-2,0.9-2,2v9.5c0,1.1,0.9,2,2,2h5.7
			c1.1,0,2-0.9,2-2v-2.7h4.1v2.7c0,1.1,0.9,2,2,2h5.7c1.1,0,2-0.9,2-2v-9.5C391.2,176.8,390.3,175.9,389.2,175.9z M377.4,183.6v-2.4
			h4.1v2.4H377.4z"/>
		<path style="fill:#01151D;stroke:#1A1A1A;stroke-width:0.55;stroke-miterlimit:10;" d="M263.7,154.5L263.7,154.5L263.7,154.5z"/>
		<path style="fill:#01151D;stroke:#1A1A1A;stroke-width:0.55;stroke-miterlimit:10;" d="M277.7,176.2H272c-0.1,0-0.2,0-0.3,0v1.1
			h-1.5c-0.1,0.3-0.2,0.6-0.2,0.9v2.4h-4.1v-2.4c0-0.3-0.1-0.7-0.2-0.9h-1.9v-1.1h-5.6c-1.1,0-2,0.9-2,2v9.5c0,1.1,0.9,2,2,2h5.7
			c1.1,0,2-0.9,2-2V185h4.1v2.7c0,1.1,0.9,2,2,2h5.7c1.1,0,2-0.9,2-2v-9.5C279.7,177.1,278.8,176.2,277.7,176.2z M265.8,184v-2.4
			h4.1v2.4H265.8z"/>
		<polygon style="fill:#01151D;stroke:#1A1A1A;stroke-width:0.55;stroke-miterlimit:10;" points="263.3,155.7 256.3,172.9 
			257.3,173.3 263.7,157.3 263.7,155.7 		"/>
		<polygon style="fill:#FFFFFF;stroke:#666666;stroke-width:0.55;stroke-miterlimit:10;" points="264.3,155.8 263.7,155.7 
			263.7,157.3 263.7,176.2 263.7,177.3 265.6,177.3 270.2,177.3 271.7,177.3 271.7,176.2 271.7,156.2 		"/>
		<path style="fill:#FFFFFF;stroke:#666666;stroke-width:0.55;stroke-miterlimit:10;" d="M290.6,143.7l-73.1-0.8v10l45.8,2.7h0.5
			h0.6l7.3,0.4l13.4,0.8l17.2,1C297.1,154.4,293,149.4,290.6,143.7z"/>
		<polygon style="fill:#01151D;stroke:#1A1A1A;stroke-width:0.55;stroke-miterlimit:10;" points="383.2,156.9 390,172.7 
			390.9,172.3 383.7,155.6 383.2,155.6 		"/>
		<polygon style="fill:#FFFFFF;stroke:#666666;stroke-width:0.55;stroke-miterlimit:10;" points="382.6,155.6 375.2,156.1 
			375.2,175.9 375.2,176.9 377.1,176.9 381.7,176.9 383.2,176.9 383.2,175.9 383.2,156.9 383.2,155.6 		"/>
		<path style="fill:#FFFFFF;stroke:#666666;stroke-width:0.55;stroke-miterlimit:10;" d="M356.4,143.6c-2.4,5.7-6.5,10.7-11.6,14.3
			l17.1-1l13.3-0.8l7.4-0.5h0.5h0.6l46.2-2.8v-10L356.4,143.6z"/>
		<path style="fill:#01151D;stroke:#1A1A1A;stroke-width:0.55;stroke-miterlimit:10;" d="M329.6,176.1h-2.7c-1.1,0-2,0.9-2,2v2.4
			H324v-9.4h4.2v-1H324V168v-3.3h-0.5h-0.4v3.3v2.2h-4.2v1h4.2v9.4h-0.9V178c0-1.1-0.9-2-2-2h-2.7c-1.1,0-2,0.9-2,2v7
			c0,1.1,0.9,2,2,2h2.7c1.1,0,2-0.9,2-2v-3.3h2.8v3.3c0,1.1,0.9,2,2,2h2.7c1.1,0,2-0.9,2-2v-7C331.5,176.9,330.7,176.1,329.6,176.1z
			"/>
		<path style="fill:#01151D;stroke:#1A1A1A;stroke-width:0.55;stroke-miterlimit:10;" d="M442.2,152c-2.3,0-4.2,1.4-4.2,3.2
			s1.9,3.2,4.2,3.2c2.3,0,4.2-1.4,4.2-3.2S444.5,152,442.2,152z"/>
		<path style="fill:#01151D;stroke:#1A1A1A;stroke-width:0.55;stroke-miterlimit:10;" d="M442.2,142.4c1.6,0,3-0.8,3-1.9
			c0-1-1.3-1.9-3-1.9c-1.6,0-3,0.8-3,1.9C439.3,141.6,440.6,142.4,442.2,142.4z"/>
		<path style="fill:#01151D;stroke:#1A1A1A;stroke-width:0.55;stroke-miterlimit:10;" d="M504.9,141.9c1.6,0,3-0.6,3-1.3
			s-1.3-1.3-3-1.3c-1.6,0-3,0.6-3,1.3C501.9,141.3,503.3,141.9,504.9,141.9z"/>
		<path style="fill:#01151D;stroke:#1A1A1A;stroke-width:0.55;stroke-miterlimit:10;" d="M504.9,148.2c-1.6,0-3,1.2-3,2.6
			c0,1.4,1.3,2.6,3,2.6c1.6,0,3-1.2,3-2.6C507.8,149.4,506.5,148.2,504.9,148.2z"/>
		<path style="fill:#01151D;stroke:#1A1A1A;stroke-width:0.55;stroke-miterlimit:10;" d="M205.1,152.2c-2.3,0-4.2,1.4-4.2,3.2
			s1.9,3.2,4.2,3.2s4.2-1.4,4.2-3.2C209.3,153.6,207.4,152.2,205.1,152.2z"/>
		<path style="fill:#01151D;stroke:#1A1A1A;stroke-width:0.55;stroke-miterlimit:10;" d="M205.1,142.6c1.6,0,3-0.8,3-1.9
			c0-1-1.3-1.9-3-1.9c-1.6,0-3,0.8-3,1.9S203.4,142.6,205.1,142.6z"/>
		<path style="fill:#01151D;stroke:#1A1A1A;stroke-width:0.55;stroke-miterlimit:10;" d="M142,142.1c1.6,0,3-0.6,3-1.3
			s-1.3-1.3-3-1.3c-1.6,0-3,0.6-3,1.3S140.3,142.1,142,142.1z"/>
		<path style="fill:#01151D;stroke:#1A1A1A;stroke-width:0.55;stroke-miterlimit:10;" d="M141.9,148.4c-1.6,0-3,1.2-3,2.6
			c0,1.4,1.3,2.6,3,2.6c1.6,0,3-1.2,3-2.6C144.9,149.6,143.6,148.4,141.9,148.4z"/>
	</g>
</g>
</svg>
