<?xml version="1.0" encoding="utf-8"?>
<!-- Generator: Adobe Illustrator 22.0.1, SVG Export Plug-In . SVG Version: 6.00 Build 0)  -->
<svg version="1.1" id="Layer_1" xmlns="http://www.w3.org/2000/svg" xmlns:xlink="http://www.w3.org/1999/xlink" x="0px" y="0px"
	 viewBox="0 0 647.1 208" style="enable-background:new 0 0 647.1 208;" xml:space="preserve">
<style type="text/css">
	.st0{fill:#002A3A;}
	.st1{fill:#1A1A1A;}
	.st2{fill:none;}
	.st3{fill:#FFFFFF;}
	.st4{fill:#FF0000;}
	.st5{fill:#00A7E1;}
	.st6{fill:#4D4D4D;}
	.st7{opacity:0.6;enable-background:new    ;}
	.st8{fill:#666666;}
	.st9{fill:#333333;}
	.st10{fill:#008C45;}
	.st11{fill:#ADADAD;}
	.st12{enable-background:new    ;}
</style>
<path fill="#002A3A" d="M617.8,126.8c0,0-5.1-3.4-6.5-4.5c-1.4-1.1-4.7-4-4.7-4c-1.7-1.5-3.5-3.1-5.3-4.8
	c-15.2-13.9-72.2-8.6-115.8-8.7c0,0-29.4,0.3-70.6,0.7l2.8,4c2,2.9,5.4,4.6,9,4.5l46.1-0.9c7.1-0.1,13.8,3,18.2,8.6l12.2,17.5
	c-6.9-4.2-11.8-6.1-19.9-6l-14.6,0.2l27.3,34c1.7,2.1,3.9,3.7,6.4,4.7c0.2,0,0.5,0,0.9,0.1c19.7-0.2,37.1-0.4,50.8-0.5
	c6.2-0.1,11.7-0.1,16.2-0.2c9.3-0.1,15-0.2,15.8-0.2c7.2-0.4,25.3-2.9,37.2-6.7c14-4.9,21.5-12.1,21.3-19.7
	C644.5,138.9,633.2,137,617.8,126.8z"/>
<path fill="#1A1A1A" d="M617.9,126.7c-3.9-2.6-7.7-5.4-11.2-8.5l-0.1-0.1l-21.3,0.7v9.1l33.2-0.8L617.9,126.7z"/>
<path fill="#002A3A" d="M112.5,77l-1.9-2L48.1,6.1H29.4c6.7,15.2,13.5,30.4,20.2,45.5l11,0.5c1.5,0.1,2,0.5,2.7,1.6l3.4,5
	c0.1,0.1-4.7-3.7-16.8-6.3c0.4,0.9,0.8,1.9,1.3,2.8c7.1,16,14.2,32,21.3,48c0,0.1,0.1,0.2,0.1,0.2c0,0,0,0.1,0,0.1
	c0,0.1,0.1,0.2,0.1,0.3c0,0,0,0,0,0.1c0.1,0.1,0.1,0.2,0.2,0.4c0,0,0,0,0,0c0.1,0.1,0.1,0.3,0.2,0.4c0,0,0,0,0,0
	c0.1,0.1,0.1,0.3,0.2,0.4l0.1,0.2l-0.1,0.1c-3,2.8-6.3,4.9-9.9,6.3c-5.6,2.1-11.7,2.5-17.9,1l0.1-0.5c6,1.4,12,1.1,17.5-1
	c3.5-1.4,6.8-3.4,9.6-6c-0.3-0.6-0.5-1.2-0.8-1.8l0,0c-0.1-0.1-0.1-0.2-0.2-0.4c0,0,0,0,0-0.1c0-0.1-0.1-0.2-0.1-0.3
	c0-0.1-0.1-0.1-0.1-0.2c0,0,0,0,0-0.1C64,85.6,56.6,68.9,49.2,52.3c-1.5-0.3-3-0.6-4.7-0.9l4.4,0.2C42.1,36.2,35.3,21,28.7,6H18
	l26.4,107.7l-24.3,5.6l8.1,0.2l3.2,0.1l12.9,0.2c0.1,0,5,0.7,11.7,1.8c8.3,0.2,18.4,0.1,21.5,0.1c3.1-1.5,6.1-2.5,9.1-3.5
	c23.4-8.1,56-9.2,67.1-9.4C140.5,106.2,130.9,96.3,112.5,77z"/>
<g>
	<path class="st2" d="M558.4,193.7c-1,0-1.8,0.8-1.8,1.8s0.8,1.8,1.8,1.8s1.8-0.8,1.8-1.8S559.4,193.7,558.4,193.7z"/>
</g>
<g>
	<path class="st2" d="M343.9,191.3c-1.8,0-3.3,1.5-3.3,3.3s1.5,3.3,3.3,3.3s3.3-1.5,3.3-3.3C347.2,192.8,345.7,191.3,343.9,191.3z"
		/>
</g>
<path fill="#002A3A" d="M58.2,134.2l-2.2-1.1l-3.2-1.4L38.2,132l-0.1,0l-23.3-11.5l-10.5,2.4v9.2l44.8,11.4
	C52,140.4,55,137.5,58.2,134.2z"/>
<g>
	<path class="st2" d="M77.3,138.3c0,0,10.7,2.1,12-7.3l11.9-0.2c0,0,0.6-2.5-4-3.1c-1-0.1-4.2-0.6-8.5-1.2c-2-4-8-4.9-10.8-4.6
		c-0.1,0-0.4,0-0.8,0c-7.4,3.6-13.5,7.7-18.2,11.7L77.3,138.3z"/>
</g>
<g>
	<polygon fill="#FFFFFF" points="363.4,171.8 363.4,171.7 363.3,171.8 	"/>
	<polygon fill="#FF0000" points="363.5,171.9 363,171.9 363.5,171.4 	"/>
</g>
<g>
	<polygon fill="#00A7E1" points="394,162.5 394,162.5 394.7,162.3 	"/>
	
		<rect x="394" y="162.1" transform="matrix(0.9617 -0.2742 0.2742 0.9617 -29.4169 114.3661)" fill="#FF0000" width="0.7" height="0.5"/>
</g>
<g>
	<path fill="#FFFFFF" d="M394.2,173.1v-1.9l-0.1-4.5l-0.1-4.2l-25.6,7.7l-5,1.5l0,0h-0.1v1.6v4.5v2.6l28,5.8c0,0,1.3,0.3,3.2,0.5
		L394.2,173.1z"/>
	<path fill="#4D4D4D" d="M394.8,187l-0.3,0c-1.9-0.2-3.2-0.5-3.2-0.5l-28.2-5.8v-9.2h0.3l30.9-9.3l0.2,9.1v1.9L394.8,187z M363.6,180.2
		l27.8,5.8c0,0,1.2,0.3,2.9,0.5l-0.3-13.3v-1.9l-0.2-8.3l-30.2,9.1V180.2z"/>
</g>
<g>
	<path class="st2" d="M394.7,162.3L394.7,162.3L394.7,162.3z"/>
</g>
<g>
	<path fill="#00A7E1" d="M450.8,172.6v-2.1l-0.2-13.2l-6.1-1.6l-2.9-0.7l-17.3-1.1l-29.6,8.4l0,0l-0.7,0.2l0.1,4.2l0.1,4.5v1.9
		l0.2,13.7l0.1,3.5c0,0,11.6,5.1,29.9,4.6s26.7-3.4,26.7-3.4L450.8,172.6z"/>
	<path fill="#4D4D4D" d="M421.9,195.2c-16.7,0-27.4-4.6-27.5-4.7l-0.2-0.1l-0.1-3.7l-0.2-15.6l-0.2-8.9l0.9-0.3l29.6-8.4l17.3,1.1
		l2.9,0.7l6.3,1.7l0.5,34.6l-0.2,0.1c-0.1,0-8.6,2.9-26.8,3.4C423.6,195.2,422.7,195.2,421.9,195.2z M394.8,190.1
		c1.4,0.6,12.8,5,29.6,4.5c16.6-0.5,25.1-2.9,26.4-3.3l-0.5-33.8l-5.9-1.5l-2.9-0.7l-17.2-1.1l-30.1,8.5l0.2,8.5v1.9l0.2,13.7
		L394.8,190.1z"/>
</g>
<polygon fill="#002A3A" points="38.4,131.4 51.7,131.2 28.7,120.9 28.1,120 14.5,119.7 15,120 "/>
<path fill="#002A3A" d="M77.4,138.2c0,0,5.1,0.9,8.6-1.6c1.6-1.2,2.7-2.9,3.1-5.3l-34.8,0.5l4.5,2L77.4,138.2z"/>
<path fill="#002A3A" d="M78,122.3L78,122.3c-1.2,0.1-10.9-0.1-17.8-0.2c9.2,1.4,20.2,3.1,28,4.2C85.9,122.7,80.3,122,78,122.3z"/>
<path fill="#002A3A" d="M100.8,129.7c-0.3-0.6-1.2-1.3-3.5-1.6c-0.6-0.1-1.9-0.2-3.7-0.5c-1.3-0.2-3-0.4-4.8-0.7
	c-8.1-1.2-20-3-29.5-4.4l-3.2-0.5c-6.7-1-11.7-1.8-11.7-1.8L31.5,120l-2.8-0.1l0.3,0.5L53,131.2l48-0.5
	C101,130.5,101,130.1,100.8,129.7z"/>
<g>
	<path d="M343.9,183.3c-6,0-10.9,4.9-10.9,10.9s4.9,10.9,10.9,10.9s10.9-4.9,10.9-10.9C354.9,188.2,350,183.3,343.9,183.3z
		 M343.9,197.6c-1.8,0-3.3-1.5-3.3-3.3s1.5-3.3,3.3-3.3s3.3,1.5,3.3,3.3C347.2,196.1,345.7,197.6,343.9,197.6z"/>
</g>
<g>
	<path d="M560,189.7c-0.5-0.1-1-0.2-1.6-0.2c-0.4,0-0.9,0-1.3,0.1c-2.7,0.6-4.7,3-4.7,5.8c0,3.3,2.7,6,6,6s6-2.7,6-6
		C564.4,192.7,562.5,190.4,560,189.7z M558.4,197.3c-1,0-1.8-0.8-1.8-1.8s0.8-1.8,1.8-1.8s1.8,0.8,1.8,1.8S559.4,197.3,558.4,197.3z
		"/>
</g>
<g>
	<g opacity="0.6">
		<path fill="#666666" d="M149.2,135.1h-2.4c-0.8,0-1.4-0.6-1.4-1.4v-4.5c0-0.8,0.6-1.4,1.4-1.4h2.4c0.8,0,1.4,0.6,1.4,1.4v4.5
			C150.7,134.5,150,135.1,149.2,135.1z"/>
	</g>
	<g opacity="0.6">
		<path fill="#666666" d="M158.1,135h-2.4c-0.8,0-1.4-0.6-1.4-1.4v-4.5c0-0.8,0.6-1.4,1.4-1.4h2.4c0.8,0,1.4,0.6,1.4,1.4v4.5
			C159.5,134.4,158.9,135,158.1,135z"/>
	</g>
	<g opacity="0.6">
		<path fill="#666666" d="M167,134.9h-2.4c-0.8,0-1.4-0.6-1.4-1.4V129c0-0.8,0.6-1.4,1.4-1.4h2.4c0.8,0,1.4,0.6,1.4,1.4v4.5
			C168.4,134.3,167.8,134.9,167,134.9z"/>
	</g>
	<g opacity="0.6">
		<path fill="#666666" d="M175.9,134.8h-2.4c-0.8,0-1.4-0.6-1.4-1.4v-4.5c0-0.8,0.6-1.4,1.4-1.4h2.4c0.8,0,1.4,0.6,1.4,1.4v4.5
			C177.3,134.2,176.7,134.8,175.9,134.8z"/>
	</g>
	<g opacity="0.6">
		<path fill="#666666" d="M184.8,134.7h-2.4c-0.8,0-1.4-0.6-1.4-1.4v-4.5c0-0.8,0.6-1.4,1.4-1.4h2.4c0.8,0,1.4,0.6,1.4,1.4v4.5
			C186.2,134.1,185.5,134.7,184.8,134.7z"/>
	</g>
	<g opacity="0.6">
		<path fill="#666666" d="M193.6,134.6h-2.4c-0.8,0-1.4-0.6-1.4-1.4v-4.5c0-0.8,0.6-1.4,1.4-1.4h2.4c0.8,0,1.4,0.6,1.4,1.4v4.5
			C195.1,134,194.4,134.6,193.6,134.6z"/>
	</g>
	<g opacity="0.6">
		<path fill="#666666" d="M202.5,134.5h-2.4c-0.8,0-1.4-0.6-1.4-1.4v-4.5c0-0.8,0.6-1.4,1.4-1.4h2.4c0.8,0,1.4,0.6,1.4,1.4v4.5
			C203.9,133.9,203.3,134.5,202.5,134.5z"/>
	</g>
	<g opacity="0.6">
		<path fill="#666666" d="M211.4,134.4H209c-0.8,0-1.4-0.6-1.4-1.4v-4.5c0-0.8,0.6-1.4,1.4-1.4h2.4c0.8,0,1.4,0.6,1.4,1.4v4.5
			C212.8,133.8,212.2,134.4,211.4,134.4z"/>
	</g>
	<g opacity="0.6">
		<path fill="#666666" d="M220.3,134.3h-2.4c-0.8,0-1.4-0.6-1.4-1.4v-4.5c0-0.8,0.6-1.4,1.4-1.4h2.4c0.8,0,1.4,0.6,1.4,1.4v4.5
			C221.7,133.7,221.1,134.3,220.3,134.3z"/>
	</g>
	<g opacity="0.6">
		<path fill="#666666" d="M229.2,134.2h-2.4c-0.8,0-1.4-0.6-1.4-1.4v-4.5c0-0.8,0.6-1.4,1.4-1.4h2.4c0.8,0,1.4,0.6,1.4,1.4v4.5
			C230.6,133.6,229.9,134.2,229.2,134.2z"/>
	</g>
	<g opacity="0.6">
		<path fill="#666666" d="M238,134.1h-2.4c-0.8,0-1.4-0.6-1.4-1.4v-4.5c0-0.8,0.6-1.4,1.4-1.4h2.4c0.8,0,1.4,0.6,1.4,1.4v4.5
			C239.5,133.5,238.8,134.1,238,134.1z"/>
	</g>
	<g opacity="0.6">
		<path fill="#666666" d="M246.9,134h-2.4c-0.8,0-1.4-0.6-1.4-1.4v-4.5c0-0.8,0.6-1.4,1.4-1.4h2.4c0.8,0,1.4,0.6,1.4,1.4v4.5
			C248.3,133.4,247.7,134,246.9,134z"/>
	</g>
	<g opacity="0.6">
		<path fill="#666666" d="M255.8,133.9h-2.4c-0.8,0-1.4-0.6-1.4-1.4V128c0-0.8,0.6-1.4,1.4-1.4h2.4c0.8,0,1.4,0.6,1.4,1.4v4.5
			C257.2,133.3,256.6,133.9,255.8,133.9z"/>
	</g>
	<g opacity="0.6">
		<path fill="#666666" d="M264.7,133.8h-2.4c-0.8,0-1.4-0.6-1.4-1.4v-4.5c0-0.8,0.6-1.4,1.4-1.4h2.4c0.8,0,1.4,0.6,1.4,1.4v4.5
			C266.1,133.2,265.5,133.8,264.7,133.8z"/>
	</g>
	<g opacity="0.6">
		<path fill="#666666" d="M271.3,132.9l1.1,0.8h-1.1c-0.8,0-1.4-0.6-1.4-1.4v-4.5c0-0.8,0.6-1.4,1.4-1.4h2.4c0.8,0,1.4,0.6,1.4,1.4v4.5
			c0,0.2,0,0.4-0.1,0.6C274.9,132.9,271.8,132.9,271.3,132.9z"/>
	</g>
	<g opacity="0.6">
		<path fill="#666666" d="M282.4,132.6H280c-0.8,0-1.4,0.4-1.4-0.4v-4.5c0-0.8,0.6-1.4,1.4-1.4h2.4c0.8,0,1.4,0.6,1.4,1.4v4.5
			C283.9,133,283.2,132.6,282.4,132.6z"/>
	</g>
	<g opacity="0.6">
		<path fill="#666666" d="M291.3,132.7h-2.4c-0.8,0-1.4,0.3-1.4-0.5v-4.5c0-0.8,0.6-1.4,1.4-1.4h2.4c0.8,0,1.4,0.6,1.4,1.4v4.5
			C292.7,132.9,292.1,132.6,291.3,132.7z"/>
	</g>
	<g opacity="0.6">
		<path fill="#666666" d="M300.2,132.4h-2.4c-0.8,0-1.4,0.5-1.4-0.3v-4.5c0-0.8,0.6-1.4,1.4-1.4h2.4c0.8,0,1.4,0.6,1.4,1.4v4.5
			C301.6,132.8,301,132.3,300.2,132.4z"/>
	</g>
	<g opacity="0.6">
		<path fill="#666666" d="M309.1,132.3h-2.4c-0.8,0-1.4,0.5-1.4-0.3v-4.5c0-0.8,0.6-1.4,1.4-1.4h2.4c0.8,0,1.4,0.6,1.4,1.4v4.5
			C310.5,132.7,309.9,132.3,309.1,132.3z"/>
	</g>
	<g opacity="0.6">
		<path fill="#666666" d="M318,133.3l-2.2-0.4c-0.8,0-1.5-0.2-1.5-1v-4.5c0-0.8,0.6-1.4,1.4-1.4h2.4c0.8,0,1.4,0.6,1.4,1.4v4.5
			C319.4,132.6,318.7,133.3,318,133.3z"/>
	</g>
	<g opacity="0.6">
		<path fill="#666666" d="M326.8,133.2h-2.4c-0.8,0-1.4-0.6-1.4-1.4v-4.5c0-0.8,0.6-1.4,1.4-1.4h2.4c0.8,0,1.4,0.6,1.4,1.4v4.5
			C328.3,132.5,327.6,133.2,326.8,133.2z"/>
	</g>
	<g opacity="0.6">
		<path fill="#666666" d="M335.7,133.1h-2.4c-0.8,0-1.4-0.6-1.4-1.4v-4.5c0-0.8,0.6-1.4,1.4-1.4h2.4c0.8,0,1.4,0.6,1.4,1.4v4.5
			C337.1,132.4,336.5,133.1,335.7,133.1z"/>
	</g>
	<g opacity="0.6">
		<path fill="#666666" d="M344.6,133h-2.4c-0.8,0-1.4-0.6-1.4-1.4v-4.5c0-0.8,0.6-1.4,1.4-1.4h2.4c0.8,0,1.4,0.6,1.4,1.4v4.5
			C346,132.3,345.4,133,344.6,133z"/>
	</g>
	<g opacity="0.6">
		<path fill="#666666" d="M353.5,132.9h-2.4c-0.8,0-1.4-0.6-1.4-1.4V127c0-0.8,0.6-1.4,1.4-1.4h2.4c0.8,0,1.4,0.6,1.4,1.4v4.5
			C354.9,132.2,354.3,132.9,353.5,132.9z"/>
	</g>
	<g opacity="0.6">
		<path fill="#666666" d="M362.4,132.8H360c-0.8,0-1.4-0.6-1.4-1.4v-4.5c0-0.8,0.6-1.4,1.4-1.4h2.4c0.8,0,1.4,0.6,1.4,1.4v4.5
			C363.8,132.1,363.1,132.8,362.4,132.8z"/>
	</g>
	<g opacity="0.6">
		<path fill="#666666" d="M371.2,132.7h-2.4c-0.8,0-1.4-0.6-1.4-1.4v-4.5c0-0.8,0.6-1.4,1.4-1.4h2.4c0.8,0,1.4,0.6,1.4,1.4v4.5
			C372.7,132,372,132.7,371.2,132.7z"/>
	</g>
	<g opacity="0.6">
		<path fill="#666666" d="M380.1,132.6h-2.4c-0.8,0-1.4-0.6-1.4-1.4v-4.5c0-0.8,0.6-1.4,1.4-1.4h2.4c0.8,0,1.4,0.6,1.4,1.4v4.5
			C381.5,131.9,380.9,132.6,380.1,132.6z"/>
	</g>
	<g opacity="0.6">
		<path fill="#666666" d="M389,132.5h-2.4c-0.8,0-1.4-0.6-1.4-1.4v-4.5c0-0.8,0.6-1.4,1.4-1.4h2.4c0.8,0,1.4,0.6,1.4,1.4v4.5
			C390.4,131.8,389.8,132.5,389,132.5z"/>
	</g>
	<g opacity="0.6">
		<path fill="#666666" d="M397.9,132.4h-2.4c-0.8,0-1.4-0.6-1.4-1.4v-4.5c0-0.8,0.6-1.4,1.4-1.4h2.4c0.8,0,1.4,0.6,1.4,1.4v4.5
			C399.3,131.7,398.7,132.4,397.9,132.4z"/>
	</g>
	<g opacity="0.6">
		<path fill="#666666" d="M406.8,132.3h-2.4c-0.8,0-1.4-0.6-1.4-1.4v-4.5c0-0.8,0.6-1.4,1.4-1.4h2.4c0.8,0,1.4,0.6,1.4,1.4v4.5
			C408.2,131.6,407.5,132.3,406.8,132.3z"/>
	</g>
	<g opacity="0.6">
		<path fill="#666666" d="M415.6,132.2h-2.4c-0.8,0-1.4-0.6-1.4-1.4v-4.5c0-0.8,0.6-1.4,1.4-1.4h2.4c0.8,0,1.4,0.6,1.4,1.4v4.5
			C417.1,131.5,416.4,132.2,415.6,132.2z"/>
	</g>
	<g opacity="0.6">
		<path fill="#666666" d="M424.5,132.1h-2.4c-0.8,0-1.4-0.6-1.4-1.4v-4.5c0-0.8,0.6-1.4,1.4-1.4h2.4c0.8,0,1.4,0.6,1.4,1.4v4.5
			C425.9,131.4,425.3,132.1,424.5,132.1z"/>
	</g>
	<g opacity="0.6">
		<path fill="#666666" d="M433.4,132H431c-0.8,0-1.4-0.6-1.4-1.4v-4.5c0-0.8,0.6-1.4,1.4-1.4h2.4c0.8,0,1.4,0.6,1.4,1.4v4.5
			C434.8,131.4,434.2,132,433.4,132z"/>
	</g>
	<g opacity="0.6">
		<path fill="#666666" d="M442.3,131.9h-2.4c-0.8,0-1.4-0.6-1.4-1.4V126c0-0.8,0.6-1.4,1.4-1.4h2.4c0.8,0,1.4,0.6,1.4,1.4v4.5
			C443.7,131.3,443.1,131.9,442.3,131.9z"/>
	</g>
	<g opacity="0.6">
		<path fill="#666666" d="M451.2,131.8h-2.4c-0.8,0-1.4-0.6-1.4-1.4v-4.5c0-0.8,0.6-1.4,1.4-1.4h2.4c0.8,0,1.4,0.6,1.4,1.4v4.5
			C452.6,131.2,451.9,131.8,451.2,131.8z"/>
	</g>
	<g opacity="0.6">
		<path fill="#666666" d="M460,131.7h-2.4c-0.8,0-1.4-0.6-1.4-1.4v-4.5c0-0.8,0.6-1.4,1.4-1.4h2.4c0.8,0,1.4,0.6,1.4,1.4v4.5
			C461.5,131.1,460.8,131.7,460,131.7z"/>
	</g>
	<g opacity="0.6">
		<path fill="#666666" d="M468.9,131.6h-2.4c-0.8,0-1.4-0.6-1.4-1.4v-4.5c0-0.8,0.6-1.4,1.4-1.4h2.4c0.8,0,1.4,0.6,1.4,1.4v4.5
			C470.3,131,469.7,131.6,468.9,131.6z"/>
	</g>
	<g opacity="0.6">
		<path fill="#666666" d="M477.8,131.5h-2.4c-0.8,0-1.4-0.6-1.4-1.4v-4.5c0-0.8,0.6-1.4,1.4-1.4h2.4c0.8,0,1.4,0.6,1.4,1.4v4.5
			C479.2,130.9,478.6,131.5,477.8,131.5z"/>
	</g>
	<g opacity="0.6">
		<path fill="#666666" d="M486.7,131.4h-2.4c-0.8,0-1.4-0.6-1.4-1.4v-4.5c0-0.8,0.6-1.4,1.4-1.4h2.4c0.8,0,1.4,0.6,1.4,1.4v4.5
			C488.1,130.8,487.5,131.4,486.7,131.4z"/>
	</g>
	<g opacity="0.6">
		<path fill="#666666" d="M495.6,131.3h-2.4c-0.8,0-1.4-0.6-1.4-1.4v-4.5c0-0.8,0.6-1.4,1.4-1.4h2.4c0.8,0,1.4,0.6,1.4,1.4v4.5
			C497,130.7,496.3,131.3,495.6,131.3z"/>
	</g>
	<g opacity="0.6">
		<path fill="#666666" d="M504.4,131.2H502c-0.8,0-1.4-0.6-1.4-1.4v-4.5c0-0.8,0.6-1.4,1.4-1.4h2.4c0.8,0,1.4,0.6,1.4,1.4v4.5
			C505.9,130.6,505.2,131.2,504.4,131.2z"/>
	</g>
	<g opacity="0.6">
		<path fill="#666666" d="M513.3,131.1h-2.4c-0.8,0-1.4-0.6-1.4-1.4v-4.5c0-0.8,0.6-1.4,1.4-1.4h2.4c0.8,0,1.4,0.6,1.4,1.4v4.5
			C514.7,130.5,514.1,131.1,513.3,131.1z"/>
	</g>
	<g opacity="0.6">
		<path fill="#666666" d="M522.2,131h-2.4c-0.8,0-1.4-0.6-1.4-1.4v-4.5c0-0.8,0.6-1.4,1.4-1.4h2.4c0.8,0,1.4,0.6,1.4,1.4v4.5
			C523.6,130.4,523,131,522.2,131z"/>
	</g>
	<g opacity="0.6">
		<path fill="#666666" d="M531.1,130.9h-2.4c-0.8,0-1.4-0.6-1.4-1.4V125c0-0.8,0.6-1.4,1.4-1.4h2.4c0.8,0,1.4,0.6,1.4,1.4v4.5
			C532.5,130.3,531.9,130.9,531.1,130.9z"/>
	</g>
	<g opacity="0.6">
		<path fill="#666666" d="M540,130.8h-2.4c-0.8,0-1.4-0.6-1.4-1.4v-4.5c0-0.8,0.6-1.4,1.4-1.4h2.4c0.8,0,1.4,0.6,1.4,1.4v4.5
			C541.4,130.2,540.7,130.8,540,130.8z"/>
	</g>
	<g>
		<path fill="#4D4D4D" d="M131.8,148.8c-2.3,0-4.2-1.9-4.2-4.1l-0.3-24.3c0-2.3,1.9-4.2,4.1-4.2l6.7-0.1c2.3,0,4.2,1.9,4.2,4.1
			l0.3,24.3c0,2.3-1.9,4.2-4.1,4.2L131.8,148.8z M138.1,116.7l-6.7,0.1c-1.9,0-3.5,1.7-3.5,3.6l0.3,24.3c0,1.9,1.7,3.5,3.6,3.5
			l6.7-0.1c1.9,0,3.5-1.7,3.5-3.6l-0.3-24.3C141.7,118.3,140.1,116.7,138.1,116.7z"/>
	</g>
	<g>
		<path fill="#333333" d="M554.5,144.2c-2.3,0-4.2-1.9-4.2-4.1l-0.3-24.3c0-2.3,1.9-4.2,4.1-4.2l6.7-0.1c2.3,0,4.2,1.9,4.2,4.1
			l0.3,24.3c0,2.3-1.9,4.2-4.1,4.2L554.5,144.2z M560.8,112.1l-6.7,0.1c-1.9,0-3.5,1.7-3.5,3.6l0.3,24.3c0,1.9,1.7,3.5,3.6,3.5
			l6.7-0.1c1.9,0,3.5-1.7,3.5-3.6l-0.3-24.3C564.4,113.7,562.8,112.1,560.8,112.1z"/>
	</g>
	<g>
		<path fill="#4D4D4D" d="M386.5,140c-1.3,0-2.5-1.1-2.6-2.5l-0.3-15.1c0-1.3,1.1-2.5,2.4-2.6l2.9-0.1c1.3,0,2.5,1.1,2.6,2.5l0.3,15.1
			c0,1.5-1,2.6-2.5,2.6L386.5,140z M389,120.3l-2.9,0.1c-1.1,0.1-1.9,1-1.9,2l0.3,15.1c0.1,1.1,1,1.9,2,1.9l2.9-0.1
			c1.1,0,1.9-0.9,1.9-2l-0.3-15.1C390.9,121.1,390,120.3,389,120.3z"/>
	</g>
	<g>
		<path fill="#4D4D4D" d="M395.4,140c-1.3,0-2.5-1.1-2.6-2.5l-0.3-15.1c0-1.3,1.1-2.5,2.5-2.6l2.9-0.1c1.3,0,2.5,1.1,2.6,2.5l0.3,15.1
			c0,1.3-1.1,2.5-2.5,2.6l0,0L395.4,140z M397.9,120.3l-2.9,0.1c-1.1,0.1-1.9,1-1.9,2l0.3,15.1c0.1,1.1,1,1.9,2,1.9l2.9-0.1
			c1.1-0.1,1.9-1,1.9-2l-0.3-15.1C399.8,121.1,398.9,120.3,397.9,120.3z"/>
	</g>
	<g>
		
			<rect x="117.4" y="143.5" transform="matrix(0.9999 -1.521793e-02 1.521793e-02 0.9999 -2.2056 1.8575)" class="st2" width="7.1" height="4.7"/>
	</g>
	<g>
		
			<rect x="117.4" y="143.5" transform="matrix(0.9999 -1.523199e-02 1.523199e-02 0.9999 -2.2079 1.8235)" fill="#008C45" width="2.4" height="4.7"/>
	</g>
	<g>
		
			<rect x="119.8" y="143.5" transform="matrix(0.9999 -1.523199e-02 1.523199e-02 0.9999 -2.2076 1.86)" fill="#FFFFFF" width="2.4" height="4.7"/>
	</g>
	<g>
		
			<rect x="122.1" y="143.5" transform="matrix(0.9999 -1.518981e-02 1.518981e-02 0.9999 -2.2012 1.8898)" fill="#FF0000" width="2.4" height="4.7"/>
	</g>
	<g>
		<path fill="#ADADAD;" d="M121.2,146c0,0.1-0.1,0.2-0.2,0.2s-0.2-0.1-0.2-0.2c0-0.1,0.1-0.2,0.2-0.2
			C121.1,145.9,121.2,145.9,121.2,146z"/>
	</g>
</g>
<g>
	<g>
		<polygon fill="#002A3A" points="180.6,123.4 180.6,114.2 182.7,114.2 186.1,119.1 189.6,114.2 191.6,114.2 191.6,123.4 189.8,123.4 
			189.8,116.5 186.1,121.7 182.4,116.5 182.4,123.4 		"/>
	</g>
	<g>
		<polygon fill="#002A3A" points="213.6,114.2 215.5,114.2 215.5,124.2 213.6,121.9 		"/>
	</g>
	<g>
		<path fill="#002A3A" d="M203.2,114.2h2.5l2.1,2.9l2.3-2.9h2.6l-3.8,4.1l6.4,8.1h-1.1c-1,0-1.8-0.6-2.4-1.3c-1-1.4-4.2-5.4-4.2-5.4
			l-0.8,0.9c-1.5,1.7-3.8,2.9-7.1,2.9c-4,0-6.1-1.4-6.1-5c0-3.5,2.1-4.6,4.9-4.6c2.5,0,3.8,1.3,3.8,3.4c0,1.1-0.3,1.8-0.3,1.8h-6.5
			c0.1,1.9,1.4,2.9,4.2,2.9c2.7,0,4.7-1.1,6.1-2.7l0.8-0.9L203.2,114.2z M198.4,115.4c-2.1,0-2.7,1.1-2.9,2.4h4.9
			c0,0,0.1-0.2,0.1-0.5C200.5,115.8,199.5,115.4,198.4,115.4"/>
	</g>
	<g>
		<path fill="#002A3A" d="M226,114.7l-0.6,1.7c0,0-1.2-0.8-2.9-0.8c-1.9,0-3.3,0.8-3.3,3.2c0,2.3,1.2,3.3,3.5,3.3
			c2.1,0,3.3-0.9,3.3-0.9v1.7c0,0-1,0.8-3.4,0.8c-3.6,0-5.3-1.6-5.3-5c0-3.3,2.1-4.6,5.1-4.6C224.6,113.9,226,114.7,226,114.7"/>
	</g>
	<g>
		<path fill="#002A3A" d="M235.5,117.9v5.5h-1.8V122h-0.1c0,0-0.8,1.7-3.2,1.7s-3.3-1.4-3.3-3s0.9-2.5,0.9-2.5h5.6v-0.3
			c0-1.8-0.5-2.2-2.6-2.2c-1.8,0-3.1,0.7-3.1,0.7l-0.6-1.7c0,0,1.6-0.7,3.8-0.7C234.2,113.9,235.5,114.7,235.5,117.9 M230.8,122.1
			c1.8,0,2.9-1.1,2.9-2.6h-4.5c0,0-0.3,0.3-0.3,1C229,121.4,229.4,122.1,230.8,122.1"/>
	</g>
	<g>
		<polygon fill="#002A3A" points="237.9,123.4 237.9,114.2 240,114.2 245.2,120.7 245.2,114.2 247.1,114.2 247.1,123.4 245.2,123.4 
			239.8,116.5 239.8,123.4 		"/>
	</g>
	<g>
		<path fill="#002A3A" d="M257.3,117.9v5.5h-1.8V122h-0.1c0,0-0.8,1.7-3.2,1.7s-3.3-1.4-3.3-3s0.9-2.5,0.9-2.5h5.6v-0.3
			c0-1.8-0.5-2.2-2.6-2.2c-1.8,0-3.1,0.7-3.1,0.7l-0.6-1.7c0,0,1.6-0.7,3.8-0.7C256,113.9,257.3,114.7,257.3,117.9 M252.6,122.1
			c1.8,0,2.9-1.1,2.9-2.6H251c0,0-0.3,0.3-0.3,1C250.7,121.4,251.2,122.1,252.6,122.1"/>
	</g>
</g>
<g>
	<g>
		<path fill="#00A7E1" d="M128.2,93.1l-29.3,0.3C89.9,93,85.7,91,81.6,85l-15-21.5L76.7,64c9.7,0.4,14.9,5.5,14.9,5.5l-7.8-11.8
			c-3.8-5.7-7.3-8.2-15.5-8.5l-23.1-0.7c-5.8-0.3-8.2-1.1-11.2-5.6l-2.8-4.1l35,1.2c14.8,0.6,20.5,6,28.7,16.1
			C103.4,66.7,128.2,93.1,128.2,93.1z"/>
	</g>
	<g>
		<path fill="#00A7E1" d="M442,120.3l16.1-0.4c1.5,0,2,0.3,2.8,1.4l3.7,4.8C464.7,126.1,458.2,121.7,442,120.3"/>
	</g>
</g>
<path fill="#4D4D4D" d="M633.6,135.4c-4.3-2.2-9.7-4.9-15.7-8.9c-0.1-0.1-5.1-3.5-6.4-4.5c-1.4-1.1-4.7-4-4.7-4
	c-1.7-1.5-3.5-3.1-5.3-4.8c-12-10.9-49.7-10.1-86.1-9.2c-10,0.2-20.4,0.5-29.9,0.5c0,0-29.4,0.3-70.6,0.7l-0.5,0l0.1,0.2
	c-154.7,1.6-237.3,2.6-252.4,3.1c-1.7,0.1-3.5,0-5-0.1c-0.4,0-42.4-0.2-70.8,9.6c-2.9,1.1-6,2.3-9.3,3.8l-1.2,0.5l2.1,0
	c3-0.2,8.6,0.8,10.5,4.5l0.1,0.1l0.1,0c1.8,0.3,3.5,0.5,4.8,0.7c1.8,0.3,3.1,0.5,3.7,0.5c1.7,0.2,2.9,0.8,3.5,1.5
	c0.3,0.4,0.3,0.8,0.3,1l-11.9,0.1l0,0.3c-0.3,2.4-1.4,4.3-3.1,5.5c-3.5,2.5-8.6,1.6-8.6,1.6l-18.2-4.6l-0.1,0l-0.1,0.1
	c-3.5,3-6.6,6.1-9.4,9.4l-0.3,0.3l1.8,0.4l108.3,24.9l46.1,6.5c0,0,29.4-0.3,71.8-0.7l0.2,0c7.9,2.3,19.2,3.8,28.9,3.8
	c0.9,0,1.8,0,2.6-0.1l22.6,0.1c0.3,0.1,0.7,0.1,1.1,0.1c0,0,0,0,0,0l5.7-0.1c0.2,2.9,2.6,5.2,5.5,5.2c3,0,5.4-2.3,5.5-5.3l14.1-0.2
	V172l0.1-0.1l30.5-9.2l30.3-8.6l17.2,1.1l5.1,1.2l-11-5.6l-0.1,0l-24.5,0.3l-39.4-7.6l81.1-1.1c8.1-0.1,15.5,6.4,15.6,13.6
	c0,3.6-1.6,7.1-4.7,9.8c-2.9,2.6-6.8,4.1-10.6,4.2h-2.6v2.6l5.4-0.1c16-0.2,31.2-0.3,45.4-0.4c0.2,0.1,1.5,0.2,1.8,0.2
	c4.1,0,16.1-0.2,16.1-0.2c13.2-0.1,24.7-0.3,34.5-0.3c0.2,1.2,0.6,2.3,1.2,3.3c0.8,1.1,1.9,1.8,3.3,2.1l-2.2,4.7l0,0.1l0.8,7.9
	l0.4-0.1c0.4-0.1,0.7-0.1,1.2-0.1c0.5,0,1.1,0.1,1.5,0.2l0.4,0.1v-6.6l8.8-7.4l1.5-1.3v-3.1c5.6-0.1,9.9-0.1,12.5-0.2
	c1.6,0,2.5,0,2.9,0c6.6-0.4,25-2.8,37.3-6.7c13.9-4.8,21.7-12.1,21.5-20C644.8,141.1,640.6,139,633.6,135.4z M309,177.7
	c-0.8,0.1-1.7,0.1-2.6,0.1c-9.8,0-21.2-1.5-29-3.9c-6.6-1.9-10.2-4.3-10.2-6.6c0-0.1,0-0.2,0-0.4c0.8-4.4,13.7-9.7,28.8-11.9
	c0.5,0.5,1.3,0.7,2.1,0.7l8.8-0.1c0,0,0,0,0,0c0,0,0,0,0,0c-0.2,0.1-0.3,0.2-0.4,0.4c0,0-0.1,0.1-0.1,0.1c-0.1,0.1-0.3,0.3-0.4,0.5
	c0,0,0,0.1-0.1,0.1c-0.1,0.2-0.2,0.3-0.3,0.5c0,0,0,0.1,0,0.1c-0.1,0.2-0.1,0.4-0.2,0.6c0,0,0,0.1,0,0.1c0,0.2-0.1,0.4-0.1,0.7
	c0,2,1.6,3.6,3.7,3.6l11.3-0.1c-1.1,0.7-1.9,2-1.9,3.5c0,2.2,1.8,4,4.1,4l7.8-0.1c0,0,0,0,0,0c-0.3,0.2-0.5,0.3-0.7,0.5c0,0,0,0,0,0
	c-0.2,0.2-0.4,0.4-0.6,0.7c0,0,0,0,0,0c-0.2,0.3-0.3,0.5-0.5,0.8c0,0,0,0,0,0c-0.1,0.3-0.2,0.6-0.3,0.9c-0.1,0.3-0.1,0.7-0.1,1
	l0,0.5c0,0.2,0,0.5,0.1,0.7c0,0,0,0.1,0,0.1c0.3,1.3,1.1,2.3,2.1,3L309,177.7z M299.3,149.1l20.4-0.3l11,5.9l-11.8,0.2l-10,0.1
	c-0.2,0-0.4,0-0.6,0.1l-10.2,0.1c-0.7,0-1.5-0.3-1.9-0.7l-0.1-0.1l-0.1,0c-0.6-0.6-1-1.4-1-2.1c0-1.7,1.4-3.1,3-3.1L299.3,149.1z
	 M280.5,148.8c-1.3,0-2.4-0.8-2.9-1.8c-0.2-0.4-0.2-0.7-0.2-1.2c0-1.7,1.4-3.1,3-3.1l26.9-0.3l11.2,5.9L280.5,148.8z M332.9,161.4
	l-10.5,0.1c-0.1,0-0.2,0-0.2,0c-0.1,0-0.2,0-0.2,0l-12.9,0.2c-1.7,0-3.1-1.4-3.1-3c0-0.2,0-0.4,0.1-0.6c0-0.1,0-0.1,0-0.2
	c0-0.1,0.1-0.3,0.1-0.4c0-0.1,0.1-0.1,0.1-0.2c0.1-0.1,0.1-0.2,0.2-0.3c0-0.1,0.1-0.1,0.1-0.2c0.1-0.1,0.1-0.2,0.2-0.3
	c0-0.1,0.1-0.1,0.2-0.2c0.1-0.1,0.2-0.2,0.3-0.2c0.1,0,0.1-0.1,0.2-0.1c0.1-0.1,0.2-0.1,0.3-0.2c0.1,0,0.1-0.1,0.2-0.1
	c0.1,0,0.2-0.1,0.4-0.1c0.1,0,0.1,0,0.2,0c0,0,0.1,0,0.1,0l10.1-0.1l0.4,0l12.8-0.2l11.2,6L332.9,161.4z M343.5,161.8l0.4,0l5.2,2.8
	l7.4,4l-22.1,0.3h-1.8c0,0-0.1,0-0.1,0l-9.9,0.1c-1,0-1.8-0.3-2.5-0.9c-0.7-0.6-1-1.5-1-2.4c0-1.7,1.1-3.1,2.7-3.4
	c0.1,0,0.2,0,0.2-0.1l7.8-0.1l3.2,0L343.5,161.8z M343.9,183c-2.5,0-4.7-2-4.9-4.6l9.8-0.1C348.7,181,346.6,183,343.9,183z
	 M362.9,177.5l-13.8,0.2l-10.4,0.1l-6,0.1c-0.4,0-0.8,0-1-0.1l0,0c-1.8-0.5-3.1-2-3.2-3.8v-0.5c0-0.3,0-0.6,0.1-0.8
	c0-0.2,0.1-0.4,0.2-0.7c0-0.1,0.1-0.2,0.1-0.3c0.1-0.1,0.1-0.2,0.2-0.3c0.1-0.1,0.2-0.2,0.2-0.3c0-0.1,0.1-0.1,0.1-0.2
	c0.1-0.1,0.2-0.2,0.3-0.4c0,0,0.1-0.1,0.1-0.1c0.1-0.1,0.3-0.2,0.4-0.3c0,0,0,0,0.1,0c0.2-0.1,0.4-0.2,0.5-0.3c0,0,0,0,0,0
	c0.4-0.2,0.8-0.3,1.3-0.3c0,0,0,0,0,0l0.4,0l0,0.1l1.9-0.1v0l21.7-0.3l1.4,0l5.3,2.8V177.5z M411,151.7l24.4-0.3l6.9,3.5l-0.7-0.2
	l-17.3-1.1l-29.6,8.4l-31.3,9.4l0,0l-5.5-2.9l0,0l-10.9-5.8l-1.8-0.9l0,0l-0.8-0.4l-0.1-0.1l-0.1,0h0l-12.1-6.5l-0.1,0l0,0
	l-12.1-6.5l-0.2,0l-12.1-6.4l-0.5,0.1L285,142l-13.1-8.8l40.3-0.6l56.8,11L411,151.7z M456.1,172.1l-4.9,0.1v-1.6h2
	c3.9,0,7.9-1.6,10.9-4.3c3.2-2.8,4.9-6.5,4.8-10.2c-0.1-7.6-7.5-14.2-16-14.2c-0.1,0-0.1,0-0.2,0l-83.5,1.1l-56.9-11l-42.3,0.6l0,0
	l-0.1,0l14.1,9.4l-3.7,0.1c-2,0-3.6,1.6-3.6,3.7c0,0.5,0.1,1,0.3,1.4c0.6,1.3,1.9,2.2,3.4,2.2l15.7-0.2c-1,0.7-1.7,1.8-1.7,3.1
	c0,0.8,0.3,1.6,0.8,2.2c-15.4,2.3-25.5,6.9-28.1,10.9c0,0,0,0,0,0c-0.1,0.1-0.2,0.3-0.3,0.4c0,0,0,0,0,0.1c-0.1,0.1-0.1,0.3-0.2,0.4
	c0,0,0,0,0,0c-0.1,0.2-0.1,0.3-0.1,0.5c0,0,0,0,0,0c0,0.1,0,0.1,0,0.2c0,0.1,0,0.2,0,0.3c0,3,4.5,5.2,8.9,6.6
	c-41.5,0.4-70.1,0.7-70,0.7l-46.1-6.5L51.1,143.3l-1-0.2c2.7-3.1,5.7-6.1,9-8.9l18.1,4.6c0.2,0,5.4,1,9-1.7c1.8-1.3,2.9-3.2,3.3-5.6
	l11.9-0.2l0-0.2c0,0,0.2-0.8-0.4-1.7c-0.6-0.9-1.9-1.5-3.9-1.8c-0.6-0.1-1.9-0.2-3.6-0.5c-1.3-0.2-2.9-0.4-4.7-0.7
	c-2-3.6-7.2-4.7-10.4-4.6c2.8-1.2,5.5-2.3,8-3.2c28.3-9.8,70.2-9.6,70.6-9.6c1.5,0.1,3.3,0.2,5,0.1c15.1-0.5,97.7-1.5,252.5-3.1
	l2.7,3.9c2.2,3,5.5,4.7,9.2,4.6l46.1-0.9c0.1,0,0.2,0,0.3,0c6.8,0,13.4,3.2,17.7,8.5l11.1,16c-5.8-3.3-10.5-5.1-17.8-5.1
	c-0.2,0-0.4,0-0.6,0l-15.2,0.2l0.1,0.2l-0.3,0l27.6,34.4c1.3,1.6,2.9,3,4.8,4C486.5,171.8,471.7,172,456.1,172.1z M570.1,174.6
	l-10.3,8.7v6.2c-0.4-0.1-0.9-0.1-1.3-0.1c-0.4,0-0.7,0-1,0l-0.8-7l2.5-5.4l-0.4-0.1c-1.4-0.3-2.6-0.9-3.3-2c-0.6-0.9-0.9-1.9-1.1-3
	c2.7,0,5.3-0.1,7.8-0.1c2.8,0,5.5-0.1,7.8-0.1V174.6z M623.2,164.3c-12.2,3.9-30.5,6.3-37.1,6.7c-0.3,0-1.3,0-2.8,0
	c-2.6,0-6.9,0.1-12.5,0.2l-16.9,0.2c-9.8,0.1-21.2,0.2-34.4,0.3l-15.2,0.2c0,0-1,0-1.9-0.2c-2.3-1-4.4-2.5-6-4.5l-26.8-33.4
	l13.7-0.2c8.3-0.2,13.2,1.8,19.8,6l1.1,0.7l-0.4-0.6l0.6,0.3l-12.9-18.6c-4.4-5.5-10.9-8.7-18.1-8.7c-0.1,0-0.2,0-0.3,0l-46.1,0.9
	c-3.5,0.1-6.8-1.5-8.8-4.4l-2.5-3.6c40.9-0.4,70.1-0.7,70.1-0.7c9.5,0,19.9-0.2,29.9-0.5c36.3-0.8,73.9-1.7,85.7,9.1
	c1.8,1.7,3.6,3.3,5.3,4.8c0,0,3.4,2.9,4.8,4c1.4,1.1,6.4,4.5,6.5,4.5l0,0c6,4,11.4,6.7,15.7,8.9c6.8,3.4,10.9,5.5,10.9,9
	C644.5,152.5,636.8,159.6,623.2,164.3z"/>
<g class="st12">
	<g>
		<path d="M145.9,148.1c0-0.1,0-0.2,0.1-0.3l1-1.3l-1-1.2c-0.1-0.1-0.1-0.2-0.1-0.3c0-0.1,0-0.2,0.1-0.3c0.1-0.1,0.2-0.1,0.3-0.1
			c0.2,0,0.3,0.1,0.4,0.2l0.8,1.1l0.8-1.1c0.1-0.2,0.3-0.2,0.4-0.2c0.1,0,0.2,0,0.3,0.1c0.1,0.1,0.1,0.2,0.1,0.3
			c0,0.1,0,0.2-0.1,0.3l-1,1.2l1,1.3c0.1,0.1,0.1,0.2,0.1,0.3c0,0.1,0,0.2-0.1,0.3c-0.1,0.1-0.2,0.1-0.3,0.1c-0.2,0-0.3-0.1-0.4-0.2
			l-0.9-1.2l-0.9,1.2c-0.1,0.2-0.3,0.2-0.4,0.2c-0.1,0-0.2,0-0.3-0.1C145.9,148.4,145.9,148.3,145.9,148.1z"/>
	</g>
	<g>
		<path d="M149.7,148.1c0,0,0-0.1,0-0.2l1.4-3c0.1-0.2,0.3-0.3,0.5-0.3h0c0.2,0,0.4,0.1,0.5,0.3l1.4,3c0,0.1,0,0.1,0,0.2
			c0,0.1,0,0.2-0.1,0.3c-0.1,0.1-0.2,0.1-0.3,0.1c-0.2,0-0.3-0.1-0.4-0.3l-0.3-0.6h-1.7l-0.3,0.6c-0.1,0.2-0.2,0.3-0.4,0.3
			c-0.1,0-0.2,0-0.3-0.1C149.7,148.3,149.7,148.2,149.7,148.1z M151.1,146.9h1.1l-0.5-1.3L151.1,146.9z"/>
	</g>
	<g>
		<path d="M154.3,147.2c-0.1,0-0.2,0-0.3-0.1c-0.1-0.1-0.1-0.2-0.1-0.3c0-0.1,0-0.2,0.1-0.3c0.1-0.1,0.2-0.1,0.3-0.1h1
			c0.1,0,0.2,0,0.3,0.1c0.1,0.1,0.1,0.2,0.1,0.3c0,0.1,0,0.2-0.1,0.3c-0.1,0.1-0.2,0.1-0.3,0.1H154.3z"/>
	</g>
	<g>
		<path d="M156.3,148.1V145c0-0.1,0-0.2,0.1-0.3s0.2-0.1,0.3-0.1h0.1c0.2,0,0.3,0.1,0.4,0.2l1,1.7l1-1.7c0.1-0.1,0.2-0.2,0.4-0.2
			h0.1c0.1,0,0.2,0,0.3,0.1s0.1,0.2,0.1,0.3v3.1c0,0.1,0,0.2-0.1,0.3s-0.2,0.1-0.3,0.1c-0.1,0-0.2,0-0.3-0.1s-0.1-0.2-0.1-0.3v-1.9
			l-0.7,1.2c-0.1,0.1-0.2,0.2-0.4,0.2s-0.3-0.1-0.4-0.2l-0.7-1.1v1.9c0,0.1,0,0.2-0.1,0.3c-0.1,0.1-0.2,0.1-0.3,0.1
			c-0.1,0-0.2,0-0.3-0.1C156.4,148.3,156.3,148.2,156.3,148.1z"/>
	</g>
	<g>
		<path d="M160.9,148.1c0-0.1,0-0.2,0.1-0.3l1-1.3l-1-1.2c-0.1-0.1-0.1-0.2-0.1-0.3c0-0.1,0-0.2,0.1-0.3c0.1-0.1,0.2-0.1,0.3-0.1
			c0.2,0,0.3,0.1,0.4,0.2l0.8,1.1l0.8-1.1c0.1-0.2,0.3-0.2,0.4-0.2c0.1,0,0.2,0,0.3,0.1c0.1,0.1,0.1,0.2,0.1,0.3
			c0,0.1,0,0.2-0.1,0.3l-1,1.2l1,1.3c0.1,0.1,0.1,0.2,0.1,0.3c0,0.1,0,0.2-0.1,0.3c-0.1,0.1-0.2,0.1-0.3,0.1c-0.2,0-0.3-0.1-0.4-0.2
			l-0.9-1.2l-0.9,1.2c-0.1,0.2-0.3,0.2-0.4,0.2c-0.1,0-0.2,0-0.3-0.1C161,148.4,160.9,148.3,160.9,148.1z"/>
	</g>
	<g>
		<path d="M166.8,148.6c-0.6,0-1-0.2-1.4-0.6c-0.4-0.4-0.6-0.9-0.6-1.4v0c0-0.6,0.2-1,0.6-1.4c0.4-0.4,0.9-0.6,1.5-0.6
			c0.5,0,0.9,0.1,1.3,0.4c0.1,0.1,0.2,0.2,0.2,0.3c0,0.1,0,0.2-0.1,0.3s-0.2,0.1-0.3,0.1c-0.1,0-0.2,0-0.3-0.1
			c-0.2-0.2-0.5-0.3-0.8-0.3c-0.3,0-0.6,0.1-0.8,0.4c-0.2,0.2-0.3,0.5-0.3,0.9v0c0,0.3,0.1,0.6,0.3,0.9c0.2,0.2,0.5,0.4,0.8,0.4
			c0.3,0,0.6-0.1,0.8-0.3c0.1-0.1,0.2-0.1,0.3-0.1c0.1,0,0.2,0,0.3,0.1c0.1,0.1,0.1,0.2,0.1,0.3c0,0.1,0,0.2-0.1,0.3
			C167.8,148.4,167.3,148.6,166.8,148.6z"/>
	</g>
</g>
</svg>
