<svg xmlns="http://www.w3.org/2000/svg" xmlns:xlink="http://www.w3.org/1999/xlink" x="0px" y="0px" style="enable-background:new 0 0 636.9 584.5" version="1.1" viewBox="0 0 636.9 584.5" xml:space="preserve">
    <path d="M89.7,317L89.7,317c0.2,0,0.3-0.1,0.4-0.1C90,316.9,89.8,316.9,89.7,317z"/>
    <path fill="#FF0000" d="M89.7,317.1h-0.3l0.2-0.2c0.1-0.1,0.4-0.1,0.5-0.1v0.3c0,0,0,0-0.1,0C89.9,317.1,89.8,317.1,89.7,317.1z"/>
    <path fill="#002A3A" d="M2,294c0,3.2,0.6,5.4,1.1,5.5l24.6,6.2l0.2,0v-0.2l2,0.4c8.6,0.7,15.6,1.1,20.8,1.3c0,0,0,0,0.1,0
	c0.6,0,1.1,0,1.7,0.1c5.4-1.4,13.6-2.6,24.2-3.4c10-0.8,26.2-2.9,41.8-4.9c2.5-0.3,5.1-0.7,7.6-1c-11.8,0.5-24.6,0.9-37.5,0.9h0
	c-41.5,0.3-74.9-1.5-77.5-4.1c-0.2-0.2-0.2-0.3-0.2-0.5c0-3.4,40.1-5.5,77.8-5.8c13.4-0.1,25.9,0,36.7,0.3
	c-15.2-1.6-36.4-3.8-48.7-4.6c-9.6-0.7-17-1.8-22-3.5c-0.2,0-0.4,0-0.5,0.1c-0.2,0-0.4,0-0.5,0c-4.6,0.3-10.9,0.8-19.3,1.6
	c-0.3,0-0.5,0-0.8,0.1c-0.2,0-0.5,0-0.7,0l-2.1,0.4l-27.5,6.1C2.6,289.2,2,291,2,294z"/>
    <g>
        <path fill="#002A3A" d="M157.2,294.7c-6.2,0.5-14.8,1.6-24.2,2.8c19.9-1,32.9-2.6,32.9-4.3c0-1.7-13.2-3.1-33.3-3.8
		c9.9,1.1,18.7,2.1,24.5,2.9C159.2,292.5,159.3,294.5,157.2,294.7z"/>
    </g>
    <g>
        <path fill="#002A3A" d="M88.5,289.4c-42.1,0.3-75.9,2.8-75.9,5s33.3,3.9,75.4,3.6c16.3-0.1,29.8-0.6,42.2-1.2
		c9.2-0.6,20.1-2.1,26.2-2.7c1.5-0.1,1.4-1.3,0-1.5c-5.8-0.8-15.3-1.7-24.9-2.8C119.2,289.5,104.6,289.3,88.5,289.4z"/>
    </g>
    <g>
        <path fill="#002A3A" d="M578.8,318.3c13.9-4.4,40.3-16.7,45.9-21.8c4-3.7,5.2-6,5.1-8.8c0-2.8-1.2-5.1-5.3-8.7
		c-5.7-5-32.3-16.9-46.2-21c-12.8-3.8-47.1-2.8-47.1-2.8l-42.4,0.4c-5.7,16.5-31.5,15.2-30.1,15.2c0,0-17.6,0.1-22,0.1
		c-13.2,0-19.7,0.1-24.4,6.2c-3.6,4.7-5.2,8.3-8.2,11.5c-0.9,0.9-0.9,2.1,0,3c2.6,2.7,4.6,6.7,8.2,11.4c4.7,6.1,10.7,6.2,24.4,6.2
		c4.4,0,22,0.1,22,0.1s24.3-1.7,29.5,12.7l43.4-0.4C531.7,321.6,566.1,322.3,578.8,318.3z"/>
        <path fill="#666666" d="M488,322.3l-0.1-0.2c-5.1-14-29-12.5-29.2-12.5c-0.2,0-17.7-0.1-22-0.1c-13.2,0-19.8,0-24.6-6.3
		c-1.6-2.1-2.9-4-4-5.7c-1.5-2.2-2.7-4.1-4.2-5.6c-1-1-1-2.4,0-3.4c1.7-1.8,2.9-3.7,4.3-5.9c1.1-1.7,2.3-3.5,3.9-5.6
		c4.9-6.3,11.9-6.3,24.6-6.3c4.3,0,21.8-0.1,22-0.1l0,0c0.7,0,24.4,0.7,29.8-15l0.1-0.2l42.6-0.4c0.3,0,34.5-1,47.2,2.8
		c13.3,3.9,40.4,15.9,46.3,21.1c3.9,3.5,5.4,5.9,5.4,8.9c0.1,3-1.2,5.4-5.2,9c-5.8,5.3-32.4,17.5-46,21.9l0,0
		c-12.1,3.8-43.7,3.4-47.2,3.3L488,322.3z M460.9,309c6.1,0,23.1,1.1,27.5,12.8l43.2-0.4c3.6,0.1,35.1,0.5,47.1-3.3
		c15.9-5,40.9-17.3,45.8-21.7c3.8-3.5,5.1-5.8,5-8.6c0-2.9-1.4-5.1-5.2-8.5c-5.4-4.8-31.7-16.7-46.1-20.9c-12.6-3.7-46.7-2.8-47-2.8
		l-42.2,0.4c-5.6,15.7-29.2,15.3-30.4,15.2c-1.2,0-17.7,0.1-21.9,0.1c-13,0-19.5,0-24.2,6.1c-1.6,2-2.8,3.9-3.8,5.6
		c-1.4,2.2-2.7,4.1-4.4,5.9c-0.8,0.8-0.8,1.8,0,2.6c1.5,1.5,2.8,3.5,4.2,5.7c1.1,1.7,2.4,3.7,4,5.7c4.7,6.1,10.8,6.1,24.2,6.1
		c4.3,0,21.8,0.1,22,0.1C458.7,309,459.6,309,460.9,309z"/>
    </g>
    <g>
        <path fill="#00A7E1" d="M449.7,313.8h-18.2c18.2,2,25.4,7.1,25.4,7.1l-4.1-5.5C452,314.3,451.4,313.8,449.7,313.8z"/>
    </g>
    <g>
        <path fill="#00A7E1" d="M452.9,262.6l4.1-5.5c0,0-7.2,5.1-25.4,7.1h18.2C451.4,264.2,452,263.8,452.9,262.6z"/>
    </g>
    <g>
        <path fill="#002A3A" d="M28.1,306.1c-0.2,0-0.3,0-0.5,0H28.1L28.1,306.1z"/>
    </g>
    <path fill="#002A3A" d="M81.4,324.2c3.7-4.5,6.5-6.5,8.2-7.4l0,0v-0.1c0.1,0,0.2-0.1,0.3-0.1c1.2-0.4,3.1-1,4.8-1.2
	c-3.8-1.5-26.9-6.7-42.3-7.6c-2,0.5-3.5,1.1-4.5,1.7c-0.2,0.1-0.3,0.2-0.4,0.3c0,0-0.1,0.1-0.1,0.1v0l-0.4,0.4l-27.9,90.9l12.7-0.4
	l49.2-76.3L81.4,324.2z"/>
    <path fill="#002A3A" d="M47,309.6l0.2-0.2c0.1-0.1,0.1-0.1,0.2-0.2c0.1,0,0.1-0.1,0.2-0.1l0.1-0.1c0.8-0.4,1.9-0.8,3.1-1.3
	c-0.1,0-0.2,0-0.2,0c-6.9-0.3-15.7-0.9-20.8-1.3c-0.6-0.1-1.1-0.1-1.5-0.1l-17,95l7.4-0.2l27.9-91.1C46.6,310.1,46.7,309.8,47,309.6
	z"/>
    <path fill="#002A3A" d="M49.8,278.1c0.1,0.1,0.2,0.1,0.3,0.2c0.1,0,0.1,0.1,0.1,0.1h0l0.1,0.1c0.7,0.5,2.1,1.1,4.1,1.7
	c15.4-1.4,38.4-7.5,42.6-9.1c-2-0.2-4.1-0.9-5.1-1.3c-0.1,0-0.2,0-0.2-0.1l0,0c-1.1-0.4-3.7-1.8-8.7-7.2l-52.5-74.4L18,188.4
	L49.8,278.1C49.8,278.1,49.8,278.1,49.8,278.1z"/>
    <path fill="#002A3A" d="M31.5,282c0.3,0,0.7,0,1.1-0.1c0.3,0,0.5,0,0.7-0.1c0.2,0,0.5-0.1,0.7-0.1c3.9-0.4,8.9-0.8,13.8-1.2
	c1.8-0.1,3.6-0.3,5.3-0.4c-1.2-0.4-2.2-0.9-3-1.4c-0.1,0-0.1-0.1-0.2-0.1h-0.1l-0.1-0.1c-0.1-0.1-0.2-0.2-0.3-0.2
	c-0.1-0.1-0.2-0.1-0.2-0.2l-0.1-0.1l-31.8-89.9l-7.7,0.1l20.8,93.7C30.9,282.1,31.2,282,31.5,282z"/>
    <path fill="#00A7E1" d="M435.5,184.2c0-5-4-9-9-9l-28.3-0.2c0,0-4.8,0-9.1,0.1c-3.8,0.1-6.4-0.1-9.2,2.5c-3.3,3-4.9,5-10.9,5
	c0.6,1.2,1.3,2.3,1.9,3.5c0.6,1.1,1.1,2.1,1.7,3.1h0.1c1.1,2,2.2,3.9,3.2,5.9c0.3,0.8,0.8,1.6,1.2,2.3h43.3c0.8,0,1.4-0.6,1.4-1.4
	v0.1c0,0.8-0.6,1.4-1.4,1.4h-43.3c2.5,4.6,4.9,8.9,7.1,13c1.6,0.4,3.3,0.3,5.3,0.4c4.3,0.2,9.1,0.1,9.1,0.1l28.3-0.2c5,0,9-4,9-9
	L435.5,184.2z"/>
    <path fill="#00A7E1" d="M437.6,378.3c0-5-4-9-9-9l-28.3-0.2c0,0-4.8,0-9.1,0.1c-1.7,0.1-3.2,0-4.6,0.3c-2.2,4.3-4.6,8.9-7.1,13.8h43.1
	v0.1c0.8,0,1.4,0.6,1.4,1.4v5.5c0,0.8-0.6,1.4-1.4,1.4h-0.1c0.8,0,1.4-0.6,1.4-1.4v-5.5c0-0.8-0.6-1.4-1.4-1.4h-43
	c-0.2,0.4-0.4,0.8-0.6,1.2c-1.1,2.3-2.3,4.7-3.6,7.1h0.1c-0.4,0.7-0.7,1.4-1.1,2c-0.6,1.2-1.3,2.5-2,3.8c5.3,0.2,7,2.1,10.1,5
	c2.8,2.7,5.4,2.4,9.2,2.5c4.3,0.2,9.1,0.1,9.1,0.1l28.3-0.2c5,0,9-4,9-9L437.6,378.3z"/>
    <g>
        <rect width="0.1" height="0.3" x="423.5" y="322.6" fill="#FF0000"/>
    </g>
    <g>
        <path fill="#01151D" d="M600.6,284.7c-1.6-5.6-5-10.8-11.4-14.7l-3.1,5.3c0,0,6.1,3.9,7.8,9.4L600.6,284.7L600.6,284.7z"/>
        <path fill="#1A1A1A" d="M601,285h-7.3l-0.1-0.2c-1.7-5.3-7.6-9.2-7.7-9.3l-0.2-0.1l3.4-5.8l0.2,0.1c5.8,3.6,9.7,8.6,11.5,14.9L601,285
		z M594.1,284.4h6.1c-1.8-5.9-5.5-10.6-10.9-14l-2.8,4.8C587.6,276,592.5,279.5,594.1,284.4z"/>
    </g>
    <g>
        <path fill="#01151D" d="M584.6,273.1c0,0-4.9-2.6-7.7-2.7l0.7-5.5c0,0,7,0.7,9.7,3.8L584.6,273.1z"/>
        <path fill="#1A1A1A" d="M584.7,273.5l-0.2-0.1c0,0-4.9-2.6-7.6-2.7l-0.3,0l0.8-6.1l0.3,0c0.3,0,7.1,0.7,9.9,3.9l0.1,0.2L584.7,273.5z
		 M577.2,270.1c2.5,0.2,6.3,2.1,7.3,2.6l2.5-4c-2.4-2.5-7.9-3.4-9.1-3.5L577.2,270.1z"/>
    </g>
    <g>
        <path fill="#01151D" d="M575.3,269.5c0,0-4.9-1.2-8.6-0.9l0.1-5.3c0,0,4.5-0.7,9.1,1.1L575.3,269.5z"/>
        <path fill="#1A1A1A" d="M575.5,269.8l-0.3-0.1c0,0-4.9-1.2-8.5-0.9l-0.3,0l0.1-5.8l0.2,0c0.2,0,4.6-0.7,9.2,1.1l0.2,0.1L575.5,269.8z
		 M568,268.3c2.9,0,6.1,0.7,7.1,0.9l0.5-4.6c-3.8-1.4-7.6-1.1-8.5-1l-0.1,4.8C567.3,268.3,567.6,268.3,568,268.3z"/>
    </g>
    <g>
        <path fill="#01151D" d="M600.2,288.9c-1.3,5.7-4.5,11-10.8,15.2l-3.4-5.2c0,0,5.9-4.2,7.4-9.7L600.2,288.9z"/>
        <path fill="#1A1A1A" d="M589.3,304.5l-3.7-5.6l0.2-0.2c0.1,0,5.8-4.2,7.3-9.6l0.1-0.2l7.4-0.3l-0.1,0.3c-1.4,6.3-5.1,11.5-10.9,15.4
		L589.3,304.5z M586.4,299l3.1,4.8c5.4-3.7,8.9-8.6,10.4-14.5l-6.2,0.3C592.2,294.4,587.4,298.2,586.4,299z"/>
    </g>
    <g>
        <path fill="#01151D" d="M584.7,301.1c0,0-4.8,2.8-7.6,3.1l1,5.5c0,0,7-1,9.6-4.2L584.7,301.1z"/>
        <path fill="#1A1A1A" d="M577.9,310l-1.1-6l0.3,0c2.7-0.3,7.4-3,7.5-3.1l0.2-0.1l3.3,4.8l-0.1,0.2c-2.6,3.2-9.5,4.3-9.8,4.3L577.9,310z
		 M577.4,304.4l0.9,5c1.3-0.2,6.7-1.3,9-3.9l-2.7-4C583.7,302,579.9,304,577.4,304.4z"/>
    </g>
    <g>
        <path fill="#01151D" d="M575.6,305.1c0,0-4.8,1.4-8.5,1.2l0.4,5.3c0,0,4.5,0.5,9.1-1.5L575.6,305.1z"/>
        <path fill="#1A1A1A" d="M568.9,311.9c-0.8,0-1.3-0.1-1.4-0.1l-0.2,0l-0.4-5.8l0.3,0c3.6,0.2,8.4-1.2,8.4-1.2l0.3-0.1l1.1,5.5l-0.2,0.1
		C573.6,311.7,570.6,311.9,568.9,311.9z M567.8,311.3c0.9,0.1,4.7,0.2,8.5-1.4l-0.9-4.5c-1.1,0.3-4.8,1.2-8,1.1L567.8,311.3z"/>
    </g>
    <g opacity="0.6">
        <path fill="#666666" d="M146.8,262.7h2.3c0.7,0,1.4-0.6,1.3-1.4v-0.6c-1.6,0.2-3.3,0.3-5,0.5v0.1C145.4,262.1,146.1,262.7,146.8,262.7
		z"/>
    </g>
    <g opacity="0.6">
        <path fill="#666666" d="M155.3,262.6h2.3c0.7,0,1.4-0.6,1.3-1.4v-1.3c-1.6,0.1-3.3,0.3-5,0.5v0.9C154,262,154.6,262.7,155.3,262.6z"/>
    </g>
    <g opacity="0.6">
        <path fill="#666666" d="M163.9,262.6h2.3c0.7,0,1.4-0.6,1.3-1.4v-2c-1.5,0.1-3.2,0.3-5,0.4v1.6C162.5,262,163.1,262.6,163.9,262.6z"/>
    </g>
    <g opacity="0.6">
        <path fill="#666666" d="M172.4,262.5h2.3c0.7,0,1.4-0.6,1.3-1.4v-2.3h-0.8c-1,0-2.4,0.1-4.2,0.2v2.2
		C171,261.9,171.6,262.5,172.4,262.5z"/>
    </g>
    <g opacity="0.6">
        <path fill="#666666" d="M180.9,262.4h2.3c0.7,0,1.4-0.6,1.3-1.4v-2.3h-5v2.3C179.6,261.8,180.2,262.4,180.9,262.4z"/>
    </g>
    <g opacity="0.6">
        <path fill="#666666" d="M189.5,262.3h2.3c0.7,0,1.4-0.6,1.3-1.4v-2.3h-5v2.3C188.1,261.7,188.7,262.3,189.5,262.3z"/>
    </g>
    <g opacity="0.6">
        <path fill="#666666" d="M198,262.2h2.3c0.7,0,1.4-0.6,1.3-1.4v-2.3h-5v2.3C196.6,261.6,197.2,262.2,198,262.2z"/>
    </g>
    <g opacity="0.6">
        <path fill="#666666" d="M206.5,262.1h2.3c0.7,0,1.4-0.6,1.3-1.4v-2.3h-5v2.3C205.2,261.5,205.8,262.1,206.5,262.1z"/>
    </g>
    <g opacity="0.6">
        <path fill="#666666" d="M215,262h2.3c0.7,0,1.4-0.6,1.3-1.4v-2.3h-5v2.3C213.7,261.4,214.3,262,215,262z"/>
    </g>
    <g opacity="0.6">
        <path fill="#666666" d="M223.6,261.9h2.3c0.7,0,1.4-0.6,1.3-1.4v-2.3h-5v2.3C222.2,261.3,222.8,261.9,223.6,261.9z"/>
    </g>
    <g opacity="0.6">
        <path fill="#666666" d="M232.1,261.8h2.3c0.7,0,1.4-0.6,1.3-1.4v-2.3h-5v2.3C230.7,261.2,231.4,261.8,232.1,261.8z"/>
    </g>
    <g opacity="0.6">
        <path fill="#666666" d="M240.6,261.7h2.3c0.7,0,1.4-0.6,1.3-1.4V258h-5v2.3C239.3,261.1,239.9,261.7,240.6,261.7z"/>
    </g>
    <g opacity="0.6">
        <path fill="#666666" d="M249.2,261.6h2.3c0.7,0,1.4-0.6,1.3-1.4v-2.3h-5v2.3C247.8,261,248.4,261.6,249.2,261.6z"/>
    </g>
    <g opacity="0.6">
        <path fill="#666666" d="M257.7,261.5h2.3c0.7,0,1.4-0.6,1.3-1.4v-2.2h-5v2.3C256.3,260.9,257,261.5,257.7,261.5z"/>
    </g>
    <g opacity="0.6">
        <path fill="#666666" d="M266.2,261.4h2.3c0.7,0,1.4-0.6,1.3-1.4v-2.2h-5v2.2C264.9,260.8,265.5,261.4,266.2,261.4z"/>
    </g>
    <g opacity="0.6">
        <path fill="#666666" d="M274.8,261.3h2.3c0.7,0,1.4-0.6,1.3-1.4v-2.2h-5v2.2C273.4,260.7,274,261.3,274.8,261.3z"/>
    </g>
    <g opacity="0.6">
        <path fill="#666666" d="M283.3,261.2h2.3c0.7,0,1.4-0.6,1.3-1.4v-2.2h-5v2.2C281.9,260.7,282.5,261.3,283.3,261.2z"/>
    </g>
    <g opacity="0.6">
        <path fill="#666666" d="M291.8,261.2h2.3c0.7,0,1.4-0.6,1.3-1.4v-2.2h-5v2.2C290.5,260.6,291.1,261.2,291.8,261.2z"/>
    </g>
    <g opacity="0.6">
        <path fill="#666666" d="M300.4,261.1h2.3c0.7,0,1.4-0.6,1.3-1.4v-2.2h-5v2.2C299,260.5,299.6,261.1,300.4,261.1z"/>
    </g>
    <g opacity="0.6">
        <path fill="#666666" d="M308.9,261h2.3c0.7,0,1.4-0.6,1.3-1.4v-2.2h-5v2.2C307.5,260.4,308.1,261,308.9,261z"/>
    </g>
    <g opacity="0.6">
        <path fill="#666666" d="M317.4,260.9h2.3c0.7,0,1.4-0.6,1.3-1.4v-2.2h-5v2.2C316.1,260.3,316.7,260.9,317.4,260.9z"/>
    </g>
    <g opacity="0.6">
        <path fill="#666666" d="M325.9,260.8h2.3c0.7,0,1.4-0.6,1.3-1.4v-2.2h-5v2.2C324.6,260.2,325.2,260.8,325.9,260.8z"/>
    </g>
    <g opacity="0.6">
        <path fill="#666666" d="M334.5,260.7h2.3c0.7,0,1.4-0.6,1.3-1.4v-2.2h-5v2.2C333.1,260.1,333.7,260.7,334.5,260.7z"/>
    </g>
    <g opacity="0.6">
        <path fill="#666666" d="M343,260.6h2.3c0.7,0,1.4-0.6,1.3-1.4V257h-5v2.2C341.6,260,342.3,260.6,343,260.6z"/>
    </g>
    <g opacity="0.6">
        <path fill="#666666" d="M351.5,260.5h2.3c0.7,0,1.4-0.6,1.3-1.4v-2.2h-5v2.2C350.2,259.9,350.8,260.5,351.5,260.5z"/>
    </g>
    <g opacity="0.6">
        <path fill="#666666" d="M360.1,260.4h2.3c0.7,0,1.4-0.6,1.3-1.4v-2.1h-5v2.1C358.7,259.8,359.3,260.4,360.1,260.4z"/>
    </g>
    <g opacity="0.6">
        <path fill="#666666" d="M368.6,260.3h2.3c0.7,0,1.4-0.6,1.3-1.4v-2.1h-5v2.1C367.2,259.7,367.9,260.3,368.6,260.3z"/>
    </g>
    <g opacity="0.6">
        <path fill="#666666" d="M377.1,260.2h2.3c0.7,0,1.4-0.6,1.3-1.4v-2.1h-5v2.1C375.8,259.6,376.4,260.2,377.1,260.2z"/>
    </g>
    <g opacity="0.6">
        <path fill="#666666" d="M385.7,260.1h2.3c0.7,0,1.4-0.6,1.3-1.4v-2.1h-5v2.1C384.3,259.5,384.9,260.1,385.7,260.1z"/>
    </g>
    <g opacity="0.6">
        <path fill="#666666" d="M394.2,260h2.3c0.7,0,1.4-0.6,1.3-1.4v-2.1h-5v2.1C392.8,259.4,393.4,260,394.2,260z"/>
    </g>
    <g opacity="0.6">
        <path fill="#666666" d="M402.7,259.9h2.3c0.7,0,1.4-0.6,1.3-1.4v-2.1h-5v2.1C401.4,259.4,402,260,402.7,259.9z"/>
    </g>
    <g opacity="0.6">
        <path fill="#666666" d="M411.3,259.9h2.3c0.7,0,1.4-0.6,1.3-1.4v-2.1h-5v2.1C409.9,259.3,410.5,259.9,411.3,259.9z"/>
    </g>
    <g opacity="0.6">
        <path fill="#666666" d="M419.8,259.8h2.3c0.7,0,1.4-0.6,1.3-1.4v-2.1h-5v2.1C418.4,259.2,419,259.8,419.8,259.8z"/>
    </g>
    <g opacity="0.6">
        <path fill="#666666" d="M428.3,259.7h2.3c0.7,0,1.4-0.6,1.3-1.4v-2.1h-5v2.1C427,259.1,427.6,259.7,428.3,259.7z"/>
    </g>
    <g opacity="0.6">
        <path fill="#666666" d="M436.8,259.6h2.3c0.7,0,1.4-0.6,1.3-1.4v-2.1h-5v2.1C435.5,259,436.1,259.6,436.8,259.6z"/>
    </g>
    <g opacity="0.6">
        <path fill="#666666" d="M445.4,259.5h2.3c0.7,0,1.4-0.6,1.3-1.4V256h-5v2.1C444,258.9,444.6,259.5,445.4,259.5z"/>
    </g>
    <g opacity="0.6">
        <path fill="#666666" d="M453.9,259.4h2.3c0.7,0,1.4-0.6,1.3-1.4v-2h-5v2.1C452.5,258.8,453.2,259.4,453.9,259.4z"/>
    </g>
    <g opacity="0.6">
        <path fill="#666666" d="M462.4,259.3h2.3c0.7,0,1.4-0.6,1.3-1.4v-2h-5v2C461.1,258.7,461.7,259.3,462.4,259.3z"/>
    </g>
    <g opacity="0.6">
        <path fill="#666666" d="M471,259.2h2.3c0.7,0,1.4-0.6,1.3-1.4v-2h-5v2C469.6,258.6,470.2,259.2,471,259.2z"/>
    </g>
    <g opacity="0.6">
        <path fill="#666666" d="M479.5,259.1h2.3c0.7,0,1.4-0.6,1.3-1.4v-2h-5v2C478.1,258.5,478.8,259.1,479.5,259.1z"/>
    </g>
    <g opacity="0.6">
        <path fill="#666666" d="M487.4,258.8c0.6-1,1.1-2.1,1.5-3.2h-2.3v2C486.7,258.2,487,258.6,487.4,258.8z"/>
    </g>
    <g>
        <path fill="#002A3A" d="M487.4,258.8c0.2,0.1,0.4,0.2,0.6,0.2h2.3c0.7,0,1.4-0.6,1.3-1.4v-2h-2.7C488.5,256.8,488,257.9,487.4,258.8z"/>
    </g>
    <g opacity="0.6">
        <path fill="#666666" d="M487.4,258.8c0.2,0.1,0.4,0.2,0.6,0.2h2.3c0.7,0,1.4-0.6,1.3-1.4v-2h-2.7C488.5,256.8,488,257.9,487.4,258.8z"/>
    </g>
    <g>
        <path fill="#002A3A" d="M496.6,258.9h2.3c0.7,0,1.4-0.6,1.3-1.4v-2h-5v2C495.2,258.3,495.8,258.9,496.6,258.9z"/>
    </g>
    <g opacity="0.6">
        <path fill="#666666" d="M496.6,258.9h2.3c0.7,0,1.4-0.6,1.3-1.4v-2h-5v2C495.2,258.3,495.8,258.9,496.6,258.9z"/>
    </g>
    <g>
        <path fill="#002A3A" d="M505.1,258.8h2.3c0.7,0,1.4-0.6,1.3-1.4v-2h-5v2C503.7,258.2,504.3,258.8,505.1,258.8z"/>
    </g>
    <g opacity="0.6">
        <path fill="#666666" d="M505.1,258.8h2.3c0.7,0,1.4-0.6,1.3-1.4v-2h-5v2C503.7,258.2,504.3,258.8,505.1,258.8z"/>
    </g>
    <g>
        <path fill="#002A3A" d="M513.6,258.7h2.3c0.7,0,1.4-0.6,1.3-1.4v-2h-5v2C512.3,258.1,512.9,258.7,513.6,258.7z"/>
    </g>
    <g opacity="0.6">
        <path fill="#666666" d="M513.6,258.7h2.3c0.7,0,1.4-0.6,1.3-1.4v-2h-5v2C512.3,258.1,512.9,258.7,513.6,258.7z"/>
    </g>
    <g>
        <path fill="#002A3A" d="M522.2,258.6h2.3c0.7,0,1.4-0.6,1.3-1.4v-2h-5v2C520.8,258,521.4,258.7,522.2,258.6z"/>
    </g>
    <g opacity="0.6">
        <path fill="#666666" d="M522.2,258.6h2.3c0.7,0,1.4-0.6,1.3-1.4v-2h-5v2C520.8,258,521.4,258.7,522.2,258.6z"/>
    </g>
    <g opacity="0.6">
        <path fill="#666666" d="M149,322.6h-2.3c-0.6,0-1.1,0.4-1.3,1c1.6,0.1,3.3,0.2,4.9,0.3C150.3,323.2,149.7,322.6,149,322.6z"/>
    </g>
    <g opacity="0.6">
        <path fill="#666666" d="M157.5,322.5h-2.3c-0.7,0-1.4,0.6-1.3,1.4v0.2c1.7,0.1,3.4,0.2,5,0.3v-0.6
		C158.9,323.1,158.3,322.5,157.5,322.5z"/>
    </g>
    <g opacity="0.6">
        <path fill="#666666" d="M166,322.4h-2.3c-0.7,0-1.4,0.6-1.3,1.4v0.8c1.8,0.1,3.5,0.2,5,0.3v-1.1C167.4,323,166.8,322.4,166,322.4z"/>
    </g>
    <g opacity="0.6">
        <path fill="#666666" d="M174.6,322.3h-2.3c-0.7,0-1.4,0.6-1.3,1.4v1.3c2,0.1,3.6,0.1,4.6,0.1h0.3v-1.5
		C175.9,322.9,175.3,322.3,174.6,322.3z"/>
    </g>
    <g opacity="0.6">
        <path fill="#666666" d="M183.1,322.2h-2.3c-0.7,0-1.4,0.6-1.3,1.4v1.5h5v-1.5C184.5,322.8,183.9,322.2,183.1,322.2z"/>
    </g>
    <g opacity="0.6">
        <path fill="#666666" d="M191.6,322.1h-2.3c-0.7,0-1.4,0.6-1.3,1.4v1.5h5v-1.5C193,322.7,192.4,322.1,191.6,322.1z"/>
    </g>
    <g opacity="0.6">
        <path fill="#666666" d="M200.2,322h-2.3c-0.7,0-1.4,0.6-1.3,1.4v1.5h5v-1.5C201.5,322.6,200.9,322,200.2,322z"/>
    </g>
    <g opacity="0.6">
        <path fill="#666666" d="M208.7,321.9h-2.3c-0.7,0-1.4,0.6-1.3,1.4v1.5h5v-1.5C210.1,322.5,209.4,321.9,208.7,321.9z"/>
    </g>
    <g opacity="0.6">
        <path fill="#666666" d="M217.2,321.8h-2.3c-0.7,0-1.4,0.6-1.3,1.4v1.5h5v-1.5C218.6,322.4,218,321.8,217.2,321.8z"/>
    </g>
    <g opacity="0.6">
        <path fill="#666666" d="M225.8,321.7h-2.3c-0.7,0-1.4,0.6-1.3,1.4v1.5h5v-1.5C227.1,322.3,226.5,321.7,225.8,321.7z"/>
    </g>
    <g opacity="0.6">
        <path fill="#666666" d="M234.3,321.6H232c-0.7,0-1.4,0.6-1.3,1.4v1.5h5V323C235.7,322.2,235,321.6,234.3,321.6z"/>
    </g>
    <g opacity="0.6">
        <path fill="#666666" d="M242.8,321.6h-2.3c-0.7,0-1.4,0.6-1.3,1.4v1.5h5V323C244.2,322.2,243.6,321.5,242.8,321.6z"/>
    </g>
    <g opacity="0.6">
        <path fill="#666666" d="M251.4,321.5h-2.3c-0.7,0-1.4,0.6-1.3,1.4v1.5h5v-1.6C252.7,322.1,252.1,321.5,251.4,321.5z"/>
    </g>
    <g opacity="0.6">
        <path fill="#666666" d="M259.9,321.4h-2.3c-0.7,0-1.4,0.6-1.3,1.4v1.6h5v-1.6C261.3,322,260.6,321.4,259.9,321.4z"/>
    </g>
    <g opacity="0.6">
        <path fill="#666666" d="M268.4,321.3h-2.3c-0.7,0-1.4,0.6-1.3,1.4v1.6h5v-1.6C269.8,321.9,269.2,321.3,268.4,321.3z"/>
    </g>
    <g opacity="0.6">
        <path fill="#666666" d="M276.9,321.2h-2.3c-0.7,0-1.4,0.6-1.3,1.4v1.6h5v-1.6C278.3,321.8,277.7,321.2,276.9,321.2z"/>
    </g>
    <g opacity="0.6">
        <path fill="#666666" d="M285.5,321.1h-2.3c-0.7,0-1.4,0.6-1.3,1.4v1.6h5v-1.6C286.8,321.7,286.2,321.1,285.5,321.1z"/>
    </g>
    <g opacity="0.6">
        <path fill="#666666" d="M294,321h-2.3c-0.7,0-1.4,0.6-1.3,1.4v1.6h5v-1.6C295.4,321.6,294.8,321,294,321z"/>
    </g>
    <g opacity="0.6">
        <path fill="#666666" d="M302.5,320.9h-2.3c-0.7,0-1.4,0.6-1.3,1.4v1.6h5v-1.6C303.9,321.5,303.3,320.9,302.5,320.9z"/>
    </g>
    <g opacity="0.6">
        <path fill="#666666" d="M311.1,320.8h-2.3c-0.7,0-1.4,0.6-1.3,1.4v1.6h5v-1.6C312.4,321.4,311.8,320.8,311.1,320.8z"/>
    </g>
    <g opacity="0.6">
        <path fill="#666666" d="M319.6,320.7h-2.3c-0.7,0-1.4,0.6-1.3,1.4v1.6h5v-1.6C321,321.3,320.3,320.7,319.6,320.7z"/>
    </g>
    <g opacity="0.6">
        <path fill="#666666" d="M328.1,320.6h-2.3c-0.7,0-1.4,0.6-1.3,1.4v1.6h5V322C329.5,321.2,328.9,320.6,328.1,320.6z"/>
    </g>
    <g opacity="0.6">
        <path fill="#666666" d="M336.7,320.5h-2.3c-0.7,0-1.4,0.6-1.3,1.4v1.6h5v-1.6C338,321.1,337.4,320.5,336.7,320.5z"/>
    </g>
    <g opacity="0.6">
        <path fill="#666666" d="M345.2,320.4h-2.3c-0.7,0-1.4,0.6-1.3,1.4v1.6h5v-1.6C346.6,321,345.9,320.4,345.2,320.4z"/>
    </g>
    <g opacity="0.6">
        <path fill="#666666" d="M353.7,320.3h-2.3c-0.7,0-1.4,0.6-1.3,1.4v1.6h5v-1.7C355.1,320.9,354.5,320.3,353.7,320.3z"/>
    </g>
    <g opacity="0.6">
        <path fill="#666666" d="M362.3,320.3H360c-0.7,0-1.4,0.6-1.3,1.4v1.7h5v-1.7C363.6,320.8,363,320.2,362.3,320.3z"/>
    </g>
    <g opacity="0.6">
        <path fill="#666666" d="M370.8,320.2h-2.3c-0.7,0-1.4,0.6-1.3,1.4v1.7h5v-1.7C372.2,320.8,371.5,320.2,370.8,320.2z"/>
    </g>
    <g opacity="0.6">
        <path fill="#666666" d="M379.3,320.1H377c-0.7,0-1.4,0.6-1.3,1.4v1.7h5v-1.7C380.7,320.7,380.1,320.1,379.3,320.1z"/>
    </g>
    <g opacity="0.6">
        <path fill="#666666" d="M387.8,320h-2.3c-0.7,0-1.4,0.6-1.3,1.4v1.7h5v-1.7C389.2,320.6,388.6,320,387.8,320z"/>
    </g>
    <g opacity="0.6">
        <path fill="#666666" d="M396.4,319.9h-2.3c-0.7,0-1.4,0.6-1.3,1.4v1.7h5v-1.7C397.7,320.5,397.1,319.9,396.4,319.9z"/>
    </g>
    <g opacity="0.6">
        <path fill="#666666" d="M404.9,319.8h-2.3c-0.7,0-1.4,0.6-1.3,1.4v1.7h5v-1.7C406.3,320.4,405.7,319.8,404.9,319.8z"/>
    </g>
    <g opacity="0.6">
        <path fill="#666666" d="M413.4,319.7h-2.3c-0.7,0-1.4,0.6-1.3,1.4v1.7h5v-1.7C414.8,320.3,414.2,319.7,413.4,319.7z"/>
    </g>
    <g opacity="0.6">
        <path fill="#666666" d="M422,319.6h-2.3c-0.7,0-1.4,0.6-1.3,1.4v1.7h5V321C423.3,320.2,422.7,319.6,422,319.6z"/>
    </g>
    <g opacity="0.6">
        <path fill="#666666" d="M430.5,319.5h-2.3c-0.7,0-1.4,0.6-1.3,1.4v1.7h5v-1.7C431.9,320.1,431.2,319.5,430.5,319.5z"/>
    </g>
    <g opacity="0.6">
        <path fill="#666666" d="M439,319.4h-2.3c-0.7,0-1.4,0.6-1.3,1.4v1.7h5v-1.7C440.4,320,439.8,319.4,439,319.4z"/>
    </g>
    <g opacity="0.6">
        <path fill="#666666" d="M447.6,319.3h-2.3c-0.7,0-1.4,0.6-1.3,1.4v1.7h5v-1.7C448.9,319.9,448.3,319.3,447.6,319.3z"/>
    </g>
    <g opacity="0.6">
        <path fill="#666666" d="M456.1,319.2h-2.3c-0.7,0-1.4,0.6-1.3,1.4v1.8h5v-1.8C457.5,319.8,456.8,319.2,456.1,319.2z"/>
    </g>
    <g opacity="0.6">
        <path fill="#666666" d="M464.6,319.1h-2.3c-0.7,0-1.4,0.6-1.3,1.4v1.8h5v-1.8C466,319.7,465.4,319.1,464.6,319.1z"/>
    </g>
    <g opacity="0.6">
        <path fill="#666666" d="M473.2,319h-2.3c-0.7,0-1.4,0.6-1.3,1.4v1.8h5v-1.8C474.5,319.6,473.9,319,473.2,319z"/>
    </g>
    <g opacity="0.6">
        <path fill="#666666" d="M481.7,319h-2.3c-0.7,0-1.4,0.6-1.3,1.4v1.8h5v-1.8C483.1,319.5,482.4,318.9,481.7,319z"/>
    </g>
    <g opacity="0.6">
        <path fill="#666666" d="M487,319.3c-0.2,0.2-0.4,0.6-0.4,1v1.8h1.7C488,321,487.5,320.1,487,319.3z"/>
    </g>
    <g>
        <path fill="#002A3A" d="M490.2,318.9h-2.3c-0.4,0-0.7,0.2-1,0.4c0.5,0.8,1,1.7,1.3,2.7h3.3v-1.8C491.6,319.5,491,318.8,490.2,318.9z"/>
    </g>
    <g opacity="0.6">
        <path fill="#666666" d="M490.2,318.9h-2.3c-0.4,0-0.7,0.2-1,0.4c0.5,0.8,1,1.7,1.3,2.7h3.3v-1.8C491.6,319.5,491,318.8,490.2,318.9z"/>
    </g>
    <g>
        <path fill="#002A3A" d="M498.8,318.8h-2.3c-0.7,0-1.4,0.6-1.3,1.4v1.8h5v-1.8C500.1,319.4,499.5,318.8,498.8,318.8z"/>
    </g>
    <g opacity="0.6">
        <path fill="#666666" d="M498.8,318.8h-2.3c-0.7,0-1.4,0.6-1.3,1.4v1.8h5v-1.8C500.1,319.4,499.5,318.8,498.8,318.8z"/>
    </g>
    <g>
        <path fill="#002A3A" d="M507.3,318.7H505c-0.7,0-1.4,0.6-1.3,1.4v1.8h5v-1.8C508.6,319.3,508,318.7,507.3,318.7z"/>
    </g>
    <g opacity="0.6">
        <path fill="#666666" d="M507.3,318.7H505c-0.7,0-1.4,0.6-1.3,1.4v1.8h5v-1.8C508.6,319.3,508,318.7,507.3,318.7z"/>
    </g>
    <g>
        <path fill="#002A3A" d="M515.8,318.6h-2.3c-0.7,0-1.4,0.6-1.3,1.4v1.8h5V320C517.2,319.2,516.6,318.6,515.8,318.6z"/>
    </g>
    <g opacity="0.6">
        <path fill="#666666" d="M515.8,318.6h-2.3c-0.7,0-1.4,0.6-1.3,1.4v1.8h5V320C517.2,319.2,516.6,318.6,515.8,318.6z"/>
    </g>
    <g>
        <path fill="#002A3A" d="M524.3,318.5H522c-0.7,0-1.4,0.6-1.3,1.4v1.8h5v-1.8C525.7,319.1,525.1,318.5,524.3,318.5z"/>
    </g>
    <g opacity="0.6">
        <path fill="#666666" d="M524.3,318.5H522c-0.7,0-1.4,0.6-1.3,1.4v1.8h5v-1.8C525.7,319.1,525.1,318.5,524.3,318.5z"/>
    </g>
    <path fill="#4D4D4D" d="M408.8,282.8c1.1-1.7,2.3-3.5,3.8-5.6c4.7-6.1,11.2-6.1,24.2-6.1c4.2,0,20.7-0.1,21.9-0.1
	c1.1,0.1,25,0.5,30.4-15.4l0.1-0.4l-66.9,0.7l0.3-0.3l-1.9,0c-2.3-0.2-7.5-1.1-12.1-4.7l0.2,0l-0.6-0.5c-1.7-1.2-3-2.8-4.1-4.6
	c-1.2-2-8.3-14.8-19.4-35.1c1,0.2,2,0.2,3.1,0.2c0.5,0,1,0,1.6,0.1c2.1,0.1,4.4,0.1,6.2,0.1c1.7,0,2.9,0,2.9,0l28.3-0.2
	c5.1,0,9.3-4.2,9.3-9.3l-0.4-17.6c0-5.1-4.2-9.3-9.3-9.3l-28.3-0.2c0,0-4.9,0-9.1,0.1l-1,0c-3.3,0.1-5.8,0.1-8.4,2.5
	c-0.3,0.3-0.6,0.5-0.8,0.8c-2.8,2.6-4.5,4.2-9.8,4.2c-7.7-14.1-16-29.2-24.4-44.8l0,0l-2.7-5.1c-6.7-12.4-13.7-25.2-20.4-37.5l0,0
	l-0.1-0.2c-2.9-5.4-5.8-10.7-8.6-15.9c-4.9-9-9.6-17.7-14-25.9l-0.1-0.2l-0.1,0C292.6,41.2,287,31,282.4,22.5l-3.7-6.8l0.1,0
	l-0.2-0.4c-0.4-0.7-0.8-1.4-1.1-2.1c-5.4-9.9-13.5-11.5-24-10.8l-10.2,0.8l0.5,3.4l4-0.1l3.1,9.1l-0.1,0l15.3,45.9l0.1,0.2l0.2,0
	l1.3,3.9l-0.2,0l38.9,115.9v0.4l0.3,0v1.4l-0.3,0l0.2,19.9c-0.7,0.1-1.5,0.1-2.3,0.1c-1,0-2,0-3.1,0.1c-1.4,0-5.4,1.2-6.6,1.9
	c-0.5,0.3-0.8,0.8-0.8,1.4c0,0.6,0.4,1.2,0.9,1.4c0.7,0.4,2,0.8,3.2,1.2c0.8,0.3,1.5,0.5,1.9,0.7c1,0.3,2.5,0.6,4.7,0.7
	c0.8,0.1,1.6,0.1,2.3,0.1l0.7,46.1l0,0l-132.2,1.3c-4.3,0-19.3,1.4-34.3,3l0,0l-0.3,0c-4.6,0.5-9.4,1-13.8,1.6l-0.2,0l0,0
	c-9.1,1.1-16.7,2.2-19.8,3l-14.9,3.2h-0.1v0.5l0,0l0,0c0.1,0,0.1,0.1,0.2,0.1l0.2,0.1c1.2,0.4,3.2,1,4.9,1.2
	c-4.2,1.6-27.3,7.7-42.7,9l-1.4,0.1l1.3,0.4c5.2,1.6,12.6,2.8,22.1,3.5c12.2,0.9,35.3,3.2,56.2,5.4c26.1,0.9,33,2.6,33,3.5
	c0,0.4-1.6,2.3-32.7,4c-5,0.6-10.2,1.3-15.4,2c-15.3,2-31.2,4.1-41,4.8c-10.7,0.8-18.8,2-24.2,3.4l-1.7,0.4l1.7,0.1
	c15.2,0.9,38,6.1,42.3,7.5c-1.9,0.2-4,1-4.6,1.2c-0.1,0-0.2,0.1-0.2,0.1l0,0.5l16,2.8c3.1,0.7,11.1,1.5,20.8,2.3v0l0.2,0
	c2.4,0.2,4.9,0.4,7.5,0.6c2.1,0.2,4.2,0.3,6.3,0.5l0.3,0l0-0.1c14.8,1.1,29.5,1.9,34.4,1.9c0.1,0,0.3,0,0.4,0l133.5-1.3l0.4,46.2
	c-0.8,0-1.7,0.1-2.5,0.2c-1.8,0.1-3.6,0.4-4.6,0.8c-0.4,0.2-1,0.4-1.7,0.6c-1.2,0.5-2.6,1-3.4,1.4c-0.5,0.3-0.9,0.9-0.9,1.5
	c0,0.6,0.3,1.1,0.8,1.4c1.3,0.7,5.3,1.8,6.7,1.8h5.4l0.2,19.7v1.6v0.4l-36.2,116.4l-0.1,0.3l0.1,0l-1.2,3.9h-0.1l-14.2,45.8H258
	l-3,9.6h-4l-0.4,3.4l10.2,0.6c0.9,0,1.8,0.1,2.6,0.1c9.5,0,16.4-2.2,21.1-11.4c0.2-0.4,0.4-0.7,0.6-1.1c0.1-0.3,0.3-0.5,0.4-0.8
	l0.1,0l0.1-0.2c3.2-6.3,7.2-14,11.7-22.9c2.4-4.7,4.9-9.6,7.6-14.8l0,0l0.1-0.2c5.2-10.1,10.9-21.2,16.8-32.8l4.7-9.2l0.1,0.1
	l0.1-0.3c3.7-7.2,7.5-14.5,11.3-21.8c3.6-7.1,7.3-14.1,10.9-21.2l0.1-0.2l-0.1-0.1l3.9-7.6c6.8-13.1,13.3-25.8,19.4-37.7
	c4.8,0.2,6.4,1.8,9.2,4.4l0.5,0.5c2.6,2.5,5,2.5,8.1,2.6c0.4,0,0.8,0,1.2,0c2.1,0.1,4.4,0.1,6.2,0.1c1.7,0,2.9,0,2.9,0l28.3-0.2
	c5.1,0,9.3-4.2,9.3-9.3l-0.4-17.6c0-5.1-4.2-9.3-9.3-9.3l-28.3-0.2c0,0-4.9,0-9.1,0.1c-0.6,0-1.1,0-1.6,0.1c-0.8,0-1.5,0-2.3,0.1
	l2.4-4.5c9.2-17.6,15.3-29.2,16.5-31.3c1.1-1.9,2.4-3.4,3.9-4.7l0.6-0.5h-0.1c5.9-4.7,12.9-5.1,13-5.1l0-0.1l0.1,0l64.8-0.6l0.4,0
	l-0.1-0.4c-5.3-14.4-29.2-12.9-29.9-12.9c-0.5,0-17.7-0.1-22-0.1c-13.4,0-19.5,0-24.2-6.1c-1.5-2-2.8-3.9-3.9-5.6
	c-1.5-2.3-2.8-4.3-4.3-5.8c-0.4-0.4-0.6-0.8-0.6-1.3s0.2-0.9,0.6-1.3C406.1,287,407.3,285.1,408.8,282.8z M316.7,185.7l11.6-0.1
	l0.2,26.7l-11.6,0.1L316.7,185.7z M420.4,189.5c0.7,0,1.1,0.5,1.1,1.1v5.4c0,0.7-0.5,1.1-1.1,1.1h-43.1c-0.4-0.7-0.8-1.4-1.1-2.1
	l-0.2-0.4l0,0l-2.8-5.1H420.4z M403.7,246.2c1,1.7,2.2,3.1,3.7,4.3l-12,0.3L371,203.2l-0.4-0.9l5.2-6.6c0.2,0.5,0.5,1.1,0.8,1.5
	l0,0.1h0l0.2,0.4c1,1.9,2.1,3.8,3.1,5.6c1.4,2.5,2.7,5,4,7.4l0.1,0.1l0.1,0C394.5,229.9,402.2,243.8,403.7,246.2L403.7,246.2z
	 M379.3,178.6c0.3-0.2,0.5-0.5,0.8-0.8c2.5-2.3,4.8-2.3,8-2.4l1,0c4.2-0.1,9-0.1,9.1-0.1l28.3,0.2c4.8,0,8.7,3.9,8.7,8.7l0.4,17.6
	c0,4.8-3.9,8.7-8.7,8.7l-28.3,0.2c0,0-4.8,0.1-9.1-0.1c-0.6,0-1.1,0-1.6-0.1c-1.3,0-2.4-0.1-3.5-0.3c0,0,0,0,0,0
	c-1.3-2.4-2.6-4.8-4-7.4c-0.9-1.7-1.9-3.4-2.8-5.1h42.8c1,0,1.7-0.7,1.7-1.7V196v-5.4v-0.1c0-1-0.7-1.7-1.7-1.7h-47.7
	c-0.4-0.6-0.7-1.2-1-1.8c-0.1-0.2-0.2-0.4-0.3-0.6l0,0l-0.2-0.4c0,0,0,0,0,0c-0.3-0.6-0.6-1.2-0.9-1.7c-0.2-0.4-0.5-0.9-0.7-1.4
	C374.7,182.8,376.5,181.1,379.3,178.6z M368.8,182.8L368.8,182.8c0.3,0.6,0.6,1.2,0.9,1.7c0.2,0.5,0.5,0.9,0.7,1.3l-8.8,0.2
	L350,163.6l-11.6-22.5l5.8-3.3C352.7,153.4,361,168.7,368.8,182.8z M344,137.2l-5.8,3.3l-21.7-42.1l4.7-3.1
	c6.7,12.2,13.6,25,20.3,37.4L344,137.2z M320.9,94.7l-4.8,3.1l-21.9-42.3l4.3-2.2c4.3,8.1,9,16.7,13.8,25.6
	C315.2,84.1,318.1,89.4,320.9,94.7z M298.2,52.9L294,55l-20.2-39l4.3-0.2l3.8,7C286.5,31.2,292.1,41.5,298.2,52.9z M251.6,16.2
	l10.4-0.3l0,0l17.4,45.1l-12.8,0.3L251.6,16.2z M268.3,66.2l0.2,0l4.2-0.2l2.3,6.1l9.8,26.5l0,0l0.1,0.2l0,0l0,0l0.1,0.2l0,0
	l9.5,25.4l-0.1,0l9.5,25.5l0,0l9.7,26l0,0l1.9,5.1l-8.6,0.2L268.3,66.2z M305.5,120.5l9.5,25.4c-2.3,0.8-6.9,2.5-10.5,3.8l-9.2-25
	L305.5,120.5z M295,124.2l-9.5-25.4l10.4-4.2l9.4,25.3L295,124.2z M285.4,98.3l-9.7-26.2l10.5-3.9l9.6,25.9L285.4,98.3z
	 M315.1,146.5l9.3,24.9l-10.5,3.9l-9.3-25C308.2,149,312.8,147.4,315.1,146.5z M316.4,181.8l-0.1-0.2l0.4,0l-2.2-5.9l11-4.1
	l-19.3-51.7l-19.4-52.2l-0.1-0.3l-11,4.1l-2.4-6.2l-4.8,0.3l-0.2,0l-1.3-3.8l13.3-0.3l-17.7-46l-0.1-0.2l-0.1,0l0,0l-0.4,0
	l-10.5,0.2L248.3,6l-4,0.1L244,3.7l9.6-0.8c10.3-0.7,18.2,0.9,23.4,10.5c0.2,0.6,0.6,1.2,0.9,1.7l-5.1,0.2l20.7,40.1l0.1,0.2l0.1,0
	l21.9,42.6l0,0l22,42.5l0,0l9.9,19.1l13.8,26.8l9.4-0.2c0.2,0.5,0.5,0.9,0.7,1.4c0.3,0.5,0.5,1,0.8,1.5l3.2,5.8l-5.6,7.1l0.6,1.3
	l24.4,47.8l0.1,0.2l13-0.3c3.1,2.6,6.8,3.9,9.6,4.6l-100,0.9l-0.4-43.5L329,213l0-0.2l0.2,0l-0.2-27.9l-12.1,0.1v-2l-9.6,0.1V182
	L316.4,181.8z M304.5,210.3c-2.1-0.1-3.6-0.4-4.5-0.7c-0.5-0.2-1.2-0.4-2-0.7c-1.2-0.4-2.5-0.8-3.1-1.2c-0.4-0.2-0.6-0.5-0.6-1
	c0-0.4,0.2-0.8,0.5-1c1.2-0.7,5.1-1.9,6.4-1.9c2-0.2,3.7,0,5.4-0.2l0.1,6.6C306.1,210.4,305.3,210.4,304.5,210.3z M307.3,211h0.2
	l-0.1-7.8l-0.2,0l-0.2-19.3l9.1-0.1l0.3,29.1l0.3,43.9H308L307.3,211z M140.3,262l0.1,5.9c0,0.9-0.3,1.7-0.9,2.4
	c-0.6,0.7-1.5,1.1-2.4,1.1l-6.4,0.1c-1.9,0-3.4-1.5-3.5-3.4l-0.1-4.4C131.3,263.1,135.8,262.5,140.3,262z M127.1,318.2
	c0-0.9,0.3-1.7,0.9-2.4c0.6-0.7,1.5-1.1,2.4-1.1l6.4-0.1c1.9,0,3.4,1.5,3.4,3.4l0.1,4.8c-4.5-0.3-9-0.7-13.2-1L127.1,318.2z
	 M297.7,375.7c-0.3-0.2-0.6-0.5-0.6-0.9c0-0.4,0.2-0.8,0.6-1c0.7-0.4,2.1-0.9,3.3-1.3c0.7-0.2,1.3-0.5,1.7-0.6
	c0.9-0.4,2.7-0.7,4.4-0.8l0,0c0.9-0.1,1.8-0.2,2.5-0.2v6.7h-5.4C302.9,377.4,298.9,376.4,297.7,375.7z M310.2,370.5L310.2,370.5
	l-0.4-46l8.7-0.2l0.6,43.9l0,0.3h0l0.2,11.1l0.2,16.3l0,0v1.5l-9.1,0.1l-0.2-19.5h0.1L310.2,370.5z M331.1,368.3l0.1,9.1l0.2,17.8
	l-4,0.1l-7.6,0.1l-0.4-26.8l5.8-0.1L331.1,368.3z M281.5,509.7l9.2-26.4l3.5,1.4l6.9,2.7l-9,26L281.5,509.7z M301.2,486.8l-6.9-2.7
	l-3.5-1.4l8.9-25.6l9.3,3.7l1.1,0.4l-2.9,8.5L301.2,486.8z M299.9,456.7l8.7-25c3.3,1,7.8,2.5,10.3,3.3c0.1,0,0.2,0.1,0.2,0.1
	c0,0,0,0,0,0l-8.9,25.7l-1.1-0.4L299.9,456.7z M319.4,434.6C319.4,434.6,319.3,434.6,319.4,434.6c-2.6-0.9-7.1-2.4-10.5-3.5
	l8.7-25.2l10.6,3.6L319.4,434.6z M317.1,405.4l-8.9,25.8l-3.6,10.5l-5.3,15.1l-0.1,0.2l-9,25.7l0,0l-0.2,0.5l0,0.1l0,0l-4.7,13.5
	l-6.7,19.3l-4.4-0.2l36.1-116l8.7,0L317.1,405.4z M272.7,520.9h12.8l-16.4,45.3h-10.5L272.7,520.9z M379,385.1l0.1,0.1l0.8-1.5h42.5
	h0.2c0.7,0,1.1,0.5,1.1,1.1v5.5c0,0.7-0.5,1.1-1.1,1.1h-46.7C376.8,389.5,377.9,387.4,379,385.1z M296.9,543.3
	c-4.5,8.7-8.4,16.4-11.6,22.6l-4.4-0.1l19.2-39.4l4.4,2.1C301.8,533.7,299.3,538.7,296.9,543.3z M321.5,495.5
	c-5.9,11.4-11.5,22.4-16.7,32.5l-4.4-2.1l20.9-42.8l4.9,3.1L321.5,495.5z M337.7,464.2c-3.7,7.2-7.5,14.5-11.1,21.5l-4.9-3.1
	l21-42.6l5.9,3.2C344.9,450.2,341.3,457.3,337.7,464.2z M352.6,435.2l-3.9,7.5l-5.9-3.2l20.5-41.9l1.8-3.6h8.8
	c-0.3,0.6-0.6,1.2-1,1.9c-0.3,0.5-0.5,1-0.8,1.6c0,0,0,0,0,0l-0.2,0.4l0,0C365.8,409.5,359.3,422.2,352.6,435.2z M389.6,369.5
	c0.5,0,1.1,0,1.6-0.1c4.2-0.1,9-0.1,9.1-0.1l28.3,0.2c4.8,0,8.7,3.9,8.7,8.7l0.4,17.6c0,4.8-3.9,8.7-8.7,8.7l-28.3,0.2
	c0,0-4.8,0.1-9.1-0.1c-0.4,0-0.8,0-1.2,0c-3.1,0-5.4-0.1-7.8-2.4l-0.5-0.5c-2.7-2.6-4.5-4.3-9.3-4.6c0.6-1.2,1.2-2.3,1.8-3.4
	c0,0,0,0,0,0l0,0c0.2-0.4,0.4-0.8,0.7-1.2c0.1-0.2,0.2-0.5,0.4-0.7h46.9h0.1c1,0,1.7-0.7,1.7-1.7v-5.5c0-0.9-0.6-1.5-1.4-1.7V383
	h-42.7c2.2-4.2,4.2-8.2,6.2-12.1l0.6-1.2C387.8,369.6,388.7,369.5,389.6,369.5z M405.7,333c-1.2,2.1-7.3,13.7-16.5,31.4l-2.6,4.9
	c0,0-0.1,0-0.1,0l-0.1,0l-0.1,0.1c-1,2-2,4-3.1,6.1c-1.3,2.5-2.6,5.1-4,7.7l-0.2,0.4h0.1l-0.3,0.5l-5.2-6.3l0.3-0.7l23.3-48.4h11.9
	C407.8,329.8,406.7,331.3,405.7,333z M409.8,327.9h-13l-23.5,48.8l-0.5,1.1l4.8,5.8l0.9,1.1c-1.2,2.2-2.3,4.5-3.5,6.8
	c-0.2,0.4-0.5,0.8-0.7,1.2c-0.1,0.2-0.2,0.5-0.4,0.7h-9.4l-2,4L321,482.5l-41,83.9l0,0l0,0.1l4.9,0.1c-0.1,0.2-0.2,0.4-0.3,0.6
	c-0.2,0.3-0.3,0.7-0.6,1c-5,9.7-12.6,11.4-23.2,11.1l-9.6-0.6l0.2-2.4h4l2.9-9.4h11.2l16.8-46.5h0l0-0.1H273l1.2-3.8l4.9,0.1v0
	l0.1,0l2.1-6.2l11,3.8l0-0.1l0.1,0l20.8-59.9l6.5-18.8l0,0l9.1-26.1l0,0l0-0.1l-11.1-3.8l2.1-6h-0.1h-9.4V398l9.6-0.1v-2l7.3-0.1
	l4.8-0.1l0,0l0,0l-0.3-18.5l-0.1-9.4l0,0l0,0l-5.8,0.1l-6.3,0.1l-0.6-40.8l0-2.9l100.8-1.2C417.1,323.7,413.2,325.1,409.8,327.9z
	 M403.3,290.1c0,0.6,0.3,1.2,0.8,1.7c1.5,1.5,2.8,3.5,4.3,5.7c1.1,1.7,2.4,3.6,3.9,5.6c4.9,6.3,11.5,6.3,24.6,6.3
	c4.3,0,21.8,0.1,22,0.1l0,0c0.2,0,23.7-1.6,29.2,12.2l-64.4,0.6l-247.9,2.5c-0.1,0-0.3,0-0.4,0c-4.9,0-19.7-0.8-34.4-1.9l-0.1-4.9
	c0-2.2-1.8-4-4-4l-6.4,0.1c-1.1,0-2.1,0.4-2.8,1.2c-0.7,0.8-1.1,1.7-1,2.7v3.7c-9.6-0.8-17.6-1.7-20.7-2.3l-15-2.6
	c1.1-0.4,2.9-0.9,4.6-1c0.4,0,0.4-0.2,0.4-0.3c0-0.9-12.9-3.6-15.5-4.2c-5.9-1.2-16.8-3.2-26.2-3.9c5.3-1.2,12.9-2.2,22.4-3
	c9.8-0.7,25.7-2.8,41-4.8c5.2-0.7,10.4-1.4,15.4-2c33.2-1.8,33.2-3.9,33.2-4.6c0-2.4-18.3-3.5-33.5-4.1c-20.9-2.2-44-4.5-56.2-5.4
	c-8.6-0.7-15.5-1.7-20.6-3.1c15.2-1.6,42.3-8.2,42.3-9.6c0-0.1-0.1-0.3-0.4-0.3c-1.6-0.1-3.5-0.6-4.9-1.1l14.1-3
	c2.9-0.7,10.5-1.8,19.7-2.9l0.1,4.4c0.1,2.2,1.9,4,4.1,4h0l6.4-0.1c1.1,0,2.1-0.4,2.8-1.2c0.7-0.8,1.1-1.7,1-2.8l-0.1-5.9
	c14.7-1.6,29.5-3,34.3-3l313.3-3.1c-5.7,15.3-29.1,14.7-29.7,14.7l0,0c-0.2,0-17.6,0.1-22,0.1c-13.2,0-19.8,0-24.6,6.3
	c-1.6,2.1-2.8,4-3.9,5.6c-1.4,2.2-2.6,4.1-4.3,5.9C403.5,288.9,403.3,289.5,403.3,290.1z"/>
    <g>
        <path fill="#1A1A1A" d="M586,275.5c0.1,0,6,3.9,7.7,9.3l0.1,0.2h7.3l-0.1-0.3c-1.8-6.3-5.7-11.3-11.5-14.9l-0.2-0.1l-3.4,5.8
		L586,275.5z"/>
        <path fill="#1A1A1A" d="M584.5,273.3l0.2,0.1l2.9-4.8l-0.1-0.2c-2.7-3.1-9.6-3.9-9.9-3.9l-0.3,0l-0.8,6.1l0.3,0
		C579.6,270.8,584.4,273.3,584.5,273.3z"/>
        <path fill="#1A1A1A" d="M575.2,269.8l0.3,0.1l0.7-5.6l-0.2-0.1c-4.6-1.8-9.1-1.1-9.2-1.1l-0.2,0l-0.1,5.8l0.3,0
		C570.3,268.6,575.2,269.8,575.2,269.8z"/>
        <path fill="#1A1A1A" d="M593.1,289.1c-1.5,5.3-7.2,9.5-7.3,9.6l-0.2,0.2l3.7,5.6l0.2-0.2c5.8-3.9,9.5-9,10.9-15.4l0.1-0.3l-7.4,0.3
		L593.1,289.1z"/>
        <path fill="#1A1A1A" d="M584.6,300.9c0,0-4.8,2.8-7.5,3.1l-0.3,0l1.1,6l0.3,0c0.3,0,7.1-1.1,9.8-4.3l0.1-0.2l-3.3-4.8L584.6,300.9z"/>
        <path fill="#1A1A1A" d="M575.5,304.8c0,0-4.8,1.4-8.4,1.2l-0.3,0l0.4,5.8l0.2,0c0.1,0,0.6,0.1,1.4,0.1c1.7,0,4.7-0.2,7.8-1.6l0.2-0.1
		l-1.1-5.5L575.5,304.8z"/>
    </g>
</svg>
