<?xml version="1.0" encoding="utf-8"?>
<!-- Generator: Adobe Illustrator 22.0.1, SVG Export Plug-In . SVG Version: 6.00 Build 0)  -->
<svg version="1.1" id="Layer_1" xmlns="http://www.w3.org/2000/svg" xmlns:xlink="http://www.w3.org/1999/xlink" x="0px" y="0px"
	 viewBox="0 0 636.9 584.5" style="enable-background:new 0 0 636.9 584.5;" xml:space="preserve">
<g>
	<g>
		<g>
			<path style="fill:#00A7E1;stroke:#4D4D4D;stroke-width:0.55;stroke-miterlimit:10;" d="M82.5,292.2l33.9-0.5
				c1.7,0,3.3,0.9,4.1,2.3l36.8-0.4c-10.3-0.8-27.4-2.4-39.5-4.9c-4.4-0.9-6.9-2-8.4-3.1l-30.9,6.7L82.5,292.2L82.5,292.2z"/>
			<path style="fill:#00A7E1;stroke:#4D4D4D;stroke-width:0.55;stroke-miterlimit:10;" d="M158.3,297.8l-37.7,1
				c-0.8,1.4-2.3,2.4-4.1,2.4L78,301.8v0.6l32.5,4.8c2-1.4,5.6-2.9,12.1-4.1C135,300.7,149.6,298.8,158.3,297.8z"/>
			<g>
				<path style="fill:none;" d="M580.6,262.6c0,0,24.1,13.9,24.1,23c0,11.2-24.1,24.5-24.1,24.5c3.2,0,30.3-3.6,30.3-23.8
					C610.9,268.9,588,263,580.6,262.6z"/>
				<path style="fill:#00A7E1;stroke:#4D4D4D;stroke-width:0.55;stroke-miterlimit:10;" d="M564,311.2h-7.4c-0.6,0-1.1,0.5-1.1,1.1
					v3.7c3.2-0.1,6.4-0.3,9.5-0.5v-3.2C565.1,311.6,564.6,311.2,564,311.2z"/>
				<path style="fill:#00A7E1;stroke:#4D4D4D;stroke-width:0.55;stroke-miterlimit:10;" d="M553.2,267.2h9.3c1.7,0,3-1.4,3-3V258
					c-4.5,0-10,0-15.4,0.1v6.1C550.2,265.8,551.6,267.2,553.2,267.2z"/>
				<path style="fill:#00A7E1;stroke:#4D4D4D;stroke-width:0.55;stroke-miterlimit:10;" d="M619.8,269.2
					c-6.3-3.3-38.9-11.2-53.1-11.2c-0.4,0-0.7,0-1.1,0v6.2c0,1.7-1.4,3-3,3h-9.3c-1.7,0-3-1.4-3-3V258c-10.2,0.1-19.6,0.2-19.6,0.2
					l-30.5,0.6c-3.2,7.2-10.3,11.9-18.2,12.1l-35,0.9c-5.3,0.1-10.3,2.8-13.4,7.1l-6.5,9.2c-0.6,0.8-0.5,1.8,0.1,2.6l7.2,8.9
					c3.2,3.9,7.9,6.1,13,6.1l35.1-0.4c6.8-0.1,13.2,3.2,17,8.8l2.2,3.2l30-0.6c0,0,11.6-0.2,24-0.7v-3.7c0-0.6,0.5-1.1,1.1-1.1h7.4
					c0.6,0,1.1,0.5,1.1,1.1v3.2c6.5-0.4,12.4-0.8,16.2-1.4c13.1-2,34.8-9.4,42.3-13.8v-28.9C622.2,270.5,620.9,269.8,619.8,269.2z
					 M580.6,310.1c0,0,24.1-13.3,24.1-24.5c0-9.1-24.1-23-24.1-23c7.4,0.4,30.3,6.4,30.3,23.8C610.9,306.5,583.8,310.1,580.6,310.1z
					"/>
			</g>
			<path style="fill:#FFFFFF;stroke:#666666;stroke-width:0.55;stroke-miterlimit:10;" d="M499.4,314.1c-3.9-5.6-10.3-8.9-17-8.8
				l-35.1,0.4c-5,0.1-9.8-2.2-13-6.1l-7.2-8.9c-0.6-0.7-0.6-1.8-0.1-2.6l6.5-9.2c3.1-4.4,8.1-7,13.4-7.1l35-0.9
				c7.9-0.2,15-5,18.2-12.1L230.5,264c-0.4,0-0.8,0.1-1.3,0.1c-14.1,0.8-29.7,2.5-46.4,5.3c-14.9,2.5-28.6,5.7-40.9,9.1l-32.6,7.1
				c1.4,1.1,4,2.2,8.4,3.1c12.2,2.5,29.3,4.1,39.5,4.9l31.6-0.4c1.4,0,3.2,0.4,3.2,2.1c0,1.4-1.3,1.7-2.7,1.7l-31.1,0.8
				c-8.7,1.1-23.3,3-35.8,5.3c-6.5,1.2-10.1,2.7-12.1,4.1l31.2,4.6c12.5,2.5,26,4.8,40.3,6.5c17.5,2.2,33.9,3.4,49.1,3.9
				c1.1,0,2.2,0.1,3.4,0.1l267.2-5.1L499.4,314.1z"/>
			<path style="fill:#00A7E1;stroke:#4D4D4D;stroke-width:0.55;stroke-miterlimit:10;" d="M623.6,271.3v28.9c0.5-0.3,1-0.6,1.4-0.9
				c6.1-4.4,11.2-8.7,11.2-14.3C635.7,279.8,629,274.6,623.6,271.3z"/>
			<path style="fill:#CBCBCB;stroke:#4D4D4D;stroke-width:0.55;stroke-miterlimit:10;" d="M234.2,262.8c3.6-0.1,6.4-2.3,6.4-5.1
				l-0.5-19c-0.1-2.7-2.9-4.8-6.3-4.9C233.8,241.6,234.1,261.1,234.2,262.8L234.2,262.8z"/>
			<path style="fill:#FFFFFF;stroke:#666666;stroke-width:0.55;stroke-miterlimit:10;" d="M161.5,263.8h2l-11.4-4.7
				C154.2,261.9,157.6,263.8,161.5,263.8z"/>
			<path style="fill:#FFFFFF;stroke:#666666;stroke-width:0.55;stroke-miterlimit:10;" d="M161.3,234.7c-3.8,0-7.1,1.8-9.2,4.5
				l10-4.5H161.3z"/>
			<path style="fill:#FFFFFF;stroke:#666666;stroke-width:0.55;stroke-miterlimit:10;" d="M165.6,260.2l-0.5-21.6l-12.1,3.9h-2.7
				c-0.5,1.3-0.7,2.7-0.7,4.2l0.1,5.5c0,1.5,0.4,2.9,0.9,4.2h3.9L165.6,260.2z"/>
			<path style="fill:#FFFFFF;stroke:#666666;stroke-width:0.55;stroke-miterlimit:10;" d="M166.1,234.7
				C166.1,234.7,166,234.7,166.1,234.7L166.1,234.7L166.1,234.7z"/>
			<path style="fill:#FFFFFF;stroke:#666666;stroke-width:0.55;stroke-miterlimit:10;" d="M152,259.1L152,259.1L152,259.1
				C152.1,259.1,152,259.1,152,259.1z"/>
			<path style="fill:#FFFFFF;stroke:#666666;stroke-width:0.55;stroke-miterlimit:10;" d="M166.1,263.8h-0.5v-0.1h-2.2h-2
				c-3.8,0-7.3-1.8-9.4-4.7l0,0l-10.1,19.4c12.4-3.4,26-6.5,40.9-9.1c16.7-2.9,32.3-4.5,46.4-5.3c0-0.4,0-0.8,0-1.2L166.1,263.8z"/>
			<polygon style="fill:#FFFFFF;stroke:#666666;stroke-width:0.55;stroke-miterlimit:10;" points="165.7,263.8 165.7,263.8 
				166.1,263.8 166.1,263.8 			"/>
			<g>
				<path style="fill:#FFFFFF;stroke:#666666;stroke-width:0.55;stroke-miterlimit:10;" d="M165.9,234.7h-3.8l-10,4.5l-7.3,3.3h5.5
					h2.7l12.1-3.9l-0.1-3.9h1.1l0,0C166,234.7,165.9,234.7,165.9,234.7z"/>
				<path style="fill:#FFFFFF;stroke:#666666;stroke-width:0.55;stroke-miterlimit:10;" d="M154.4,256.5h-3.9h-4.9l6.3,2.6l0,0l0,0
					l11.4,4.7h2.2l-0.1-3.6L154.4,256.5z"/>
			</g>
			<path style="fill:#002A3A;stroke:#4D4D4D;stroke-width:0.55;stroke-miterlimit:10;" d="M233.7,233.7c-0.1,0-0.2,0-0.3,0l-67.4,1
				h-0.1h-1.1l0.1,3.9l0.5,21.6l0.1,3.6h0.5v0.1l63.1-0.9l4.9-0.1C234.1,261.1,233.8,241.6,233.7,233.7z"/>
			<path style="fill:#CBCBCB;stroke:#4D4D4D;stroke-width:0.55;stroke-miterlimit:10;" d="M242.7,347.4l-0.2-19.1c0-2.8-3-5-6.5-4.9
				l0,0c0,1.7,0.4,21.2,0.6,29.1C240,352.3,242.8,350.1,242.7,347.4z"/>
			<path style="fill:#FFFFFF;stroke:#666666;stroke-width:0.55;stroke-miterlimit:10;" d="M168.8,353.9
				C168.9,353.9,168.9,353.9,168.8,353.9L168.8,353.9L168.8,353.9z"/>
			<path style="fill:#FFFFFF;stroke:#666666;stroke-width:0.55;stroke-miterlimit:10;" d="M167.7,350l-0.2-21.6l-11,4.1l-3.9,0.1
				c-0.5,1.3-0.8,2.8-0.7,4.3l0.1,5.5c0,1.5,0.3,2.9,0.9,4.2l2.7-0.1L167.7,350z"/>
			<path style="fill:#FFFFFF;stroke:#666666;stroke-width:0.55;stroke-miterlimit:10;" d="M164.2,354.1h0.7l-10.1-4.2
				C157,352.6,160.4,354.2,164.2,354.1z"/>
			<path style="fill:#FFFFFF;stroke:#666666;stroke-width:0.55;stroke-miterlimit:10;" d="M163.3,325c-3.8,0.1-7.2,2.1-9.2,5
				l11.3-5.1L163.3,325z"/>
			<path style="fill:#FFFFFF;stroke:#666666;stroke-width:0.55;stroke-miterlimit:10;" d="M168.8,353.9h-1.1V350l-12.2-3.4l-2.7,0.1
				l-5.5,0.2l7.4,3l10.1,4.2l3.8-0.1C168.8,353.9,168.8,353.9,168.8,353.9L168.8,353.9z"/>
			<path style="fill:#FFFFFF;stroke:#666666;stroke-width:0.55;stroke-miterlimit:10;" d="M154.1,330L154.1,330L154.1,330
				C154,330.1,154,330,154.1,330z"/>
			<path style="fill:#FFFFFF;stroke:#666666;stroke-width:0.55;stroke-miterlimit:10;" d="M231.1,323.5c0-0.4,0-0.8,0-1.2
				c-15.2-0.5-31.7-1.7-49.1-3.9c-14.3-1.8-27.8-4-40.3-6.5L154,330l0,0c2.1-2.9,5.4-4.9,9.2-5l2-0.1l2.2-0.1v-0.1h0.5L231.1,323.5z
				"/>
			<polygon style="fill:#FFFFFF;stroke:#666666;stroke-width:0.55;stroke-miterlimit:10;" points="167.5,324.9 168,324.9 
				167.9,324.8 167.5,324.8 			"/>
			<path style="fill:#FFFFFF;stroke:#666666;stroke-width:0.55;stroke-miterlimit:10;" d="M167.5,324.9l-2.2,0.1l-11.3,5.1l0,0l0,0
				l-6.2,2.8l4.9-0.2l3.9-0.1l11-4.1L167.5,324.9z"/>
			<path style="fill:#002A3A;stroke:#4D4D4D;stroke-width:0.55;stroke-miterlimit:10;" d="M236,323.4l-4.9,0.1l-63.1,1.3v0.1h-0.5
				v3.6l0.2,21.6v3.9h1.1h0.1l67.4-1.4c0.1,0,0.2,0,0.3,0C236.4,344.6,236,325.1,236,323.4z"/>
			<polygon style="fill:#00A7E1;stroke:#4D4D4D;stroke-width:0.55;stroke-miterlimit:10;" points="78.4,292.3 78.4,292.3 
				78.2,292.3 78.2,292.3 			"/>
			<polygon style="fill:#00A7E1;stroke:#4D4D4D;stroke-width:0.55;stroke-miterlimit:10;" points="82.5,292.2 82.5,292.2 
				78.4,292.3 78.4,292.3 			"/>
			<polygon style="fill:#00A7E1;stroke:#4D4D4D;stroke-width:0.55;stroke-miterlimit:10;" points="78.4,292.3 78.2,292.3 
				78.3,292.3 			"/>
			<path style="fill:#00A7E1;stroke:#4D4D4D;stroke-width:0.55;stroke-miterlimit:10;" d="M87.2,296.4c0,0.2,0.1,0.3,0.1,0.5
				C87.3,296.7,87.3,296.5,87.2,296.4z"/>
			<path style="fill:#00A7E1;stroke:#4D4D4D;stroke-width:0.55;stroke-miterlimit:10;" d="M87.3,296.9c0,0.2,0,0.3,0,0.5
				C87.3,297.2,87.3,297.1,87.3,296.9z"/>
			<path style="fill:#00A7E1;stroke:#4D4D4D;stroke-width:0.55;stroke-miterlimit:10;" d="M188.8,293.2l-31.6,0.4l-36.8,0.4
				c0.4,0.7,0.7,1.5,0.7,2.4s-0.2,1.7-0.6,2.4l37.7-1l31.1-0.8c1.4,0,2.7-0.4,2.7-1.7C192,293.5,190.2,293.1,188.8,293.2z"/>
			<path style="fill:#00A7E1;stroke:#4D4D4D;stroke-width:0.55;stroke-miterlimit:10;" d="M120.4,293.9c-0.9-1.4-2.4-2.3-4.1-2.3
				l-33.9,0.5c2.5,0,4.5,1.8,4.8,4.2c0,0.2,0.1,0.3,0.1,0.5s0,0.3,0,0.5c-0.2,2.4-2.2,4.3-4.6,4.3l-4.7,0.1l38.5-0.6
				c1.8,0,3.3-1,4.1-2.4c0.4-0.7,0.6-1.5,0.6-2.4C121.2,295.5,120.9,294.6,120.4,293.9z"/>
			<path style="fill:#00A7E1;stroke:#4D4D4D;stroke-width:0.55;stroke-miterlimit:10;" d="M5.4,386.1c0,0,17,0.7,22.4-1.9l2-3.3
				l-23.2-0.5L5.4,386.1z"/>
			<path style="fill:#00A7E1;stroke:#4D4D4D;stroke-width:0.55;stroke-miterlimit:10;" d="M24,212c0,0-2.6-2.2-23.2-2.1l1.3,5.2
				c5.9-0.2,17.7-0.5,23.6-0.7L24,212z"/>
			<path style="fill:#00A7E1;stroke:#4D4D4D;stroke-width:0.55;stroke-miterlimit:10;" d="M69.2,292.4l9-0.1l-52.6-77.8
				c-5.9,0.2-17.7,0.5-23.6,0.7l1.7,6.6h6.8l25.3,68.4l-14.1,1.6l0.3,1.3l39.6-0.5L69.2,292.4z"/>
			<polygon style="fill:#00A7E1;stroke:#4D4D4D;stroke-width:0.55;stroke-miterlimit:10;" points="23,303.1 22.7,304.3 36.6,305.5 
				14.9,374.2 7.9,374.2 6.6,380.3 29.8,380.8 77.9,302.4 22.9,302.8 			"/>
			<polygon style="fill:#00A7E1;stroke:#4D4D4D;stroke-width:0.55;stroke-miterlimit:10;" points="22.1,293.1 61.7,292.5 
				22.1,293.1 			"/>
			<polygon style="fill:#00A7E1;stroke:#4D4D4D;stroke-width:0.55;stroke-miterlimit:10;" points="22.9,302.7 22.9,302.8 
				77.9,302.4 77.9,301.8 			"/>
			<polygon style="fill:#00A7E1;stroke:#4D4D4D;stroke-width:0.55;stroke-miterlimit:10;" points="69.2,292.4 61.7,292.5 
				61.7,292.5 			"/>
			<polygon style="fill:#00A7E1;stroke:#4D4D4D;stroke-width:0.55;stroke-miterlimit:10;" points="22.9,302.7 22.9,302.7 
				77.9,301.8 77.9,301.8 			"/>
			<polygon style="fill:#00A7E1;stroke:#4D4D4D;stroke-width:0.55;stroke-miterlimit:10;" points="61.7,292.5 22.1,293.1 
				22.1,293.1 			"/>
			<polygon style="fill:#00A7E1;stroke:#4D4D4D;stroke-width:0.55;stroke-miterlimit:10;" points="78.2,292.3 78.2,292.3 
				69.2,292.4 			"/>
			<polygon style="fill:#00A7E1;stroke:#4D4D4D;stroke-width:0.55;stroke-miterlimit:10;" points="78.3,292.3 78.2,292.3 
				69.2,292.4 61.7,292.5 			"/>
			<path style="fill:#00A7E1;stroke:#4D4D4D;stroke-width:0.55;stroke-miterlimit:10;" d="M84.9,299.4l-6.8,0.1l-50.3,0.8
				c-1.4,0-2.5-1.1-2.5-2.4c0-1.4,1.1-2.5,2.4-2.5l50.6-0.8l6.6-0.1c1.2,0,2.2,0.8,2.5,1.9c-0.3-2.4-2.3-4.2-4.8-4.2l-4,0.1h-0.2
				l-16.6,0.2l-39.6,0.6L11,293.3c-3.6,1-3.9,8.9,0.7,9.5l11.3-0.2l55-0.9l4.7-0.1c2.5,0,4.4-1.9,4.6-4.3
				C87,298.5,86.1,299.4,84.9,299.4z"/>
			<path style="fill:#00A7E1;stroke:#4D4D4D;stroke-width:0.55;stroke-miterlimit:10;" d="M87.2,296.4c-0.2-1.1-1.3-2-2.5-1.9
				l-6.6,0.1l-50.6,0.8c-1.4,0-2.5,1.1-2.4,2.5c0,1.4,1.1,2.5,2.5,2.4l50.3-0.8l6.8-0.1c1.2,0,2.2-0.9,2.4-2c0-0.2,0-0.3,0-0.5
				C87.3,296.7,87.3,296.6,87.2,296.4z"/>
			<polygon style="fill:#00A7E1;stroke:#4D4D4D;stroke-width:0.55;stroke-miterlimit:10;" points="10.6,221.8 3.8,221.8 21.8,291.7 
				35.9,290.2 			"/>
			<polygon style="fill:#00A7E1;stroke:#4D4D4D;stroke-width:0.55;stroke-miterlimit:10;" points="36.6,305.5 22.7,304.3 7.9,374.2 
				14.9,374.2 			"/>
			<path style="fill:#01151D;stroke:#1A1A1A;stroke-width:0.55;stroke-miterlimit:10;" d="M580.6,262.6c0,0,24.1,13.9,24.1,23
				c0,11.2-24.1,24.5-24.1,24.5c3.2,0,30.3-3.6,30.3-23.8C610.9,268.9,588,263,580.6,262.6z"/>
			<path style="opacity:0.6;fill:#666666;enable-background:new    ;" d="M226.6,320.4l-3.4,0.1c-0.7,0-1.2,0.6-1.2,1.2v0.2
				c2,0.1,3.9,0.2,5.9,0.3v-0.6C227.8,320.9,227.3,320.4,226.6,320.4z"/>
			<path style="opacity:0.6;fill:#666666;enable-background:new    ;" d="M235.6,320.2l-3.4,0.1c-0.7,0-1.2,0.6-1.2,1.2v0.7l0,0
				c1.1,0,2.2,0.1,3.4,0.1h2.5v-0.9C236.9,320.7,236.3,320.2,235.6,320.2z"/>
			<path style="opacity:0.6;fill:#666666;enable-background:new    ;" d="M244.6,320l-3.4,0.1c-0.7,0-1.2,0.6-1.2,1.2v0.9l5.9-0.1
				v-0.9C245.9,320.6,245.3,320,244.6,320z"/>
			<path style="opacity:0.6;fill:#666666;enable-background:new    ;" d="M253.6,319.9l-3.4,0.1c-0.7,0-1.2,0.6-1.2,1.2v0.9l5.9-0.1
				v-0.9C254.9,320.4,254.3,319.9,253.6,319.9z"/>
			<path style="opacity:0.6;fill:#666666;enable-background:new    ;" d="M262.6,319.7l-3.4,0.1c-0.7,0-1.2,0.6-1.2,1.2v0.9l5.9-0.1
				v-0.9C263.9,320.2,263.3,319.7,262.6,319.7z"/>
			<path style="opacity:0.6;fill:#666666;enable-background:new    ;" d="M271.6,319.5l-3.4,0.1c-0.7,0-1.2,0.6-1.2,1.2v0.9l5.9-0.1
				v-0.9C272.9,320,272.3,319.5,271.6,319.5z"/>
			<path style="opacity:0.6;fill:#666666;enable-background:new    ;" d="M280.6,319.3l-3.4,0.1c-0.7,0-1.2,0.6-1.2,1.2v0.9l5.9-0.1
				v-0.9C281.9,319.9,281.3,319.3,280.6,319.3z"/>
			<path style="opacity:0.6;fill:#666666;enable-background:new    ;" d="M289.7,319.2l-3.4,0.1c-0.7,0-1.2,0.6-1.2,1.2v0.9l5.9-0.1
				v-0.9C290.9,319.7,290.3,319.1,289.7,319.2z"/>
			<path style="opacity:0.6;fill:#666666;enable-background:new    ;" d="M298.7,319l-3.4,0.1c-0.7,0-1.2,0.6-1.2,1.2v0.9l5.9-0.1
				v-0.9C299.9,319.5,299.3,319,298.7,319z"/>
			<path style="opacity:0.6;fill:#666666;enable-background:new    ;" d="M307.7,318.8l-3.4,0.1c-0.7,0-1.2,0.6-1.2,1.2v0.9l5.9-0.1
				V320C308.9,319.3,308.3,318.8,307.7,318.8z"/>
			<path style="fill:#FFFFFF;stroke:#666666;stroke-width:0.55;stroke-miterlimit:10;" d="M332.6,312.2l-4.4,0.1
				c-1.4,0-2.5,1.2-2.5,2.5l0.1,5.8h1.7v-1c0-0.7,0.5-1.2,1.2-1.2l3.4-0.1c0.7,0,1.2,0.5,1.2,1.2v1h1.7l-0.1-5.8
				C335.1,313.3,334,312.2,332.6,312.2z"/>
			<path style="fill:#FFFFFF;stroke:#666666;stroke-width:0.55;stroke-miterlimit:10;" d="M319.5,312.5l-4.4,0.1
				c-1.4,0-2.5,1.2-2.5,2.5l0.1,5.8h1.7V320c0-0.7,0.5-1.2,1.2-1.2l3.4-0.1c0.7,0,1.2,0.5,1.2,1.2v0.9h1.7l-0.1-5.8
				C322,313.5,320.8,312.4,319.5,312.5z"/>
			<path style="opacity:0.6;fill:#666666;enable-background:new    ;" d="M320.4,319.8c0-0.7-0.6-1.2-1.2-1.2l-3.4,0.1
				c-0.7,0-1.2,0.6-1.2,1.2v0.9l5.9-0.1L320.4,319.8z"/>
			<path style="opacity:0.6;fill:#666666;enable-background:new    ;" d="M333.4,319.6c0-0.7-0.6-1.2-1.2-1.2l-3.4,0.1
				c-0.7,0-1.2,0.6-1.2,1.2v0.9l5.9-0.1L333.4,319.6z"/>
			<path style="opacity:0.6;fill:#666666;enable-background:new    ;" d="M343.7,318.1l-3.4,0.1c-0.7,0-1.2,0.6-1.2,1.2v1l5.9-0.1
				v-1C344.9,318.6,344.4,318.1,343.7,318.1z"/>
			<path style="opacity:0.6;fill:#666666;enable-background:new    ;" d="M352.7,317.9l-3.4,0.1c-0.7,0-1.2,0.6-1.2,1.2v1l5.9-0.1
				v-1C353.9,318.5,353.4,317.9,352.7,317.9z"/>
			<path style="opacity:0.6;fill:#666666;enable-background:new    ;" d="M361.7,317.7l-3.4,0.1c-0.7,0-1.2,0.6-1.2,1.2v1l5.9-0.1
				v-1C362.9,318.3,362.4,317.7,361.7,317.7z"/>
			<path style="opacity:0.6;fill:#666666;enable-background:new    ;" d="M370.7,317.6l-3.4,0.1c-0.7,0-1.2,0.6-1.2,1.2v1l5.9-0.1
				v-1C371.9,318.1,371.4,317.6,370.7,317.6z"/>
			<path style="opacity:0.6;fill:#666666;enable-background:new    ;" d="M379.7,317.4l-3.4,0.1c-0.7,0-1.2,0.6-1.2,1.2v1l5.9-0.1
				v-1C380.9,317.9,380.4,317.4,379.7,317.4z"/>
			<path style="opacity:0.6;fill:#666666;enable-background:new    ;" d="M388.7,317.2l-3.4,0.1c-0.7,0-1.2,0.6-1.2,1.2v1l5.9-0.1
				v-1C389.9,317.7,389.4,317.2,388.7,317.2z"/>
			<path style="opacity:0.6;fill:#666666;enable-background:new    ;" d="M397.7,317l-3.4,0.1c-0.7,0-1.2,0.6-1.2,1.2v1l5.9-0.1v-1
				C398.9,317.6,398.4,317,397.7,317z"/>
			<path style="opacity:0.6;fill:#666666;enable-background:new    ;" d="M406.7,316.9l-3.4,0.1c-0.7,0-1.2,0.6-1.2,1.2v1l5.9-0.1
				v-1C407.9,317.4,407.4,316.9,406.7,316.9z"/>
			<path style="opacity:0.6;fill:#666666;enable-background:new    ;" d="M415.7,316.7l-3.4,0.1c-0.7,0-1.2,0.6-1.2,1.2v1l5.9-0.1
				v-1C417,317.2,416.4,316.7,415.7,316.7z"/>
			<path style="opacity:0.6;fill:#666666;enable-background:new    ;" d="M424.7,316.5l-3.4,0.1c-0.7,0-1.2,0.6-1.2,1.2v1l5.9-0.1
				v-1C426,317,425.4,316.5,424.7,316.5z"/>
			<path style="opacity:0.6;fill:#666666;enable-background:new    ;" d="M433.7,316.3l-3.4,0.1c-0.7,0-1.2,0.6-1.2,1.2v1l5.9-0.1
				v-1C435,316.9,434.4,316.3,433.7,316.3z"/>
			<path style="opacity:0.6;fill:#666666;enable-background:new    ;" d="M442.7,316.2l-3.4,0.1c-0.7,0-1.2,0.6-1.2,1.2v1l5.9-0.1
				v-1C444,316.7,443.4,316.1,442.7,316.2z"/>
			<path style="opacity:0.6;fill:#666666;enable-background:new    ;" d="M451.7,316l-3.4,0.1c-0.7,0-1.2,0.6-1.2,1.2v1l5.9-0.1v-1
				C453,316.5,452.4,316,451.7,316z"/>
			<path style="opacity:0.6;fill:#666666;enable-background:new    ;" d="M460.7,315.8l-3.4,0.1c-0.7,0-1.2,0.6-1.2,1.2v1l5.9-0.1
				v-1C462,316.3,461.4,315.8,460.7,315.8z"/>
			<path style="opacity:0.6;fill:#666666;enable-background:new    ;" d="M469.7,315.6l-3.4,0.1c-0.7,0-1.2,0.6-1.2,1.2v1l5.9-0.1
				v-1C471,316.2,470.4,315.6,469.7,315.6z"/>
			<path style="opacity:0.6;fill:#666666;enable-background:new    ;" d="M478.8,315.5l-3.4,0.1c-0.7,0-1.2,0.6-1.2,1.2v1l5.9-0.1
				v-1C480,316,479.4,315.4,478.8,315.5z"/>
			<path style="opacity:0.6;fill:#666666;enable-background:new    ;" d="M487.8,315.3l-3.4,0.1c-0.7,0-1.2,0.6-1.2,1.2v1l5.9-0.1
				v-1C489,315.8,488.4,315.3,487.8,315.3z"/>
			<path style="opacity:0.6;fill:#666666;enable-background:new    ;" d="M496.8,315.1l-3.4,0.1c-0.7,0-1.2,0.6-1.2,1.2v1l5.9-0.1
				v-1C498,315.6,497.4,315.1,496.8,315.1z"/>
			<path style="opacity:0.6;fill:#666666;enable-background:new    ;" d="M505.8,314.9l-3.4,0.1c-0.7,0-1.2,0.6-1.2,1.2v0.4l0.4,0.6
				l5.4-0.1v-1C507,315.4,506.4,314.9,505.8,314.9z"/>
			<path style="opacity:0.6;fill:#666666;enable-background:new    ;" d="M514.5,314.8l-3.4,0.1c-0.7,0-1.2,0.6-1.2,1.2v1l5.9-0.1
				v-1C515.8,315.3,515.2,314.7,514.5,314.8z"/>
			<path style="opacity:0.6;fill:#666666;enable-background:new    ;" d="M223.3,266.1l3.4-0.1c0.7,0,1.2-0.6,1.2-1.2v-0.6
				c-1.9,0.1-3.9,0.3-5.9,0.4v0.3C222.1,265.6,222.7,266.1,223.3,266.1z"/>
			<path style="opacity:0.6;fill:#666666;enable-background:new    ;" d="M232.3,265.9l3.4-0.1c0.7,0,1.2-0.6,1.2-1.2v-0.7L231,264
				v0.7C231.1,265.4,231.7,265.9,232.3,265.9z"/>
			<path style="opacity:0.6;fill:#666666;enable-background:new    ;" d="M241.3,265.7l3.4-0.1c0.7,0,1.2-0.6,1.2-1.2v-0.7l-5.9,0.1
				v0.7C240.1,265.2,240.7,265.7,241.3,265.7z"/>
			<path style="opacity:0.6;fill:#666666;enable-background:new    ;" d="M250.4,265.6l3.4-0.1c0.7,0,1.2-0.6,1.2-1.2v-0.7l-5.9,0.1
				v0.7C249.1,265,249.7,265.6,250.4,265.6z"/>
			<path style="opacity:0.6;fill:#666666;enable-background:new    ;" d="M259.4,265.4l3.4-0.1c0.7,0,1.2-0.6,1.2-1.2v-0.7l-5.9,0.1
				v0.7C258.1,264.9,258.7,265.4,259.4,265.4z"/>
			<path style="opacity:0.6;fill:#666666;enable-background:new    ;" d="M268.4,265.2l3.4-0.1c0.7,0,1.2-0.6,1.2-1.2v-0.7l-5.9,0.1
				v0.7C267.1,264.7,267.7,265.2,268.4,265.2z"/>
			<path style="opacity:0.6;fill:#666666;enable-background:new    ;" d="M277.4,265l3.4-0.1c0.7,0,1.2-0.6,1.2-1.2V263l-5.9,0.1
				v0.7C276.1,264.5,276.7,265,277.4,265z"/>
			<path style="opacity:0.6;fill:#666666;enable-background:new    ;" d="M286.4,264.9l3.4-0.1c0.7,0,1.2-0.6,1.2-1.2v-0.7l-5.9,0.1
				v0.7C285.1,264.3,285.7,264.9,286.4,264.9z"/>
			<path style="opacity:0.6;fill:#666666;enable-background:new    ;" d="M295.4,264.7l3.4-0.1c0.7,0,1.2-0.6,1.2-1.2v-0.7l-5.9,0.1
				v0.7C294.1,264.1,294.7,264.7,295.4,264.7z"/>
			<path style="opacity:0.6;fill:#666666;enable-background:new    ;" d="M304.4,264.5l3.4-0.1c0.7,0,1.2-0.6,1.2-1.2v-0.7l-5.9,0.1
				v0.7C303.2,264,303.7,264.5,304.4,264.5z"/>
			<path style="fill:#FFFFFF;stroke:#666666;stroke-width:0.55;stroke-miterlimit:10;" d="M328.6,270.1l4.4-0.1
				c1.4,0,2.5-1.2,2.5-2.5l-0.1-5.5h-1.7v0.7c0,0.7-0.5,1.2-1.2,1.2L329,264c-0.7,0-1.2-0.5-1.2-1.2v-0.7h-1.7l0.1,5.5
				C326.1,269.1,327.2,270.2,328.6,270.1z"/>
			<path style="opacity:0.6;fill:#666666;enable-background:new    ;" d="M327.7,262.8c0,0.7,0.6,1.2,1.2,1.2l3.4-0.1
				c0.7,0,1.2-0.6,1.2-1.2V262l-5.9,0.1L327.7,262.8z"/>
			<path style="fill:#FFFFFF;stroke:#666666;stroke-width:0.55;stroke-miterlimit:10;" d="M315.5,270.4l4.4-0.1
				c1.4,0,2.5-1.2,2.5-2.5l-0.1-5.6h-1.7v0.7c0,0.7-0.5,1.2-1.2,1.2l-3.4,0.1c-0.7,0-1.2-0.5-1.2-1.2v-0.7h-1.7l0.1,5.6
				C313,269.3,314.1,270.4,315.5,270.4z"/>
			<path style="opacity:0.6;fill:#666666;enable-background:new    ;" d="M314.6,263.1c0,0.7,0.6,1.2,1.2,1.2l3.4-0.1
				c0.7,0,1.2-0.6,1.2-1.2v-0.7l-5.9,0.1L314.6,263.1z"/>
			<path style="opacity:0.6;fill:#666666;enable-background:new    ;" d="M340.4,263.8l3.4-0.1c0.7,0,1.2-0.6,1.2-1.2v-0.7l-5.9,0.1
				v0.7C339.2,263.3,339.7,263.8,340.4,263.8z"/>
			<path style="opacity:0.6;fill:#666666;enable-background:new    ;" d="M349.4,263.6l3.4-0.1c0.7,0,1.2-0.6,1.2-1.2v-0.7l-5.9,0.1
				v0.7C348.2,263.1,348.7,263.6,349.4,263.6z"/>
			<path style="opacity:0.6;fill:#666666;enable-background:new    ;" d="M358.4,263.4l3.4-0.1c0.7,0,1.2-0.6,1.2-1.2v-0.7l-5.9,0.1
				v0.7C357.2,262.9,357.7,263.5,358.4,263.4z"/>
			<path style="opacity:0.6;fill:#666666;enable-background:new    ;" d="M367.4,263.3l3.4-0.1c0.7,0,1.2-0.6,1.2-1.2v-0.7l-5.9,0.1
				v0.7C366.2,262.7,366.7,263.3,367.4,263.3z"/>
			<path style="opacity:0.6;fill:#666666;enable-background:new    ;" d="M376.4,263.1l3.4-0.1c0.7,0,1.2-0.6,1.2-1.2v-0.7l-5.9,0.1
				v0.7C375.2,262.6,375.8,263.1,376.4,263.1z"/>
			<path style="opacity:0.6;fill:#666666;enable-background:new    ;" d="M385.4,262.9l3.4-0.1c0.7,0,1.2-0.6,1.2-1.2v-0.7l-5.9,0.1
				v0.7C384.2,262.4,384.8,262.9,385.4,262.9z"/>
			<path style="opacity:0.6;fill:#666666;enable-background:new    ;" d="M394.4,262.7l3.4-0.1c0.7,0,1.2-0.6,1.2-1.2v-0.7l-5.9,0.1
				v0.7C393.2,262.2,393.8,262.7,394.4,262.7z"/>
			<path style="opacity:0.6;fill:#666666;enable-background:new    ;" d="M403.4,262.6l3.4-0.1c0.7,0,1.2-0.6,1.2-1.2v-0.7l-5.9,0.1
				v0.7C402.2,262,402.8,262.6,403.4,262.6z"/>
			<path style="opacity:0.6;fill:#666666;enable-background:new    ;" d="M412.4,262.4l3.4-0.1c0.7,0,1.2-0.6,1.2-1.2v-0.7l-5.9,0.1
				v0.7C411.2,261.9,411.8,262.4,412.4,262.4z"/>
			<path style="opacity:0.6;fill:#666666;enable-background:new    ;" d="M421.4,262.2l3.4-0.1c0.7,0,1.2-0.6,1.2-1.2v-0.7l-5.9,0.1
				v0.7C420.2,261.7,420.8,262.2,421.4,262.2z"/>
			<path style="opacity:0.6;fill:#666666;enable-background:new    ;" d="M430.5,262l3.4-0.1c0.7,0,1.2-0.6,1.2-1.2V260l-5.9,0.1
				v0.7C429.2,261.5,429.8,262,430.5,262z"/>
			<path style="opacity:0.6;fill:#666666;enable-background:new    ;" d="M439.5,261.9l3.4-0.1c0.7,0,1.2-0.6,1.2-1.2v-0.7l-5.9,0.1
				v0.7C438.2,261.3,438.8,261.9,439.5,261.9z"/>
			<path style="opacity:0.6;fill:#666666;enable-background:new    ;" d="M448.5,261.7l3.4-0.1c0.7,0,1.2-0.6,1.2-1.2v-0.7l-5.9,0.1
				v0.7C447.2,261.1,447.8,261.7,448.5,261.7z"/>
			<path style="opacity:0.6;fill:#666666;enable-background:new    ;" d="M457.5,261.5l3.4-0.1c0.7,0,1.2-0.6,1.2-1.2v-0.7l-5.9,0.1
				v0.7C456.2,261,456.8,261.5,457.5,261.5z"/>
			<path style="opacity:0.6;fill:#666666;enable-background:new    ;" d="M466.5,261.3l3.4-0.1c0.7,0,1.2-0.6,1.2-1.2v-0.7l-5.9,0.1
				v0.7C465.2,260.8,465.8,261.3,466.5,261.3z"/>
			<path style="opacity:0.6;fill:#666666;enable-background:new    ;" d="M475.5,261.1l3.4-0.1c0.7,0,1.2-0.6,1.2-1.2v-0.6l-5.9,0.1
				v0.7C474.2,260.6,474.8,261.2,475.5,261.1z"/>
			<path style="opacity:0.6;fill:#666666;enable-background:new    ;" d="M484.5,261l3.4-0.1c0.7,0,1.2-0.6,1.2-1.2v-0.6l-5.9,0.1
				v0.6C483.2,260.4,483.8,261,484.5,261z"/>
			<path style="opacity:0.6;fill:#666666;enable-background:new    ;" d="M493.5,260.8l3.4-0.1c0.7,0,1.2-0.6,1.2-1.2v-0.6l-5.9,0.1
				v0.6C492.3,260.3,492.8,260.8,493.5,260.8z"/>
			<path style="opacity:0.6;fill:#666666;enable-background:new    ;" d="M502.5,260.6l3.4-0.1c0.7,0,1.2-0.6,1.2-1.2v-0.6l-5.9,0.1
				v0.6C501.3,260.1,501.8,260.6,502.5,260.6z"/>
			<path style="opacity:0.6;fill:#666666;enable-background:new    ;" d="M511.3,260.4l3.4-0.1c0.7,0,1.2-0.6,1.2-1.2v-0.6l-5.9,0.1
				v0.6C510,259.9,510.6,260.5,511.3,260.4z"/>
		</g>
		<g>
			<polygon style="fill:#FFFFFF;stroke:#666666;stroke-width:0.55;stroke-miterlimit:10;" points="304.6,324.5 367.7,323.3 
				367.7,323.3 			"/>
			<path style="fill:#FFFFFF;stroke:#666666;stroke-width:0.55;stroke-miterlimit:10;" d="M280.6,530.1v2.2c0.4,2.5,2.7,4.4,5.2,4.3
				l8.7-0.8c4.2-0.7,7.9-2.9,10.6-6h-24.5C280.6,530,280.6,530.1,280.6,530.1z"/>
			<polygon style="fill:#FFFFFF;stroke:#666666;stroke-width:0.55;stroke-miterlimit:10;" points="296.7,324.7 304.6,324.5 
				304.6,324.5 			"/>
			<path style="fill:#FFFFFF;stroke:#666666;stroke-width:0.55;stroke-miterlimit:10;" d="M284.3,434.8l6.1-0.3l5.4-47.6H287
				c-0.6,8.6-1.1,16.2-1.4,21.5C285.3,413.6,284.9,423.2,284.3,434.8z"/>
			<path style="fill:#FFFFFF;stroke:#666666;stroke-width:0.55;stroke-miterlimit:10;" d="M291.4,324.8c0,0-2.3,32.2-4.1,58.3h9.4
				l8-58.6l-8,0.2L291.4,324.8z"/>
			<path style="fill:#FFFFFF;stroke:#666666;stroke-width:0.55;stroke-miterlimit:10;" d="M288.1,463.4l1.9-24.5h-0.3h-5.5
				c-0.3,7.7-0.7,16-1,24.5H288.1z"/>
			<path style="fill:#FFFFFF;stroke:#666666;stroke-width:0.55;stroke-miterlimit:10;" d="M296.1,445.4l-2.8-6.6H290l-1.9,24.5h-4.9
				c-0.9,21.2-1.7,42.9-2.2,55.6h4.9L296.1,445.4z"/>
			<path style="fill:#FFFFFF;stroke:#666666;stroke-width:0.55;stroke-miterlimit:10;" d="M362.3,375.3
				c10.9-26.7,22.3-52.3,22.3-52.3l-16.9,0.3l-16.5,52H362.3z"/>
			<path style="fill:#FFFFFF;stroke:#666666;stroke-width:0.55;stroke-miterlimit:10;" d="M311.8,513.9l13.8-41.3
				c0,0,19.9-54.5,29.2-78.6c2.3-6.1,4.9-12.4,7.4-18.6h-11l-29.9,94.4h-4.6l-15.1,58.4h4.7c0.8-1.2,1.4-2.5,1.9-3.9L311.8,513.9z"
				/>
			<polygon style="fill:#FFFFFF;stroke:#666666;stroke-width:0.55;stroke-miterlimit:10;" points="310.6,401.4 312.5,386.7 
				301.5,386.7 299.4,401.4 			"/>
			<path style="fill:#FFFFFF;stroke:#666666;stroke-width:0.55;stroke-miterlimit:10;" d="M320.1,344.2h-12.5l-1.8,12.7
				c3.2,0,9.3,0,12.3,0L320.1,344.2z"/>
			<polygon style="fill:#FFFFFF;stroke:#666666;stroke-width:0.55;stroke-miterlimit:10;" points="322.1,331.5 309.4,331.5 
				307.6,344.2 320.1,344.2 			"/>
			<path style="fill:#FFFFFF;stroke:#666666;stroke-width:0.55;stroke-miterlimit:10;" d="M304.6,324.5l-8,58.6h-9.4h-14
				c-1,0-1.7,0.8-1.7,1.7v0.3c0,1,0.8,1.7,1.7,1.7H287h8.8l-5.4,47.6l-6.1,0.3l-12.1,0.6c-0.9,0-1.6,0.8-1.6,1.7
				c0,1,0.8,1.7,1.7,1.7h11.9h5.5h0.3h3.3l2.8,6.6l-10.2,73.5H281c-0.2,5.9-0.4,9.9-0.4,10.9h24.5c0.5-0.5,0.9-1.1,1.3-1.7h-4.7
				l15.1-58.4h4.6l29.9-94.4l16.5-52L304.6,324.5z M310.6,401.4h-11.2l2.1-14.8h11L310.6,401.4z M320.1,344.2l-2,12.7l-2,13
				l-1.9,12.3h-12l1.7-11.9l1.9-13.5l1.8-12.7l1.8-12.7h12.7L320.1,344.2z"/>
			<path style="fill:#FFFFFF;stroke:#666666;stroke-width:0.55;stroke-miterlimit:10;" d="M318.1,356.9c-3,0-9.1,0-12.3,0l-1.9,13.5
				l12.2-0.5L318.1,356.9z"/>
			<polygon style="fill:#FFFFFF;stroke:#666666;stroke-width:0.55;stroke-miterlimit:10;" points="316.1,369.9 303.9,370.3 
				302.2,382.2 314.2,382.2 			"/>
			<polygon style="fill:#FFFFFF;stroke:#666666;stroke-width:0.55;stroke-miterlimit:10;" points="291.4,324.8 291.4,324.8 
				296.7,324.7 			"/>
			<path style="fill:#FFFFFF;stroke:#666666;stroke-width:0.55;stroke-miterlimit:10;" d="M385.9,319.5l-108.5,2.1
				c-1,0-1.7,0.8-1.7,1.8s0.8,1.7,1.8,1.7l4.5-0.1l9.4-0.2l5.3-0.1l8-0.2l63.1-1.2L386,323c0.9,0,1.6-0.7,1.7-1.6c0-0.1,0-0.1,0-0.2
				C387.7,320.2,386.9,319.4,385.9,319.5z"/>
		</g>
		<g>
			<polygon style="fill:#FFFFFF;stroke:#666666;stroke-width:0.55;stroke-miterlimit:10;" points="302.5,259.1 365.6,257.9 
				365.6,257.9 			"/>
			<path style="fill:#FFFFFF;stroke:#666666;stroke-width:0.55;stroke-miterlimit:10;" d="M270.5,54.7l-0.1-2.2
				c0.3-2.5,2.5-4.5,5.1-4.5l8.7,0.5c4.2,0.5,8,2.6,10.8,5.6L270.5,55C270.5,54.8,270.5,54.7,270.5,54.7z"/>
			<polygon style="fill:#FFFFFF;stroke:#666666;stroke-width:0.55;stroke-miterlimit:10;" points="294.6,259.3 302.5,259.1 
				302.5,259.1 			"/>
			<path style="fill:#FFFFFF;stroke:#666666;stroke-width:0.55;stroke-miterlimit:10;" d="M278,149.7l6.1,0.1l7.2,47.4l-8.8,0.3
				c-0.9-8.5-1.7-16.2-2.2-21.5C279.7,170.9,278.9,161.3,278,149.7z"/>
			<path style="fill:#FFFFFF;stroke:#666666;stroke-width:0.55;stroke-miterlimit:10;" d="M289.2,259.4c0,0-3.5-32.1-6.3-58.1
				l9.4-0.4l10.2,58.2l-8,0.2L289.2,259.4z"/>
			<path style="fill:#FFFFFF;stroke:#666666;stroke-width:0.55;stroke-miterlimit:10;" d="M280.6,121l2.8,24.4h-0.3l-5.5,0.2
				c-0.6-7.6-1.3-16-2-24.4L280.6,121z"/>
			<path style="fill:#FFFFFF;stroke:#666666;stroke-width:0.55;stroke-miterlimit:10;" d="M289.3,138.6l-2.5,6.7l-3.3,0.1l-2.8-24.4
				l-4.9,0.2c-1.7-21.1-3.3-42.8-4.3-55.4l4.9-0.2L289.3,138.6z"/>
			<path style="fill:#FFFFFF;stroke:#666666;stroke-width:0.55;stroke-miterlimit:10;" d="M358.1,206.1
				c11.9,26.2,24.3,51.4,24.3,51.4l-16.9,0.3L347,206.5L358.1,206.1z"/>
			<path style="fill:#FFFFFF;stroke:#666666;stroke-width:0.55;stroke-miterlimit:10;" d="M302.4,69.6l15.4,40.8
				c0,0,22,53.7,32.3,77.5c2.6,6,5.3,12.2,8.1,18.3l-11,0.4l-33.5-93.2l-4.6,0.2l-17.4-57.7l4.7-0.2c0.8,1.2,1.5,2.4,2.1,3.8
				L302.4,69.6z"/>
			<polygon style="fill:#FFFFFF;stroke:#666666;stroke-width:0.55;stroke-miterlimit:10;" points="305.5,182.1 308,196.7 297,197.2 
				294.3,182.5 			"/>
			<path style="fill:#FFFFFF;stroke:#666666;stroke-width:0.55;stroke-miterlimit:10;" d="M317.2,238.9l-12.5,0.5l-2.3-12.6
				c3.2-0.1,9.3-0.4,12.3-0.5L317.2,238.9z"/>
			<polygon style="fill:#FFFFFF;stroke:#666666;stroke-width:0.55;stroke-miterlimit:10;" points="319.7,251.5 307,252 304.7,239.4 
				317.2,238.9 			"/>
			<path style="fill:#FFFFFF;stroke:#666666;stroke-width:0.55;stroke-miterlimit:10;" d="M365.6,257.9l-18.5-51.3l-33.5-93.2
				l-4.6,0.2l-17.4-57.7l4.7-0.2c-0.4-0.6-0.9-1.1-1.3-1.7l-24.5,0.9c0.1,1,0.4,5,0.8,10.9l4.9-0.2l13,73l-2.5,6.7l-3.3,0.1h-0.3
				l-5.5,0.2l-11.9,0.5c-1,0-1.7,0.8-1.7,1.8c0,0.9,0.8,1.7,1.7,1.7l12.2,0.1l6.1,0.1l7.2,47.4l-8.8,0.3l-13.7,0.5
				c-1,0-1.7,0.8-1.7,1.8v0.3c0,1,0.8,1.7,1.8,1.7l14-0.5l9.4-0.4l10.2,58.2L365.6,257.9z M308,196.7l-11,0.4l-2.7-14.7l11.1-0.4
				L308,196.7z M319.7,251.5L307,252l-2.3-12.6l-2.3-12.6l-2.4-13.4l-2.1-11.8l12-0.5l2.4,12.2l2.5,12.9l2.5,12.6L319.7,251.5z"/>
			<path style="fill:#FFFFFF;stroke:#666666;stroke-width:0.55;stroke-miterlimit:10;" d="M314.7,226.3c-3,0.1-9.1,0.4-12.3,0.5
				l-2.4-13.4h12.2L314.7,226.3z"/>
			<polygon style="fill:#FFFFFF;stroke:#666666;stroke-width:0.55;stroke-miterlimit:10;" points="312.2,213.4 300,213.4 
				297.8,201.6 309.8,201.1 			"/>
			<polygon style="fill:#FFFFFF;stroke:#666666;stroke-width:0.55;stroke-miterlimit:10;" points="289.2,259.4 289.2,259.4 
				294.6,259.3 			"/>
			<path style="fill:#FFFFFF;stroke:#666666;stroke-width:0.55;stroke-miterlimit:10;" d="M383.9,261l-108.5,2.1
				c-1,0-1.8-0.7-1.8-1.7s0.7-1.8,1.7-1.8l4.5-0.1l9.4-0.2l5.3-0.1l8-0.2l63.1-1.2l18.3-0.4c0.9,0,1.7,0.7,1.8,1.5
				c0,0.1,0,0.1,0,0.2C385.7,260.2,384.9,261,383.9,261z"/>
		</g>
		<path style="fill:#002A3A;" d="M452.4,309.8h13.7c1.2,0,1.7,0.3,2.4,1.2l3.1,4.1C471.6,315.1,466.2,311.3,452.4,309.8"/>
		<path style="fill:#002A3A;" d="M452.6,268l13.7-0.8c1.2-0.1,1.7-0.4,2.3-1.4l2.8-4.3C471.4,261.5,466.2,265.6,452.6,268"/>
	</g>
</g>
</svg>
