
<svg version="1.1" id="Layer_1" xmlns="http://www.w3.org/2000/svg" xmlns:xlink="http://www.w3.org/1999/xlink" x="0px" y="0px"
	 viewBox="0 0 560 559.1" style="enable-background:new 0 0 560 559.1;" xml:space="preserve">
<style type="text/css">
	.st1{display:none;}
</style>
<rect x="0.2" y="-0.2" fill="#002A3A" width="559.5" height="559.5"/>
	<path fill="#00A7E1" d="M486,17l1.4,3.6c0.3,0.8,0.6,1.1,1.5,1.3l9.9,2.6C489.2,20.8,486,17,486,17z"/>
	<path fill="#00A7E1" d="M482.3,29.2l23.8,6.2l-1.2-2.9c-1.3-3.2-2.7-4-6.2-4.9l-16.5-4.3c-5-1.3-6.9-3.3-8.4-7.3l-3.3-8.3
		c0,0,2.6,3.8,8.5,5.3l6.2,1.6L479-0.2h-18.6l6.2,15.6C469.8,23,473.3,26.8,482.3,29.2z"/>
	<path fill="#00A7E1" d="M531.5,11.3l-3.6,1.4c-0.8,0.3-1.1,0.6-1.3,1.5l-2.6,9.9C527.7,14.4,531.5,11.3,531.5,11.3z"/>
	<path fill="#00A7E1" d="M513.2,31.3l2.9-1.2c3.2-1.3,4-2.7,4.9-6.2l4.3-16.5c1.1-4.2,2.7-6.2,5.6-7.7h-8.3c-1.3,2-2.3,4.6-3.2,7.8
		L513.2,31.3z"/>
	<path fill="#00A7E1" d="M534,10.5l15.3-6.4c2.5-1.1,4.2-2.3,5.4-4.3h-17.2c-0.7,1.2-1.4,2.7-1.8,4.5L534,10.5z"/>
	<polygon fill="#00A7E1" points="558.1,-0.2 556.3,-0.2 556.1,0.6 	"/>
	<path fill="#00A7E1" d="M538,53.7l-1.4-3.6c-0.3-0.8-0.6-1.1-1.5-1.3l-9.9-2.6C534.9,49.9,538,53.7,538,53.7z"/>
	<path fill="#00A7E1" d="M541.7,41.5L518,35.4l1.2,2.9c1.3,3.2,2.7,4,6.2,4.9l16.5,4.3c5,1.3,6.9,3.3,8.4,7.3l3.3,8.3
		c0,0-2.6-3.8-8.5-5.3l-6.2-1.6l6.4,15.3c1.8,4.3,4.1,6,9.6,7.5l4.9,1.3V61.4l-2.4-6C554.3,47.7,550.8,43.9,541.7,41.5z"/>
	<path fill="#00A7E1" d="M559.5,105.3c0.1,0.2,0.2,0.4,0.2,0.6V81.2l-11.1-2.9L559.5,105.3z"/>
	<path fill="#00A7E1" d="M497,56.5l2.6-9.9c-3.7,9.6-7.5,12.8-7.5,12.8l3.6-1.4C496.5,57.7,496.8,57.4,497,56.5z"/>
	<path fill="#00A7E1" d="M502.6,46.8l-4.3,16.5c-1.3,5-3.3,6.9-7.3,8.4l-8.3,3.3c0,0,3.8-2.6,5.3-8.5l1.6-6.2l-15.3,6.4
		c-4.3,1.8-6,4.1-7.5,9.6l-3.5,13.3l27-10.8c7.6-3.1,11.4-6.5,13.8-15.6l6.2-23.8l-2.9,1.2C504.4,41.8,503.5,43.2,502.6,46.8z"/>
	<path fill="#00A7E1" d="M435.4,101.7c-0.8,0.3-1.1,0.6-1.3,1.5l-2.6,9.9c3.7-9.6,7.5-12.8,7.5-12.8L435.4,101.7z"/>
	<path fill="#00A7E1" d="M428.4,112.9l4.3-16.5c1.3-5,3.3-6.9,7.3-8.4l8.3-3.3c0,0-3.8,2.6-5.3,8.5l-1.6,6.2l15.3-6.4
		c4.3-1.8,6-4.1,7.5-9.6l3.5-13.3l-27,10.8c-7.6,3.1-11.4,6.5-13.8,15.6l-6.2,23.8l2.9-1.2C426.6,117.8,427.5,116.5,428.4,112.9z"/>
	<path fill="#00A7E1" d="M488.9,199.7l9.9,2.6c-9.6-3.7-12.8-7.5-12.8-7.5l1.4,3.6C487.8,199.1,488,199.4,488.9,199.7z"/>
	<path fill="#00A7E1" d="M479,190.7l6.2,1.6l-6.4-15.3c-1.8-4.3-4.1-6-9.6-7.5l-13.3-3.5l10.8,27c3.1,7.6,6.5,11.4,15.6,13.8l23.8,6.2
		l-1.2-2.9c-1.3-3.2-2.7-4-6.2-4.9l-16.5-4.3c-5-1.3-6.9-3.3-8.4-7.3l-3.3-8.3C470.5,185.4,473,189.2,479,190.7z"/>
	<path fill="#00A7E1" d="M445.2,141.6l-1.4-3.6c-0.3-0.8-0.6-1.1-1.5-1.3l-9.9-2.6C442.1,137.8,445.2,141.6,445.2,141.6z"/>
	<path fill="#00A7E1" d="M448.9,129.4l-23.8-6.2l1.2,2.9c1.3,3.2,2.7,4,6.2,4.9l16.5,4.3c5,1.3,6.9,3.3,8.4,7.3l3.3,8.3
		c0,0-2.6-3.8-8.5-5.3L446,144l6.4,15.3c1.8,4.3,4.1,6,9.6,7.5l13.3,3.5l-10.8-27C461.5,135.6,458,131.8,448.9,129.4z"/>
	<path fill="#00A7E1" d="M531.5,189l-3.6,1.4c-0.8,0.3-1.1,0.6-1.3,1.5l-2.6,9.9C527.7,192.2,531.5,189,531.5,189z"/>
	<path fill="#00A7E1" d="M519.4,185.3l-6.2,23.8l2.9-1.2c3.2-1.3,4-2.7,4.9-6.2l4.3-16.5c1.3-5,3.3-6.9,7.3-8.4l8.3-3.3
		c0,0-3.8,2.6-5.3,8.5l-1.6,6.2l15.3-6.4c4.3-1.8,6-4.1,7.5-9.6l3.1-11.7v-1.4l-26.6,10.6C525.5,172.8,521.7,176.3,519.4,185.3z"/>
	<path fill="#00A7E1" d="M556.1,178.4l3.7-1.5v-12.5c-0.1,0.2-0.1,0.4-0.2,0.7L556.1,178.4z"/>
	<path fill="#00A7E1" d="M538,231.5l-1.4-3.6c-0.3-0.8-0.6-1.1-1.5-1.3l-9.9-2.6C534.9,227.7,538,231.5,538,231.5z"/>
	<path fill="#00A7E1" d="M541.7,219.3l-23.8-6.2l1.2,2.9c1.3,3.2,2.7,4,6.2,4.9l16.5,4.3c5,1.3,6.9,3.3,8.4,7.3l3.3,8.3
		c0,0-2.6-3.8-8.5-5.3l-6.2-1.6l6.4,15.3c1.8,4.3,4.1,6,9.6,7.5l4.9,1.3v-18.8l-2.4-6C554.3,225.5,550.8,221.7,541.7,219.3z"/>
	<path fill="#00A7E1" d="M559.5,283c0.1,0.2,0.2,0.4,0.2,0.6v-24.7l-11.1-2.9L559.5,283z"/>
	<path fill="#00A7E1" d="M495.7,235.8c0.8-0.3,1.1-0.6,1.3-1.5l2.6-9.9c-3.7,9.6-7.5,12.8-7.5,12.8L495.7,235.8z"/>
	<path fill="#00A7E1" d="M502.6,224.6l-4.3,16.5c-1.3,5-3.3,6.9-7.3,8.4l-8.3,3.3c0,0,3.8-2.6,5.3-8.5l1.6-6.2l-15.3,6.4
		c-4.3,1.8-6,4.1-7.5,9.6l-3.5,13.3l27-10.8c7.6-3.1,11.4-6.5,13.8-15.6l6.2-23.8l-2.9,1.2C504.4,219.6,503.5,221,502.6,224.6z"/>
	<path fill="#00A7E1" d="M435.4,279.4c-0.8,0.3-1.1,0.6-1.3,1.5l-2.6,9.9c3.7-9.6,7.5-12.8,7.5-12.8L435.4,279.4z"/>
	<path fill="#00A7E1" d="M467.5,247.9l-27,10.8c-7.6,3.1-11.4,6.5-13.8,15.6l-6.2,23.8l2.9-1.2c3.2-1.3,4-2.7,4.9-6.2l4.3-16.5
		c1.3-5,3.3-6.9,7.3-8.4l8.3-3.3c0,0-3.8,2.6-5.3,8.5l-1.6,6.2l15.3-6.4c4.3-1.8,6-4.1,7.5-9.6L467.5,247.9z"/>
	<path fill="#00A7E1" d="M488.9,377.4l9.9,2.6c-9.6-3.7-12.8-7.5-12.8-7.5l1.4,3.6C487.8,376.9,488,377.2,488.9,377.4z"/>
	<path fill="#00A7E1" d="M479,368.5l6.2,1.6l-6.4-15.3c-1.8-4.3-4.1-6-9.6-7.5l-13.3-3.5l10.8,27c3.1,7.6,6.5,11.4,15.6,13.8l23.8,6.2
		l-1.2-2.9c-1.3-3.2-2.7-4-6.2-4.9l-16.5-4.3c-5-1.3-6.9-3.3-8.4-7.3l-3.3-8.3C470.5,363.1,473,366.9,479,368.5z"/>
	<path fill="#00A7E1" d="M442.3,314.5l-9.9-2.6c9.6,3.7,12.8,7.5,12.8,7.5l-1.4-3.6C443.5,315,443.2,314.7,442.3,314.5z"/>
	<path fill="#00A7E1" d="M448.9,307.2l-23.8-6.2l1.2,2.9c1.3,3.2,2.7,4,6.2,4.9l16.5,4.3c5,1.3,6.9,3.3,8.4,7.3l3.3,8.3
		c0,0-2.6-3.8-8.5-5.3l-6.2-1.6l6.4,15.3c1.8,4.3,4.1,6,9.6,7.5l13.3,3.5l-10.8-27C461.5,313.4,458,309.5,448.9,307.2z"/>
	<path fill="#00A7E1" d="M531.5,366.8l-3.6,1.4c-0.8,0.3-1.1,0.6-1.3,1.5l-2.6,9.9C527.7,370,531.5,366.8,531.5,366.8z"/>
	<path fill="#00A7E1" d="M519.4,363.1l-6.2,23.8l2.9-1.2c3.2-1.3,4-2.7,4.9-6.2l4.3-16.5c1.3-5,3.3-6.9,7.3-8.4l8.3-3.3
		c0,0-3.8,2.6-5.3,8.5L534,366l15.3-6.4c4.3-1.8,6-4.1,7.5-9.6l3.1-11.7v-1.4l-26.6,10.6C525.5,350.6,521.7,354,519.4,363.1z"/>
	<path fill="#00A7E1" d="M556.1,356.1l3.7-1.5v-12.5c-0.1,0.2-0.1,0.4-0.2,0.7L556.1,356.1z"/>
	<path fill="#00A7E1" d="M538,409.3l-1.4-3.6c-0.3-0.8-0.6-1.1-1.5-1.3l-9.9-2.6C534.9,405.5,538,409.3,538,409.3z"/>
	<path fill="#00A7E1" d="M541.7,397.1l-23.8-6.2l1.2,2.9c1.3,3.2,2.7,4,6.2,4.9l16.5,4.3c5,1.3,6.9,3.3,8.4,7.3l3.3,8.3
		c0,0-2.6-3.8-8.5-5.3l-6.2-1.6l6.4,15.3c1.8,4.3,4.1,6,9.6,7.5l4.9,1.3v-18.8l-2.4-6C554.3,403.3,550.8,399.5,541.7,397.1z"/>
	<path fill="#00A7E1" d="M559.5,460.8c0.1,0.2,0.2,0.4,0.2,0.6v-24.7l-11.1-2.9L559.5,460.8z"/>
	<path fill="#00A7E1" d="M495.7,413.6c0.8-0.3,1.1-0.6,1.3-1.5l2.6-9.9c-3.7,9.6-7.5,12.8-7.5,12.8L495.7,413.6z"/>
	<path fill="#00A7E1" d="M502.6,402.3l-4.3,16.5c-1.3,5-3.3,6.9-7.3,8.4l-8.3,3.3c0,0,3.8-2.6,5.3-8.5l1.6-6.2l-15.3,6.4
		c-4.3,1.8-6,4.1-7.5,9.6l-3.5,13.3l27-10.8c7.6-3.1,11.4-6.5,13.8-15.6l6.2-23.8l-2.9,1.2C504.4,397.4,503.5,398.8,502.6,402.3z"/>
	<path fill="#00A7E1" d="M434,458.7l-2.6,9.9c3.7-9.6,7.5-12.8,7.5-12.8l-3.6,1.4C434.6,457.5,434.3,457.8,434,458.7z"/>
	<path fill="#00A7E1" d="M428.4,468.4l4.3-16.5c1.3-5,3.3-6.9,7.3-8.4l8.3-3.3c0,0-3.8,2.6-5.3,8.5l-1.6,6.2l15.3-6.4
		c4.3-1.8,6-4.1,7.5-9.6l3.5-13.3l-27,10.8c-7.6,3.1-11.4,6.5-13.8,15.6l-6.2,23.8l2.9-1.2C426.6,473.4,427.5,472,428.4,468.4z"/>
	<path fill="#00A7E1" d="M486,550.3l1.4,3.6c0.3,0.8,0.6,1.1,1.5,1.3l9.9,2.6C489.2,554.1,486,550.3,486,550.3z"/>
	<path fill="#00A7E1" d="M473.8,549.2l-3.3-8.3c0,0,2.6,3.8,8.5,5.3l6.2,1.6l-6.4-15.3c-1.8-4.3-4.1-6-9.6-7.5l-13.3-3.5l10.8,27
		c2,4.9,4.1,8.2,7.8,10.6h18.3l-10.6-2.8C477.2,555.2,475.3,553.2,473.8,549.2z"/>
	<path fill="#00A7E1" d="M442.3,492.2l-9.9-2.6c9.6,3.7,12.8,7.5,12.8,7.5l-1.4-3.6C443.5,492.8,443.2,492.5,442.3,492.2z"/>
	<path fill="#00A7E1" d="M448.9,485l-23.8-6.2l1.2,2.9c1.3,3.2,2.7,4,6.2,4.9l16.5,4.3c5,1.3,6.9,3.3,8.4,7.3l3.3,8.3
		c0,0-2.6-3.8-8.5-5.3l-6.2-1.6l6.4,15.3c1.8,4.3,4.1,6,9.6,7.5l13.3,3.5l-10.8-27C461.5,491.1,458,487.3,448.9,485z"/>
	<path fill="#00A7E1" d="M526.6,547.5l-2.6,9.9c3.7-9.6,7.5-12.8,7.5-12.8L528,546C527.2,546.3,526.9,546.6,526.6,547.5z"/>
	<path fill="#00A7E1" d="M525.3,540.8c1.3-5,3.3-6.9,7.3-8.4l8.3-3.3c0,0-3.8,2.6-5.3,8.5l-1.6,6.2l15.3-6.4c4.3-1.8,6-4.1,7.5-9.6
		l3.1-11.7v-1.4l-26.6,10.6c-7.6,3.1-11.4,6.5-13.8,15.6l-4.8,18.4h5.8c0.2-0.6,0.4-1.3,0.6-2L525.3,540.8z"/>
	<path fill="#00A7E1" d="M556.1,533.9l3.7-1.5v-12.5c-0.1,0.2-0.1,0.4-0.2,0.7L556.1,533.9z"/>
	<path fill="#00A7E1" d="M303.5,17l1.4,3.6c0.3,0.8,0.6,1.1,1.5,1.3l9.9,2.6C306.7,20.8,303.5,17,303.5,17z"/>
	<path fill="#00A7E1" d="M299.8,29.2l23.8,6.2l-1.2-2.9c-1.3-3.2-2.7-4-6.2-4.9l-16.5-4.3c-5-1.3-6.9-3.3-8.4-7.3l-3.3-8.3
		c0,0,2.6,3.8,8.5,5.3l6.2,1.6l-6.2-14.8H278l6.2,15.6C287.3,23,290.7,26.8,299.8,29.2z"/>
	<path fill="#00A7E1" d="M349,11.3l-3.6,1.4c-0.8,0.3-1.1,0.6-1.3,1.5l-2.6,9.9C345.2,14.4,349,11.3,349,11.3z"/>
	<path fill="#00A7E1" d="M351.4,10.5l15.3-6.4c2.5-1.1,4.2-2.3,5.4-4.3h-17.2c-0.7,1.2-1.4,2.7-1.8,4.5L351.4,10.5z"/>
	<path fill="#00A7E1" d="M330.6,31.3l2.9-1.2c3.2-1.3,4-2.7,4.9-6.2l4.3-16.5c1.1-4.2,2.7-6.2,5.6-7.7H340c-1.3,2-2.3,4.6-3.2,7.8
		L330.6,31.3z"/>
	<polygon fill="#00A7E1" points="375.6,-0.2 373.8,-0.2 373.6,0.6 	"/>
	<path fill="#00A7E1" d="M352.6,48.8l-9.9-2.6c9.6,3.7,12.8,7.5,12.8,7.5l-1.4-3.6C353.8,49.4,353.5,49.1,352.6,48.8z"/>
	<path fill="#00A7E1" d="M342.8,43.2l16.5,4.3c5,1.3,6.9,3.3,8.4,7.3l3.3,8.3c0,0-2.6-3.8-8.5-5.3l-6.2-1.6l6.4,15.3
		c1.8,4.3,4.1,6,9.6,7.5l13.3,3.5l-10.8-27c-3.1-7.6-6.5-11.4-15.6-13.8l-23.8-6.2l1.2,2.9C337.9,41.4,339.3,42.3,342.8,43.2z"/>
	<path fill="#00A7E1" d="M399.2,111.8l9.9,2.6c-9.6-3.7-12.8-7.5-12.8-7.5l1.4,3.6C398,111.2,398.3,111.6,399.2,111.8z"/>
	<path fill="#00A7E1" d="M366.2,78.3l10.8,27c3.1,7.6,6.5,11.4,15.6,13.8l23.8,6.2l-1.2-2.9c-1.3-3.2-2.7-4-6.2-4.9l-16.5-4.3
		c-5-1.3-6.9-3.3-8.4-7.3l-3.3-8.3c0,0,2.6,3.8,8.5,5.3l6.2,1.6l-6.4-15.3c-1.8-4.3-4.1-6-9.6-7.5L366.2,78.3z"/>
	<path fill="#00A7E1" d="M314.5,56.5l2.6-9.9c-3.7,9.6-7.5,12.8-7.5,12.8l3.6-1.4C313.9,57.7,314.2,57.4,314.5,56.5z"/>
	<path fill="#00A7E1" d="M320.1,46.8l-4.3,16.5c-1.3,5-3.3,6.9-7.3,8.4l-8.3,3.3c0,0,3.8-2.6,5.3-8.5l1.6-6.2l-15.3,6.4
		c-4.3,1.8-6,4.1-7.5,9.6L281,89.6l27-10.8c7.6-3.1,11.4-6.5,13.8-15.6l6.2-23.8l-2.9,1.2C321.9,41.8,321,43.2,320.1,46.8z"/>
	<path fill="#00A7E1" d="M252.8,101.7c-0.8,0.3-1.1,0.6-1.3,1.5l-2.6,9.9c3.7-9.6,7.5-12.8,7.5-12.8L252.8,101.7z"/>
	<path fill="#00A7E1" d="M245.9,112.9l4.3-16.5c1.3-5,3.3-6.9,7.3-8.4l8.3-3.3c0,0-3.8,2.6-5.3,8.5l-1.6,6.2l15.3-6.4
		c4.3-1.8,6-4.1,7.5-9.6l3.5-13.3l-27,10.8c-7.6,3.1-11.4,6.5-13.8,15.6l-6.2,23.8l2.9-1.2C244.1,117.8,245,116.5,245.9,112.9z"/>
	<path fill="#00A7E1" d="M306.4,199.7l9.9,2.6c-9.6-3.7-12.8-7.5-12.8-7.5l1.4,3.6C305.2,199.1,305.5,199.4,306.4,199.7z"/>
	<path fill="#00A7E1" d="M296.5,190.7l6.2,1.6l-6.4-15.3c-1.8-4.3-4.1-6-9.6-7.5l-13.3-3.5l10.8,27c3.1,7.6,6.5,11.4,15.6,13.8
		l23.8,6.2l-1.2-2.9c-1.3-3.2-2.7-4-6.2-4.9l-16.5-4.3c-5-1.3-6.9-3.3-8.4-7.3l-3.3-8.3C287.9,185.4,290.5,189.2,296.5,190.7z"/>
	<path fill="#00A7E1" d="M262.7,141.6l-1.4-3.6c-0.3-0.8-0.6-1.1-1.5-1.3l-9.9-2.6C259.6,137.8,262.7,141.6,262.7,141.6z"/>
	<path fill="#00A7E1" d="M266.4,129.4l-23.8-6.2l1.2,2.9c1.3,3.2,2.7,4,6.2,4.9l16.5,4.3c5,1.3,6.9,3.3,8.4,7.3l3.3,8.3
		c0,0-2.6-3.8-8.5-5.3l-6.2-1.6l6.4,15.3c1.8,4.3,4.1,6,9.6,7.5l13.3,3.5l-10.8-27C279,135.6,275.5,131.8,266.4,129.4z"/>
	<path fill="#00A7E1" d="M345.5,190.5c-0.8,0.3-1.1,0.6-1.3,1.5l-2.6,9.9c3.7-9.6,7.5-12.8,7.5-12.8L345.5,190.5z"/>
	<path fill="#00A7E1" d="M338.5,201.7l4.3-16.5c1.3-5,3.3-6.9,7.3-8.4l8.3-3.3c0,0-3.8,2.6-5.3,8.5l-1.6,6.2l15.3-6.4
		c4.3-1.8,6-4.1,7.5-9.6l3.5-13.3l-27,10.8c-7.6,3.1-11.4,6.5-13.8,15.6l-6.2,23.8l2.9-1.2C336.7,206.6,337.6,205.3,338.5,201.7z"/>
	<path fill="#00A7E1" d="M407.1,145.3l2.6-9.9c-3.7,9.6-7.5,12.8-7.5,12.8l3.6-1.4C406.5,146.5,406.9,146.2,407.1,145.3z"/>
	<path fill="#00A7E1" d="M412.7,135.6l-4.3,16.5c-1.3,5-3.3,6.9-7.3,8.4l-8.3,3.3c0,0,3.8-2.6,5.3-8.5l1.6-6.2l-15.3,6.4
		c-4.3,1.8-6,4.1-7.5,9.6l-3.5,13.3l27-10.8c7.6-3.1,11.4-6.5,13.8-15.6l6.2-23.8l-2.9,1.2C414.5,130.6,413.6,132,412.7,135.6z"/>
	<path fill="#00A7E1" d="M352.6,226.6l-9.9-2.6c9.6,3.7,12.8,7.5,12.8,7.5l-1.4-3.6C353.8,227.1,353.5,226.8,352.6,226.6z"/>
	<path fill="#00A7E1" d="M362.5,235.5l-6.2-1.6l6.4,15.3c1.8,4.3,4.1,6,9.6,7.5l13.3,3.5l-10.8-27c-3.1-7.6-6.5-11.4-15.6-13.8
		l-23.8-6.2l1.2,2.9c1.3,3.2,2.7,4,6.2,4.9l16.5,4.3c5,1.3,6.9,3.3,8.4,7.3l3.3,8.3C371.1,240.9,368.5,237.1,362.5,235.5z"/>
	<path fill="#00A7E1" d="M399.2,289.6l9.9,2.6c-9.6-3.7-12.8-7.5-12.8-7.5l1.4,3.6C398,289,398.3,289.3,399.2,289.6z"/>
	<path fill="#00A7E1" d="M392.6,296.9l23.8,6.2l-1.2-2.9c-1.3-3.2-2.7-4-6.2-4.9l-16.5-4.3c-5-1.3-6.9-3.3-8.4-7.3l-3.3-8.3
		c0,0,2.6,3.8,8.5,5.3l6.2,1.6l-6.4-15.3c-1.8-4.3-4.1-6-9.6-7.5l-13.3-3.5l10.8,27C380,290.7,383.5,294.5,392.6,296.9z"/>
	<path fill="#00A7E1" d="M313.1,235.8c0.8-0.3,1.1-0.6,1.3-1.5l2.6-9.9c-3.7,9.6-7.5,12.8-7.5,12.8L313.1,235.8z"/>
	<path fill="#00A7E1" d="M320.1,224.6l-4.3,16.5c-1.3,5-3.3,6.9-7.3,8.4l-8.3,3.3c0,0,3.8-2.6,5.3-8.5l1.6-6.2l-15.3,6.4
		c-4.3,1.8-6,4.1-7.5,9.6l-3.5,13.3l27-10.8c7.6-3.1,11.4-6.5,13.8-15.6l6.2-23.8l-2.9,1.2C321.9,219.6,321,221,320.1,224.6z"/>
	<path fill="#00A7E1" d="M252.8,279.4c-0.8,0.3-1.1,0.6-1.3,1.5l-2.6,9.9c3.7-9.6,7.5-12.8,7.5-12.8L252.8,279.4z"/>
	<path fill="#00A7E1" d="M285,247.9l-27,10.8c-7.6,3.1-11.4,6.5-13.8,15.6l-6.2,23.8l2.9-1.2c3.2-1.3,4-2.7,4.9-6.2l4.3-16.5
		c1.3-5,3.3-6.9,7.3-8.4l8.3-3.3c0,0-3.8,2.6-5.3,8.5l-1.6,6.2l15.3-6.4c4.3-1.8,6-4.1,7.5-9.6L285,247.9z"/>
	<path fill="#00A7E1" d="M306.4,377.4l9.9,2.6c-9.6-3.7-12.8-7.5-12.8-7.5l1.4,3.6C305.2,376.9,305.5,377.2,306.4,377.4z"/>
	<path fill="#00A7E1" d="M296.5,368.5l6.2,1.6l-6.4-15.3c-1.8-4.3-4.1-6-9.6-7.5l-13.3-3.5l10.8,27c3.1,7.6,6.5,11.4,15.6,13.8
		l23.8,6.2l-1.2-2.9c-1.3-3.2-2.7-4-6.2-4.9l-16.5-4.3c-5-1.3-6.9-3.3-8.4-7.3l-3.3-8.3C287.9,363.1,290.5,366.9,296.5,368.5z"/>
	<path fill="#00A7E1" d="M259.8,314.5l-9.9-2.6c9.6,3.7,12.8,7.5,12.8,7.5l-1.4-3.6C261,315,260.7,314.7,259.8,314.5z"/>
	<path fill="#00A7E1" d="M266.4,307.2l-23.8-6.2l1.2,2.9c1.3,3.2,2.7,4,6.2,4.9l16.5,4.3c5,1.3,6.9,3.3,8.4,7.3l3.3,8.3
		c0,0-2.6-3.8-8.5-5.3l-6.2-1.6l6.4,15.3c1.8,4.3,4.1,6,9.6,7.5l13.3,3.5L282,321C279,313.4,275.5,309.5,266.4,307.2z"/>
	<path fill="#00A7E1" d="M344.1,369.7l-2.6,9.9c3.7-9.6,7.5-12.8,7.5-12.8l-3.6,1.4C344.7,368.6,344.3,368.8,344.1,369.7z"/>
	<path fill="#00A7E1" d="M338.5,379.5l4.3-16.5c1.3-5,3.3-6.9,7.3-8.4l8.3-3.3c0,0-3.8,2.6-5.3,8.5l-1.6,6.2l15.3-6.4
		c4.3-1.8,6-4.1,7.5-9.6l3.5-13.3l-27,10.8c-7.6,3.1-11.4,6.5-13.8,15.6l-6.2,23.8l2.9-1.2C336.7,384.4,337.6,383,338.5,379.5z"/>
	<path fill="#00A7E1" d="M405.7,324.6c0.8-0.3,1.1-0.6,1.3-1.5l2.6-9.9c-3.7,9.6-7.5,12.8-7.5,12.8L405.7,324.6z"/>
	<path fill="#00A7E1" d="M420.6,306l-2.9,1.2c-3.2,1.3-4,2.7-4.9,6.2l-4.3,16.5c-1.3,5-3.3,6.9-7.3,8.4l-8.3,3.3c0,0,3.8-2.6,5.3-8.5
		l1.6-6.2l-15.3,6.4c-4.3,1.8-6,4.1-7.5,9.6l-3.5,13.3l27-10.8c7.6-3.1,11.4-6.5,13.8-15.6L420.6,306z"/>
	<path fill="#00A7E1" d="M352.6,404.4l-9.9-2.6c9.6,3.7,12.8,7.5,12.8,7.5l-1.4-3.6C353.8,404.9,353.5,404.6,352.6,404.4z"/>
	<path fill="#00A7E1" d="M385.6,437.9l-10.8-27c-3.1-7.6-6.5-11.4-15.6-13.8l-23.8-6.2l1.2,2.9c1.3,3.2,2.7,4,6.2,4.9l16.5,4.3
		c5,1.3,6.9,3.3,8.4,7.3l3.3,8.3c0,0-2.6-3.8-8.5-5.3l-6.2-1.6l6.4,15.3c1.8,4.3,4.1,6,9.6,7.5L385.6,437.9z"/>
	<path fill="#00A7E1" d="M396.3,462.5l1.4,3.6c0.3,0.8,0.6,1.1,1.5,1.3l9.9,2.6C399.5,466.2,396.3,462.5,396.3,462.5z"/>
	<path fill="#00A7E1" d="M392.6,474.6l23.8,6.2l-1.2-2.9c-1.3-3.2-2.7-4-6.2-4.9l-16.5-4.3c-5-1.3-6.9-3.3-8.4-7.3l-3.3-8.3
		c0,0,2.6,3.8,8.5,5.3l6.2,1.6l-6.4-15.3c-1.8-4.3-4.1-6-9.6-7.5l-13.3-3.5l10.8,27C380,468.5,383.5,472.3,392.6,474.6z"/>
	<path fill="#00A7E1" d="M313.1,413.6c0.8-0.3,1.1-0.6,1.3-1.5l2.6-9.9c-3.7,9.6-7.5,12.8-7.5,12.8L313.1,413.6z"/>
	<path fill="#00A7E1" d="M320.1,402.3l-4.3,16.5c-1.3,5-3.3,6.9-7.3,8.4l-8.3,3.3c0,0,3.8-2.6,5.3-8.5l1.6-6.2l-15.3,6.4
		c-4.3,1.8-6,4.1-7.5,9.6l-3.5,13.3l27-10.8c7.6-3.1,11.4-6.5,13.8-15.6l6.2-23.8l-2.9,1.2C321.9,397.4,321,398.8,320.1,402.3z"/>
	<path fill="#00A7E1" d="M251.5,458.7l-2.6,9.9c3.7-9.6,7.5-12.8,7.5-12.8l-3.6,1.4C252.1,457.5,251.7,457.8,251.5,458.7z"/>
	<path fill="#00A7E1" d="M245.9,468.4l4.3-16.5c1.3-5,3.3-6.9,7.3-8.4l8.3-3.3c0,0-3.8,2.6-5.3,8.5l-1.6,6.2l15.3-6.4
		c4.3-1.8,6-4.1,7.5-9.6l3.5-13.3l-27,10.8c-7.6,3.1-11.4,6.5-13.8,15.6l-6.2,23.8l2.9-1.2C244.1,473.4,245,472,245.9,468.4z"/>
	<path fill="#00A7E1" d="M303.5,550.3l1.4,3.6c0.3,0.8,0.6,1.1,1.5,1.3l9.9,2.6C306.7,554.1,303.5,550.3,303.5,550.3z"/>
	<path fill="#00A7E1" d="M291.2,549.2l-3.3-8.3c0,0,2.6,3.8,8.5,5.3l6.2,1.6l-6.4-15.3c-1.8-4.3-4.1-6-9.6-7.5l-13.3-3.5l10.8,27
		c2,4.9,4.1,8.2,7.8,10.6h18.3l-10.6-2.8C294.7,555.2,292.8,553.2,291.2,549.2z"/>
	<path fill="#00A7E1" d="M259.8,492.2l-9.9-2.6c9.6,3.7,12.8,7.5,12.8,7.5l-1.4-3.6C261,492.8,260.7,492.5,259.8,492.2z"/>
	<path fill="#00A7E1" d="M266.4,485l-23.8-6.2l1.2,2.9c1.3,3.2,2.7,4,6.2,4.9l16.5,4.3c5,1.3,6.9,3.3,8.4,7.3l3.3,8.3
		c0,0-2.6-3.8-8.5-5.3l-6.2-1.6l6.4,15.3c1.8,4.3,4.1,6,9.6,7.5l13.3,3.5l-10.8-27C279,491.1,275.5,487.3,266.4,485z"/>
	<path fill="#00A7E1" d="M344.1,547.5l-2.6,9.9c3.7-9.6,7.5-12.8,7.5-12.8l-3.6,1.4C344.7,546.3,344.3,546.6,344.1,547.5z"/>
	<path fill="#00A7E1" d="M342.8,540.8c1.3-5,3.3-6.9,7.3-8.4l8.3-3.3c0,0-3.8,2.6-5.3,8.5l-1.6,6.2l15.3-6.4c4.3-1.8,6-4.1,7.5-9.6
		l3.5-13.3l-27,10.8c-7.6,3.1-11.4,6.5-13.8,15.6l-4.8,18.4h5.8c0.2-0.6,0.4-1.3,0.6-2L342.8,540.8z"/>
	<path fill="#00A7E1" d="M405.7,502.4c0.8-0.3,1.1-0.6,1.3-1.5l2.6-9.9c-3.7,9.6-7.5,12.8-7.5,12.8L405.7,502.4z"/>
	<path fill="#00A7E1" d="M412.7,491.1l-4.3,16.5c-1.3,5-3.3,6.9-7.3,8.4l-8.3,3.3c0,0,3.8-2.6,5.3-8.5l1.6-6.2l-15.3,6.4
		c-4.3,1.8-6,4.1-7.5,9.6l-3.5,13.3l27-10.8c7.6-3.1,11.4-6.5,13.8-15.6l6.2-23.8l-2.9,1.2C414.5,486.2,413.6,487.6,412.7,491.1z"/>
	<path fill="#00A7E1" d="M121,17l1.4,3.6c0.3,0.8,0.6,1.1,1.5,1.3l9.9,2.6C124.2,20.8,121,17,121,17z"/>
	<path fill="#00A7E1" d="M117.3,29.2l23.8,6.2l-1.2-2.9c-1.3-3.2-2.7-4-6.2-4.9l-16.5-4.3c-5-1.3-6.9-3.3-8.4-7.3l-3.3-8.3
		c0,0,2.6,3.8,8.5,5.3l6.2,1.6L114-0.2H95.4l6.2,15.6C104.7,23,108.2,26.8,117.3,29.2z"/>
	<path fill="#00A7E1" d="M166.5,11.3l-3.6,1.4c-0.8,0.3-1.1,0.6-1.3,1.5l-2.6,9.9C162.7,14.4,166.5,11.3,166.5,11.3z"/>
	<path fill="#00A7E1" d="M148.1,31.3l2.9-1.2c3.2-1.3,4-2.7,4.9-6.2l4.3-16.5c1.1-4.2,2.7-6.2,5.6-7.7h-8.3c-1.3,2-2.3,4.6-3.2,7.8
		L148.1,31.3z"/>
	<path fill="#00A7E1" d="M168.9,10.5l15.3-6.4c2.5-1.1,4.2-2.3,5.4-4.3h-17.2c-0.7,1.2-1.4,2.7-1.8,4.5L168.9,10.5z"/>
	<polygon fill="#00A7E1" points="193.1,-0.2 191.3,-0.2 191,0.6 	"/>
	<path fill="#00A7E1" d="M170.1,48.8l-9.9-2.6c9.6,3.7,12.8,7.5,12.8,7.5l-1.4-3.6C171.2,49.4,171,49.1,170.1,48.8z"/>
	<path fill="#00A7E1" d="M160.3,43.2l16.5,4.3c5,1.3,6.9,3.3,8.4,7.3l3.3,8.3c0,0-2.6-3.8-8.5-5.3l-6.2-1.6l6.4,15.3
		c1.8,4.3,4.1,6,9.6,7.5l13.3,3.5l-10.8-27c-3.1-7.6-6.5-11.4-15.6-13.8l-23.8-6.2l1.2,2.9C155.4,41.4,156.8,42.3,160.3,43.2z"/>
	<path fill="#00A7E1" d="M216.7,111.8l9.9,2.6c-9.6-3.7-12.8-7.5-12.8-7.5l1.4,3.6C215.5,111.2,215.8,111.6,216.7,111.8z"/>
	<path fill="#00A7E1" d="M183.6,78.3l10.8,27c3.1,7.6,6.5,11.4,15.6,13.8l23.8,6.2l-1.2-2.9c-1.3-3.2-2.7-4-6.2-4.9l-16.5-4.3
		c-5-1.3-6.9-3.3-8.4-7.3l-3.3-8.3c0,0,2.6,3.8,8.5,5.3l6.2,1.6l-6.4-15.3c-1.8-4.3-4.1-6-9.6-7.5L183.6,78.3z"/>
	<path fill="#00A7E1" d="M132,56.5l2.6-9.9c-3.7,9.6-7.5,12.8-7.5,12.8l3.6-1.4C131.4,57.7,131.7,57.4,132,56.5z"/>
	<path fill="#00A7E1" d="M137.6,46.8l-4.3,16.5c-1.3,5-3.3,6.9-7.3,8.4l-8.3,3.3c0,0,3.8-2.6,5.3-8.5l1.6-6.2l-15.3,6.4
		c-4.3,1.8-6,4.1-7.5,9.6l-3.5,13.3l27-10.8c7.6-3.1,11.4-6.5,13.8-15.6l6.2-23.8l-2.9,1.2C139.4,41.8,138.5,43.2,137.6,46.8z"/>
	<path fill="#00A7E1" d="M70.3,101.7c-0.8,0.3-1.1,0.6-1.3,1.5l-2.6,9.9c3.7-9.6,7.5-12.8,7.5-12.8L70.3,101.7z"/>
	<path fill="#00A7E1" d="M63.4,112.9l4.3-16.5c1.3-5,3.3-6.9,7.3-8.4l8.3-3.3c0,0-3.8,2.6-5.3,8.5l-1.6,6.2L91.6,93
		c4.3-1.8,6-4.1,7.5-9.6l3.5-13.3l-27,10.8c-7.6,3.1-11.4,6.5-13.8,15.6l-6.2,23.8l2.9-1.2C61.6,117.8,62.4,116.5,63.4,112.9z"/>
	<path fill="#00A7E1" d="M123.9,199.7l9.9,2.6c-9.6-3.7-12.8-7.5-12.8-7.5l1.4,3.6C122.7,199.1,123,199.4,123.9,199.7z"/>
	<path fill="#00A7E1" d="M114,190.7l6.2,1.6l-6.4-15.3c-1.8-4.3-4.1-6-9.6-7.5l-13.3-3.5l10.8,27c3.1,7.6,6.5,11.4,15.6,13.8l23.8,6.2
		l-1.2-2.9c-1.3-3.2-2.7-4-6.2-4.9l-16.5-4.3c-5-1.3-6.9-3.3-8.4-7.3l-3.3-8.3C105.4,185.4,108,189.2,114,190.7z"/>
	<path fill="#00A7E1" d="M80.2,141.6l-1.4-3.6c-0.3-0.8-0.6-1.1-1.5-1.3l-9.9-2.6C77,137.8,80.2,141.6,80.2,141.6z"/>
	<path fill="#00A7E1" d="M83.9,129.4l-23.8-6.2l1.2,2.9c1.3,3.2,2.7,4,6.2,4.9l16.5,4.3c5,1.3,6.9,3.3,8.4,7.3l3.3,8.3
		c0,0-2.6-3.8-8.5-5.3L81,144l6.4,15.3c1.8,4.3,4.1,6,9.6,7.5l13.3,3.5l-10.8-27C96.4,135.6,93,131.8,83.9,129.4z"/>
	<path fill="#00A7E1" d="M162.9,190.5c-0.8,0.3-1.1,0.6-1.3,1.5l-2.6,9.9c3.7-9.6,7.5-12.8,7.5-12.8L162.9,190.5z"/>
	<path fill="#00A7E1" d="M156,201.7l4.3-16.5c1.3-5,3.3-6.9,7.3-8.4l8.3-3.3c0,0-3.8,2.6-5.3,8.5l-1.6,6.2l15.3-6.4
		c4.3-1.8,6-4.1,7.5-9.6l3.5-13.3l-27,10.8c-7.6,3.1-11.4,6.5-13.8,15.6l-6.2,23.8l2.9-1.2C154.2,206.6,155,205.3,156,201.7z"/>
	<path fill="#00A7E1" d="M224.6,145.3l2.6-9.9c-3.7,9.6-7.5,12.8-7.5,12.8l3.6-1.4C224,146.5,224.3,146.2,224.6,145.3z"/>
	<path fill="#00A7E1" d="M230.2,135.6l-4.3,16.5c-1.3,5-3.3,6.9-7.3,8.4l-8.3,3.3c0,0,3.8-2.6,5.3-8.5l1.6-6.2l-15.3,6.4
		c-4.3,1.8-6,4.1-7.5,9.6l-3.5,13.3l27-10.8c7.6-3.1,11.4-6.5,13.8-15.6l6.2-23.8l-2.9,1.2C232,130.6,231.1,132,230.2,135.6z"/>
	<path fill="#00A7E1" d="M170.1,226.6l-9.9-2.6c9.6,3.7,12.8,7.5,12.8,7.5l-1.4-3.6C171.2,227.1,171,226.8,170.1,226.6z"/>
	<path fill="#00A7E1" d="M180,235.5l-6.2-1.6l6.4,15.3c1.8,4.3,4.1,6,9.6,7.5l13.3,3.5l-10.8-27c-3.1-7.6-6.5-11.4-15.6-13.8l-23.8-6.2
		l1.2,2.9c1.3,3.2,2.7,4,6.2,4.9l16.5,4.3c5,1.3,6.9,3.3,8.4,7.3l3.3,8.3C188.5,240.9,186,237.1,180,235.5z"/>
	<path fill="#00A7E1" d="M216.7,289.6l9.9,2.6c-9.6-3.7-12.8-7.5-12.8-7.5l1.4,3.6C215.5,289,215.8,289.3,216.7,289.6z"/>
	<path fill="#00A7E1" d="M210.1,296.9l23.8,6.2l-1.2-2.9c-1.3-3.2-2.7-4-6.2-4.9l-16.5-4.3c-5-1.3-6.9-3.3-8.4-7.3l-3.3-8.3
		c0,0,2.6,3.8,8.5,5.3l6.2,1.6l-6.4-15.3c-1.8-4.3-4.1-6-9.6-7.5l-13.3-3.5l10.8,27C197.5,290.7,201,294.5,210.1,296.9z"/>
	<path fill="#00A7E1" d="M130.6,235.8c0.8-0.3,1.1-0.6,1.3-1.5l2.6-9.9c-3.7,9.6-7.5,12.8-7.5,12.8L130.6,235.8z"/>
	<path fill="#00A7E1" d="M137.6,224.6l-4.3,16.5c-1.3,5-3.3,6.9-7.3,8.4l-8.3,3.3c0,0,3.8-2.6,5.3-8.5l1.6-6.2l-15.3,6.4
		c-4.3,1.8-6,4.1-7.5,9.6l-3.5,13.3l27-10.8c7.6-3.1,11.4-6.5,13.8-15.6l6.2-23.8l-2.9,1.2C139.4,219.6,138.5,221,137.6,224.6z"/>
	<path fill="#00A7E1" d="M70.3,279.4c-0.8,0.3-1.1,0.6-1.3,1.5l-2.6,9.9c3.7-9.6,7.5-12.8,7.5-12.8L70.3,279.4z"/>
	<path fill="#00A7E1" d="M102.5,247.9l-27,10.8c-7.6,3.1-11.4,6.5-13.8,15.6l-6.2,23.8l2.9-1.2c3.2-1.3,4-2.7,4.9-6.2l4.3-16.5
		c1.3-5,3.3-6.9,7.3-8.4l8.3-3.3c0,0-3.8,2.6-5.3,8.5l-1.6,6.2l15.3-6.4c4.3-1.8,6-4.1,7.5-9.6L102.5,247.9z"/>
	<path fill="#00A7E1" d="M123.9,377.4l9.9,2.6c-9.6-3.7-12.8-7.5-12.8-7.5l1.4,3.6C122.7,376.9,123,377.2,123.9,377.4z"/>
	<path fill="#00A7E1" d="M114,368.5l6.2,1.6l-6.4-15.3c-1.8-4.3-4.1-6-9.6-7.5l-13.3-3.5l10.8,27c3.1,7.6,6.5,11.4,15.6,13.8l23.8,6.2
		l-1.2-2.9c-1.3-3.2-2.7-4-6.2-4.9l-16.5-4.3c-5-1.3-6.9-3.3-8.4-7.3l-3.3-8.3C105.4,363.1,108,366.9,114,368.5z"/>
	<path fill="#00A7E1" d="M77.3,314.5l-9.9-2.6c9.6,3.7,12.8,7.5,12.8,7.5l-1.4-3.6C78.5,315,78.2,314.7,77.3,314.5z"/>
	<path fill="#00A7E1" d="M83.9,307.2L60.1,301l1.2,2.9c1.3,3.2,2.7,4,6.2,4.9l16.5,4.3c5,1.3,6.9,3.3,8.4,7.3l3.3,8.3
		c0,0-2.6-3.8-8.5-5.3l-6.2-1.6l6.4,15.3c1.8,4.3,4.1,6,9.6,7.5l13.3,3.5l-10.8-27C96.4,313.4,93,309.5,83.9,307.2z"/>
	<path fill="#00A7E1" d="M161.6,369.7l-2.6,9.9c3.7-9.6,7.5-12.8,7.5-12.8l-3.6,1.4C162.1,368.6,161.8,368.8,161.6,369.7z"/>
	<path fill="#00A7E1" d="M156,379.5l4.3-16.5c1.3-5,3.3-6.9,7.3-8.4l8.3-3.3c0,0-3.8,2.6-5.3,8.5l-1.6,6.2l15.3-6.4
		c4.3-1.8,6-4.1,7.5-9.6l3.5-13.3l-27,10.8c-7.6,3.1-11.4,6.5-13.8,15.6l-6.2,23.8l2.9-1.2C154.2,384.4,155,383,156,379.5z"/>
	<path fill="#00A7E1" d="M223.2,324.6c0.8-0.3,1.1-0.6,1.3-1.5l2.6-9.9c-3.7,9.6-7.5,12.8-7.5,12.8L223.2,324.6z"/>
	<path fill="#00A7E1" d="M238,306l-2.9,1.2c-3.2,1.3-4,2.7-4.9,6.2l-4.3,16.5c-1.3,5-3.3,6.9-7.3,8.4l-8.3,3.3c0,0,3.8-2.6,5.3-8.5
		l1.6-6.2l-15.3,6.4c-4.3,1.8-6,4.1-7.5,9.6l-3.5,13.3l27-10.8c7.6-3.1,11.4-6.5,13.8-15.6L238,306z"/>
	<path fill="#00A7E1" d="M170.1,404.4l-9.9-2.6c9.6,3.7,12.8,7.5,12.8,7.5l-1.4-3.6C171.2,404.9,171,404.6,170.1,404.4z"/>
	<path fill="#00A7E1" d="M203.1,437.9l-10.8-27c-3.1-7.6-6.5-11.4-15.6-13.8l-23.8-6.2l1.2,2.9c1.3,3.2,2.7,4,6.2,4.9l16.5,4.3
		c5,1.3,6.9,3.3,8.4,7.3l3.3,8.3c0,0-2.6-3.8-8.5-5.3l-6.2-1.6l6.4,15.3c1.8,4.3,4.1,6,9.6,7.5L203.1,437.9z"/>
	<path fill="#00A7E1" d="M213.8,462.5l1.4,3.6c0.3,0.8,0.6,1.1,1.5,1.3l9.9,2.6C216.9,466.2,213.8,462.5,213.8,462.5z"/>
	<path fill="#00A7E1" d="M210.1,474.6l23.8,6.2l-1.2-2.9c-1.3-3.2-2.7-4-6.2-4.9l-16.5-4.3c-5-1.3-6.9-3.3-8.4-7.3l-3.3-8.3
		c0,0,2.6,3.8,8.5,5.3l6.2,1.6l-6.4-15.3c-1.8-4.3-4.1-6-9.6-7.5l-13.3-3.5l10.8,27C197.5,468.5,201,472.3,210.1,474.6z"/>
	<path fill="#00A7E1" d="M130.6,413.6c0.8-0.3,1.1-0.6,1.3-1.5l2.6-9.9c-3.7,9.6-7.5,12.8-7.5,12.8L130.6,413.6z"/>
	<path fill="#00A7E1" d="M137.6,402.3l-4.3,16.5c-1.3,5-3.3,6.9-7.3,8.4l-8.3,3.3c0,0,3.8-2.6,5.3-8.5l1.6-6.2l-15.3,6.4
		c-4.3,1.8-6,4.1-7.5,9.6l-3.5,13.3l27-10.8c7.6-3.1,11.4-6.5,13.8-15.6l6.2-23.8l-2.9,1.2C139.4,397.4,138.5,398.8,137.6,402.3z"/>
	<path fill="#00A7E1" d="M69,458.7l-2.6,9.9c3.7-9.6,7.5-12.8,7.5-12.8l-3.6,1.4C69.5,457.5,69.2,457.8,69,458.7z"/>
	<path fill="#00A7E1" d="M63.4,468.4l4.3-16.5c1.3-5,3.3-6.9,7.3-8.4l8.3-3.3c0,0-3.8,2.6-5.3,8.5l-1.6,6.2l15.3-6.4
		c4.3-1.8,6-4.1,7.5-9.6l3.5-13.3l-27,10.8c-7.6,3.1-11.4,6.5-13.8,15.6l-6.2,23.8l2.9-1.2C61.6,473.4,62.4,472,63.4,468.4z"/>
	<path fill="#00A7E1" d="M121,550.3l1.4,3.6c0.3,0.8,0.6,1.1,1.5,1.3l9.9,2.6C124.2,554.1,121,550.3,121,550.3z"/>
	<path fill="#00A7E1" d="M108.7,549.2l-3.3-8.3c0,0,2.6,3.8,8.5,5.3l6.2,1.6l-6.4-15.3c-1.8-4.3-4.1-6-9.6-7.5l-13.3-3.5l10.8,27
		c2,4.9,4.1,8.2,7.8,10.6h18.3l-10.6-2.8C112.2,555.2,110.3,553.2,108.7,549.2z"/>
	<path fill="#00A7E1" d="M77.3,492.2l-9.9-2.6c9.6,3.7,12.8,7.5,12.8,7.5l-1.4-3.6C78.5,492.8,78.2,492.5,77.3,492.2z"/>
	<path fill="#00A7E1" d="M83.9,485l-23.8-6.2l1.2,2.9c1.3,3.2,2.7,4,6.2,4.9l16.5,4.3c5,1.3,6.9,3.3,8.4,7.3l3.3,8.3
		c0,0-2.6-3.8-8.5-5.3l-6.2-1.6l6.4,15.3c1.8,4.3,4.1,6,9.6,7.5l13.3,3.5l-10.8-27C96.4,491.1,93,487.3,83.9,485z"/>
	<path fill="#00A7E1" d="M161.6,547.5l-2.6,9.9c3.7-9.6,7.5-12.8,7.5-12.8l-3.6,1.4C162.1,546.3,161.8,546.6,161.6,547.5z"/>
	<path fill="#00A7E1" d="M160.3,540.8c1.3-5,3.3-6.9,7.3-8.4l8.3-3.3c0,0-3.8,2.6-5.3,8.5l-1.6,6.2l15.3-6.4c4.3-1.8,6-4.1,7.5-9.6
		l3.5-13.3l-27,10.8c-7.6,3.1-11.4,6.5-13.8,15.6l-4.8,18.4h5.8c0.2-0.6,0.4-1.3,0.6-2L160.3,540.8z"/>
	<path fill="#00A7E1" d="M223.2,502.4c0.8-0.3,1.1-0.6,1.3-1.5l2.6-9.9c-3.7,9.6-7.5,12.8-7.5,12.8L223.2,502.4z"/>
	<path fill="#00A7E1" d="M230.2,491.1l-4.3,16.5c-1.3,5-3.3,6.9-7.3,8.4l-8.3,3.3c0,0,3.8-2.6,5.3-8.5l1.6-6.2L202,511
		c-4.3,1.8-6,4.1-7.5,9.6l-3.5,13.3l27-10.8c7.6-3.1,11.4-6.5,13.8-15.6l6.2-23.8l-2.9,1.2C232,486.2,231.1,487.6,230.2,491.1z"/>
	<path fill="#00A7E1" d="M7.1-0.2H0.2v4.9l1.4-0.6C4.2,3,5.8,1.8,7.1-0.2z"/>
	<polygon fill="#00A7E1" points="10.6,-0.2 8.7,-0.2 8.5,0.6 	"/>
	<path fill="#00A7E1" d="M20.6,82.3l-10.8-27C7.5,49.7,5,46.2,0.2,43.8v6.8c1,1.1,1.8,2.5,2.5,4.2L6,63.1c0,0-1.8-2.6-5.8-4.4v16.7
		C1.8,77,4,78,7.3,78.9L20.6,82.3z"/>
	<path fill="#00A7E1" d="M34.2,111.8l9.9,2.6c-9.6-3.7-12.8-7.5-12.8-7.5l1.4,3.6C33,111.2,33.3,111.6,34.2,111.8z"/>
	<path fill="#00A7E1" d="M27.5,119.1l23.8,6.2l-1.2-2.9c-1.3-3.2-2.7-4-6.2-4.9l-16.5-4.3c-5-1.3-6.9-3.3-8.4-7.3l-3.3-8.3
		c0,0,2.6,3.8,8.5,5.3l6.2,1.6L24,89.2c-1.8-4.3-4.1-6-9.6-7.5L1.1,78.3l10.8,27C15,112.9,18.5,116.7,27.5,119.1z"/>
	<path fill="#00A7E1" d="M9.1,172.2l3.5-13.3l-12.4,4.9v18.6l1.4-0.6C5.9,180.1,7.7,177.8,9.1,172.2z"/>
	<path fill="#00A7E1" d="M40.7,146.8c0.8-0.3,1.1-0.6,1.3-1.5l2.6-9.9c-3.7,9.6-7.5,12.8-7.5,12.8L40.7,146.8z"/>
	<path fill="#00A7E1" d="M49.3,152l6.2-23.8l-2.9,1.2c-3.2,1.3-4,2.7-4.9,6.2l-4.3,16.5c-1.3,5-3.3,6.9-7.3,8.4l-8.3,3.3
		c0,0,3.8-2.6,5.3-8.5l1.6-6.2l-15.3,6.4c-4.3,1.8-6,4.1-7.5,9.6l-3.5,13.3l27-10.8C43.2,164.5,47,161,49.3,152z"/>
	<path fill="#00A7E1" d="M20.6,260.1l-10.8-27c-2.3-5.6-4.7-9.2-9.5-11.6v6.8c1,1.1,1.8,2.5,2.5,4.2l3.3,8.3c0,0-1.8-2.6-5.8-4.4v16.7
		c1.6,1.6,3.7,2.5,7,3.4L20.6,260.1z"/>
	<path fill="#00A7E1" d="M31.2,284.7l1.4,3.6c0.3,0.8,0.6,1.1,1.5,1.3l9.9,2.6C34.4,288.5,31.2,284.7,31.2,284.7z"/>
	<path fill="#00A7E1" d="M27.5,296.9l23.8,6.2l-1.2-2.9c-1.3-3.2-2.7-4-6.2-4.9l-16.5-4.3c-5-1.3-6.9-3.3-8.4-7.3l-3.3-8.3
		c0,0,2.6,3.8,8.5,5.3l6.2,1.6L24,267c-1.8-4.3-4.1-6-9.6-7.5l-13.3-3.5l10.8,27C15,290.7,18.5,294.5,27.5,296.9z"/>
	<path fill="#00A7E1" d="M9.1,350l3.5-13.3l-12.4,4.9v18.6l1.4-0.6C5.9,357.8,7.7,355.5,9.1,350z"/>
	<path fill="#00A7E1" d="M40.7,324.6c0.8-0.3,1.1-0.6,1.3-1.5l2.6-9.9c-3.7,9.6-7.5,12.8-7.5,12.8L40.7,324.6z"/>
	<path fill="#00A7E1" d="M49.3,329.7l6.2-23.8l-2.9,1.2c-3.2,1.3-4,2.7-4.9,6.2l-4.3,16.5c-1.3,5-3.3,6.9-7.3,8.4l-8.3,3.3
		c0,0,3.8-2.6,5.3-8.5l1.6-6.2l-15.3,6.4c-4.3,1.8-6,4.1-7.5,9.6l-3.5,13.3l27-10.8C43.2,342.3,47,338.8,49.3,329.7z"/>
	<path fill="#00A7E1" d="M20.6,437.9l-10.8-27c-2.3-5.6-4.7-9.2-9.5-11.6v6.8c1,1.1,1.8,2.5,2.5,4.2l3.3,8.3c0,0-1.8-2.6-5.8-4.4V431
		c1.6,1.6,3.7,2.5,7,3.4L20.6,437.9z"/>
	<path fill="#00A7E1" d="M31.2,462.5l1.4,3.6c0.3,0.8,0.6,1.1,1.5,1.3l9.9,2.6C34.4,466.2,31.2,462.5,31.2,462.5z"/>
	<path fill="#00A7E1" d="M27.5,474.6l23.8,6.2l-1.2-2.9c-1.3-3.2-2.7-4-6.2-4.9l-16.5-4.3c-5-1.3-6.9-3.3-8.4-7.3l-3.3-8.3
		c0,0,2.6,3.8,8.5,5.3l6.2,1.6L24,444.8c-1.8-4.3-4.1-6-9.6-7.5l-13.3-3.5l10.8,27C15,468.5,18.5,472.3,27.5,474.6z"/>
	<path fill="#00A7E1" d="M9.1,527.8l3.5-13.3l-12.4,4.9V538l1.4-0.6C5.9,535.6,7.7,533.3,9.1,527.8z"/>
	<path fill="#00A7E1" d="M40.7,502.4c0.8-0.3,1.1-0.6,1.3-1.5l2.6-9.9c-3.7,9.6-7.5,12.8-7.5,12.8L40.7,502.4z"/>
	<path fill="#00A7E1" d="M47.7,491.1l-4.3,16.5c-1.3,5-3.3,6.9-7.3,8.4l-8.3,3.3c0,0,3.8-2.6,5.3-8.5l1.6-6.2L19.4,511
		c-4.3,1.8-6,4.1-7.5,9.6l-3.5,13.3l27-10.8c7.6-3.1,11.4-6.5,13.8-15.6l6.2-23.8l-2.9,1.2C49.4,486.2,48.6,487.6,47.7,491.1z"/>
</svg>
