<svg xmlns="http://www.w3.org/2000/svg" xmlns:xlink="http://www.w3.org/1999/xlink" x="0px" y="0px" style="enable-background:new 0 0 560 559.1" version="1.1" viewBox="0 0 560 559.1" xml:space="preserve">
    <polygon fill="#002A3A" points="559.4,559.5 0.4,559.5 0.4,-0.5 560.4,-0.5 "/>
    <path fill="#00A7E1" d="M151.7,311.5l-20.3,20.3c22.6-18.1,36.3-20.4,36.3-20.4l-10.6-1.6C154.7,309.5,153.6,309.7,151.7,311.5z"/>
    <path fill="#00A7E1" d="M249.1,401.8l-1.6-10.6c0,0-2.3,13.7-20.4,36.3l20.3-20.3C249.2,405.3,249.4,404.2,249.1,401.8z"/>
    <path fill="#00A7E1" d="M279.8,279.3L279.8,279.3l0-0.1l0-0.1l-0.1,0.1L199.1,267c-22.8-3.4-37-0.4-55.6,18.2l-48.8,48.8l8.7,1.3
		c9.5,1.4,13.5-0.7,20.8-8l33.8-33.8c10.3-10.3,17.8-11.9,29.7-10.1l24.8,3.8c0,0-12.9,0.9-25.1,13.1L174.7,313l46.1,6.2
		c11.7,1.6,19-0.9,28.9-10c-9.1,9.9-11.6,17.2-10,28.9l6.2,46.1l12.8-12.8c12.2-12.2,13.1-25.1,13.1-25.1l3.8,24.8
		c1.8,12,0.2,19.5-10.1,29.7l-33.8,33.8c-7.3,7.3-9.5,11.4-8,20.8l1.3,8.7l48.8-48.8c18.6-18.6,21.6-32.8,18.2-55.6L279.8,279.3z"/>
    <path fill="#00A7E1" d="M408,246.5l20.3-20.3c-22.6,18.1-36.3,20.4-36.3,20.4l10.6,1.6C405,248.6,406.2,248.3,408,246.5z"/>
    <path fill="#00A7E1" d="M456.3,222.8c-9.5-1.4-13.5,0.7-20.8,8l-33.8,33.8c-10.3,10.3-17.8,11.9-29.7,10.1l-24.8-3.8
		c0,0,12.9-0.9,25.1-13.1l12.8-12.8l-46.1-6.2c-11.7-1.6-19,0.9-28.9,10c9.1-9.9,11.6-17.2,10-28.9l-6.2-46.1L301,186.7
		c-12.2,12.2-13.1,25.1-13.1,25.1l-3.8-24.8c-1.8-12-0.2-19.5,10.1-29.7l33.8-33.8c7.3-7.3,9.5-11.4,8-20.8l-1.3-8.7L286,142.7
		c-18.6,18.6-21.6,32.8-18.2,55.6l12.1,80.6l-0.1,0.1l0.1,0l0,0.1l0.1-0.1l80.6,12.1c22.8,3.4,37,0.4,55.6-18.2l48.8-48.8
		L456.3,222.8z"/>
    <path fill="#00A7E1" d="M310.7,156.2l1.6,10.6c0,0,2.3-13.7,20.4-36.3l-20.3,20.3C310.6,152.7,310.3,153.9,310.7,156.2z"/>
    <path fill="#00A7E1" d="M380.3,462.5l-10,10c11.1-8.9,17.9-10,17.9-10l-5.2-0.8C381.8,461.5,381.2,461.6,380.3,462.5z"/>
    <path fill="#00A7E1" d="M428.2,506.9l-0.8-5.2c0,0-1.1,6.7-10,17.9l10-10C428.3,508.6,428.4,508,428.2,506.9z"/>
    <path fill="#00A7E1" d="M443.3,446.6L443.3,446.6L443.3,446.6L443.3,446.6L443.3,446.6l-39.7-6c-11.2-1.7-18.2-0.2-27.4,8.9l-24,24
		l4.3,0.6c4.7,0.7,6.6-0.4,10.2-4l16.6-16.6c5-5,8.7-5.9,14.6-4.9l12.2,1.9c0,0-6.3,0.4-12.3,6.4l-6.3,6.3l22.7,3.1
		c5.8,0.8,9.4-0.4,14.2-4.9c-4.5,4.9-5.7,8.4-4.9,14.2l3.1,22.7l6.3-6.3c6-6,6.4-12.3,6.4-12.3l1.9,12.2c0.9,5.9,0.1,9.6-4.9,14.6
		L419.7,523c-3.6,3.6-4.7,5.6-4,10.2l0.6,4.3l24-24c9.2-9.2,10.6-16.1,8.9-27.4L443.3,446.6z"/>
    <path fill="#00A7E1" d="M506.4,430.5l10-10c-11.1,8.9-17.9,10-17.9,10l5.2,0.8C505,431.5,505.5,431.4,506.4,430.5z"/>
    <path fill="#00A7E1" d="M530.2,418.8c-4.7-0.7-6.6,0.4-10.2,4l-16.6,16.6c-5,5-8.7,5.9-14.6,4.9l-12.2-1.9c0,0,6.3-0.4,12.3-6.4
		l6.3-6.3l-22.7-3.1c-5.8-0.8-9.4,0.4-14.2,4.9c4.5-4.9,5.7-8.4,4.9-14.2l-3.1-22.7l-6.3,6.3c-6,6-6.4,12.3-6.4,12.3l-1.9-12.2
		c-0.9-5.9-0.1-9.6,4.9-14.6l16.6-16.6c3.6-3.6,4.7-5.6,4-10.2l-0.6-4.3l-24,24c-9.2,9.2-10.6,16.1-8.9,27.4l6,39.6l0,0l0,0l0,0l0,0
		l39.6,6c11.2,1.7,18.2,0.2,27.4-8.9l24-24L530.2,418.8z"/>
    <path fill="#00A7E1" d="M458.5,386.1l0.8,5.2c0,0,1.1-6.7,10-17.9l-10,10C458.5,384.3,458.4,384.9,458.5,386.1z"/>
    <path fill="#00A7E1" d="M53.3,125.6l-10,10c11.1-8.9,17.9-10,17.9-10l-5.2-0.8C54.8,124.6,54.2,124.7,53.3,125.6z"/>
    <path fill="#00A7E1" d="M101.2,170l-0.8-5.2c0,0-1.1,6.7-10,17.9l10-10C101.3,171.8,101.4,171.2,101.2,170z"/>
    <path fill="#00A7E1" d="M116.3,109.7L116.3,109.7L116.3,109.7L116.3,109.7L116.3,109.7l-39.7-6c-11.2-1.7-18.2-0.2-27.4,8.9l-24,24
		l4.3,0.6c4.7,0.7,6.6-0.4,10.2-4l16.6-16.6c5-5,8.7-5.9,14.6-4.9l12.2,1.9c0,0-6.3,0.4-12.3,6.4l-6.3,6.3l22.7,3.1
		c5.8,0.8,9.4-0.4,14.2-4.9c-4.5,4.9-5.7,8.4-4.9,14.2l3.1,22.7l6.3-6.3c6-6,6.4-12.3,6.4-12.3l1.9,12.2c0.9,5.9,0.1,9.6-4.9,14.6
		l-16.6,16.6c-3.6,3.6-4.7,5.6-4,10.2l0.6,4.3l24-24c9.2-9.2,10.6-16.1,8.9-27.4L116.3,109.7z"/>
    <path fill="#00A7E1" d="M179.4,93.6l10-10c-11.1,8.9-17.9,10-17.9,10l5.2,0.8C178,94.6,178.5,94.5,179.4,93.6z"/>
    <path fill="#00A7E1" d="M203.2,82c-4.7-0.7-6.6,0.4-10.2,4l-16.6,16.6c-5,5-8.7,5.9-14.6,4.9l-12.2-1.9c0,0,6.3-0.4,12.3-6.4l6.3-6.3
		l-22.7-3.1c-5.8-0.8-9.4,0.4-14.2,4.9c4.5-4.9,5.7-8.4,4.9-14.2l-3.1-22.7l-6.3,6.3c-6,6-6.4,12.3-6.4,12.3l-1.9-12.2
		c-0.9-5.9-0.1-9.6,4.9-14.6l16.6-16.6c3.6-3.6,4.7-5.6,4-10.2l-0.6-4.3l-24,24c-9.2,9.2-10.6,16.1-8.9,27.4l6,39.6l0,0l0,0l0,0l0,0
		l39.6,6c11.2,1.7,18.2,0.2,27.4-8.9l24-24L203.2,82z"/>
    <path fill="#00A7E1" d="M131.5,49.2l0.8,5.2c0,0,1.1-6.7,10-17.9l-10,10C131.5,47.5,131.4,48,131.5,49.2z"/>
</svg>
