<svg xmlns="http://www.w3.org/2000/svg" xmlns:xlink="http://www.w3.org/1999/xlink" id="Layer_1" x="0px" y="0px" style="enable-background:new 0 0 560 559.1" version="1.1" viewBox="0 0 560 559.1" xml:space="preserve">
    <rect width="559" height="559" x="0.5" y="0" fill="#002A3A"/>
    <path fill="#8C9091" d="M515.1,227.2c-7.3-5.2-32.2-16.2-74.5-20.9l0.1-1l57.2-0.1l-0.1-56l0,0l0-1.9l0.1-0.1
			c5.1-7.2,16-31.8,20.8-73.5l-3.3,0l-0.1-0.1c-7.3-5.2-32.2-16.2-74.5-20.9l0.1-1l57.2-0.1l-0.1-51.1h-57.5l0.1,51.5l-0.1,0.1
			c-5.1,7.2-16.1,31.9-20.8,73.8l3.7,0l0.1,0.1c7.3,5.2,32.2,16.2,74.5,20.9l-0.1,1l-57.5,0.1l0.1,57.6l-0.1,0.1
			c-5.1,7.2-16.1,31.9-20.8,73.8l3.7,0l0.1,0.1c7.3,5.2,32.2,16.2,74.5,20.9l-0.1,1l-57.5,0.1l0.1,57.6l-0.1,0.1
			c-5.1,7.2-16.1,31.9-20.8,73.8l3.7,0l0.1,0.1c7.3,5.2,32.2,16.2,74.5,20.9l-0.1,1l-57.5,0.1l0.1,57.6l-0.1,0.1
			c-0.1,0.1-9.5,13.7-16.3,45.5h91c1.5-7.6,2.7-15.7,3.7-24l-3.3,0l-0.1-0.1c-7.3-5.2-32.2-16.2-74.5-20.9l0.1-1l57.2-0.1l-0.1-56
			l0,0l0-1.9l0.1-0.1c5.1-7.2,16-31.8,20.8-73.5l-3.3,0l-0.1-0.1c-7.3-5.2-32.2-16.2-74.5-20.9l0.1-1l57.2-0.1l-0.1-56l0,0l0-1.9
			l0.1-0.1c5.1-7.2,16-31.8,20.8-73.5l-3.3,0L515.1,227.2z"/>
    <path fill="#8C9091" d="M418.3,558.3l0-28.8l0.1-0.1c5.2-7.3,16.2-32.2,20.9-74.5l0.2,0c-7.6-5.3-32.5-16.1-74.2-20.7l0.1-1l53-0.1
			l-0.1-57.1l0.1-0.1c5.2-7.3,16.2-32.2,20.9-74.5l0.2,0c-7.6-5.3-32.5-16.1-74.2-20.7l0.1-1l53-0.1l-0.1-57.1l0.1-0.1
			c5.2-7.3,16.2-32.2,20.9-74.5l0.2,0c-7.6-5.3-32.5-16.1-74.2-20.7l0.1-1l53-0.1L418.2,69l0.1-0.1c4.8-6.7,15.1-29.6,20.1-68.1
			h-86.3c-5,14.6-8.7,31.9-10.9,51.4c3.3,2.2,24.9,15.2,74.1,20.6l-0.1,1l-53.4,0.1l0.1,56.8l0,0l0,1.9l-0.1,0.1
			c-5.1,7.2-15.9,31.6-20.7,73c3.3,2.2,24.9,15.2,74.1,20.6l-0.1,1l-53.4,0.1l0.1,56.8l0,0l0,1.9l-0.1,0.1
			c-5.1,7.2-15.9,31.6-20.7,73c3.3,2.2,24.9,15.2,74.1,20.6l-0.1,1l-53.4,0.1l0.1,56.8l0,0l0,1.9l-0.1,0.1
			c-5.1,7.2-15.9,31.6-20.7,73c3.3,2.2,24.9,15.2,74.1,20.6l-0.1,1l-53.4,0.1l0,24H418.3z"/>
    <path fill="#8C9091" d="M357.3,227.2c-7.3-5.2-32.2-16.2-74.5-20.9l0.1-1l57.2-0.1l-0.1-56l0,0l0-1.9l0.1-0.1
			c5.1-7.2,16-31.8,20.8-73.5l-3.3,0l-0.1-0.1c-7.3-5.2-32.2-16.2-74.5-20.9l0.1-1l57.2-0.1l-0.1-51.1h-57.5l0.1,51.5l-0.1,0.1
			c-5.1,7.2-16.1,31.9-20.8,73.8l3.7,0l0.1,0.1c7.3,5.2,32.2,16.2,74.5,20.9l-0.1,1l-57.5,0.1l0.1,57.6l-0.1,0.1
			c-5.1,7.2-16.1,31.9-20.8,73.8l3.7,0l0.1,0.1c7.3,5.2,32.2,16.2,74.5,20.9l-0.1,1l-57.5,0.1l0.1,57.6l-0.1,0.1
			c-5.1,7.2-16.1,31.9-20.8,73.8l3.7,0l0.1,0.1c7.3,5.2,32.2,16.2,74.5,20.9l-0.1,1l-57.5,0.1l0.1,57.6l-0.1,0.1
			c-0.1,0.1-9.5,13.7-16.3,45.5h91c1.5-7.6,2.7-15.7,3.7-24l-3.3,0l-0.1-0.1c-7.3-5.2-32.2-16.2-74.5-20.9l0.1-1l57.2-0.1l-0.1-56
			l0,0l0-1.9l0.1-0.1c5.1-7.2,16-31.8,20.8-73.5l-3.3,0l-0.1-0.1c-7.3-5.2-32.2-16.2-74.5-20.9l0.1-1l57.2-0.1l-0.1-56l0,0l0-1.9
			l0.1-0.1c5.1-7.2,16-31.8,20.8-73.5l-3.3,0L357.3,227.2z"/>
    <path fill="#8C9091" d="M260.4,558.3l0-28.8l0.1-0.1c5.2-7.3,16.2-32.2,20.9-74.5l0.2,0c-7.6-5.3-32.5-16.1-74.2-20.7l0.1-1l53-0.1
			l-0.1-57.1l0.1-0.1c5.2-7.3,16.2-32.2,20.9-74.5l0.2,0c-7.6-5.3-32.5-16.1-74.2-20.7l0.1-1l53-0.1l-0.1-57.1l0.1-0.1
			c5.2-7.3,16.2-32.2,20.9-74.5l0.2,0c-7.6-5.3-32.5-16.1-74.2-20.7l0.1-1l53-0.1L260.4,69l0.1-0.1c4.8-6.7,15.1-29.6,20.1-68.1
			h-86.3c-5,14.6-8.7,31.9-10.9,51.4c3.3,2.2,24.9,15.2,74.1,20.6l-0.1,1l-53.4,0.1l0.1,56.8l0,0l0,1.9l-0.1,0.1
			c-5.1,7.2-15.9,31.6-20.7,73c3.3,2.2,24.9,15.2,74.1,20.6l-0.1,1l-53.4,0.1l0.1,56.8l0,0l0,1.9l-0.1,0.1
			c-5.1,7.2-15.9,31.6-20.7,73c3.3,2.2,24.9,15.2,74.1,20.6l-0.1,1l-53.4,0.1l0.1,56.8l0,0l0,1.9l-0.1,0.1
			c-5.1,7.2-15.9,31.6-20.7,73c3.3,2.2,24.9,15.2,74.1,20.6l-0.1,1l-53.4,0.1l0,24H260.4z"/>
    <path fill="#8C9091" d="M199.5,227.2c-7.3-5.2-32.2-16.2-74.5-20.9l0.1-1l57.2-0.1l-0.1-56l0,0l0-1.9l0.1-0.1
			c5.1-7.2,16-31.8,20.8-73.5l-3.3,0l-0.1-0.1c-7.3-5.2-32.2-16.2-74.5-20.9l0.1-1l57.2-0.1l-0.1-51.1h-57.5l0.1,51.5l-0.1,0.1
			c-5.1,7.2-16.1,31.9-20.8,73.8l3.7,0l0.1,0.1c7.3,5.2,32.2,16.2,74.5,20.9l-0.1,1l-57.5,0.1l0.1,57.6l-0.1,0.1
			c-5.1,7.2-16.1,31.9-20.8,73.8l3.7,0l0.1,0.1c7.3,5.2,32.2,16.2,74.5,20.9l-0.1,1l-57.5,0.1l0.1,57.6l-0.1,0.1
			c-5.1,7.2-16.1,31.9-20.8,73.8l3.7,0l0.1,0.1c7.3,5.2,32.2,16.2,74.5,20.9l-0.1,1l-57.5,0.1l0.1,57.6l-0.1,0.1
			c-0.1,0.1-9.5,13.7-16.3,45.5h91c1.5-7.6,2.7-15.7,3.7-24l-3.3,0l-0.1-0.1c-7.3-5.2-32.2-16.2-74.5-20.9l0.1-1l57.2-0.1l-0.1-56
			l0,0l0-1.9l0.1-0.1c5.1-7.2,16-31.8,20.8-73.5l-3.3,0l-0.1-0.1c-7.3-5.2-32.2-16.2-74.5-20.9l0.1-1l57.2-0.1l-0.1-56l0,0l0-1.9
			l0.1-0.1c5.1-7.2,16-31.8,20.8-73.5l-3.3,0L199.5,227.2z"/>
    <path fill="#8C9091" d="M102.6,558.3l0-28.8l0.1-0.1c5.2-7.3,16.2-32.2,20.9-74.5l0.2,0c-7.6-5.3-32.5-16.1-74.2-20.7l0.1-1l53-0.1
			l-0.1-57.1l0.1-0.1c5.2-7.3,16.2-32.2,20.9-74.5l0.2,0c-7.6-5.3-32.5-16.1-74.2-20.7l0.1-1l53-0.1l-0.1-57.1l0.1-0.1
			c5.2-7.3,16.2-32.2,20.9-74.5l0.2,0c-7.6-5.3-32.5-16.1-74.2-20.7l0.1-1l53-0.1L102.6,69l0.1-0.1c4.8-6.7,15.1-29.6,20.1-68.1
			H36.5c-5,14.6-8.7,31.9-10.9,51.4c3.3,2.2,24.9,15.2,74.1,20.6l-0.1,1l-53.4,0.1l0.1,56.8l0,0l0,1.9l-0.1,0.1
			c-5.1,7.2-15.9,31.6-20.7,73c3.3,2.2,24.9,15.2,74.1,20.6l-0.1,1l-53.4,0.1l0.1,56.8l0,0l0,1.9l-0.1,0.1
			c-5.1,7.2-15.9,31.6-20.7,73c3.3,2.2,24.9,15.2,74.1,20.6l-0.1,1l-53.4,0.1l0.1,56.8l0,0l0,1.9l-0.1,0.1
			c-5.1,7.2-15.9,31.6-20.7,73c3.3,2.2,24.9,15.2,74.1,20.6l-0.1,1l-53.4,0.1l0,24H102.6z"/>
    <path fill="#8C9091" d="M499,52.2c2.9,1.9,20.6,12.6,59.8,18.7V0.7h-48.9C504.9,15.4,501.2,32.7,499,52.2z"/>
    <polygon fill="#8C9091" points="519.7,558.3 558.8,558.3 558.8,534.3 519.7,534.3 		"/>
    <path fill="#8C9091" d="M519.8,130.6L519.8,130.6v1.9l-0.1,0.1c-0.1,0.2-14.7,21.3-20.7,73c2.9,1.9,20.6,12.6,59.8,18.7v-91.1
			c-11-2.7-23-4.7-35.8-6.1l0.1-1l35.7,0V73.8l-39.1,0L519.8,130.6z"/>
    <path fill="#8C9091" d="M519.8,437.6L519.8,437.6v1.9l-0.1,0.1c-0.1,0.2-14.7,21.3-20.7,73c2.9,1.9,20.6,12.6,59.8,18.7v-91.1
			c-11-2.7-23-4.7-35.8-6.1l0.1-1l35.7,0v-52.3l-39.1,0L519.8,437.6z"/>
    <path fill="#8C9091" d="M519.8,284.1L519.8,284.1v1.9l-0.1,0.1c-0.1,0.2-14.7,21.3-20.7,73c2.9,1.9,20.6,12.6,59.8,18.7v-91.1
			c-11-2.7-23-4.7-35.8-6.1l0.1-1l35.7,0v-52.3l-39.1,0L519.8,284.1z"/>
    <polygon fill="#8C9091" points="24.3,0.7 1.2,0.7 1.2,51.8 24.4,51.8 		"/>
    <path fill="#8C9091" d="M24.3,149.3L24.3,149.3v-1.9l0.1-0.1c0.1-0.2,14.8-21.4,20.8-73.5l-3.3,0l-0.1-0.1
			c-0.1-0.1-12.2-8.5-40.5-15.2v85.1c7.3,1.4,15.1,2.5,23.1,3.4l-0.1,1l-23,0v57.2l23.2,0L24.3,149.3z"/>
    <path fill="#8C9091" d="M41.7,227.2c-0.1-0.1-12.2-8.5-40.5-15.2v85.1c7.3,1.4,15.1,2.5,23.1,3.4l-0.1,1l-23,0v57.2l23.2,0l-0.1-56
			l0,0l0-1.9l0.1-0.1c0.1-0.2,14.8-21.4,20.8-73.5l-3.3,0L41.7,227.2z"/>
    <path fill="#8C9091" d="M41.7,380.7c-0.1-0.1-12.2-8.5-40.5-15.2v85.1c7.3,1.4,15.1,2.5,23.1,3.4l-0.1,1l-23,0v57.2l23.2,0l-0.1-56
			l0,0l0-1.9l0.1-0.1c0.1-0.2,14.8-21.4,20.8-73.5l-3.3,0L41.7,380.7z"/>
    <path fill="#8C9091" d="M41.8,534.3l-0.1-0.1c-0.1-0.1-12.2-8.5-40.5-15.2v39.3h40.3c1.5-7.6,2.7-15.7,3.7-24L41.8,534.3z"/>
</svg>
