<?xml version="1.0" encoding="utf-8"?>
<!-- Generator: Adobe Illustrator 22.0.1, SVG Export Plug-In . SVG Version: 6.00 Build 0)  -->
<svg version="1.1" id="Layer_1" xmlns="http://www.w3.org/2000/svg" xmlns:xlink="http://www.w3.org/1999/xlink" x="0px" y="0px"
	 viewBox="0 0 560 559.1" style="enable-background:new 0 0 560 559.1;" xml:space="preserve">
<style type="text/css">
	.st0{fill:#8C9091;}
	.st1{fill:none;}
	.st2{fill:#002A3A;}
	.st3{display:none;}
</style>
<g>
	<rect x="0.5" y="0" fill="#8C9091" width="559" height="559"/>
</g>
<g>
	<path class="st1" d="M0.5,20.6C10,16,21.8,9.4,35.6,0H4.9L0.5,4.4V20.6z"/>
	<path class="st1" d="M526.6,248.8l-24.6-3.7l-46.5,46.5c-3.6,3.6-6.1,4.6-10,4.4c-0.6,0-1.2-0.1-1.9-0.2c-0.3,0-0.7-0.1-1-0.1
		l-24.6-3.7l-46.5,46.5c-4.4,4.4-7.3,5-13,4.1l-24.6-3.7l-46.5,46.5c-4.4,4.4-7.3,5-13,4.1l-24.6-3.7l-46.5,46.5
		c-4.4,4.4-7.3,5-13,4.1l-24.6-3.7l-46.5,46.5c-4.4,4.4-7.3,5-13,4.1l-24.6-3.7l-46.5,46.5c-4.4,4.4-7.3,5-13,4.1l-21.7-3.2v25.2
		c8.6-5.5,18-12.2,28.2-20.2l-0.6-0.1c0,0,0.4-0.1,1-0.2c0.9-0.7,1.9-1.5,2.8-2.2l-2.1,2.1c7.4-1.8,37.4-10.7,82.9-46.5l-0.6-0.1
		c0,0,0.4-0.1,1-0.2c0.9-0.7,1.9-1.5,2.8-2.2l-2.1,2.1c7.4-1.8,37.4-10.7,82.9-46.5l-0.6-0.1c0,0,0.4-0.1,1-0.2
		c0.9-0.7,1.9-1.5,2.8-2.2l-2.1,2.1c2.6-0.6,8.2-2.2,16.3-5.6c0.8-0.3,1.7-0.7,2.6-1.1c6.2-2.7,13.8-6.4,22.6-11.5
		c2.5-1.4,5.1-3,7.8-4.7c2.7-1.7,5.5-3.5,8.4-5.4c7.7-5.1,16.2-11.2,25.2-18.3l-0.6-0.1c0,0,0.4-0.1,1-0.2c0.9-0.7,1.9-1.5,2.8-2.2
		l-2.1,2.1c7.4-1.8,37.4-10.7,82.9-46.5l-0.6-0.1c0,0,0.4-0.1,1-0.2c0.9-0.7,1.9-1.5,2.8-2.2l-2.1,2.1c7.4-1.8,37.4-10.7,82.9-46.5
		l-0.6-0.1c0,0,0.4-0.1,1-0.2c0.9-0.7,1.9-1.5,2.8-2.2l-2.1,2.1c7.4-1.8,37.4-10.7,82.9-46.5l-0.6-0.1c0,0,0.4-0.1,1-0.2
		c0.9-0.7,1.9-1.5,2.8-2.2l-2.1,2.1c3.5-0.8,12.2-3.3,25.2-9.6v-15.7l-19.9,19.9C535.2,249.1,532.3,249.6,526.6,248.8z"/>
	<path class="st1" d="M209,9.7l-24.6-3.7l-46.5,46.5c-4.4,4.4-7.3,5-13,4.1L100.3,53L53.8,99.5c-4.4,4.4-7.3,5-13,4.1L16.3,100
		L0.5,115.8v20.9c12.8-7,28.6-17,46.9-31.4l-0.6-0.1c0,0,0.4-0.1,1-0.2c0.9-0.7,1.9-1.5,2.8-2.2l-2.1,2.1
		c7.4-1.8,37.4-10.7,82.9-46.5l-0.6-0.1c0,0,0.4-0.1,1-0.2c0.9-0.7,1.9-1.5,2.8-2.2l-2.1,2.1c7.4-1.8,37.4-10.7,82.9-46.5l-0.6-0.1
		c0,0,0.4-0.1,1-0.2c0.9-0.7,1.9-1.5,2.8-2.2l-2.1,2.1c3.8-0.9,13.4-3.7,28-10.9h-17.1L222,5.6C217.5,10.1,214.7,10.6,209,9.7z"/>
	<path class="st1" d="M497,175.9c-4.4,4.4-7.3,5-13,4.1l-24.6-3.7L413,222.8c-4.4,4.4-7.3,5-13,4.1l-24.6-3.7l-46.5,46.5
		c-4.4,4.4-7.3,5-13,4.1l-24.6-3.7l-46.5,46.5c-4.4,4.4-7.3,5-13,4.1l-24.6-3.7l-46.5,46.5c-4.4,4.4-7.3,5-13,4.1l-24.6-3.7
		l-46.5,46.5c-4.4,4.4-7.3,5-13,4.1l-24.6-3.7L0.5,449.8v8.9c14.3-5.6,38.3-17.5,69.7-42.2l-0.6-0.1c0,0,0.4-0.1,1-0.2
		c0.9-0.7,1.9-1.5,2.8-2.2l-2.1,2.1c7.4-1.8,37.4-10.7,82.9-46.5l-0.6-0.1c0,0,0.4-0.1,1-0.2c0.9-0.7,1.9-1.5,2.8-2.2l-2.1,2.1
		c7.4-1.8,37.4-10.7,82.9-46.5l-0.6-0.1c0,0,0.4-0.1,1-0.2c0.9-0.7,1.9-1.5,2.8-2.2l-2.1,2.1c2.9-0.7,9.3-2.5,18.9-6.7
		c1.8-0.8,3.7-1.6,5.7-2.6c4-1.9,8.4-4.1,13.2-6.8c4.8-2.7,10-5.8,15.6-9.4c2.8-1.8,5.7-3.7,8.7-5.7c6.5-4.5,13.5-9.5,20.8-15.3
		l-0.6-0.1c0,0,0.4-0.1,1-0.2c0.9-0.7,1.9-1.5,2.8-2.2c0,0,0,0,0,0c0,0,0,0,0,0l-2.1,2.1c7.4-1.8,37.4-10.7,82.9-46.5l-0.6-0.1
		c0,0,0.4-0.1,1-0.2c0.9-0.7,1.9-1.5,2.8-2.2l-2.1,2.1c7.4-1.8,37.4-10.7,82.9-46.5l-0.6-0.1c0,0,0.4-0.1,1-0.2
		c0.9-0.7,1.9-1.5,2.8-2.2l-2.1,2.1c6.5-1.6,30.8-8.8,67.8-35.1v-14.3l-15.9-2.4L497,175.9z"/>
	<path class="st1" d="M533.7,250.6l-46.5,46.5c-4.4,4.4-7.3,5-13,4.1l-24.6-3.7L403.1,344c-0.8,0.8-1.6,1.5-2.4,2.1
		c-3.2,2.5-6,2.7-10.6,2l-24.6-3.7L319.1,391c-4.4,4.4-7.3,5-13,4.1l-24.6-3.7L235,437.9c-4.4,4.4-7.3,5-13,4.1l-24.6-3.7
		l-46.5,46.5c-4.4,4.4-7.3,5-13,4.1l-24.6-3.7l-46.5,46.5c-4.4,4.4-7.3,5-13,4.1l-24.6-3.7L2.6,559h27.8c9-5.8,19.1-12.8,30-21.4
		l-0.6-0.1c0,0,0.4-0.1,1-0.2c0.9-0.7,1.9-1.5,2.8-2.2l-2.1,2.1c7.4-1.8,37.4-10.7,82.9-46.5l-0.6-0.1c0,0,0.4-0.1,1-0.2
		c0.9-0.7,1.9-1.5,2.8-2.2l-2.1,2.1c7.4-1.8,37.4-10.7,82.9-46.5l-0.6-0.1c0,0,0.4-0.1,1-0.2c0.9-0.7,1.9-1.5,2.8-2.2l-2.1,2.1
		c7.4-1.8,37.4-10.7,82.9-46.5l-0.6-0.1c0,0,0.4-0.1,1-0.2c0.9-0.7,1.9-1.5,2.8-2.2l-2.1,2.1c7.4-1.8,37.4-10.7,82.9-46.5l-0.6-0.1
		c0,0,0.4-0.1,1-0.2c0.9-0.7,1.9-1.5,2.8-2.2l-2.1,2.1c7.4-1.8,37.4-10.7,82.9-46.5l-0.6-0.1c0,0,0.4-0.1,1-0.2
		c0.9-0.7,1.9-1.5,2.8-2.2l-2.1,2.1c7.1-1.7,35.1-10,77.6-42.4v-5.6c-0.4,0-0.8-0.1-1.2-0.2L533.7,250.6z"/>
	<path class="st1" d="M515.7,185.5l-24.6-3.7l-46.5,46.5c-4.4,4.4-7.3,5-13,4.1l-24.6-3.7l-46.5,46.5c-4.4,4.4-7.3,5-13,4.1
		l-24.6-3.7l-46.5,46.5c-4.4,4.4-7.3,5-13,4.1l-24.6-3.7l-46.5,46.5c-4.4,4.4-7.3,5-13,4.1l-24.6-3.7l-46.5,46.5
		c-4.4,4.4-7.3,5-13,4.1l-24.6-3.7l-46.5,46.5c-4.4,4.4-7.3,5-13,4.1l-10.8-1.6v16.2c5.5-3.9,11.3-8.1,17.3-12.9l-0.6-0.1
		c0,0,0.4-0.1,1-0.2c0.9-0.7,1.9-1.5,2.8-2.2l-2.1,2.1c7.4-1.8,37.4-10.7,82.9-46.5l-0.6-0.1c0,0,0.4-0.1,1-0.2
		c0.9-0.7,1.9-1.5,2.8-2.2l-2.1,2.1c7.4-1.8,37.4-10.7,82.9-46.5l-0.6-0.1c0,0,0.4-0.1,1-0.2c0.9-0.7,1.9-1.5,2.8-2.2l-2.1,2.1
		c7.4-1.8,37.4-10.7,82.9-46.5l-0.6-0.1c0,0,0.4-0.1,1-0.2c0.9-0.7,1.9-1.5,2.8-2.2l-2.1,2.1c7.4-1.8,37.4-10.7,82.9-46.5l-0.6-0.1
		c0,0,0.4-0.1,1-0.2c0.9-0.7,1.9-1.5,2.8-2.2l-2.1,2.1c2.9-0.7,9.3-2.5,18.9-6.7c1.8-0.8,3.7-1.6,5.7-2.6c4-1.9,8.4-4.1,13.2-6.8
		c4.8-2.7,10-5.8,15.6-9.4c2.8-1.8,5.7-3.7,8.7-5.7c6.5-4.5,13.5-9.5,20.8-15.3l-0.6-0.1c0,0,0.4-0.1,1-0.2c0.9-0.7,1.9-1.5,2.8-2.2
		l0,0c0,0,0,0,0,0l-2.1,2.1c7.4-1.8,37.4-10.7,82.9-46.5l-0.6-0.1c0,0,0.4-0.1,1-0.2c0.9-0.7,1.9-1.5,2.8-2.2l-2.1,2.1
		c4.4-1.1,17-4.7,36.1-15.1v-21l-30.8,30.8C524.3,185.8,521.4,186.3,515.7,185.5z"/>
	<path class="st1" d="M547.4,190.9l-24.6-3.7l-46.5,46.5c-4.4,4.4-7.3,5-13,4.1l-24.6-3.7l-46.5,46.5c-4.4,4.4-7.3,5-13,4.1
		l-24.6-3.7l-46.5,46.5c-4.4,4.4-7.3,5-13,4.1l-24.6-3.7l-46.5,46.5c-1.1,1.1-2.1,2-3.1,2.6c-2.9,2-5.6,2.1-9.9,1.5l-24.6-3.7
		L140,421.6c-0.6,0.6-1.1,1-1.6,1.5c-0.5,0.4-1,0.8-1.5,1.2c-0.2,0.2-0.5,0.3-0.7,0.5c-0.5,0.3-1,0.5-1.5,0.7
		c-0.5,0.2-1,0.3-1.5,0.4c-0.5,0.1-1,0.2-1.6,0.2c-1.4,0.1-2.9,0-4.7-0.3l-24.6-3.7L56,468.5c-4.4,4.4-7.3,5-13,4.1L18.4,469
		L0.5,486.9v20c13.2-7,29.7-17.3,49-32.5l-0.6-0.1c0,0,0.4-0.1,1-0.2c0.9-0.7,1.9-1.5,2.8-2.2l-2.1,2.1c7.4-1.8,37.4-10.7,82.9-46.5
		l-0.6-0.1c0,0,0.4-0.1,1-0.2c0.9-0.7,1.9-1.5,2.8-2.2l-2.1,2.1c7.4-1.8,37.4-10.7,82.9-46.5l-0.6-0.1c0,0,0.4-0.1,1-0.2
		c0.9-0.7,1.9-1.5,2.8-2.2l-2.1,2.1c7.4-1.8,37.4-10.7,82.9-46.5l-0.6-0.1c0,0,0.4-0.1,1-0.2c0.9-0.7,1.9-1.5,2.8-2.2l-2.1,2.1
		c1.6-0.4,4.1-1.1,7.6-2.2c1.2-0.4,2.6-0.9,4-1.4c3.6-1.4,8-3.2,13-5.5c3-1.4,6.2-3,9.7-4.9c4.6-2.5,9.6-5.3,15-8.7
		c5.4-3.3,11.2-7.2,17.3-11.5c5.2-3.7,10.6-7.7,16.3-12.2l-0.6-0.1c0,0,0.4-0.1,1-0.2c0.9-0.7,1.9-1.5,2.8-2.2l-2.1,2.1
		c7.4-1.8,37.4-10.7,82.9-46.5l-0.6-0.1c0,0,0.4-0.1,1-0.2c0.9-0.7,1.9-1.5,2.8-2.2l-2.1,2.1c7.4-1.8,37.4-10.7,82.9-46.5l-0.6-0.1
		c0,0,0.4-0.1,1-0.2c0.9-0.7,1.9-1.5,2.8-2.2l-2.1,2.1c1-0.2,2.5-0.6,4.5-1.2v-3.3C555.5,191.3,552.7,191.7,547.4,190.9z"/>
	<path class="st1" d="M507.9,239.2c-4.4,4.4-7.3,5-13,4.1l-24.6-3.7l-46.5,46.5c-4.4,4.4-7.3,5-13,4.1l-24.6-3.7l-46.5,46.5
		c-4.4,4.4-7.3,5-13,4.1l-24.6-3.7l-46.5,46.5c-4.4,4.4-7.3,5-13,4.1l-24.6-3.7L171.7,427c-4.4,4.4-7.3,5-13,4.1l-24.6-3.7L87.6,474
		c-4.4,4.4-7.3,5-13,4.1l-24.6-3.7L3.6,520.9c-1.1,1.1-2.1,2-3.1,2.6v2.1c3.5-1,9.1-2.8,16.6-6.1c1.8-0.8,3.7-1.6,5.7-2.6
		c4-1.9,8.4-4.1,13.2-6.8c4.8-2.7,10-5.8,15.6-9.4c2.8-1.8,5.7-3.7,8.7-5.7c6.5-4.5,13.5-9.5,20.8-15.3l-0.6-0.1c0,0,0.4-0.1,1-0.2
		c0.9-0.7,1.9-1.5,2.8-2.2c0,0,0,0,0,0c0,0,0,0,0,0l-2.1,2.1c3.7-0.9,13.2-3.6,27.6-10.7c1.1-0.5,2.1-1.1,3.2-1.6
		c3.3-1.7,6.9-3.6,10.6-5.8c3.8-2.2,7.7-4.6,11.9-7.3c2.8-1.8,5.7-3.7,8.7-5.7c6.5-4.5,13.5-9.5,20.8-15.3l-0.6-0.1
		c0,0,0.4-0.1,1-0.2c0.9-0.7,1.9-1.5,2.8-2.2l-2.1,2.1c7.4-1.8,37.4-10.7,82.9-46.5l-0.6-0.1c0,0,0.4-0.1,1-0.2
		c0.9-0.7,1.9-1.5,2.8-2.2l-2.1,2.1c7.4-1.8,37.4-10.7,82.9-46.5l-0.6-0.1c0,0,0.4-0.1,1-0.2c0.9-0.7,1.9-1.5,2.8-2.2l-2.1,2.1
		c7.4-1.8,37.4-10.7,82.9-46.5l-0.6-0.1c0,0,0.4-0.1,1-0.2c0.9-0.7,1.9-1.5,2.8-2.2l-2.1,2.1c7.4-1.8,37.4-10.7,82.9-46.5l-0.6-0.1
		c0,0,0.3,0,0.9-0.2c0,0,0.1,0,0.2,0c0.9-0.7,1.9-1.5,2.8-2.2l-2.1,2.1c0.2,0,0.4-0.1,0.6-0.1c0.6-0.2,1.4-0.4,2.3-0.6
		s1.9-0.6,3-0.9c6.7-2.1,17.5-6.4,32-14.4c5.8-3.2,12.2-7,19.1-11.6v-23.4l-5-0.8L507.9,239.2z"/>
	<path class="st1" d="M509,423.7c-3.3,3.3-5.7,4.5-9.2,4.5c-1.1,0-2.4-0.1-3.8-0.3l-24.6-3.7l-46.5,46.5c-4.4,4.4-7.3,5-13,4.1
		l-24.6-3.7l-46.5,46.5c-4.4,4.4-7.3,5-13,4.1l-24.6-3.7l-41,41h17c14-6.9,32.7-18,55-35.6l-0.6-0.1c0,0,0.4-0.1,1-0.2
		c0.9-0.7,1.9-1.5,2.8-2.2l-2.1,2.1c7.4-1.8,37.4-10.7,82.9-46.5l-0.6-0.1c0,0,0.4-0.1,1-0.2c0.9-0.7,1.9-1.5,2.8-2.2l-2.1,2.1
		c2.9-0.7,9.3-2.5,18.9-6.7c1.8-0.8,3.7-1.6,5.7-2.6c4-1.9,8.4-4.1,13.2-6.8c4.8-2.7,10-5.8,15.6-9.4c2.8-1.8,5.7-3.7,8.7-5.7
		c6.5-4.5,13.5-9.5,20.8-15.3l-0.6-0.1c0,0,0.4-0.1,1-0.2c0.9-0.7,1.9-1.5,2.8-2.2c0,0,0,0,0,0c0,0,0,0,0,0l-2.1,2.1
		c2.6-0.6,8.2-2.2,16.3-5.6c0.8-0.3,1.7-0.7,2.6-1.1c6.2-2.7,13.8-6.4,22.6-11.5c2.5-1.4,5.1-3,7.8-4.7c2.1-1.3,4.3-2.7,6.5-4.1
		v-24.3l-4-0.6L509,423.7z"/>
	<path class="st1" d="M534.8,435l-46.5,46.5c-4.4,4.4-7.3,5-13,4.1l-24.6-3.7l-46.5,46.5c-4.4,4.4-7.3,5-13,4.1l-24.6-3.7L336.6,559
		h25.8c10.4-6.3,22.2-14.4,35.3-24.7l-0.6-0.1c0,0,0.3,0,0.9-0.2c0,0,0.1,0,0.2,0c0.9-0.7,1.9-1.5,2.8-2.2l-2.1,2.1
		c0.2,0,0.4-0.1,0.6-0.1c0.6-0.2,1.4-0.4,2.3-0.6s1.9-0.6,3-0.9c6.7-2.1,17.5-6.4,32-14.4c12.5-6.9,27.7-16.7,45.1-30.4l-0.6-0.1
		c0,0,0.4-0.1,1-0.2c0.9-0.7,1.9-1.5,2.8-2.2h0h0c0,0,0,0,0,0l0,0l-2.1,2.1c1.8-0.4,5-1.3,9.5-2.9c3.4-1.2,7.4-2.8,12.1-5
		c0.9-0.4,1.9-0.9,2.9-1.4c4-1.9,8.4-4.1,13.2-6.8c1.2-0.7,2.4-1.4,3.7-2.1c2.5-1.4,5.1-3,7.8-4.7c4.1-2.5,8.3-5.3,12.8-8.3
		c3-2,6.1-4.2,9.2-6.5c1.7-1.3,3.5-2.6,5.2-3.9v-6.6c-0.1,0-0.1,0-0.2,0L534.8,435z"/>
	<path class="st1" d="M548.4,375.4l-24.6-3.7l-46.5,46.5c-4.4,4.4-7.3,5-13,4.1l-24.6-3.7l-46.5,46.5c-4.4,4.4-7.3,5-13,4.1
		l-24.6-3.7l-46.5,46.5c-4.4,4.4-7.3,5-13,4.1l-24.6-3.7L225.2,559h10.5c14.5-6,37.5-17.9,67-41.1l-0.6-0.1c0,0,0.4-0.1,1-0.2
		c0.9-0.7,1.9-1.5,2.8-2.2l-2.1,2.1c7.4-1.8,37.4-10.7,82.9-46.5l-0.6-0.1c0,0,0.4-0.1,1-0.2c0.9-0.7,1.9-1.5,2.8-2.2l-2.1,2.1
		c7.4-1.8,37.4-10.7,82.9-46.5l-0.6-0.1c0,0,0.4-0.1,1-0.2c0.9-0.7,1.9-1.5,2.8-2.2l-2.1,2.1c7.4-1.8,37.4-10.7,82.9-46.5l-0.6-0.1
		c0,0,0.4-0.1,1-0.2c0.9-0.7,1.9-1.5,2.8-2.2l-2.1,2.1c0.8-0.2,2-0.5,3.4-0.9V373C556.1,375.8,553.3,376.1,548.4,375.4z"/>
	<path class="st1" d="M527.7,433.3l-24.6-3.7l-46.5,46.5c-4.4,4.4-7.3,5-13,4.1l-24.6-3.7L372.5,523c-4.4,4.4-7.3,5-13,4.1
		l-24.6-3.7L299.4,559h21.9c12.4-6.9,27.4-16.6,44.7-30.2l-0.6-0.1c0,0,0.4-0.1,1-0.2c0.9-0.7,1.9-1.5,2.8-2.2c0,0,0,0,0,0
		c0,0,0,0,0,0h0l-2.1,2.1c7.4-1.8,37.4-10.7,82.9-46.5l-0.6-0.1c0,0,0.4-0.1,1-0.2c0.9-0.7,1.9-1.5,2.8-2.2l-2.1,2.1
		c7.4-1.8,37.4-10.7,82.9-46.5l-0.6-0.1c0,0,0.4-0.1,1-0.2c0.9-0.7,1.9-1.5,2.8-2.2l-2.1,2.1c3.4-0.8,11.7-3.2,24.1-9v-15.1
		l-18.8,18.8C536.2,433.6,533.4,434.1,527.7,433.3z"/>
	<path class="st1" d="M516.8,369.9l-24.6-3.7l-46.5,46.5c-1.7,1.7-3.1,2.8-4.6,3.5s-2.9,1-4.6,1c-0.3,0-0.6,0-0.9,0
		c-0.9,0-1.9-0.2-2.9-0.3l-24.6-3.7l-46.5,46.5c-4.4,4.4-7.3,5-13,4.1l-24.6-3.7l-46.5,46.5c-4.4,4.4-7.3,5-13,4.1l-24.6-3.7
		l-46.5,46.5c-4.4,4.4-7.3,5-13,4.1l-24.6-3.7L151,559h36.5c0.9-0.7,1.8-1.4,2.7-2.1l-2.1,2.1c7.4-1.8,37.4-10.7,82.9-46.5l-0.6-0.1
		c0,0,0.4-0.1,1-0.2c0.9-0.7,1.9-1.5,2.8-2.2l-2.1,2.1c7.4-1.8,37.4-10.7,82.9-46.5l-0.6-0.1c0,0,0.4-0.1,1-0.2
		c0.9-0.7,1.9-1.5,2.8-2.2l-2.1,2.1c7.4-1.8,37.4-10.7,82.9-46.5l-0.6-0.1c0,0,0.4-0.1,1-0.2c0.9-0.7,1.9-1.5,2.8-2.2l-2.1,2.1
		c1.6-0.4,4.1-1.1,7.6-2.2c1.2-0.4,2.6-0.9,4-1.4c3.6-1.4,8-3.2,13-5.5c3-1.4,6.2-3,9.7-4.9c4.6-2.5,9.6-5.3,15-8.7
		c5.4-3.3,11.2-7.2,17.3-11.5c5.2-3.7,10.6-7.7,16.3-12.2l-0.6-0.1c0,0,0.4-0.1,1-0.2c0.9-0.7,1.9-1.5,2.8-2.2l-2.1,2.1
		c4.3-1,16.5-4.6,35.1-14.6v-20.5l-29.7,29.7C525.3,370.3,522.5,370.8,516.8,369.9z"/>
	<path class="st1" d="M537.5,312.1l-24.6-3.7l-46.5,46.5c-4.4,4.4-7.3,5-13,4.1l-24.6-3.7l-46.5,46.5c-4.4,4.4-7.3,5-13,4.1
		l-24.6-3.7l-46.5,46.5c-4.4,4.4-7.3,5-13,4.1l-24.6-3.7l-46.5,46.5c-4.4,4.4-7.3,5-13,4.1l-24.6-3.7l-46.5,46.5
		c-1.7,1.7-3.1,2.8-4.6,3.5c-2.4,1.2-4.9,1.2-8.4,0.6l-24.6-3.7L76.8,559h33c4.5-3.2,9.1-6.7,13.9-10.5l-0.6-0.1c0,0,0.4-0.1,1-0.2
		c0.9-0.7,1.9-1.5,2.8-2.2l-2.1,2.1c7.4-1.8,37.4-10.7,82.9-46.5l-0.6-0.1c0,0,0.4-0.1,1-0.2c0.9-0.7,1.9-1.5,2.8-2.2l-2.1,2.1
		c7.4-1.8,37.4-10.7,82.9-46.5l-0.6-0.1c0,0,0.4-0.1,1-0.2c0.9-0.7,1.9-1.5,2.8-2.2l-2.1,2.1c7.4-1.8,37.4-10.7,82.9-46.5l-0.6-0.1
		c0,0,0.4-0.1,1-0.2c0.9-0.7,1.9-1.5,2.8-2.2l-2.1,2.1c7.4-1.8,37.4-10.7,82.9-46.5l-0.6-0.1c0,0,0.4-0.1,1-0.2
		c0.9-0.7,1.9-1.5,2.8-2.2l-2.1,2.1c7.4-1.8,37.4-10.7,82.9-46.5l-0.6-0.1c0,0,0.4-0.1,1-0.2c0.9-0.7,1.9-1.5,2.8-2.2l-2.1,2.1
		c2.4-0.6,7.3-1.9,14.3-4.8V299l-9,9C546.1,312.4,543.3,312.9,537.5,312.1z"/>
	<path class="st1" d="M498.1,360.4c-4.4,4.4-7.3,5-13,4.1l-24.6-3.7L414,407.3c-4.4,4.4-7.3,5-13,4.1l-24.6-3.7L330,454.3
		c-4.4,4.4-7.3,5-13,4.1l-24.6-3.7l-46.5,46.5c-4.4,4.4-7.3,5-13,4.1l-24.6-3.7l-46.5,46.5c-0.8,0.8-1.6,1.5-2.4,2.1
		c-3.2,2.5-6,2.7-10.6,2l-24.6-3.7L113.9,559h34.9c2.1-1.6,4.3-3.3,6.5-5l-0.6-0.1c0,0,0.4-0.1,1-0.2c0.9-0.7,1.9-1.5,2.8-2.2
		l-2.1,2.1c7.4-1.8,37.4-10.7,82.9-46.5l-0.6-0.1c0,0,0.4-0.1,1-0.2c0.9-0.7,1.9-1.5,2.8-2.2l-2.1,2.1c7.4-1.8,37.4-10.7,82.9-46.5
		l-0.6-0.1c0,0,0.4-0.1,1-0.2c0.9-0.7,1.9-1.5,2.8-2.2l-2.1,2.1c7.4-1.8,37.4-10.7,82.9-46.5l-0.6-0.1c0,0,0.4-0.1,1-0.2
		c0.9-0.7,1.9-1.5,2.8-2.2l-2.1,2.1c7.4-1.8,37.4-10.7,82.9-46.5l-0.6-0.1c0,0,0.4-0.1,1-0.2c0.9-0.7,1.9-1.5,2.8-2.2l-2.1,2.1
		c6.5-1.6,30.3-8.6,66.7-34.4v-15.2l-14.9-2.2L498.1,360.4z"/>
	<path class="st1" d="M517.3,304c-0.3,0.2-0.5,0.4-0.8,0.6c-0.2,0.2-0.5,0.4-0.7,0.5s-0.5,0.3-0.7,0.5c-0.5,0.3-1,0.5-1.5,0.7
		c-0.2,0.1-0.5,0.2-0.7,0.2c-0.2,0.1-0.5,0.1-0.8,0.2c-0.5,0.1-1,0.2-1.6,0.2c-0.5,0-1.1,0-1.7,0c-0.9,0-1.9-0.2-2.9-0.3l-24.6-3.7
		l-46.5,46.5c-4.4,4.4-7.3,5-13,4.1l-24.6-3.7l-46.5,46.5c-3.3,3.3-5.7,4.5-9.2,4.5c-1.1,0-2.4-0.1-3.8-0.3l-24.6-3.7l-46.5,46.5
		c-1.1,1.1-2.1,2-3.1,2.6c-2.9,2-5.6,2.1-9.9,1.5l-24.6-3.7l-46.5,46.5c-4.4,4.4-7.3,5-13,4.1l-24.6-3.7l-46.5,46.5
		c-4.4,4.4-7.3,5-13,4.1L61,537.7L39.7,559h30.6c6.8-4.6,14-9.9,21.7-15.9l-0.6-0.1c0,0,0.3,0,0.9-0.2c0,0,0.1,0,0.2,0
		c0.9-0.7,1.9-1.5,2.8-2.2l-2.1,2.1c0.2,0,0.4-0.1,0.6-0.1c0.6-0.2,1.4-0.4,2.3-0.6s1.9-0.6,3-0.9c6.7-2.1,17.5-6.4,32-14.4
		c12.5-6.9,27.7-16.7,45.1-30.4l-0.6-0.1c0,0,0.4-0.1,1-0.2c0.9-0.7,1.9-1.5,2.8-2.2h0h0c0,0,0,0,0,0l0,0l-2.1,2.1
		c7.4-1.8,37.4-10.7,82.9-46.5l-0.6-0.1c0,0,0.4-0.1,1-0.2c0.9-0.7,1.9-1.5,2.8-2.2l-2.1,2.1c7.4-1.8,37.4-10.7,82.9-46.5l-0.6-0.1
		c0,0,0.4-0.1,1-0.2c0.9-0.7,1.9-1.5,2.8-2.2l-2.1,2.1c7.4-1.8,37.4-10.7,82.9-46.5l-0.6-0.1c0,0,0.4-0.1,1-0.2
		c0.9-0.7,1.9-1.5,2.8-2.2l-2.1,2.1c7.4-1.8,37.4-10.7,82.9-46.5l-0.6-0.1c0,0,0.4-0.1,1-0.2c0.9-0.7,1.9-1.5,2.8-2.2l-2.1,2.1
		c5.2-1.2,21.3-6,46-20.8v-25.2l-40.6,40.6C518.3,303.1,517.8,303.6,517.3,304z"/>
	<path class="st1" d="M525.5,64.3L501,60.6l-46.5,46.5c-0.8,0.8-1.6,1.5-2.4,2.1c-3.2,2.5-6,2.7-10.6,2l-24.6-3.7l-46.5,46.5
		c-4.4,4.4-7.3,5-13,4.1l-24.6-3.7L286.3,201c-4.4,4.4-7.3,5-13,4.1l-24.6-3.7L202.3,248c-3.6,3.6-6.1,4.6-10,4.4
		c-0.6,0-1.2-0.1-1.9-0.2c-0.3,0-0.7-0.1-1-0.1l-24.6-3.7l-46.5,46.5c-4.4,4.4-7.3,5-13,4.1l-24.6-3.7l-46.5,46.5
		c-4.4,4.4-7.3,5-13,4.1l-20.7-3.1v24.3c2.1-1.4,4.2-2.8,6.4-4.2c6.5-4.5,13.5-9.5,20.8-15.3l-0.6-0.1c0,0,0.4-0.1,1-0.2
		c0.9-0.7,1.9-1.5,2.8-2.2l-2.1,2.1c7.4-1.8,37.4-10.7,82.9-46.5l-0.6-0.1c0,0,0.4-0.1,1-0.2c0.9-0.7,1.9-1.5,2.8-2.2l-2.1,2.1
		c2.6-0.6,8.2-2.2,16.3-5.6c0.8-0.3,1.7-0.7,2.6-1.1c6.2-2.7,13.8-6.4,22.6-11.5c2.5-1.4,5.1-3,7.8-4.7s5.5-3.5,8.4-5.4
		c7.7-5.1,16.2-11.2,25.2-18.3l-0.6-0.1c0,0,0.4-0.1,1-0.2c0.9-0.7,1.9-1.5,2.8-2.2l-2.1,2.1c7.4-1.8,37.4-10.7,82.9-46.5l-0.6-0.1
		c0,0,0.4-0.1,1-0.2c0.9-0.7,1.9-1.5,2.8-2.2l-2.1,2.1c7.4-1.8,37.4-10.7,82.9-46.5l-0.6-0.1c0,0,0.4-0.1,1-0.2
		c0.9-0.7,1.9-1.5,2.8-2.2l-2.1,2.1c7.4-1.8,37.4-10.7,82.9-46.5l-0.6-0.1c0,0,0.4-0.1,1-0.2c0.9-0.7,1.9-1.5,2.8-2.2l-2.1,2.1
		c7.4-1.8,37.4-10.7,82.9-46.5l-0.6-0.1c0,0,0.4-0.1,1-0.2c0.9-0.7,1.9-1.5,2.8-2.2l-2.1,2.1c3.6-0.9,12.7-3.5,26.3-10.1V39.2
		l-20.9,20.9C534.1,64.6,531.3,65.1,525.5,64.3z"/>
	<path class="st1" d="M430.6,47.9L406,44.3l-46.5,46.5c-4.4,4.4-7.3,5-13,4.1l-24.6-3.7l-46.5,46.5c-1.1,1.1-2.1,2-3.1,2.6
		c-2.9,2-5.6,2.1-9.9,1.5l-24.6-3.7l-46.5,46.5c-4.4,4.4-7.3,5-13,4.1l-24.6-3.7l-46.5,46.5c-4.4,4.4-7.3,5-13,4.1l-24.6-3.7
		l-46.5,46.5c-4.4,4.4-7.3,5-13,4.1l-9.8-1.5v15.3c5.2-3.7,10.6-7.7,16.3-12.1l-0.6-0.1c0,0,0.4-0.1,1-0.2c0.9-0.7,1.9-1.5,2.8-2.2
		l-2.1,2.1c3.7-0.9,13.2-3.6,27.6-10.7c1.1-0.5,2.1-1.1,3.2-1.6c3.3-1.7,6.9-3.6,10.6-5.8s7.7-4.6,11.9-7.3c2.8-1.8,5.7-3.7,8.7-5.7
		c6.5-4.5,13.5-9.5,20.8-15.3l-0.6-0.1c0,0,0.4-0.1,1-0.2c0.9-0.7,1.9-1.5,2.8-2.2l-2.1,2.1c2.9-0.7,9.3-2.5,18.9-6.7
		c1.8-0.8,3.7-1.6,5.7-2.6c4-1.9,8.4-4.1,13.2-6.8c4.8-2.7,10-5.8,15.6-9.4c2.8-1.8,5.7-3.7,8.7-5.7c6.5-4.5,13.5-9.5,20.8-15.3
		l-0.6-0.1c0,0,0.4-0.1,1-0.2c0.9-0.7,1.9-1.5,2.8-2.2c0,0,0,0,0,0c0,0,0,0,0,0L186,190c7.4-1.8,37.4-10.7,82.9-46.5l-0.6-0.1
		c0,0,0.4-0.1,1-0.2c0.9-0.7,1.9-1.5,2.8-2.2l-2.1,2.1c7.4-1.8,37.4-10.7,82.9-46.5l-0.6-0.1c0,0,0.4-0.1,1-0.2
		c0.9-0.7,1.9-1.5,2.8-2.2l-2.1,2.1c7.4-1.8,37.4-10.7,82.9-46.5l-0.6-0.1c0,0,0.4-0.1,1-0.2c0.9-0.7,1.9-1.5,2.8-2.2l-2.1,2.1
		c7.4-1.8,37.4-10.7,82.9-46.5l-0.6-0.1c0,0,0.4-0.1,1-0.2c0.9-0.7,1.9-1.5,2.8-2.2l-2.1,2.1c1.5-0.4,4-1,7.3-2.1h-5.9
		c-2.6,1.5-5.1,1.5-9,0.9L508.4,0h-21l-43.8,43.8C439.1,48.2,436.3,48.8,430.6,47.9z"/>
	<path class="st1" d="M70,45.1c-2.4,1.2-4.9,1.2-8.4,0.6L37,42.1L0.5,78.7v10.2c2.8-1.1,5.9-2.5,9.3-4.1c3-1.4,6.2-3,9.7-4.9
		c4.6-2.5,9.6-5.3,15-8.7c5.4-3.3,11.2-7.2,17.3-11.5C57,56,62.4,51.9,68.1,47.5l-0.6-0.1c0,0,0.4-0.1,1-0.2
		c0.9-0.7,1.9-1.5,2.8-2.2L69.3,47c7.4-1.8,37.4-10.7,82.9-46.5l-0.6-0.1c0,0,0.4-0.1,1-0.2c0.1-0.1,0.2-0.1,0.2-0.2h-36.6
		L74.6,41.7C72.9,43.3,71.5,44.4,70,45.1z"/>
	<path class="st1" d="M406.6,42.1c-2.2,0.8-4.5,0.8-7.7,0.3l-24.6-3.7l-46.5,46.5c-4.4,4.4-7.3,5-13,4.1l-24.6-3.7l-46.5,46.5
		c-0.6,0.6-1.1,1-1.6,1.5s-1,0.8-1.5,1.2c-0.2,0.2-0.5,0.3-0.7,0.5c-0.5,0.3-1,0.5-1.5,0.7s-1,0.3-1.5,0.4c-0.5,0.1-1,0.2-1.6,0.2
		c-1.4,0.1-2.9,0-4.7-0.3l-24.6-3.7l-46.5,46.5c-4.4,4.4-7.3,5-13,4.1l-24.6-3.7l-46.5,46.5c-3.3,3.3-5.7,4.5-9.2,4.5
		c-1.1,0-2.4-0.1-3.8-0.3l-24.6-3.7L0.5,264.2v9.5c1.5-0.6,3-1.2,4.7-1.9c1.8-0.8,3.7-1.6,5.7-2.6c4-1.9,8.4-4.1,13.2-6.8
		c4.8-2.7,10-5.8,15.6-9.4c2.8-1.8,5.7-3.7,8.7-5.7c6.5-4.5,13.5-9.5,20.8-15.3l-0.6-0.1c0,0,0.4-0.1,1-0.2c0.9-0.7,1.9-1.5,2.8-2.2
		c0,0,0,0,0,0c0,0,0,0,0,0l-2.1,2.1c7.4-1.8,37.4-10.7,82.9-46.5l-0.6-0.1c0,0,0.4-0.1,1-0.2c0.9-0.7,1.9-1.5,2.8-2.2l-2.1,2.1
		c7.4-1.8,37.4-10.7,82.9-46.5l-0.6-0.1c0,0,0.4-0.1,1-0.2c0.9-0.7,1.9-1.5,2.8-2.2l-2.1,2.1c1.6-0.4,4.1-1.1,7.6-2.2
		c1.2-0.4,2.6-0.9,4-1.4c3.6-1.4,8-3.2,13-5.5c3-1.4,6.2-3,9.7-4.9c4.6-2.5,9.6-5.3,15-8.7c5.4-3.3,11.2-7.2,17.3-11.5
		c5.2-3.7,10.6-7.7,16.3-12.2l-0.6-0.1c0,0,0.4-0.1,1-0.2c0.9-0.7,1.9-1.5,2.8-2.2l-2.1,2.1c7.4-1.8,37.4-10.7,82.9-46.5l-0.6-0.1
		c0,0,0.4-0.1,1-0.2c0.9-0.7,1.9-1.5,2.8-2.2l-2.1,2.1c7.2-1.7,35.8-10.2,79.3-43.6h-35.6l-38.3,38.3
		C410,40.3,408.3,41.5,406.6,42.1z"/>
	<path class="st1" d="M0.5,35.1v4.7c1.4-1.1,2.8-2.2,4.3-3.3l-0.6-0.1c0,0,0.4-0.1,1-0.2C6.1,35.5,7,34.8,8,34l0,0l-2.1,2.1
		C12.6,34.5,37.3,27.2,75,0H42L11.3,30.8C7.4,34.6,4.8,35.5,0.5,35.1z"/>
	<path class="st1" d="M375.7,36.4c-2.4,1.2-4.9,1.2-8.4,0.6l-24.6-3.7l-46.5,46.5c-4.4,4.4-7.3,5-13,4.1l-24.6-3.7l-46.5,46.5
		c-4.4,4.4-7.3,5-13,4.1l-24.6-3.7l-46.5,46.5c-4.4,4.4-7.3,5-13,4.1l-24.6-3.7L44,220.7c-1.7,1.7-3.1,2.8-4.6,3.5
		c-2.4,1.2-4.9,1.2-8.4,0.6l-24.6-3.7l-5.9,5.9v25.1c10.8-6.5,23.2-14.8,37-25.7l-0.6-0.1c0,0,0.4-0.1,1-0.2
		c0.9-0.7,1.9-1.5,2.8-2.2l-2.1,2.1c7.4-1.8,37.4-10.7,82.9-46.5l-0.6-0.1c0,0,0.4-0.1,1-0.2c0.9-0.7,1.9-1.5,2.8-2.2l-2.1,2.1
		c7.4-1.8,37.4-10.7,82.9-46.5l-0.6-0.1c0,0,0.4-0.1,1-0.2c0.9-0.7,1.9-1.5,2.8-2.2l-2.1,2.1c7.4-1.8,37.4-10.7,82.9-46.5l-0.6-0.1
		c0,0,0.4-0.1,1-0.2c0.9-0.7,1.9-1.5,2.8-2.2l-2.1,2.1c7.4-1.8,37.4-10.7,82.9-46.5l-0.6-0.1c0,0,0.4-0.1,1-0.2
		c0.9-0.7,1.9-1.5,2.8-2.2l-2.1,2.1c3.7-0.9,13.2-3.6,27.6-10.7c1.1-0.5,2.1-1.1,3.2-1.6c3.3-1.7,6.9-3.6,10.6-5.8
		c3.8-2.2,7.7-4.6,11.9-7.3c2.8-1.8,5.7-3.7,8.7-5.7c3.2-2.2,6.5-4.5,9.9-7h-33.8l-32.9,32.9C378.6,34.6,377.2,35.7,375.7,36.4z"/>
	<path class="st1" d="M243.6,15.5c-0.6,0-1.2-0.1-1.9-0.2c-0.3,0-0.7-0.1-1-0.1l-24.6-3.7L169.6,58c-4.4,4.4-7.3,5-13,4.1L132,58.5
		L85.5,105c-0.8,0.8-1.6,1.5-2.4,2.1c-1.2,1-2.4,1.6-3.7,1.9c-0.7,0.2-1.5,0.3-2.3,0.4c-0.5,0-1.1,0-1.7,0c-0.9,0-1.9-0.2-2.9-0.3
		l-24.6-3.7L1.4,151.9c-0.3,0.3-0.6,0.6-0.9,0.9v3.2c11.7-3.6,39.3-14.5,78.5-45.3l-0.6-0.1c0,0,0.4-0.1,1-0.2
		c0.9-0.7,1.9-1.5,2.8-2.2l-2.1,2.1c7.4-1.8,37.4-10.7,82.9-46.5l-0.6-0.1c0,0,0.4-0.1,1-0.2c0.9-0.7,1.9-1.5,2.8-2.2l-2.1,2.1
		c7.4-1.8,37.4-10.7,82.9-46.5l-0.6-0.1c0,0,0.4-0.1,1-0.2c0.9-0.7,1.9-1.5,2.8-2.2l-2.1,2.1c4.6-1.1,18-5,38.4-16.4h-22l-11,11
		C250,14.7,247.5,15.7,243.6,15.5z"/>
	<path class="st1" d="M177.3,4.3l-24.6-3.7l-46.5,46.5c-4.4,4.4-7.3,5-13,4.1l-24.6-3.7L22.2,94.1c-1.1,1.1-2.1,2-3.1,2.6
		c-2.9,2-5.6,2.1-9.9,1.5l-8.7-1.3v14.4c4.9-3.5,9.9-7.2,15.2-11.4L15,99.8c0,0,0.4-0.1,1-0.2c0.9-0.7,1.9-1.5,2.8-2.2l-2.1,2.1
		c7.4-1.8,37.4-10.7,82.9-46.5l-0.6-0.1c0,0,0.4-0.1,1-0.2c0.9-0.7,1.9-1.5,2.8-2.2l-2.1,2.1c7.4-1.8,37.4-10.7,82.9-46.5l-0.6-0.1
		c0,0,0.4-0.1,1-0.2c0.9-0.7,1.9-1.5,2.8-2.2L185,5.5c2.6-0.6,8.1-2.2,16.1-5.5h-10.6l-0.1,0.1C185.9,4.6,183,5.1,177.3,4.3z"/>
	<path class="st1" d="M303.9,26.1l-24.6-3.7l-46.5,46.5c-4.4,4.4-7.3,5-13,4.1l-24.6-3.7l-46.5,46.5c-4.4,4.4-7.3,5-13,4.1
		l-24.6-3.7l-46.5,46.5c-3.6,3.6-6.1,4.6-10,4.4c-0.6,0-1.2-0.1-1.9-0.2c-0.3,0-0.7-0.1-1-0.1l-24.6-3.7L0.5,190v15.6
		c14.3-6.8,33.9-18.2,57.8-36.9l-0.6-0.1c0,0,0.4-0.1,1-0.2c0.9-0.7,1.9-1.5,2.8-2.2l-2.1,2.1c7.4-1.8,37.4-10.7,82.9-46.5l-0.6-0.1
		c0,0,0.4-0.1,1-0.2c0.9-0.7,1.9-1.5,2.8-2.2l-2.1,2.1c7.4-1.8,37.4-10.7,82.9-46.5l-0.6-0.1c0,0,0.3,0,0.9-0.2c0,0,0.1,0,0.2,0
		c0.9-0.7,1.9-1.5,2.8-2.2l-2.1,2.1c0.2,0,0.4-0.1,0.6-0.1c0.6-0.2,1.4-0.4,2.3-0.6c0.9-0.3,1.9-0.6,3-0.9c6.7-2.1,17.5-6.4,32-14.4
		c12.5-6.9,27.7-16.7,45.1-30.4l-0.6-0.1c0,0,0.4-0.1,1-0.2c0.9-0.7,1.9-1.5,2.8-2.2c0,0,0,0,0,0c0,0,0,0,0,0h0l-2.1,2.1
		c1.8-0.4,5-1.3,9.5-2.9c3.4-1.2,7.4-2.8,12.1-5c0.9-0.4,1.9-0.9,2.9-1.4c4-1.9,8.4-4.1,13.2-6.8c1.2-0.7,2.4-1.4,3.7-2.1
		c2.5-1.4,5.1-3,7.8-4.7c2.3-1.4,4.6-2.9,7-4.5h-29l-22,22C312.5,26.4,309.7,27,303.9,26.1z"/>
	<path class="st1" d="M153.4,0L153.4,0L153.4,0C153.3,0,153.4,0,153.4,0z"/>
	<path class="st1" d="M504.8,122.1l-24.6-3.7L433.7,165c-0.6,0.6-1.1,1-1.6,1.5s-1,0.8-1.5,1.2c-0.2,0.2-0.5,0.3-0.7,0.5
		c-0.5,0.3-1,0.5-1.5,0.7s-1,0.3-1.5,0.4c-0.5,0.1-1,0.2-1.6,0.2c-1.4,0.1-2.9,0-4.7-0.3l-24.6-3.7l-46.5,46.5
		c-1.7,1.7-3.1,2.8-4.6,3.5c-2.4,1.2-4.9,1.2-8.4,0.6l-24.6-3.7l-46.5,46.5c-0.8,0.8-1.6,1.5-2.4,2.1c-1.2,1-2.4,1.6-3.7,1.9
		c-0.7,0.2-1.5,0.3-2.3,0.4c-0.5,0-1.1,0-1.7,0c-0.9,0-1.9-0.2-2.9-0.3l-24.6-3.7l-46.5,46.5c-4.4,4.4-7.3,5-13,4.1l-24.6-3.7
		l-46.5,46.5c-4.4,4.4-7.3,5-13,4.1l-24.6-3.7l-46.5,46.5c-1.1,1.1-2.1,2-3.1,2.6c-2,1.3-3.8,1.8-6.1,1.8c-1.1,0-2.3-0.1-3.7-0.3
		v6.6c2.1-1.6,4.2-3.2,6.4-4.9l-0.6-0.1c0,0,0.3,0,0.9-0.2c0,0,0.1,0,0.2,0c0.9-0.7,1.9-1.5,2.8-2.2l-2.1,2.1c0.2,0,0.4-0.1,0.6-0.1
		c0.6-0.2,1.4-0.4,2.3-0.6c0.9-0.2,1.9-0.6,3-0.9c6.7-2.1,17.5-6.4,32-14.4c12.5-6.9,27.7-16.7,45.1-30.4l-0.6-0.1
		c0,0,0.4-0.1,1-0.2c0.9-0.7,1.9-1.5,2.8-2.2c0,0,0,0,0,0c0,0,0,0,0,0h0l-2.1,2.1c7.4-1.8,37.4-10.7,82.9-46.5l-0.6-0.1
		c0,0,0.4-0.1,1-0.2c0.9-0.7,1.9-1.5,2.8-2.2l-2.1,2.1c7.4-1.8,37.4-10.7,82.9-46.5l-0.6-0.1c0,0,0.4-0.1,1-0.2
		c0.9-0.7,1.9-1.5,2.8-2.2l-2.1,2.1c7.4-1.8,37.4-10.7,82.9-46.5l-0.6-0.1c0,0,0.4-0.1,1-0.2c0.9-0.7,1.9-1.5,2.8-2.2l-2.1,2.1
		c7.4-1.8,37.4-10.7,82.9-46.5l-0.6-0.1c0,0,0.4-0.1,1-0.2c0.9-0.7,1.9-1.5,2.8-2.2l-2.1,2.1c7.4-1.8,37.4-10.7,82.9-46.5l-0.6-0.1
		c0,0,0.4-0.1,1-0.2c0.9-0.7,1.9-1.5,2.8-2.2l-2.1,2.1c5.2-1.3,21.7-6.1,47-21.4V76.3L517.8,118C513.4,122.5,510.5,123,504.8,122.1z
		"/>
	<path class="st1" d="M29.9,40.3L5.4,36.7l-4.9,4.9v25.6C11,60.7,23,52.6,36.4,42l-0.6-0.1c0,0,0.4-0.1,1-0.2
		c0.9-0.7,1.9-1.5,2.8-2.2l-2.1,2.1c7-1.7,34.6-9.9,76.5-41.5H79.1L42.9,36.2C38.5,40.7,35.7,41.2,29.9,40.3z"/>
	<path class="st1" d="M544.9,127c-1.4,0.7-2.9,1-4.6,1c-0.3,0-0.6,0-0.9,0c-0.9,0-1.9-0.2-2.9-0.3l-24.6-3.7l-46.5,46.5
		c-4.4,4.4-7.3,5-13,4.1l-24.6-3.7l-46.5,46.5c-4.4,4.4-7.3,5-13,4.1l-24.6-3.7l-46.5,46.5c-4.4,4.4-7.3,5-13,4.1l-24.6-3.7
		l-46.5,46.5c-4.4,4.4-7.3,5-13,4.1l-24.6-3.7l-46.5,46.5c-4.4,4.4-7.3,5-13,4.1l-24.6-3.7l-46.5,46.5c-3.3,3.3-5.7,4.5-9.2,4.5
		c-1.1,0-2.4-0.1-3.8-0.3l-24.6-3.7l-7,7v24.7c11-6.5,23.8-15.1,38.1-26.4l-0.6-0.1c0,0,0.4-0.1,1-0.2c0.9-0.7,1.9-1.5,2.8-2.2
		l-2.1,2.1c7.4-1.8,37.4-10.7,82.9-46.5L122,364c0,0,0.4-0.1,1-0.2c0.9-0.7,1.9-1.5,2.8-2.2l-2.1,2.1c7.4-1.8,37.4-10.7,82.9-46.5
		l-0.6-0.1c0,0,0.4-0.1,1-0.2c0.9-0.7,1.9-1.5,2.8-2.2l-2.1,2.1c7.4-1.8,37.4-10.7,82.9-46.5l-0.6-0.1c0,0,0.4-0.1,1-0.2
		c0.9-0.7,1.9-1.5,2.8-2.2l-2.1,2.1c7.4-1.8,37.4-10.7,82.9-46.5l-0.6-0.1c0,0,0.4-0.1,1-0.2c0.9-0.7,1.9-1.5,2.8-2.2l-2.1,2.1
		c7.4-1.8,37.4-10.7,82.9-46.5l-0.6-0.1c0,0,0.4-0.1,1-0.2c0.9-0.7,1.9-1.5,2.8-2.2l-2.1,2.1c7.4-1.8,37.4-10.7,82.9-46.5l-0.6-0.1
		c0,0,0.4-0.1,1-0.2c0.9-0.7,1.9-1.5,2.8-2.2l-2.1,2.1c2.5-0.6,7.8-2.1,15.4-5.2v-10.2l-10,10C547.8,125.1,546.3,126.3,544.9,127z"
		/>
	<path class="st1" d="M532.6,66.1l-46.5,46.5c-4.4,4.4-7.3,5-13,4.1l-24.6-3.7l-46.5,46.5c-4.4,4.4-7.3,5-13,4.1l-24.6-3.7
		L318,206.5c-3.6,3.6-6.1,4.6-10,4.4c-0.6,0-1.2-0.1-1.9-0.2c-0.3,0-0.7-0.1-1-0.1l-24.6-3.7l-46.5,46.5c-4.4,4.4-7.3,5-13,4.1
		l-24.6-3.7l-46.5,46.5c-1.7,1.7-3.1,2.8-4.6,3.5c-0.5,0.2-1,0.4-1.5,0.6c-0.7,0.2-1.5,0.3-2.3,0.4c-1.4,0.1-2.9,0-4.7-0.3
		l-24.6-3.7l-46.5,46.5c-4.4,4.4-7.3,5-13,4.1l-24.6-3.7L0.5,375.5v15.1c14.4-6.8,34.4-18.2,58.8-37.5l-0.6-0.1c0,0,0.4-0.1,1-0.2
		c0.9-0.7,1.9-1.5,2.8-2.2l-2.1,2.1c7.4-1.8,37.4-10.7,82.9-46.5l-0.6-0.1c0,0,0.4-0.1,1-0.2c0.9-0.7,1.9-1.5,2.8-2.2l-2.1,2.1
		c7.4-1.8,37.4-10.7,82.9-46.5l-0.6-0.1c0,0,0.4-0.1,1-0.2c0.9-0.7,1.9-1.5,2.8-2.2l-2.1,2.1c7.4-1.8,37.4-10.7,82.9-46.5l-0.6-0.1
		c0,0,0.4-0.1,1-0.2c0.9-0.7,1.9-1.5,2.8-2.2l-2.1,2.1c7.4-1.8,37.4-10.7,82.9-46.5l-0.6-0.1c0,0,0.4-0.1,1-0.2
		c0.9-0.7,1.9-1.5,2.8-2.2l-2.1,2.1c7.4-1.8,37.4-10.7,82.9-46.5l-0.6-0.1c0,0,0.4-0.1,1-0.2c0.9-0.7,1.9-1.5,2.8-2.2l-2.1,2.1
		c7.2-1.7,35.5-10.2,78.7-43.2V70c-0.7-0.1-1.5-0.1-2.3-0.3L532.6,66.1z"/>
	<path class="st1" d="M506.9,54.7c-3.6,3.6-6.1,4.6-10,4.4c-0.6,0-1.2-0.1-1.9-0.2c-0.3,0-0.7-0.1-1-0.1l-24.6-3.7l-46.5,46.5
		c-1.7,1.7-3.1,2.8-4.6,3.5c-1.4,0.7-2.9,1-4.6,1c-1.1,0-2.4-0.1-3.8-0.3l-24.6-3.7l-46.5,46.5c-4.4,4.4-7.3,5-13,4.1l-24.6-3.7
		l-46.5,46.5c-4.4,4.4-7.3,5-13,4.1l-24.6-3.7l-46.5,46.5c-4.4,4.4-7.3,5-13,4.1l-24.6-3.7l-46.5,46.5c-1.1,1.1-2.1,2-3.1,2.6
		c-2.9,2-5.6,2.1-9.9,1.5L49,289.9L2.5,336.4c-0.7,0.7-1.4,1.3-2,1.8v2.6c11-3.2,39.1-13.8,79.6-45.6l-0.6-0.1c0,0,0.4-0.1,1-0.2
		c0.9-0.7,1.9-1.5,2.8-2.2l-2.1,2.1c7.4-1.8,37.4-10.7,82.9-46.5l-0.6-0.1c0,0,0.4-0.1,1-0.2c0.9-0.7,1.9-1.5,2.8-2.2l-2.1,2.1
		c7.4-1.8,37.4-10.7,82.9-46.5l-0.6-0.1c0,0,0.4-0.1,1-0.2c0.9-0.7,1.9-1.5,2.8-2.2l-2.1,2.1c7.4-1.8,37.4-10.7,82.9-46.5l-0.6-0.1
		c0,0,0.4-0.1,1-0.2c0.9-0.7,1.9-1.5,2.8-2.2l-2.1,2.1c7.4-1.8,37.4-10.7,82.9-46.5l-0.6-0.1c0,0,0.4-0.1,1-0.2
		c0.9-0.7,1.9-1.5,2.8-2.2l-2.1,2.1c7.4-1.8,37.4-10.7,82.9-46.5l-0.6-0.1c0,0,0.4-0.1,1-0.2c0.9-0.7,1.9-1.5,2.8-2.2l-2.1,2.1
		c5.9-1.4,26.5-7.5,57.9-28.4V9.1l-6.1-0.9L506.9,54.7z"/>
	<path class="st1" d="M335.6,31.6L311,27.9l-46.5,46.5c-4.4,4.4-7.3,5-13,4.1L227,74.8l-46.5,46.5c-4.4,4.4-7.3,5-13,4.1l-24.6-3.7
		l-46.5,46.5c-4.4,4.4-7.3,5-13,4.1l-24.6-3.7l-46.5,46.5c-4.1,4.1-6.9,4.9-11.9,4.3v5.7c1.8-1.3,3.5-2.7,5.4-4.1L5.2,221
		c0,0,0.4-0.1,1-0.2c0.9-0.7,1.9-1.5,2.8-2.2L7,220.6c7.4-1.8,37.4-10.7,82.9-46.5l-0.6-0.1c0,0,0.4-0.1,1-0.2
		c0.9-0.7,1.9-1.5,2.8-2.2l-2.1,2.1c7.4-1.8,37.4-10.7,82.9-46.5l-0.6-0.1c0,0,0.4-0.1,1-0.2c0.9-0.7,1.9-1.5,2.8-2.2l-2.1,2.1
		c2.9-0.7,9.3-2.5,18.9-6.7c1.8-0.8,3.7-1.6,5.7-2.6c4-1.9,8.4-4.1,13.2-6.8c4.8-2.7,10-5.8,15.6-9.4c2.8-1.8,5.7-3.7,8.7-5.7
		c6.5-4.5,13.5-9.5,20.8-15.3l-0.6-0.1c0,0,0.4-0.1,1-0.2c0.9-0.7,1.9-1.5,2.8-2.2c0,0,0,0,0,0c0,0,0,0,0,0l-2.1,2.1
		c7.4-1.8,37.4-10.7,82.9-46.5l-0.6-0.1c0,0,0.4-0.1,1-0.2c0.9-0.7,1.9-1.5,2.8-2.2l-2.1,2.1c6.3-1.5,29.3-8.3,64.4-32.7H376
		l-27.4,27.4C344.2,31.9,341.3,32.4,335.6,31.6z"/>
	<path class="st1" d="M272.3,20.7L247.7,17l-46.5,46.5c-4.4,4.4-7.3,5-13,4.1l-24.6-3.7l-46.5,46.5c-4.4,4.4-7.3,5-13,4.1l-24.6-3.7
		l-46.5,46.5c-4.4,4.4-7.3,5-13,4.1l-19.6-2.9v23.5c8-5.3,16.7-11.5,26.1-18.9l-0.6-0.1c0,0,0.4-0.1,1-0.2c0.9-0.7,1.9-1.5,2.8-2.2
		l-2.1,2.1c7.4-1.8,37.4-10.7,82.9-46.5l-0.6-0.1c0,0,0.4-0.1,1-0.2c0.9-0.7,1.9-1.5,2.8-2.2l-2.1,2.1c2.6-0.6,8.2-2.2,16.3-5.6
		c0.8-0.3,1.7-0.7,2.6-1.1c6.2-2.7,13.8-6.4,22.6-11.5c2.5-1.4,5.1-3,7.8-4.7c2.7-1.7,5.5-3.5,8.4-5.4c7.7-5.1,16.2-11.2,25.2-18.3
		l-0.6-0.1c0,0,0.4-0.1,1-0.2c0.9-0.7,1.9-1.5,2.8-2.2l-2.1,2.1c7.4-1.8,37.4-10.7,82.9-46.5l-0.6-0.1c0,0,0.4-0.1,1-0.2
		c0.9-0.7,1.9-1.5,2.8-2.2l-2.1,2.1c5.3-1.3,22-6.2,47.7-21.8h-25.9l-16.5,16.5C280.8,21,278,21.5,272.3,20.7z"/>
	<path class="st1" d="M546.3,6.4l-24.6-3.7l-46.5,46.5c-4.4,4.4-7.3,5-13,4.1l-24.6-3.7l-46.5,46.5c-4.4,4.4-7.3,5-13,4.1l-24.6-3.7
		l-46.5,46.5c-4.4,4.4-7.3,5-13,4.1l-24.6-3.7L223,190.1c-4.4,4.4-7.3,5-13,4.1l-24.6-3.7L139,237.1c-4.4,4.4-7.3,5-13,4.1
		l-24.6-3.7L54.9,284c-4.4,4.4-7.3,5-13,4.1l-24.6-3.7L0.5,301.3v20.5c13-7,29.1-17.2,47.9-31.9l-0.6-0.1c0,0,0.4-0.1,1-0.2
		c0.9-0.7,1.9-1.5,2.8-2.2l-2.1,2.1c7.4-1.8,37.4-10.7,82.9-46.5l-0.6-0.1c0,0,0.4-0.1,1-0.2c0.9-0.7,1.9-1.5,2.8-2.2l-2.1,2.1
		c7.4-1.8,37.4-10.7,82.9-46.5l-0.6-0.1c0,0,0.4-0.1,1-0.2c0.9-0.7,1.9-1.5,2.8-2.2l-2.1,2.1c7.4-1.8,37.4-10.7,82.9-46.5l-0.6-0.1
		c0,0,0.4-0.1,1-0.2c0.9-0.7,1.9-1.5,2.8-2.2l-2.1,2.1c2.6-0.6,8.2-2.2,16.3-5.6c0.8-0.3,1.7-0.7,2.6-1.1
		c6.2-2.7,13.8-6.4,22.6-11.5c2.5-1.4,5.1-3,7.8-4.7c2.7-1.7,5.5-3.5,8.4-5.4c7.7-5.1,16.2-11.2,25.2-18.3l-0.6-0.1
		c0,0,0.4-0.1,1-0.2c0.9-0.7,1.9-1.5,2.8-2.2l-2.1,2.1c7.4-1.8,37.4-10.7,82.9-46.5l-0.6-0.1c0,0,0.4-0.1,1-0.2
		c0.9-0.7,1.9-1.5,2.8-2.2l-2.1,2.1c7.4-1.8,37.4-10.7,82.9-46.5L552.2,8c0,0,0.4-0.1,1-0.2c0.9-0.7,1.9-1.5,2.8-2.2L554,7.6
		c1.2-0.3,3.1-0.8,5.5-1.6v-4l-0.2,0.2C554.9,6.7,552,7.3,546.3,6.4z"/>
	<path class="st1" d="M517.8,554.4l-24.6-3.7L485,559h35.6c1.2-0.9,2.5-1.9,3.7-2.9l-0.6-0.1c0,0,0.4-0.1,1-0.2
		c0.9-0.7,1.9-1.5,2.8-2.2l-2.1,2.1c4.3-1,16.1-4.4,34-14v-20l-28.7,28.7C526.4,554.8,523.6,555.3,517.8,554.4z"/>
	<path class="st1" d="M538.6,496.6l-24.6-3.7l-46.5,46.5c-4.4,4.4-7.3,5-13,4.1l-24.6-3.7L410.8,559h31.6
		c5.9-4.1,12.1-8.7,18.6-13.8l-0.6-0.1c0,0,0.4-0.1,1-0.2c0.9-0.7,1.9-1.5,2.8-2.2l-2.1,2.1c7.4-1.8,37.4-10.7,82.9-46.5l-0.6-0.1
		c0,0,0.4-0.1,1-0.2c0.9-0.7,1.9-1.5,2.8-2.2l-2.1,2.1c2.3-0.6,6.8-1.8,13.2-4.3v-8.9l-7.9,7.9C547.1,496.9,544.3,497.4,538.6,496.6
		z"/>
	<path class="st1" d="M499.2,544.9c-4.4,4.4-7.3,5-13,4.1l-24.6-3.7L447.9,559h33.8c3.6-2.6,7.2-5.4,11-8.4l-0.6-0.1
		c0,0,0.4-0.1,1-0.2c0.9-0.7,1.9-1.5,2.8-2.2l-2.1,2.1c6.4-1.5,29.8-8.5,65.6-33.6v-16.1l-13.8-2.1L499.2,544.9z"/>
	<polygon class="st1" points="522.1,559 543.7,559 524.9,556.2 	"/>
	<path class="st1" d="M559.5,559v-0.7c-0.4,0.3-0.8,0.5-1.1,0.7H559.5z"/>
	<path class="st1" d="M516.8,489.6c-2.9,2-5.6,2.1-9.9,1.5l-24.6-3.7L435.9,534c-4.4,4.4-7.3,5-13,4.1l-24.6-3.7L373.7,559h29
		c8.2-5.3,17.1-11.7,26.7-19.3l-0.6-0.1c0,0,0.4-0.1,1-0.2c0.9-0.7,1.9-1.5,2.8-2.2l-2.1,2.1c7.4-1.8,37.4-10.7,82.9-46.5l-0.6-0.1
		c0,0,0.4-0.1,1-0.2c0.9-0.7,1.9-1.5,2.8-2.2l-2.1,2.1c5.1-1.2,20.8-5.8,44.9-20.1v-24.8L519.9,487
		C518.8,488.1,517.8,489,516.8,489.6z"/>
	<path fill="#002A3A" d="M547.2,311.2c-1,0.8-1.9,1.5-2.8,2.2c-0.7,0.1-1,0.2-1,0.2l0.6,0.1c-45.5,35.8-75.5,44.7-82.9,46.5l2.1-2.1
		c-1,0.8-1.9,1.5-2.8,2.2c-0.7,0.1-1,0.2-1,0.2l0.6,0.1c-45.5,35.8-75.5,44.7-82.9,46.5l2.1-2.1c-1,0.8-1.9,1.5-2.8,2.2
		c-0.7,0.1-1,0.2-1,0.2l0.6,0.1c-45.5,35.8-75.5,44.7-82.9,46.5l2.1-2.1c-1,0.8-1.9,1.5-2.8,2.2c-0.7,0.1-1,0.2-1,0.2l0.6,0.1
		c-45.5,35.8-75.5,44.7-82.9,46.5l2.1-2.1c-1,0.8-1.9,1.5-2.8,2.2c-0.7,0.1-1,0.2-1,0.2l0.6,0.1c-45.5,35.8-75.5,44.7-82.9,46.5
		l2.1-2.1c-1,0.8-1.9,1.5-2.8,2.2c-0.7,0.1-1,0.2-1,0.2l0.6,0.1c-4.8,3.8-9.5,7.3-13.9,10.5h4.1l10.4-10.4l24.6,3.7
		c4.7,0.7,7.4,0.5,10.6-2c0.7-0.6,1.5-1.3,2.4-2.1l46.5-46.5l24.6,3.7c5.7,0.9,8.6,0.3,13-4.1l46.5-46.5l24.6,3.7
		c5.7,0.9,8.6,0.3,13-4.1l46.5-46.5l24.6,3.7c5.7,0.9,8.6,0.3,13-4.1l46.5-46.5l24.6,3.7c5.7,0.9,8.6,0.3,13-4.1l46.5-46.5l14.9,2.2
		v-7.5c-7,2.8-11.9,4.2-14.3,4.8L547.2,311.2z"/>
	<path fill="#002A3A" d="M526.5,369.1c-1,0.8-1.9,1.5-2.8,2.2c-0.7,0.1-1,0.2-1,0.2l0.6,0.1c-5.7,4.4-11.1,8.5-16.3,12.2
		c-6.1,4.3-11.9,8.2-17.3,11.5c-5.4,3.3-10.4,6.2-15,8.7c-3.5,1.9-6.7,3.5-9.7,4.9c-5,2.4-9.3,4.2-13,5.5c-1.5,0.5-2.8,1-4,1.4
		c-3.5,1.2-6,1.9-7.6,2.2l2.1-2.1c-1,0.8-1.9,1.5-2.8,2.2c-0.7,0.1-1,0.2-1,0.2l0.6,0.1c-45.5,35.8-75.5,44.7-82.9,46.5l2.1-2.1
		c-1,0.8-1.9,1.5-2.8,2.2c-0.7,0.1-1,0.2-1,0.2l0.6,0.1c-45.5,35.8-75.5,44.7-82.9,46.5l2.1-2.1c-1,0.8-1.9,1.5-2.8,2.2
		c-0.7,0.1-1,0.2-1,0.2l0.6,0.1c-45.5,35.8-75.5,44.7-82.9,46.5l2.1-2.1c-0.9,0.7-1.8,1.4-2.7,2.1h37.7l46.4-46.4l24.6,3.7
		c5.7,0.9,8.6,0.3,13-4.1l46.5-46.5l24.6,3.7c5.7,0.9,8.6,0.3,13-4.1l46.5-46.5l24.6,3.7c5.7,0.9,8.6,0.3,13-4.1l46.5-46.5l24.6,3.7
		c4.9,0.7,7.6,0.4,11.1-2.4v-16.4c-18.5,10-30.7,13.5-35.1,14.6L526.5,369.1z"/>
	<path fill="#002A3A" d="M558.2,374.5c-1,0.8-1.9,1.5-2.8,2.2c-0.7,0.1-1,0.2-1,0.2l0.6,0.1c-45.5,35.8-75.5,44.7-82.9,46.5l2.1-2.1
		c-1,0.8-1.9,1.5-2.8,2.2c-0.7,0.1-1,0.2-1,0.2l0.6,0.1c-45.5,35.8-75.5,44.7-82.9,46.5l2.1-2.1c-1,0.8-1.9,1.5-2.8,2.2
		c-0.7,0.1-1,0.2-1,0.2l0.6,0.1c-45.5,35.8-75.5,44.7-82.9,46.5l2.1-2.1c-1,0.8-1.9,1.5-2.8,2.2c-0.7,0.1-1,0.2-1,0.2l0.6,0.1
		c-29.5,23.2-52.5,35.1-67,41.1h26.6l41-41l24.6,3.7c5.7,0.9,8.6,0.3,13-4.1l46.5-46.5l24.6,3.7c5.7,0.9,8.6,0.3,13-4.1l46.5-46.5
		l24.6,3.7c1.4,0.2,2.7,0.3,3.8,0.3c3.4,0,5.8-1.1,9.2-4.5l46.5-46.5l4,0.6v-2.1c-1.4,0.4-2.6,0.7-3.4,0.9L558.2,374.5z"/>
	<path fill="#002A3A" d="M525.4,184.6c-1,0.8-1.9,1.5-2.8,2.2c-0.7,0.1-1,0.2-1,0.2l0.6,0.1c-45.5,35.8-75.5,44.7-82.9,46.5l2.1-2.1
		c0,0,0,0,0,0l0,0c-1,0.8-1.9,1.5-2.8,2.2c-0.7,0.1-1,0.2-1,0.2l0.6,0.1c-7.3,5.8-14.3,10.9-20.8,15.3c-3,2-5.9,4-8.7,5.7
		c-5.6,3.6-10.8,6.7-15.6,9.4c-4.8,2.7-9.2,4.9-13.2,6.8c-2,0.9-3.9,1.8-5.7,2.6c-9.5,4.1-16,6-18.9,6.7l2.1-2.1
		c-1,0.8-1.9,1.5-2.8,2.2c-0.7,0.1-1,0.2-1,0.2l0.6,0.1c-45.5,35.8-75.5,44.7-82.9,46.5l2.1-2.1c-1,0.8-1.9,1.5-2.8,2.2
		c-0.7,0.1-1,0.2-1,0.2l0.6,0.1c-45.5,35.8-75.5,44.7-82.9,46.5l2.1-2.1c-1,0.8-1.9,1.5-2.8,2.2c-0.7,0.1-1,0.2-1,0.2l0.6,0.1
		c-45.5,35.8-75.5,44.7-82.9,46.5l2.1-2.1c-1,0.8-1.9,1.5-2.8,2.2c-0.7,0.1-1,0.2-1,0.2l0.6,0.1c-45.5,35.8-75.5,44.7-82.9,46.5
		l2.1-2.1c-1,0.8-1.9,1.5-2.8,2.2c-0.7,0.1-1,0.2-1,0.2l0.6,0.1c-6.1,4.8-11.8,9-17.3,12.9v5.1L18.4,469l24.6,3.7
		c5.7,0.9,8.6,0.3,13-4.1l46.5-46.5l24.6,3.7c1.8,0.3,3.3,0.4,4.7,0.3c0.5,0,1.1-0.1,1.6-0.2c0.5-0.1,1-0.2,1.5-0.4
		c0.5-0.2,1-0.4,1.5-0.7c0.2-0.1,0.5-0.3,0.7-0.5c0.5-0.3,1-0.7,1.5-1.2c0.5-0.4,1-0.9,1.6-1.5l46.5-46.5l24.6,3.7
		c4.3,0.6,7,0.5,9.9-1.5c1-0.7,2-1.5,3.1-2.6l46.5-46.5l24.6,3.7c5.7,0.9,8.6,0.3,13-4.1l46.5-46.5l24.6,3.7c5.7,0.9,8.6,0.3,13-4.1
		l46.5-46.5l24.6,3.7c5.7,0.9,8.6,0.3,13-4.1l46.5-46.5l24.6,3.7c5.4,0.8,8.2,0.4,12.1-3.3v-16.1c-19.1,10.4-31.7,14.1-36.1,15.1
		L525.4,184.6z"/>
	<path fill="#002A3A" d="M536.3,247.9c-1,0.8-1.9,1.5-2.8,2.2c-0.7,0.1-1,0.2-1,0.2l0.6,0.1c-45.5,35.8-75.5,44.7-82.9,46.5l2.1-2.1
		c-1,0.8-1.9,1.5-2.8,2.2c-0.7,0.1-1,0.2-1,0.2l0.6,0.1c-45.5,35.8-75.5,44.7-82.9,46.5l2.1-2.1c-1,0.8-1.9,1.5-2.8,2.2
		c-0.7,0.1-1,0.2-1,0.2l0.6,0.1c-45.5,35.8-75.5,44.7-82.9,46.5l2.1-2.1c-1,0.8-1.9,1.5-2.8,2.2c-0.7,0.1-1,0.2-1,0.2l0.6,0.1
		c-9,7.1-17.5,13.1-25.2,18.3c-2.9,1.9-5.7,3.7-8.4,5.4c-2.7,1.7-5.3,3.2-7.8,4.7c-8.8,5.1-16.4,8.8-22.6,11.5
		c-0.9,0.4-1.8,0.8-2.6,1.1c-8.1,3.4-13.6,4.9-16.3,5.6l2.1-2.1c-1,0.8-1.9,1.5-2.8,2.2c-0.7,0.1-1,0.2-1,0.2l0.6,0.1
		C151.3,474,121.4,483,114,484.7l2.1-2.1c-1,0.8-1.9,1.5-2.8,2.2c-0.7,0.1-1,0.2-1,0.2l0.6,0.1c-45.5,35.8-75.5,44.7-82.9,46.5
		l2.1-2.1c-1,0.8-1.9,1.5-2.8,2.2c-0.7,0.1-1,0.2-1,0.2l0.6,0.1c-10.2,8-19.7,14.7-28.2,20.2v6.6h2.1l26.8-26.8l24.6,3.7
		c5.7,0.9,8.6,0.3,13-4.1l46.5-46.5l24.6,3.7c5.7,0.9,8.6,0.3,13-4.1l46.5-46.5L222,442c5.7,0.9,8.6,0.3,13-4.1l46.5-46.5l24.6,3.7
		c5.7,0.9,8.6,0.3,13-4.1l46.5-46.5l24.6,3.7c4.7,0.7,7.4,0.5,10.6-2c0.7-0.6,1.5-1.3,2.4-2.1l46.5-46.5l24.6,3.7
		c5.7,0.9,8.6,0.3,13-4.1l46.5-46.5l24.6,3.7c0.4,0.1,0.8,0.1,1.2,0.2v-14c-13,6.2-21.7,8.7-25.2,9.6L536.3,247.9z"/>
	<path fill="#002A3A" d="M483.9,300.3c-1,0.8-1.9,1.5-2.8,2.2c-0.7,0.1-1,0.2-1,0.2l0.6,0.1c-45.5,35.8-75.5,44.7-82.9,46.5l2.1-2.1
		c-1,0.8-1.9,1.5-2.8,2.2c-0.7,0.1-1,0.2-1,0.2l0.6,0.1c-45.5,35.8-75.5,44.7-82.9,46.5l2.1-2.1c-1,0.8-1.9,1.5-2.8,2.2
		c-0.7,0.1-1,0.2-1,0.2l0.6,0.1c-45.5,35.8-75.5,44.7-82.9,46.5l2.1-2.1c-1,0.8-1.9,1.5-2.8,2.2c-0.7,0.1-1,0.2-1,0.2l0.6,0.1
		c-45.5,35.8-75.5,44.7-82.9,46.5l2.1-2.1c-1,0.8-1.9,1.5-2.8,2.2c-0.7,0.1-1,0.2-1,0.2l0.6,0.1c-45.5,35.8-75.5,44.7-82.9,46.5
		l2.1-2.1c-1,0.8-1.9,1.5-2.8,2.2c-0.7,0.1-1,0.2-1,0.2l0.6,0.1c-10.9,8.6-21,15.6-30,21.4h9.3L61,537.7l24.6,3.7
		c5.7,0.9,8.6,0.3,13-4.1l46.5-46.5l24.6,3.7c5.7,0.9,8.6,0.3,13-4.1l46.5-46.5l24.6,3.7c4.3,0.6,7,0.5,9.9-1.5c1-0.7,2-1.5,3.1-2.6
		l46.5-46.5l24.6,3.7c1.4,0.2,2.7,0.3,3.8,0.3c3.4,0,5.8-1.1,9.2-4.5l46.5-46.5l24.6,3.7c5.7,0.9,8.6,0.3,13-4.1l46.5-46.5l24.6,3.7
		c1.1,0.2,2,0.3,2.9,0.3c0.6,0,1.2,0,1.7,0c0.5,0,1.1-0.1,1.6-0.2c0.3-0.1,0.5-0.1,0.8-0.2c0.2-0.1,0.5-0.2,0.7-0.2
		c0.5-0.2,1-0.4,1.5-0.7c0.2-0.1,0.5-0.3,0.7-0.5s0.5-0.3,0.7-0.5c0.2-0.2,0.5-0.4,0.8-0.6c0.5-0.4,1-0.9,1.6-1.5l40.6-40.6V260
		c-42.5,32.4-70.5,40.7-77.6,42.4L483.9,300.3z"/>
	<polygon fill="#002A3A" points="179.3,493.6 179.3,493.6 179.3,493.6 	"/>
	<path fill="#002A3A" d="M515.6,305.8c-1,0.8-1.9,1.5-2.8,2.2c-0.7,0.1-1,0.2-1,0.2l0.6,0.1c-45.5,35.8-75.5,44.7-82.9,46.5l2.1-2.1
		c-1,0.8-1.9,1.5-2.8,2.2c-0.7,0.1-1,0.2-1,0.2l0.6,0.1c-45.5,35.8-75.5,44.7-82.9,46.5l2.1-2.1c-1,0.8-1.9,1.5-2.8,2.2
		c-0.7,0.1-1,0.2-1,0.2l0.6,0.1c-45.5,35.8-75.5,44.7-82.9,46.5l2.1-2.1c-1,0.8-1.9,1.5-2.8,2.2c-0.7,0.1-1,0.2-1,0.2l0.6,0.1
		c-45.5,35.8-75.5,44.7-82.9,46.5l2.1-2.1h0c-1,0.8-1.9,1.5-2.8,2.2c-0.7,0.1-1,0.2-1,0.2l0.6,0.1c-17.4,13.7-32.6,23.5-45.1,30.4
		c-14.5,8-25.3,12.2-32,14.4c-1.1,0.4-2.1,0.7-3,0.9s-1.6,0.5-2.3,0.6c-0.2,0.1-0.4,0.1-0.6,0.1l2.1-2.1c-1,0.8-1.9,1.5-2.8,2.2
		c0,0-0.1,0-0.2,0c-0.6,0.1-0.9,0.2-0.9,0.2l0.6,0.1c-7.7,6.1-15,11.3-21.7,15.9h6.5l15.8-15.8l24.6,3.7c3.6,0.5,6,0.5,8.4-0.6
		c1.4-0.7,2.9-1.8,4.6-3.5l46.5-46.5l24.6,3.7c5.7,0.9,8.6,0.3,13-4.1l46.5-46.5l24.6,3.7c5.7,0.9,8.6,0.3,13-4.1l46.5-46.5
		l24.6,3.7c5.7,0.9,8.6,0.3,13-4.1l46.5-46.5l24.6,3.7c5.7,0.9,8.6,0.3,13-4.1l46.5-46.5l24.6,3.7c5.7,0.9,8.6,0.3,13-4.1l9-9v-11.9
		c-24.7,14.8-40.8,19.6-46,20.8L515.6,305.8z"/>
	<path fill="#002A3A" d="M545.2,410.9c-8.8,5.1-16.4,8.8-22.6,11.5c-0.9,0.4-1.8,0.8-2.6,1.1c-8.1,3.4-13.6,4.9-16.3,5.6l2.1-2.1
		c-1,0.8-1.9,1.5-2.8,2.2c-0.7,0.1-1,0.2-1,0.2l0.6,0.1c-7.3,5.8-14.3,10.9-20.8,15.3c-3,2-5.9,4-8.7,5.7
		c-5.6,3.6-10.8,6.7-15.6,9.4c-4.8,2.7-9.2,4.9-13.2,6.8c-2,0.9-3.9,1.8-5.7,2.6c-9.5,4.1-16,6-18.9,6.7l2.1-2.1
		c-1,0.8-1.9,1.5-2.8,2.2c-0.7,0.1-1,0.2-1,0.2l0.6,0.1c-45.5,35.8-75.5,44.7-82.9,46.5l2.1-2.1c-1,0.8-1.9,1.5-2.8,2.2
		c-0.7,0.1-1,0.2-1,0.2l0.6,0.1c-22.4,17.6-41,28.7-55,35.6h20.1l35.5-35.5l24.6,3.7c5.7,0.9,8.6,0.3,13-4.1l46.5-46.5l24.6,3.7
		c5.7,0.9,8.6,0.3,13-4.1l46.5-46.5l24.6,3.7c5.7,0.9,8.6,0.3,13-4.1l18.8-18.8v-8.3c-2.2,1.4-4.4,2.8-6.5,4.1
		C550.3,407.9,547.7,409.4,545.2,410.9z"/>
	<path fill="#002A3A" d="M545,455.7c-4.5,3.1-8.7,5.8-12.8,8.3c-2.7,1.7-5.3,3.2-7.8,4.7c-1.3,0.7-2.5,1.4-3.7,2.1
		c-4.8,2.7-9.2,4.9-13.2,6.8c-1,0.5-2,0.9-2.9,1.4c-4.7,2.1-8.8,3.8-12.1,5c-4.5,1.6-7.7,2.5-9.5,2.9l2.1-2.1h0
		c-1,0.8-1.9,1.5-2.8,2.2c-0.7,0.1-1,0.2-1,0.2l0.6,0.1c-17.4,13.7-32.6,23.5-45.1,30.4c-14.5,8-25.3,12.2-32,14.4
		c-1.1,0.4-2.1,0.7-3,0.9s-1.6,0.5-2.3,0.6c-0.2,0.1-0.4,0.1-0.6,0.1l2.1-2.1c-1,0.8-1.9,1.5-2.8,2.2c0,0-0.1,0-0.2,0
		c-0.6,0.1-0.9,0.2-0.9,0.2l0.6,0.1c-13.1,10.3-25,18.4-35.3,24.7h11.3l24.6-24.6l24.6,3.7c5.7,0.9,8.6,0.3,13-4.1l46.5-46.5
		l24.6,3.7c4.3,0.6,7,0.5,9.9-1.5c1-0.7,2-1.5,3.1-2.6l39.6-39.6v-2.1c-1.8,1.3-3.5,2.6-5.2,3.9C551.1,451.5,548,453.7,545,455.7z"
		/>
	<polygon fill="#002A3A" points="485,484.8 485,484.8 485,484.8 	"/>
	<path fill="#002A3A" d="M494.8,363.6c-1,0.8-1.9,1.5-2.8,2.2c-0.7,0.1-1,0.2-1,0.2l0.6,0.1c-45.5,35.8-75.5,44.7-82.9,46.5l2.1-2.1
		c-1,0.8-1.9,1.5-2.8,2.2c-0.7,0.1-1,0.2-1,0.2l0.6,0.1c-45.5,35.8-75.5,44.7-82.9,46.5l2.1-2.1c-1,0.8-1.9,1.5-2.8,2.2
		c-0.7,0.1-1,0.2-1,0.2l0.6,0.1c-45.5,35.8-75.5,44.7-82.9,46.5l2.1-2.1c-1,0.8-1.9,1.5-2.8,2.2c-0.7,0.1-1,0.2-1,0.2l0.6,0.1
		c-45.5,35.8-75.5,44.7-82.9,46.5l2.1-2.1c-1,0.8-1.9,1.5-2.8,2.2c-0.7,0.1-1,0.2-1,0.2l0.6,0.1c-2.2,1.7-4.4,3.4-6.5,5h2.2l4.9-4.9
		l24.6,3.7c5.7,0.9,8.6,0.3,13-4.1l46.5-46.5l24.6,3.7c5.7,0.9,8.6,0.3,13-4.1l46.5-46.5l24.6,3.7c5.7,0.9,8.6,0.3,13-4.1l46.5-46.5
		l24.6,3.7c1.1,0.2,2,0.3,2.9,0.3c0.3,0,0.6,0,0.9,0c1.7,0,3.2-0.3,4.6-1s2.9-1.8,4.6-3.5l46.5-46.5l24.6,3.7
		c5.7,0.9,8.6,0.3,13-4.1l29.7-29.7v-4.8c-36.4,25.8-60.2,32.8-66.7,34.4L494.8,363.6z"/>
	<path fill="#002A3A" d="M508.4,242.9c-1.1,0.4-2.1,0.7-3,0.9s-1.6,0.5-2.3,0.6c-0.2,0.1-0.4,0.1-0.6,0.1l2.1-2.1
		c-1,0.8-1.9,1.5-2.8,2.2c0,0-0.1,0-0.2,0c-0.6,0.1-0.9,0.2-0.9,0.2l0.6,0.1c-45.5,35.8-75.5,44.7-82.9,46.5l2.1-2.1
		c-1,0.8-1.9,1.5-2.8,2.2c-0.7,0.1-1,0.2-1,0.2l0.6,0.1c-45.5,35.8-75.5,44.7-82.9,46.5l2.1-2.1c-1,0.8-1.9,1.5-2.8,2.2
		c-0.7,0.1-1,0.2-1,0.2l0.6,0.1c-45.5,35.8-75.5,44.7-82.9,46.5l2.1-2.1c-1,0.8-1.9,1.5-2.8,2.2c-0.7,0.1-1,0.2-1,0.2l0.6,0.1
		c-45.5,35.8-75.5,44.7-82.9,46.5l2.1-2.1c-1,0.8-1.9,1.5-2.8,2.2c-0.7,0.1-1,0.2-1,0.2l0.6,0.1c-7.3,5.8-14.3,10.9-20.8,15.3
		c-3,2-5.9,4-8.7,5.7c-4.2,2.7-8.2,5.1-11.9,7.3c-3.8,2.2-7.3,4.1-10.6,5.8c-1.1,0.6-2.2,1.1-3.2,1.6c-14.4,7.1-23.9,9.8-27.6,10.7
		l2.1-2.1c-1,0.8-1.9,1.5-2.8,2.2c-0.7,0.1-1,0.2-1,0.2l0.6,0.1c-7.3,5.8-14.3,10.9-20.8,15.3c-3,2-5.9,4-8.7,5.7
		c-5.6,3.6-10.8,6.7-15.6,9.4c-4.8,2.7-9.2,4.9-13.2,6.8c-2,0.9-3.9,1.8-5.7,2.6c-7.6,3.3-13.2,5.1-16.6,6.1v1.6l21.7,3.2
		c5.7,0.9,8.6,0.3,13-4.1l46.5-46.5l24.6,3.7c5.7,0.9,8.6,0.3,13-4.1l46.5-46.5l24.6,3.7c5.7,0.9,8.6,0.3,13-4.1l46.5-46.5l24.6,3.7
		c5.7,0.9,8.6,0.3,13-4.1l46.5-46.5l24.6,3.7c5.7,0.9,8.6,0.3,13-4.1l46.5-46.5l24.6,3.7c0.4,0.1,0.7,0.1,1,0.1
		c0.7,0.1,1.3,0.1,1.9,0.2c3.9,0.2,6.4-0.8,10-4.4l46.5-46.5l24.6,3.7c5.7,0.9,8.6,0.3,13-4.1l19.9-19.9v-7.9
		c-6.9,4.5-13.3,8.4-19.1,11.6C526,236.5,515.1,240.7,508.4,242.9z"/>
	<path fill="#002A3A" d="M503.6,58c-1,0.8-1.9,1.5-2.8,2.2c-0.7,0.1-1,0.2-1,0.2l0.6,0.1c-45.5,35.8-75.5,44.7-82.9,46.5l2.1-2.1
		c-1,0.8-1.9,1.5-2.8,2.2c-0.7,0.1-1,0.2-1,0.2l0.6,0.1c-45.5,35.8-75.5,44.7-82.9,46.5l2.1-2.1c-1,0.8-1.9,1.5-2.8,2.2
		c-0.7,0.1-1,0.2-1,0.2l0.6,0.1c-45.5,35.8-75.5,44.7-82.9,46.5l2.1-2.1c-1,0.8-1.9,1.5-2.8,2.2c-0.7,0.1-1,0.2-1,0.2l0.6,0.1
		c-45.5,35.8-75.5,44.7-82.9,46.5l2.1-2.1c-1,0.8-1.9,1.5-2.8,2.2c-0.7,0.1-1,0.2-1,0.2l0.6,0.1c-45.5,35.8-75.5,44.7-82.9,46.5
		l2.1-2.1c-1,0.8-1.9,1.5-2.8,2.2c-0.7,0.1-1,0.2-1,0.2l0.6,0.1c-40.4,31.8-68.6,42.4-79.6,45.6v2.1l20.7,3.1
		c5.7,0.9,8.6,0.3,13-4.1l46.5-46.5l24.6,3.7c5.7,0.9,8.6,0.3,13-4.1l46.5-46.5l24.6,3.7c0.4,0.1,0.7,0.1,1,0.1
		c0.7,0.1,1.3,0.1,1.9,0.2c3.9,0.2,6.4-0.8,10-4.4l46.5-46.5l24.6,3.7c5.7,0.9,8.6,0.3,13-4.1l46.5-46.5l24.6,3.7
		c5.7,0.9,8.6,0.3,13-4.1l46.5-46.5l24.6,3.7c4.7,0.7,7.4,0.5,10.6-2c0.7-0.6,1.5-1.3,2.4-2.1L501,60.6l24.6,3.7
		c5.7,0.9,8.6,0.3,13-4.1l20.9-20.9v-7.5c-31.4,20.9-52,26.9-57.9,28.4L503.6,58z"/>
	<path fill="#002A3A" d="M514.5,121.3c-1,0.8-1.9,1.5-2.8,2.2c-0.7,0.1-1,0.2-1,0.2l0.6,0.1c-45.5,35.8-75.5,44.7-82.9,46.5l2.1-2.1
		c-1,0.8-1.9,1.5-2.8,2.2c-0.7,0.1-1,0.2-1,0.2l0.6,0.1c-45.5,35.8-75.5,44.7-82.9,46.5l2.1-2.1c-1,0.8-1.9,1.5-2.8,2.2
		c-0.7,0.1-1,0.2-1,0.2l0.6,0.1c-45.5,35.8-75.5,44.7-82.9,46.5l2.1-2.1c-1,0.8-1.9,1.5-2.8,2.2c-0.7,0.1-1,0.2-1,0.2l0.6,0.1
		c-45.5,35.8-75.5,44.7-82.9,46.5l2.1-2.1c-1,0.8-1.9,1.5-2.8,2.2c-0.7,0.1-1,0.2-1,0.2l0.6,0.1c-45.5,35.8-75.5,44.7-82.9,46.5
		l2.1-2.1h0c-1,0.8-1.9,1.5-2.8,2.2c-0.7,0.1-1,0.2-1,0.2l0.6,0.1c-17.4,13.7-32.6,23.5-45.1,30.4c-14.5,8-25.3,12.2-32,14.4
		c-1.1,0.4-2.1,0.7-3,0.9c-0.9,0.3-1.6,0.5-2.3,0.6c-0.2,0.1-0.4,0.1-0.6,0.1l2.1-2.1c-1,0.8-1.9,1.5-2.8,2.2c0,0-0.1,0-0.2,0
		c-0.6,0.1-0.9,0.2-0.9,0.2l0.6,0.1c-2.2,1.7-4.3,3.3-6.4,4.9v2.2l7-7l24.6,3.7c1.4,0.2,2.7,0.3,3.8,0.3c3.4,0,5.8-1.1,9.2-4.5
		l46.5-46.5l24.6,3.7c5.7,0.9,8.6,0.3,13-4.1l46.5-46.5l24.6,3.7c5.7,0.9,8.6,0.3,13-4.1l46.5-46.5l24.6,3.7c5.7,0.9,8.6,0.3,13-4.1
		l46.5-46.5l24.6,3.7c5.7,0.9,8.6,0.3,13-4.1l46.5-46.5l24.6,3.7c5.7,0.9,8.6,0.3,13-4.1l46.5-46.5l24.6,3.7c1.1,0.2,2,0.3,2.9,0.3
		c0.3,0,0.6,0,0.9,0c1.7,0,3.2-0.3,4.6-1c1.4-0.7,2.9-1.8,4.6-3.5l10-10v-11.5c-25.3,15.3-41.8,20.2-47,21.4L514.5,121.3z"/>
	<path fill="#002A3A" d="M493.8,179.1c-1,0.8-1.9,1.5-2.8,2.2c-0.7,0.1-1,0.2-1,0.2l0.6,0.1c-45.5,35.8-75.5,44.7-82.9,46.5l2.1-2.1
		c-1,0.8-1.9,1.5-2.8,2.2c-0.7,0.1-1,0.2-1,0.2l0.6,0.1c-45.5,35.8-75.5,44.7-82.9,46.5l2.1-2.1c-1,0.8-1.9,1.5-2.8,2.2
		c-0.7,0.1-1,0.2-1,0.2l0.6,0.1c-7.3,5.8-14.3,10.9-20.8,15.3c-3,2-5.9,4-8.7,5.7c-5.6,3.6-10.8,6.7-15.6,9.4
		c-4.8,2.7-9.2,4.9-13.2,6.8c-2,0.9-3.9,1.8-5.7,2.6c-9.5,4.1-16,6-18.9,6.7l2.1-2.1c-1,0.8-1.9,1.5-2.8,2.2c-0.7,0.1-1,0.2-1,0.2
		l0.6,0.1c-45.5,35.8-75.5,44.7-82.9,46.5l2.1-2.1c-1,0.8-1.9,1.5-2.8,2.2c-0.7,0.1-1,0.2-1,0.2l0.6,0.1
		c-45.5,35.8-75.5,44.7-82.9,46.5l2.1-2.1c-1,0.8-1.9,1.5-2.8,2.2c-0.7,0.1-1,0.2-1,0.2l0.6,0.1C38.8,441.1,14.8,453,0.5,458.6v6.9
		l10.8,1.6c5.7,0.9,8.6,0.3,13-4.1l46.5-46.5l24.6,3.7c5.7,0.9,8.6,0.3,13-4.1l46.5-46.5l24.6,3.7c5.7,0.9,8.6,0.3,13-4.1l46.5-46.5
		l24.6,3.7c5.7,0.9,8.6,0.3,13-4.1l46.5-46.5l24.6,3.7c5.7,0.9,8.6,0.3,13-4.1l46.5-46.5l24.6,3.7c5.7,0.9,8.6,0.3,13-4.1l46.5-46.5
		l24.6,3.7c5.7,0.9,8.6,0.3,13-4.1l30.8-30.8v-4.5c-37,26.4-61.2,33.6-67.8,35.1L493.8,179.1z"/>
	<path fill="#002A3A" d="M537.4,432.4c-1,0.8-1.9,1.5-2.8,2.2c-0.7,0.1-1,0.2-1,0.2l0.6,0.1c-45.5,35.8-75.5,44.7-82.9,46.5l2.1-2.1
		c-1,0.8-1.9,1.5-2.8,2.2c-0.7,0.1-1,0.2-1,0.2l0.6,0.1c-45.5,35.8-75.5,44.7-82.9,46.5l2.1-2.1h0c-1,0.8-1.9,1.5-2.8,2.2
		c-0.7,0.1-1,0.2-1,0.2l0.6,0.1c-17.2,13.5-32.3,23.3-44.7,30.2h15.2l30.1-30.1l24.6,3.7c5.7,0.9,8.6,0.3,13-4.1l46.5-46.5l24.6,3.7
		c5.7,0.9,8.6,0.3,13-4.1l46.5-46.5l24.6,3.7c0.1,0,0.1,0,0.2,0v-13.3c-12.4,5.9-20.7,8.2-24.1,9L537.4,432.4z"/>
	<path fill="#002A3A" d="M482.9,115.8c-1,0.8-1.9,1.5-2.8,2.2c-0.7,0.1-1,0.2-1,0.2l0.6,0.1c-45.5,35.8-75.5,44.7-82.9,46.5l2.1-2.1
		c-1,0.8-1.9,1.5-2.8,2.2c-0.7,0.1-1,0.2-1,0.2l0.6,0.1c-45.5,35.8-75.5,44.7-82.9,46.5l2.1-2.1c-1,0.8-1.9,1.5-2.8,2.2
		c-0.7,0.1-1,0.2-1,0.2l0.6,0.1C266,248,236,257,228.6,258.8l2.1-2.1c-1,0.8-1.9,1.5-2.8,2.2c-0.7,0.1-1,0.2-1,0.2l0.6,0.1
		c-45.5,35.8-75.5,44.7-82.9,46.5l2.1-2.1c-1,0.8-1.9,1.5-2.8,2.2c-0.7,0.1-1,0.2-1,0.2l0.6,0.1c-45.5,35.8-75.5,44.7-82.9,46.5
		l2.1-2.1c-1,0.8-1.9,1.5-2.8,2.2c-0.7,0.1-1,0.2-1,0.2l0.6,0.1c-24.5,19.2-44.4,30.7-58.8,37.5v13.3c1.4,0.2,2.6,0.3,3.7,0.3
		c2.3,0,4.1-0.5,6.1-1.8c1-0.7,2-1.5,3.1-2.6l46.5-46.5l24.6,3.7c5.7,0.9,8.6,0.3,13-4.1l46.5-46.5l24.6,3.7c5.7,0.9,8.6,0.3,13-4.1
		l46.5-46.5l24.6,3.7c1.1,0.2,2,0.3,2.9,0.3c0.6,0,1.2,0,1.7,0c0.8,0,1.6-0.2,2.3-0.4c1.2-0.4,2.4-1,3.7-1.9
		c0.7-0.6,1.5-1.3,2.4-2.1l46.5-46.5l24.6,3.7c3.6,0.5,6,0.5,8.4-0.6c1.4-0.7,2.9-1.8,4.6-3.5l46.5-46.5l24.6,3.7
		c1.8,0.3,3.3,0.4,4.7,0.3c0.5,0,1.1-0.1,1.6-0.2c0.5-0.1,1-0.3,1.5-0.4s1-0.4,1.5-0.7c0.2-0.1,0.5-0.3,0.7-0.5
		c0.5-0.3,1-0.7,1.5-1.2s1-0.9,1.6-1.5l46.5-46.5l24.6,3.7c5.7,0.9,8.6,0.3,13-4.1l41.7-41.7v-1.6c-43.1,33-71.5,41.5-78.7,43.2
		L482.9,115.8z"/>
	<path fill="#002A3A" d="M353.1,9.2c-1.3,0.7-2.5,1.4-3.7,2.1c-4.8,2.7-9.2,4.9-13.2,6.8c-1,0.5-2,0.9-2.9,1.4c-4.7,2.1-8.8,3.8-12.1,5
		c-4.5,1.6-7.7,2.5-9.5,2.9l2.1-2.1h0c-1,0.8-1.9,1.5-2.8,2.2c-0.7,0.1-1,0.2-1,0.2l0.6,0.1c-17.4,13.7-32.6,23.5-45.1,30.4
		c-14.5,8-25.3,12.2-32,14.4c-1.1,0.4-2.1,0.7-3,0.9c-0.9,0.2-1.6,0.5-2.3,0.6c-0.2,0.1-0.4,0.1-0.6,0.1l2.1-2.1
		c-1,0.8-1.9,1.5-2.8,2.2c0,0-0.1,0-0.2,0c-0.6,0.1-0.9,0.2-0.9,0.2l0.6,0.1c-45.5,35.8-75.5,44.7-82.9,46.5l2.1-2.1
		c-1,0.8-1.9,1.5-2.8,2.2c-0.7,0.1-1,0.2-1,0.2l0.6,0.1c-45.5,35.8-75.5,44.7-82.9,46.5l2.1-2.1c-1,0.8-1.9,1.5-2.8,2.2
		c-0.7,0.1-1,0.2-1,0.2l0.6,0.1c-23.9,18.7-43.5,30.1-57.8,36.9v13.9c5,0.6,7.7-0.1,11.9-4.3l46.5-46.5l24.6,3.7
		c5.7,0.9,8.6,0.3,13-4.1l46.5-46.5l24.6,3.7c5.7,0.9,8.6,0.3,13-4.1L227,74.8l24.6,3.7c5.7,0.9,8.6,0.3,13-4.1L311,27.9l24.6,3.7
		c5.7,0.9,8.6,0.3,13-4.1L376,0h-8.1c-2.4,1.6-4.7,3.1-7,4.5C358.2,6.2,355.6,7.7,353.1,9.2z"/>
	<path fill="#002A3A" d="M408.6,41.6c-1,0.8-1.9,1.5-2.8,2.2c-0.7,0.1-1,0.2-1,0.2l0.6,0.1c-45.5,35.8-75.5,44.7-82.9,46.5l2.1-2.1
		c-1,0.8-1.9,1.5-2.8,2.2c-0.7,0.1-1,0.2-1,0.2l0.6,0.1c-5.7,4.4-11.1,8.5-16.3,12.2c-6.1,4.3-11.9,8.2-17.3,11.5
		c-5.4,3.3-10.4,6.2-15,8.7c-3.5,1.9-6.7,3.5-9.7,4.9c-5,2.4-9.3,4.2-13,5.5c-1.5,0.5-2.8,1-4,1.4c-3.5,1.2-6,1.9-7.6,2.2l2.1-2.1
		c-1,0.8-1.9,1.5-2.8,2.2c-0.7,0.1-1,0.2-1,0.2l0.6,0.1c-45.5,35.8-75.5,44.7-82.9,46.5l2.1-2.1c-1,0.8-1.9,1.5-2.8,2.2
		c-0.7,0.1-1,0.2-1,0.2l0.6,0.1c-45.5,35.8-75.5,44.7-82.9,46.5l2.1-2.1c-1,0.8-1.9,1.5-2.8,2.2c-0.7,0.1-1,0.2-1,0.2l0.6,0.1
		c-7.3,5.8-14.3,10.9-20.8,15.3c-3,2-5.9,4-8.7,5.7c-5.6,3.6-10.8,6.7-15.6,9.4c-4.8,2.7-9.2,4.9-13.2,6.8c-2,0.9-3.9,1.8-5.7,2.6
		c-1.6,0.7-3.2,1.4-4.7,1.9v7.5l9.8,1.5c5.7,0.9,8.6,0.3,13-4.1l46.5-46.5l24.6,3.7c5.7,0.9,8.6,0.3,13-4.1l46.5-46.5l24.6,3.7
		c5.7,0.9,8.6,0.3,13-4.1l46.5-46.5l24.6,3.7c4.3,0.6,7,0.5,9.9-1.5c1-0.7,2-1.5,3.1-2.6l46.5-46.5l24.6,3.7c5.7,0.9,8.6,0.3,13-4.1
		L406,44.3l24.6,3.7c5.7,0.9,8.6,0.3,13-4.1L487.3,0h-1.5c-43.5,33.4-72.1,41.9-79.3,43.6L408.6,41.6z"/>
	<path fill="#002A3A" d="M523.6,0h-15.3l6.3,0.9C518.5,1.5,521,1.5,523.6,0z"/>
	<path fill="#002A3A" d="M524.4,0.1c-1,0.8-1.9,1.5-2.8,2.2c-0.7,0.1-1,0.2-1,0.2l0.6,0.1c-45.5,35.8-75.5,44.7-82.9,46.5l2.1-2.1
		c-1,0.8-1.9,1.5-2.8,2.2c-0.7,0.1-1,0.2-1,0.2l0.6,0.1c-45.5,35.8-75.5,44.7-82.9,46.5l2.1-2.1c-1,0.8-1.9,1.5-2.8,2.2
		c-0.7,0.1-1,0.2-1,0.2l0.6,0.1c-45.5,35.8-75.5,44.7-82.9,46.5l2.1-2.1c-1,0.8-1.9,1.5-2.8,2.2c-0.7,0.1-1,0.2-1,0.2l0.6,0.1
		c-45.5,35.8-75.5,44.7-82.9,46.5l2.1-2.1c-1,0.8-1.9,1.5-2.8,2.2c-0.7,0.1-1,0.2-1,0.2l0.6,0.1c-7.3,5.8-14.3,10.9-20.8,15.3
		c-3,2-5.9,4-8.7,5.7c-5.6,3.6-10.8,6.7-15.6,9.4c-4.8,2.7-9.2,4.9-13.2,6.8c-2,0.9-3.9,1.8-5.7,2.6c-9.5,4.1-16,6-18.9,6.7l2.1-2.1
		c-1,0.8-1.9,1.5-2.8,2.2c-0.7,0.1-1,0.2-1,0.2l0.6,0.1c-7.3,5.8-14.3,10.9-20.8,15.3c-3,2-5.9,4-8.7,5.7c-4.2,2.7-8.2,5.1-11.9,7.3
		s-7.3,4.1-10.6,5.8c-1.1,0.6-2.2,1.1-3.2,1.6c-14.4,7.1-23.9,9.8-27.6,10.7l2.1-2.1c-1,0.8-1.9,1.5-2.8,2.2c-0.7,0.1-1,0.2-1,0.2
		l0.6,0.1c-5.7,4.5-11.1,8.5-16.3,12.1v4.8l16.9-16.9l24.6,3.7c5.7,0.9,8.6,0.3,13-4.1l46.5-46.5l24.6,3.7c5.7,0.9,8.6,0.3,13-4.1
		l46.5-46.5l24.6,3.7c5.7,0.9,8.6,0.3,13-4.1l46.5-46.5l24.6,3.7c5.7,0.9,8.6,0.3,13-4.1l46.5-46.5l24.6,3.7c5.7,0.9,8.6,0.3,13-4.1
		l46.5-46.5l24.6,3.7c5.7,0.9,8.6,0.3,13-4.1l46.5-46.5l24.6,3.7c5.7,0.9,8.6,0.3,13-4.1l0.2-0.2V0h-29.9c-3.3,1.1-5.8,1.8-7.3,2.1
		L524.4,0.1z"/>
	<path fill="#002A3A" d="M556,5.6c-1,0.8-1.9,1.5-2.8,2.2c-0.7,0.1-1,0.2-1,0.2l0.6,0.1c-45.5,35.8-75.5,44.7-82.9,46.5l2.1-2.1
		c-1,0.8-1.9,1.5-2.8,2.2c-0.7,0.1-1,0.2-1,0.2l0.6,0.1c-45.5,35.8-75.5,44.7-82.9,46.5l2.1-2.1c-1,0.8-1.9,1.5-2.8,2.2
		c-0.7,0.1-1,0.2-1,0.2l0.6,0.1c-9,7.1-17.5,13.1-25.2,18.3c-2.9,1.9-5.7,3.7-8.4,5.4c-2.7,1.7-5.3,3.2-7.8,4.7
		c-8.8,5.1-16.4,8.8-22.6,11.5c-0.9,0.4-1.8,0.8-2.6,1.1c-8.1,3.4-13.6,4.9-16.3,5.6l2.1-2.1c-1,0.8-1.9,1.5-2.8,2.2
		c-0.7,0.1-1,0.2-1,0.2l0.6,0.1c-45.5,35.8-75.5,44.7-82.9,46.5l2.1-2.1c-1,0.8-1.9,1.5-2.8,2.2c-0.7,0.1-1,0.2-1,0.2l0.6,0.1
		c-45.5,35.8-75.5,44.7-82.9,46.5l2.1-2.1c-1,0.8-1.9,1.5-2.8,2.2c-0.7,0.1-1,0.2-1,0.2l0.6,0.1C87,278.6,57,287.6,49.6,289.3
		l2.1-2.1c-1,0.8-1.9,1.5-2.8,2.2c-0.7,0.1-1,0.2-1,0.2l0.6,0.1c-18.8,14.8-34.9,24.9-47.9,31.9v16.5c0.6-0.5,1.3-1.1,2-1.8
		L49,289.9l24.6,3.7c4.3,0.6,7,0.5,9.9-1.5c1-0.7,2-1.5,3.1-2.6l46.5-46.5l24.6,3.7c5.7,0.9,8.6,0.3,13-4.1l46.5-46.5l24.6,3.7
		c5.7,0.9,8.6,0.3,13-4.1l46.5-46.5l24.6,3.7c5.7,0.9,8.6,0.3,13-4.1l46.5-46.5l24.6,3.7c1.4,0.2,2.7,0.3,3.8,0.3
		c1.7,0,3.2-0.3,4.6-1c1.4-0.7,2.9-1.8,4.6-3.5l46.5-46.5l24.6,3.7c0.4,0.1,0.7,0.1,1,0.1c0.7,0.1,1.3,0.1,1.9,0.2
		c3.9,0.2,6.4-0.8,10-4.4l46.5-46.5l6.1,0.9V6.1c-2.4,0.8-4.3,1.3-5.5,1.6L556,5.6z"/>
	<path fill="#002A3A" d="M516.7,490.3c-1,0.8-1.9,1.5-2.8,2.2c-0.7,0.1-1,0.2-1,0.2l0.6,0.1c-45.5,35.8-75.5,44.7-82.9,46.5l2.1-2.1
		c-1,0.8-1.9,1.5-2.8,2.2c-0.7,0.1-1,0.2-1,0.2l0.6,0.1c-9.6,7.6-18.5,13.9-26.7,19.3h8.1l19.2-19.2l24.6,3.7
		c5.7,0.9,8.6,0.3,13-4.1l46.5-46.5l24.6,3.7c5.7,0.9,8.6,0.3,13-4.1l7.9-7.9v-12.4c-24.1,14.3-39.8,18.9-44.9,20.1L516.7,490.3z"/>
	<path fill="#002A3A" d="M495.9,548.1c-1,0.8-1.9,1.5-2.8,2.2c-0.7,0.1-1,0.2-1,0.2l0.6,0.1c-3.8,3-7.4,5.7-11,8.4h3.3l8.3-8.3
		l24.6,3.7c5.7,0.9,8.6,0.3,13-4.1l28.7-28.7v-5.1c-35.8,25.2-59.2,32.1-65.6,33.6L495.9,548.1z"/>
	<path fill="#002A3A" d="M527.6,553.6c-1,0.8-1.9,1.5-2.8,2.2c-0.7,0.1-1,0.2-1,0.2l0.6,0.1c-1.3,1-2.5,2-3.7,2.9h1.5l2.8-2.8l18.8,2.8
		h14.6c0.4-0.2,0.8-0.4,1.1-0.7v-16.7c-17.9,9.6-29.7,13-34,14L527.6,553.6z"/>
	<path fill="#002A3A" d="M282,19.8c-1,0.8-1.9,1.5-2.8,2.2c-0.7,0.1-1,0.2-1,0.2l0.6,0.1c-45.5,35.8-75.5,44.7-82.9,46.5l2.1-2.1
		c-1,0.8-1.9,1.5-2.8,2.2c-0.7,0.1-1,0.2-1,0.2l0.6,0.1c-9,7.1-17.5,13.1-25.2,18.3c-2.9,1.9-5.7,3.7-8.4,5.4
		c-2.7,1.7-5.3,3.2-7.8,4.7c-8.8,5.1-16.4,8.8-22.6,11.5c-0.9,0.4-1.8,0.8-2.6,1.1c-8.1,3.4-13.6,4.9-16.3,5.6l2.1-2.1
		c-1,0.8-1.9,1.5-2.8,2.2c-0.7,0.1-1,0.2-1,0.2l0.6,0.1c-45.5,35.8-75.5,44.7-82.9,46.5l2.1-2.1c-1,0.8-1.9,1.5-2.8,2.2
		c-0.7,0.1-1,0.2-1,0.2l0.6,0.1c-9.4,7.4-18.1,13.6-26.1,18.9v7.9l26.7-26.7l24.6,3.7c0.4,0.1,0.7,0.1,1,0.1
		c0.7,0.1,1.3,0.1,1.9,0.2c3.9,0.2,6.4-0.8,10-4.4l46.5-46.5l24.6,3.7c5.7,0.9,8.6,0.3,13-4.1l46.5-46.5l24.6,3.7
		c5.7,0.9,8.6,0.3,13-4.1l46.5-46.5l24.6,3.7c5.7,0.9,8.6,0.3,13-4.1l22-22h-11.3C302,15.7,285.2,20.6,280,21.9L282,19.8z"/>
	<path fill="#002A3A" d="M548.3,495.7c-1,0.8-1.9,1.5-2.8,2.2c-0.7,0.1-1,0.2-1,0.2l0.6,0.1c-45.5,35.8-75.5,44.7-82.9,46.5l2.1-2.1
		c-1,0.8-1.9,1.5-2.8,2.2c-0.7,0.1-1,0.2-1,0.2l0.6,0.1c-6.5,5.1-12.7,9.7-18.6,13.8h5.5l13.7-13.7l24.6,3.7c5.7,0.9,8.6,0.3,13-4.1
		l46.5-46.5l13.8,2.1v-7c-6.5,2.5-10.9,3.8-13.2,4.3L548.3,495.7z"/>
	<path fill="#002A3A" d="M8,34L8,34c-1,0.8-1.9,1.5-2.8,2.2c-0.7,0.1-1,0.2-1,0.2l0.6,0.1c-1.4,1.1-2.9,2.2-4.3,3.3v1.7l4.9-4.9
		l24.6,3.7c5.7,0.9,8.6,0.3,13-4.1L79.1,0H75C37.3,27.2,12.6,34.5,5.9,36.1L8,34z"/>
	<path fill="#002A3A" d="M0.5,35.1c4.3,0.4,7-0.6,10.8-4.4L42,0h-6.4C21.8,9.4,10,16,0.5,20.6V35.1z"/>
	<path fill="#002A3A" d="M151.5,0.4l0.6,0.1C106.6,36.3,76.7,45.2,69.3,47l2.1-2.1c-1,0.8-1.9,1.5-2.8,2.2c-0.7,0.1-1,0.2-1,0.2
		l0.6,0.1C62.4,51.9,57,56,51.8,59.6c-6.1,4.3-11.9,8.2-17.3,11.5c-5.4,3.3-10.4,6.2-15,8.7c-3.5,1.9-6.7,3.5-9.7,4.9
		c-3.4,1.6-6.5,3-9.3,4.1v8.1l8.7,1.3c4.3,0.6,7,0.5,9.9-1.5c1-0.7,2-1.5,3.1-2.6l46.5-46.5l24.6,3.7c5.7,0.9,8.6,0.3,13-4.1
		l46.5-46.5l24.6,3.7c5.7,0.9,8.6,0.3,13-4.1l0.1-0.1h-37.1c0,0,0,0-0.1,0l0,0h-0.5c-0.1,0.1-0.2,0.1-0.2,0.2
		C151.9,0.4,151.5,0.4,151.5,0.4z"/>
	<polygon fill="#002A3A" points="4.9,0 0.5,0 0.5,4.4 	"/>
	<path fill="#002A3A" d="M39.7,39.5c-1,0.8-1.9,1.5-2.8,2.2c-0.7,0.1-1,0.2-1,0.2l0.6,0.1C23,52.6,11,60.7,0.5,67.1v11.5L37,42.1
		l24.6,3.7c3.6,0.5,6,0.5,8.4-0.6c1.4-0.7,2.9-1.8,4.6-3.5L116.2,0h-2.2C72.2,31.7,44.6,39.9,37.6,41.5L39.7,39.5z"/>
	<path fill="#002A3A" d="M187,3.4c-1,0.8-1.9,1.5-2.8,2.2c-0.7,0.1-1,0.2-1,0.2l0.6,0.1c-45.5,35.8-75.5,44.7-82.9,46.5l2.1-2.1
		c-1,0.8-1.9,1.5-2.8,2.2c-0.7,0.1-1,0.2-1,0.2l0.6,0.1C54.2,88.7,24.3,97.6,16.9,99.4l2.1-2.1c-1,0.8-1.9,1.5-2.8,2.2
		c-0.7,0.1-1,0.2-1,0.2l0.6,0.1c-5.3,4.1-10.3,7.9-15.2,11.4v4.5L16.3,100l24.6,3.7c5.7,0.9,8.6,0.3,13-4.1L100.3,53l24.6,3.7
		c5.7,0.9,8.6,0.3,13-4.1l46.5-46.5L209,9.7c5.7,0.9,8.6,0.3,13-4.1l5.6-5.6h-26.5c-8,3.3-13.4,4.8-16.1,5.5L187,3.4z"/>
	<path fill="#002A3A" d="M218.7,8.9c-1,0.8-1.9,1.5-2.8,2.2c-0.7,0.1-1,0.2-1,0.2l0.6,0.1C170,47.2,140,56.1,132.6,57.9l2.1-2.1
		c-1,0.8-1.9,1.5-2.8,2.2c-0.7,0.1-1,0.2-1,0.2l0.6,0.1c-45.5,35.8-75.5,44.7-82.9,46.5l2.1-2.1c-1,0.8-1.9,1.5-2.8,2.2
		c-0.7,0.1-1,0.2-1,0.2l0.6,0.1c-18.3,14.4-34,24.4-46.9,31.4v16.1c0.3-0.3,0.6-0.6,0.9-0.9l46.5-46.5l24.6,3.7
		c1.1,0.2,2,0.3,2.9,0.3c0.6,0,1.2,0,1.7,0c0.8,0,1.6-0.2,2.3-0.4c1.2-0.4,2.4-1,3.7-1.9c0.7-0.6,1.5-1.3,2.4-2.1L132,58.5l24.6,3.7
		c5.7,0.9,8.6,0.3,13-4.1l46.5-46.5l24.6,3.7c0.4,0.1,0.7,0.1,1,0.1c0.7,0.1,1.3,0.1,1.9,0.2c3.9,0.2,6.4-0.8,10-4.4l11-11h-20
		c-14.6,7.2-24.2,10-28,10.9L218.7,8.9z"/>
	<path fill="#002A3A" d="M557.1,190.1c-1,0.8-1.9,1.5-2.8,2.2c-0.7,0.1-1,0.2-1,0.2l0.6,0.1c-45.5,35.8-75.5,44.7-82.9,46.5l2.1-2.1
		c-1,0.8-1.9,1.5-2.8,2.2c-0.7,0.1-1,0.2-1,0.2l0.6,0.1c-45.5,35.8-75.5,44.7-82.9,46.5l2.1-2.1c-1,0.8-1.9,1.5-2.8,2.2
		c-0.7,0.1-1,0.2-1,0.2l0.6,0.1c-5.7,4.4-11.1,8.5-16.3,12.2c-6.1,4.3-11.9,8.2-17.3,11.5c-5.4,3.3-10.4,6.2-15,8.7
		c-3.5,1.9-6.7,3.5-9.7,4.9c-5,2.4-9.3,4.2-13,5.5c-1.5,0.5-2.8,1-4,1.4c-3.5,1.2-6,1.9-7.6,2.2l2.1-2.1c-1,0.8-1.9,1.5-2.8,2.2
		c-0.7,0.1-1,0.2-1,0.2l0.6,0.1c-45.5,35.8-75.5,44.7-82.9,46.5l2.1-2.1c-1,0.8-1.9,1.5-2.8,2.2c-0.7,0.1-1,0.2-1,0.2l0.6,0.1
		c-45.5,35.8-75.5,44.7-82.9,46.5l2.1-2.1c-1,0.8-1.9,1.5-2.8,2.2c-0.7,0.1-1,0.2-1,0.2l0.6,0.1C88,463.1,58,472.1,50.6,473.8
		l2.1-2.1c-1,0.8-1.9,1.5-2.8,2.2c-0.7,0.1-1,0.2-1,0.2l0.6,0.1c-19.3,15.2-35.8,25.5-49,32.5v16.7c1-0.7,2-1.5,3.1-2.6l46.5-46.5
		l24.6,3.7c5.7,0.9,8.6,0.3,13-4.1l46.5-46.5l24.6,3.7c5.7,0.9,8.6,0.3,13-4.1l46.5-46.5l24.6,3.7c5.7,0.9,8.6,0.3,13-4.1l46.5-46.5
		l24.6,3.7c5.7,0.9,8.6,0.3,13-4.1l46.5-46.5l24.6,3.7c5.7,0.9,8.6,0.3,13-4.1l46.5-46.5l24.6,3.7c5.7,0.9,8.6,0.3,13-4.1l46.5-46.5
		l5,0.8v-2.6c-1.9,0.6-3.4,1-4.5,1.2L557.1,190.1z"/>
	<path fill="#002A3A" d="M250.4,14.3c-1,0.8-1.9,1.5-2.8,2.2c-0.7,0.1-1,0.2-1,0.2l0.6,0.1c-45.5,35.8-75.5,44.7-82.9,46.5l2.1-2.1
		c-1,0.8-1.9,1.5-2.8,2.2c-0.7,0.1-1,0.2-1,0.2l0.6,0.1c-45.5,35.8-75.5,44.7-82.9,46.5l2.1-2.1c-1,0.8-1.9,1.5-2.8,2.2
		c-0.7,0.1-1,0.2-1,0.2l0.6,0.1c-39.2,30.8-66.9,41.7-78.5,45.3v2.5l19.6,2.9c5.7,0.9,8.6,0.3,13-4.1l46.5-46.5l24.6,3.7
		c5.7,0.9,8.6,0.3,13-4.1l46.5-46.5l24.6,3.7c5.7,0.9,8.6,0.3,13-4.1L247.7,17l24.6,3.7c5.7,0.9,8.6,0.3,13-4.1L301.8,0h-15.1
		c-20.4,11.4-33.8,15.3-38.4,16.4L250.4,14.3z"/>
	<path fill="#002A3A" d="M535.3,63.4c-1,0.8-1.9,1.5-2.8,2.2c-0.7,0.1-1,0.2-1,0.2L532,66c-45.5,35.8-75.5,44.7-82.9,46.5l2.1-2.1
		c-1,0.8-1.9,1.5-2.8,2.2c-0.7,0.1-1,0.2-1,0.2l0.6,0.1c-45.5,35.8-75.5,44.7-82.9,46.5l2.1-2.1c-1,0.8-1.9,1.5-2.8,2.2
		c-0.7,0.1-1,0.2-1,0.2l0.6,0.1c-45.5,35.8-75.5,44.7-82.9,46.5l2.1-2.1c-1,0.8-1.9,1.5-2.8,2.2c-0.7,0.1-1,0.2-1,0.2l0.6,0.1
		c-45.5,35.8-75.5,44.7-82.9,46.5l2.1-2.1c-1,0.8-1.9,1.5-2.8,2.2c-0.7,0.1-1,0.2-1,0.2l0.6,0.1c-9,7.1-17.5,13.1-25.2,18.3
		c-2.9,1.9-5.7,3.7-8.4,5.4s-5.3,3.2-7.8,4.7c-8.8,5.1-16.4,8.8-22.6,11.5c-0.9,0.4-1.8,0.8-2.6,1.1c-8.1,3.4-13.6,4.9-16.3,5.6
		l2.1-2.1c-1,0.8-1.9,1.5-2.8,2.2c-0.7,0.1-1,0.2-1,0.2l0.6,0.1c-45.5,35.8-75.5,44.7-82.9,46.5l2.1-2.1c-1,0.8-1.9,1.5-2.8,2.2
		c-0.7,0.1-1,0.2-1,0.2l0.6,0.1c-7.3,5.8-14.3,10.9-20.8,15.3c-2.2,1.5-4.3,2.9-6.4,4.2v8.3l27.8-27.8l24.6,3.7
		c5.7,0.9,8.6,0.3,13-4.1l46.5-46.5l24.6,3.7c1.8,0.3,3.3,0.4,4.7,0.3c0.8,0,1.6-0.2,2.3-0.4c0.5-0.1,1-0.3,1.5-0.6
		c1.4-0.7,2.9-1.8,4.6-3.5l46.5-46.5l24.6,3.7c5.7,0.9,8.6,0.3,13-4.1l46.5-46.5l24.6,3.7c0.4,0.1,0.7,0.1,1,0.1
		c0.7,0.1,1.3,0.1,1.9,0.2c3.9,0.2,6.4-0.8,10-4.4l46.5-46.5l24.6,3.7c5.7,0.9,8.6,0.3,13-4.1l46.5-46.5l24.6,3.7
		c5.7,0.9,8.6,0.3,13-4.1l46.5-46.5l24.6,3.7c0.8,0.1,1.6,0.2,2.3,0.3V55.4c-13.6,6.6-22.7,9.2-26.3,10.1L535.3,63.4z"/>
	<path fill="#002A3A" d="M546.2,126.7c-1,0.8-1.9,1.5-2.8,2.2c-0.7,0.1-1,0.2-1,0.2l0.6,0.1c-45.5,35.8-75.5,44.7-82.9,46.5l2.1-2.1
		c-1,0.8-1.9,1.5-2.8,2.2c-0.7,0.1-1,0.2-1,0.2l0.6,0.1c-45.5,35.8-75.5,44.7-82.9,46.5l2.1-2.1c-1,0.8-1.9,1.5-2.8,2.2
		c-0.7,0.1-1,0.2-1,0.2l0.6,0.1c-45.5,35.8-75.5,44.7-82.9,46.5l2.1-2.1c-1,0.8-1.9,1.5-2.8,2.2c-0.7,0.1-1,0.2-1,0.2l0.6,0.1
		c-45.5,35.8-75.5,44.7-82.9,46.5l2.1-2.1c-1,0.8-1.9,1.5-2.8,2.2c-0.7,0.1-1,0.2-1,0.2l0.6,0.1c-45.5,35.8-75.5,44.7-82.9,46.5
		l2.1-2.1c-1,0.8-1.9,1.5-2.8,2.2c-0.7,0.1-1,0.2-1,0.2l0.6,0.1c-45.5,35.8-75.5,44.7-82.9,46.5l2.1-2.1c-1,0.8-1.9,1.5-2.8,2.2
		c-0.7,0.1-1,0.2-1,0.2l0.6,0.1c-14.3,11.2-27.1,19.8-38.1,26.4v12.4l38.7-38.7l24.6,3.7c5.7,0.9,8.6,0.3,13-4.1l46.5-46.5l24.6,3.7
		c5.7,0.9,8.6,0.3,13-4.1l46.5-46.5l24.6,3.7c5.7,0.9,8.6,0.3,13-4.1l46.5-46.5l24.6,3.7c5.7,0.9,8.6,0.3,13-4.1l46.5-46.5L400,227
		c5.7,0.9,8.6,0.3,13-4.1l46.5-46.5L484,180c5.7,0.9,8.6,0.3,13-4.1l46.5-46.5l15.9,2.4v-8.1c-7.6,3.1-12.8,4.6-15.4,5.2
		L546.2,126.7z"/>
	<path fill="#002A3A" d="M345.3,30.7c-1,0.8-1.9,1.5-2.8,2.2c-0.7,0.1-1,0.2-1,0.2l0.6,0.1c-45.5,35.8-75.5,44.7-82.9,46.5l2.1-2.1
		c-1,0.8-1.9,1.5-2.8,2.2c-0.7,0.1-1,0.2-1,0.2l0.6,0.1c-7.3,5.8-14.3,10.9-20.8,15.3c-3,2-5.9,4-8.7,5.7
		c-5.6,3.6-10.8,6.7-15.6,9.4c-4.8,2.7-9.2,4.9-13.2,6.8c-2,0.9-3.9,1.8-5.7,2.6c-9.5,4.1-16,6-18.9,6.7l2.1-2.1
		c-1,0.8-1.9,1.5-2.8,2.2c-0.7,0.1-1,0.2-1,0.2l0.6,0.1c-45.5,35.8-75.5,44.7-82.9,46.5l2.1-2.1c-1,0.8-1.9,1.5-2.8,2.2
		c-0.7,0.1-1,0.2-1,0.2l0.6,0.1C44.4,209.9,14.4,218.8,7,220.6l2.1-2.1c-1,0.8-1.9,1.5-2.8,2.2c-0.7,0.1-1,0.2-1,0.2l0.6,0.1
		c-1.8,1.4-3.6,2.8-5.4,4.1v1.9l5.9-5.9l24.6,3.7c3.6,0.5,6,0.5,8.4-0.6c1.4-0.7,2.9-1.8,4.6-3.5l46.5-46.5l24.6,3.7
		c5.7,0.9,8.6,0.3,13-4.1l46.5-46.5l24.6,3.7c5.7,0.9,8.6,0.3,13-4.1l46.5-46.5l24.6,3.7c5.7,0.9,8.6,0.3,13-4.1l46.5-46.5l24.6,3.7
		c3.6,0.5,6,0.5,8.4-0.6c1.4-0.7,2.9-1.8,4.6-3.5L413.1,0h-5.5c-35.1,24.4-58,31.2-64.4,32.7L345.3,30.7z"/>
	<path fill="#002A3A" d="M428.4,12.8c-4.2,2.7-8.2,5.1-11.9,7.3c-3.8,2.2-7.3,4.1-10.6,5.8c-1.1,0.6-2.2,1.1-3.2,1.6
		c-14.4,7.1-23.9,9.8-27.6,10.7l2.1-2.1c-1,0.8-1.9,1.5-2.8,2.2c-0.7,0.1-1,0.2-1,0.2l0.6,0.1c-45.5,35.8-75.5,44.7-82.9,46.5
		l2.1-2.1c-1,0.8-1.9,1.5-2.8,2.2c-0.7,0.1-1,0.2-1,0.2l0.6,0.1c-45.5,35.8-75.5,44.7-82.9,46.5l2.1-2.1c-1,0.8-1.9,1.5-2.8,2.2
		c-0.7,0.1-1,0.2-1,0.2l0.6,0.1c-45.5,35.8-75.5,44.7-82.9,46.5l2.1-2.1c-1,0.8-1.9,1.5-2.8,2.2c-0.7,0.1-1,0.2-1,0.2l0.6,0.1
		c-45.5,35.8-75.5,44.7-82.9,46.5l2.1-2.1c-1,0.8-1.9,1.5-2.8,2.2c-0.7,0.1-1,0.2-1,0.2l0.6,0.1c-13.8,10.9-26.2,19.3-37,25.7v12
		l37.6-37.6l24.6,3.7c1.4,0.2,2.7,0.3,3.8,0.3c3.4,0,5.8-1.1,9.2-4.5l46.5-46.5l24.6,3.7c5.7,0.9,8.6,0.3,13-4.1l46.5-46.5l24.6,3.7
		c1.8,0.3,3.3,0.4,4.7,0.3c0.5,0,1.1-0.1,1.6-0.2c0.5-0.1,1-0.3,1.5-0.4s1-0.4,1.5-0.7c0.2-0.1,0.5-0.3,0.7-0.5
		c0.5-0.3,1-0.7,1.5-1.2s1-0.9,1.6-1.5l46.5-46.5l24.6,3.7c5.7,0.9,8.6,0.3,13-4.1l46.5-46.5l24.6,3.7c3.2,0.5,5.5,0.5,7.7-0.3
		c1.7-0.7,3.3-1.9,5.3-3.8L450.2,0h-3.3c-3.4,2.5-6.7,4.8-9.9,7C434,9.1,431.2,11,428.4,12.8z"/>
</g>
</svg>
